<svg width="29" height="23" viewBox="0 0 29 23" fill="none" xmlns="http://www.w3.org/2000/svg">
<path fill-rule="evenodd" clip-rule="evenodd" d="M7.06405 4.88208H27.9351C28.4703 5.09906 28.8984 5.64151 28.7914 6.18396L27.3999 13.8868C27.2929 14.3208 26.8648 14.7547 26.4367 14.7547L8.99061 16.4906H8.88358C8.34842 16.4906 7.9203 16.1651 7.81327 15.7311L3.85312 2.16981H1.07031C0.428124 2.16981 0 1.73585 0 1.08491C0 0.433962 0.428124 0 1.07031 0H4.70937C5.13749 0 5.56561 0.325472 5.67265 0.759434L7.06405 4.88208ZM11.5598 23.0001C12.8602 23.0001 13.9144 21.9315 13.9144 20.6134C13.9144 19.2952 12.8602 18.2266 11.5598 18.2266C10.2593 18.2266 9.20508 19.2952 9.20508 20.6134C9.20508 21.9315 10.2593 23.0001 11.5598 23.0001ZM22.798 23.0001C24.0985 23.0001 25.1527 21.9315 25.1527 20.6134C25.1527 19.2952 24.0985 18.2266 22.798 18.2266C21.4976 18.2266 20.4434 19.2952 20.4434 20.6134C20.4434 21.9315 21.4976 23.0001 22.798 23.0001Z" fill="white"/>
</svg>
