<svg width="32" height="32" viewBox="0 0 32 32" fill="none" xmlns="http://www.w3.org/2000/svg">
<path fill-rule="evenodd" clip-rule="evenodd" d="M9.06405 8.88208H29.9351C30.4703 9.09906 30.8984 9.64151 30.7914 10.184L29.3999 17.8868C29.2929 18.3208 28.8648 18.7547 28.4367 18.7547L10.9906 20.4906H10.8836C10.3484 20.4906 9.9203 20.1651 9.81327 19.7311L5.85312 6.16981H3.07031C2.42812 6.16981 2 5.73585 2 5.08491C2 4.43396 2.42812 4 3.07031 4H6.70937C7.13749 4 7.56561 4.32547 7.67265 4.75943L9.06405 8.88208ZM13.5598 27.0001C14.8602 27.0001 15.9144 25.9315 15.9144 24.6134C15.9144 23.2952 14.8602 22.2266 13.5598 22.2266C12.2593 22.2266 11.2051 23.2952 11.2051 24.6134C11.2051 25.9315 12.2593 27.0001 13.5598 27.0001ZM24.798 27.0001C26.0985 27.0001 27.1527 25.9315 27.1527 24.6134C27.1527 23.2952 26.0985 22.2266 24.798 22.2266C23.4976 22.2266 22.4434 23.2952 22.4434 24.6134C22.4434 25.9315 23.4976 27.0001 24.798 27.0001Z" fill="white"/>
</svg>
