<svg width="32" height="32" viewBox="0 0 32 32" fill="none" xmlns="http://www.w3.org/2000/svg">
<g opacity="0.5">
<path d="M8.18135 23.5515C8.80143 23.5515 9.30411 23.0835 9.30411 22.5062C9.30411 21.9289 8.80143 21.4609 8.18135 21.4609C7.56127 21.4609 7.05859 21.9289 7.05859 22.5062C7.05859 23.0835 7.56127 23.5515 8.18135 23.5515Z" fill="#364063"/>
<path d="M9.49123 16.4062H7.05859V17.1031H9.49123V16.4062Z" fill="#364063"/>
<path d="M16.4138 23.5515C17.0339 23.5515 17.5365 23.0835 17.5365 22.5062C17.5365 21.9289 17.0339 21.4609 16.4138 21.4609C15.7937 21.4609 15.291 21.9289 15.291 22.5062C15.291 23.0835 15.7937 23.5515 16.4138 23.5515Z" fill="#364063"/>
<path d="M17.7237 16.4062H15.291V17.1031H17.7237V16.4062Z" fill="#364063"/>
<path d="M24.6481 23.5515C25.2682 23.5515 25.7709 23.0835 25.7709 22.5062C25.7709 21.9289 25.2682 21.4609 24.6481 21.4609C24.0281 21.4609 23.5254 21.9289 23.5254 22.5062C23.5254 23.0835 24.0281 23.5515 24.6481 23.5515Z" fill="#364063"/>
<path d="M10.7073 6.48438H5.65494C5.28069 6.48438 5 6.83281 5 7.18124V27.129C5 27.4774 5.28069 27.7387 5.65494 27.7387H10.7073C11.0816 27.7387 11.3623 27.4774 11.3623 27.129V7.18124C11.4558 6.83281 11.0816 6.48438 10.7073 6.48438ZM10.3331 9.44605V10.3171H6.12276V9.44605H10.3331ZM6.12276 10.9269H10.2395V18.5053H6.12276V10.9269ZM8.18114 24.7771C6.7777 24.7771 5.7485 23.7318 5.7485 22.5122C5.7485 21.2056 6.87126 20.2474 8.18114 20.2474C9.49102 20.2474 10.6138 21.2927 10.6138 22.5122C10.7073 23.7318 9.58459 24.7771 8.18114 24.7771Z" fill="#364063"/>
<path d="M18.9398 5H13.8874C13.5131 5 13.2324 5.26132 13.2324 5.60976V27.0383C13.2324 27.3868 13.5131 27.6481 13.8874 27.6481H18.9398C19.314 27.6481 19.5947 27.3868 19.5947 27.0383V5.60976C19.6883 5.26132 19.314 5 18.9398 5ZM18.4719 6.30662V7.96167H14.3552V6.30662H18.4719ZM14.3552 10.9233H18.4719V18.5017H14.3552V10.9233ZM14.3552 10.2265V8.65854H18.4719V10.2265H14.3552ZM16.4136 24.7735C15.0101 24.7735 13.9809 23.7282 13.9809 22.5087C13.9809 21.2021 15.1037 20.2439 16.4136 20.2439C17.817 20.2439 18.8462 21.2892 18.8462 22.5087C18.9398 23.7282 17.817 24.7735 16.4136 24.7735Z" fill="#364063"/>
<path d="M27.1741 6.48438H22.1217C21.7475 6.48438 21.4668 6.7457 21.4668 7.09413V27.0419C21.4668 27.3903 21.7475 27.6516 22.1217 27.6516H27.1741C27.5484 27.6516 27.8291 27.3903 27.8291 27.0419V7.18124C27.9226 6.83281 27.5484 6.48438 27.1741 6.48438ZM22.5896 11.798H26.7063V18.5924H22.5896V11.798ZM24.2737 9.44605V11.1011H22.5896V9.44605H24.2737ZM24.6479 24.7771C23.2445 24.7771 22.2153 23.7318 22.2153 22.5122C22.2153 21.2056 23.3381 20.2474 24.6479 20.2474C26.0514 20.2474 27.0806 21.2927 27.0806 22.5122C27.1741 23.7318 26.0514 24.7771 24.6479 24.7771Z" fill="#364063"/>
<path d="M25.8643 16.4062H23.4316V17.1031H25.8643V16.4062Z" fill="#364063"/>
</g>
</svg>
