<svg width="23" height="23" viewBox="0 0 23 23" fill="none" xmlns="http://www.w3.org/2000/svg">
<path d="M3.18135 18.5515C3.80143 18.5515 4.30411 18.0835 4.30411 17.5062C4.30411 16.9289 3.80143 16.4609 3.18135 16.4609C2.56127 16.4609 2.05859 16.9289 2.05859 17.5062C2.05859 18.0835 2.56127 18.5515 3.18135 18.5515Z" fill="#364063"/>
<path d="M4.49123 11.4062H2.05859V12.1031H4.49123V11.4062Z" fill="#364063"/>
<path d="M11.4138 18.5515C12.0339 18.5515 12.5365 18.0835 12.5365 17.5062C12.5365 16.9289 12.0339 16.4609 11.4138 16.4609C10.7937 16.4609 10.291 16.9289 10.291 17.5062C10.291 18.0835 10.7937 18.5515 11.4138 18.5515Z" fill="#364063"/>
<path d="M12.7237 11.4062H10.291V12.1031H12.7237V11.4062Z" fill="#364063"/>
<path d="M19.6481 18.5515C20.2682 18.5515 20.7709 18.0835 20.7709 17.5062C20.7709 16.9289 20.2682 16.4609 19.6481 16.4609C19.0281 16.4609 18.5254 16.9289 18.5254 17.5062C18.5254 18.0835 19.0281 18.5515 19.6481 18.5515Z" fill="#364063"/>
<path d="M5.70734 1.48438H0.654941C0.280689 1.48438 0 1.83281 0 2.18124V22.129C0 22.4774 0.280689 22.7387 0.654941 22.7387H5.70734C6.08159 22.7387 6.36228 22.4774 6.36228 22.129V2.18124C6.45585 1.83281 6.08159 1.48438 5.70734 1.48438ZM5.33309 4.44605V5.31713H1.12276V4.44605H5.33309ZM1.12276 5.92688H5.23953V13.5053H1.12276V5.92688ZM3.18114 19.7771C1.7777 19.7771 0.748504 18.7318 0.748504 17.5122C0.748504 16.2056 1.87126 15.2474 3.18114 15.2474C4.49102 15.2474 5.61378 16.2927 5.61378 17.5122C5.70734 18.7318 4.58459 19.7771 3.18114 19.7771Z" fill="#364063"/>
<path d="M13.9398 0H8.88736C8.51311 0 8.23242 0.261324 8.23242 0.609756V22.0383C8.23242 22.3868 8.51311 22.6481 8.88736 22.6481H13.9398C14.314 22.6481 14.5947 22.3868 14.5947 22.0383V0.609756C14.6883 0.261324 14.314 0 13.9398 0ZM13.4719 1.30662V2.96167H9.35518V1.30662H13.4719ZM9.35518 5.92334H13.4719V13.5017H9.35518V5.92334ZM9.35518 5.22648V3.65854H13.4719V5.22648H9.35518ZM11.4136 19.7735C10.0101 19.7735 8.98093 18.7282 8.98093 17.5087C8.98093 16.2021 10.1037 15.2439 11.4136 15.2439C12.817 15.2439 13.8462 16.2892 13.8462 17.5087C13.9398 18.7282 12.817 19.7735 11.4136 19.7735Z" fill="#364063"/>
<path d="M22.1741 1.48438H17.1217C16.7475 1.48438 16.4668 1.7457 16.4668 2.09413V22.0419C16.4668 22.3903 16.7475 22.6516 17.1217 22.6516H22.1741C22.5484 22.6516 22.8291 22.3903 22.8291 22.0419V2.18124C22.9226 1.83281 22.5484 1.48438 22.1741 1.48438ZM17.5896 6.79796H21.7063V13.5924H17.5896V6.79796ZM19.2737 4.44605V6.1011H17.5896V4.44605H19.2737ZM19.6479 19.7771C18.2445 19.7771 17.2153 18.7318 17.2153 17.5122C17.2153 16.2056 18.3381 15.2474 19.6479 15.2474C21.0514 15.2474 22.0806 16.2927 22.0806 17.5122C22.1741 18.7318 21.0514 19.7771 19.6479 19.7771Z" fill="#364063"/>
<path d="M20.8643 11.4062H18.4316V12.1031H20.8643V11.4062Z" fill="#364063"/>
</svg>
