<svg width="22" height="21" viewBox="0 0 22 21" fill="none" xmlns="http://www.w3.org/2000/svg">
<path d="M3.79812 19.7312L20.1323 3.397C20.7687 2.7606 20.7687 1.77065 20.1323 1.13425C19.4959 0.497858 18.506 0.497863 17.8696 1.13426L1.53538 17.4684C0.898988 18.1048 0.899004 19.0948 1.5354 19.7312C2.1718 20.3675 3.16173 20.3676 3.79812 19.7312Z" fill="white"/>
<path d="M19.7292 17.4655L3.39505 1.13138C2.75865 0.494979 1.7687 0.494974 1.1323 1.13137C0.495906 1.76777 0.495909 2.75772 1.1323 3.39412L17.4665 19.7283C18.1029 20.3647 19.0928 20.3647 19.7292 19.7283C20.3656 19.0919 20.3656 18.1019 19.7292 17.4655Z" fill="white"/>
</svg>
