<svg width="27" height="25" viewBox="0 0 27 25" fill="none" xmlns="http://www.w3.org/2000/svg">
<g opacity="0.5">
<path d="M19.9289 17.8014C20.3967 16.669 20.9581 17.8014 22.8293 17.7143C25.3555 17.6272 27.1332 15.7979 26.759 13.5331C26.0105 9.52613 21.8937 11.007 21.8002 9.96167C21.7066 8.1324 20.6774 7 19.0868 7C17.4962 7 6.73651 7 4.77169 7C1.49698 7 1.96479 9.52613 1.77766 10.7456C1.59054 12.0523 2.43259 16.0592 3.9296 17.9756C5.80086 20.3275 9.26271 22.2439 8.04639 22.2439C6.83007 22.2439 3.55539 22.2439 0 22.2439C0.654941 23.3763 2.15193 24.5087 4.77169 24.5087C8.7949 24.5087 13.3795 24.5087 19.0868 24.5087C23.3907 24.5087 23.5778 22.2439 23.5778 22.2439C23.5778 22.2439 18.619 22.2439 16.0928 22.2439C13.5666 22.2439 18.619 20.8502 19.9289 17.8014ZM23.0165 12.4878C23.9521 12.4878 24.7006 13.1847 24.7006 14.0557C24.7006 14.9268 23.9521 15.6237 23.0165 15.6237C22.0808 15.6237 21.3323 14.9268 21.3323 14.0557C21.3323 13.1847 22.0808 12.4878 23.0165 12.4878ZM6.45581 16.1463C6.08156 15.2753 5.52017 14.1429 5.33304 12.2265C5.05235 9.52613 7.39146 9.43902 7.76572 10.4843C8.13997 11.5296 8.60776 13.6202 8.79489 15.2753C9.35626 19.1951 6.83006 17.0174 6.45581 16.1463Z" fill="#364063"/>
<path d="M13.2853 2.0336C13.0046 0.46566 9.91707 -0.753851 10.6656 0.552769C11.4141 1.85939 11.4141 3.51444 10.4784 5.2566C9.44924 7.08587 10.9462 8.56671 10.9462 8.56671C11.0398 5.60503 13.8467 5.43082 13.2853 2.0336Z" fill="#364063"/>
<path d="M13.6597 10.132C13.6597 10.132 14.9696 9.2609 14.5018 8.2156C13.9404 7.1703 14.2211 6.73476 14.4082 5.60236C14.5018 4.73128 12.6305 6.0379 12.7241 7.34452C12.8177 8.65114 13.7533 8.30271 13.6597 10.132Z" fill="#364063"/>
</g>
</svg>
