<svg width="32" height="32" viewBox="0 0 32 32" fill="none" xmlns="http://www.w3.org/2000/svg">
<g opacity="0.5">
<path d="M22.9289 21.8014C23.3967 20.669 23.9581 21.8014 25.8293 21.7143C28.3555 21.6272 30.1332 19.7979 29.759 17.5331C29.0105 13.5261 24.8937 15.007 24.8002 13.9617C24.7066 12.1324 23.6774 11 22.0868 11C20.4962 11 9.73651 11 7.77169 11C4.49698 11 4.96479 13.5261 4.77766 14.7456C4.59054 16.0523 5.43259 20.0592 6.9296 21.9756C8.80086 24.3275 12.2627 26.2439 11.0464 26.2439C9.83007 26.2439 6.55539 26.2439 3 26.2439C3.65494 27.3763 5.15193 28.5087 7.77169 28.5087C11.7949 28.5087 16.3795 28.5087 22.0868 28.5087C26.3907 28.5087 26.5778 26.2439 26.5778 26.2439C26.5778 26.2439 21.619 26.2439 19.0928 26.2439C16.5666 26.2439 21.619 24.8502 22.9289 21.8014ZM26.0165 16.4878C26.9521 16.4878 27.7006 17.1847 27.7006 18.0557C27.7006 18.9268 26.9521 19.6237 26.0165 19.6237C25.0808 19.6237 24.3323 18.9268 24.3323 18.0557C24.3323 17.1847 25.0808 16.4878 26.0165 16.4878ZM9.45581 20.1463C9.08156 19.2753 8.52017 18.1429 8.33304 16.2265C8.05235 13.5261 10.3915 13.439 10.7657 14.4843C11.14 15.5296 11.6078 17.6202 11.7949 19.2753C12.3563 23.1951 9.83006 21.0174 9.45581 20.1463Z" fill="#364063"/>
<path d="M16.2853 6.0336C16.0046 4.46566 12.9171 3.24615 13.6656 4.55277C14.4141 5.85939 14.4141 7.51444 13.4784 9.2566C12.4492 11.0859 13.9462 12.5667 13.9462 12.5667C14.0398 9.60503 16.8467 9.43082 16.2853 6.0336Z" fill="#364063"/>
<path d="M16.6597 14.132C16.6597 14.132 17.9696 13.2609 17.5018 12.2156C16.9404 11.1703 17.2211 10.7348 17.4082 9.60236C17.5018 8.73128 15.6305 10.0379 15.7241 11.3445C15.8177 12.6511 16.7533 12.3027 16.6597 14.132Z" fill="#364063"/>
</g>
</svg>
