<svg width="17" height="17" viewBox="0 0 17 17" fill="none" xmlns="http://www.w3.org/2000/svg">
<path d="M15.2356 12.6831H5.43184C4.89937 12.6831 4.49219 12.2759 4.49219 11.7434V1.93966C4.49219 1.40718 4.89937 1 5.43184 1H15.2356C15.7681 1 16.1752 1.40718 16.1752 1.93966V11.7434C16.1752 12.2445 15.7367 12.6831 15.2356 12.6831Z" stroke="#364063" stroke-width="0.5" stroke-miterlimit="10" stroke-linecap="round" stroke-linejoin="round"/>
<path d="M11.7434 16.1752H1.93966C1.40718 16.1752 1 15.7681 1 15.2356V5.43184C1 4.89937 1.40718 4.49219 1.93966 4.49219H11.7434C12.2759 4.49219 12.6831 4.89937 12.6831 5.43184V15.2356C12.6831 15.7367 12.2445 16.1752 11.7434 16.1752Z" stroke="#364063" stroke-width="0.5" stroke-miterlimit="10" stroke-linecap="round" stroke-linejoin="round"/>
</svg>
