<svg width="20" height="20" viewBox="0 0 20 20" fill="none" xmlns="http://www.w3.org/2000/svg">
<path fill-rule="evenodd" clip-rule="evenodd" d="M6.25714 1.75C6.03977 1.75 5.89258 1.89719 5.89258 2.11457V13.7432C5.89258 13.9606 6.03977 14.1078 6.25714 14.1078H17.8858C18.066 14.1078 18.2503 13.9234 18.2503 13.7432V2.11457C18.2503 1.89719 18.1032 1.75 17.8858 1.75H6.25714ZM4.39258 2.11457C4.39258 1.06876 5.21134 0.25 6.25714 0.25H17.8858C18.9316 0.25 19.7503 1.06876 19.7503 2.11457V13.7432C19.7503 14.7519 18.8944 15.6078 17.8858 15.6078H6.25714C5.21134 15.6078 4.39258 14.789 4.39258 13.7432V2.11457Z" fill="#364063"/>
<path fill-rule="evenodd" clip-rule="evenodd" d="M2.11457 5.89062C1.89719 5.89062 1.75 6.03782 1.75 6.25519V17.8838C1.75 18.1012 1.89719 18.2484 2.11457 18.2484H13.7432C13.9234 18.2484 14.1078 18.064 14.1078 17.8838V6.25519C14.1078 6.03782 13.9606 5.89062 13.7432 5.89062H2.11457ZM0.25 6.25519C0.25 5.20939 1.06876 4.39062 2.11457 4.39062H13.7432C14.789 4.39062 15.6078 5.20939 15.6078 6.25519V17.8838C15.6078 18.8925 14.7519 19.7484 13.7432 19.7484H2.11457C1.06876 19.7484 0.25 18.9296 0.25 17.8838V6.25519Z" fill="#364063"/>
</svg>
