<svg width="17" height="17" viewBox="0 0 17 17" fill="none" xmlns="http://www.w3.org/2000/svg">
<path fill-rule="evenodd" clip-rule="evenodd" d="M5.43184 1.25C5.03744 1.25 4.74219 1.54526 4.74219 1.93966V4.5C4.74219 4.63807 4.63026 4.75 4.49219 4.75C4.35412 4.75 4.24219 4.63807 4.24219 4.5V1.93966C4.24219 1.26911 4.7613 0.75 5.43184 0.75H15.2356C15.9061 0.75 16.4252 1.26911 16.4252 1.93966V11.7434C16.4252 12.3826 15.8748 12.9331 15.2356 12.9331H12.6973C12.5592 12.9331 12.4473 12.8211 12.4473 12.6831C12.4473 12.545 12.5592 12.4331 12.6973 12.4331H15.2356C15.5987 12.4331 15.9252 12.1065 15.9252 11.7434V1.93966C15.9252 1.54526 15.63 1.25 15.2356 1.25H5.43184Z" fill="#364063"/>
<path fill-rule="evenodd" clip-rule="evenodd" d="M1.93966 4.74219C1.54526 4.74219 1.25 5.03744 1.25 5.43184V15.2356C1.25 15.63 1.54526 15.9252 1.93966 15.9252H11.7434C12.1065 15.9252 12.4331 15.5987 12.4331 15.2356V5.43184C12.4331 5.03744 12.1378 4.74219 11.7434 4.74219H1.93966ZM0.75 5.43184C0.75 4.7613 1.26911 4.24219 1.93966 4.24219H11.7434C12.4139 4.24219 12.9331 4.7613 12.9331 5.43184V15.2356C12.9331 15.8748 12.3826 16.4252 11.7434 16.4252H1.93966C1.26911 16.4252 0.75 15.9061 0.75 15.2356V5.43184Z" fill="#364063"/>
</svg>
