<svg width="20" height="20" viewBox="0 0 20 20" fill="none" xmlns="http://www.w3.org/2000/svg">
<path d="M17.6358 14.6078H6.00714C5.37556 14.6078 4.89258 14.1248 4.89258 13.4932V1.86457C4.89258 1.23298 5.37556 0.75 6.00714 0.75H17.6358C18.2674 0.75 18.7503 1.23298 18.7503 1.86457V13.4932C18.7503 14.0876 18.2302 14.6078 17.6358 14.6078Z" fill="white"/>
<path fill-rule="evenodd" clip-rule="evenodd" d="M6.00714 1.5C5.78977 1.5 5.64258 1.64719 5.64258 1.86457V13.4932C5.64258 13.7106 5.78977 13.8578 6.00714 13.8578H17.6358C17.816 13.8578 18.0003 13.6734 18.0003 13.4932V1.86457C18.0003 1.64719 17.8532 1.5 17.6358 1.5H6.00714ZM4.14258 1.86457C4.14258 0.818765 4.96134 0 6.00714 0H17.6358C18.6816 0 19.5003 0.818765 19.5003 1.86457V13.4932C19.5003 14.5019 18.6444 15.3578 17.6358 15.3578H6.00714C4.96134 15.3578 4.14258 14.539 4.14258 13.4932V1.86457Z" fill="#364063"/>
<path d="M13.4932 18.7523H1.86457C1.23298 18.7523 0.75 18.2693 0.75 17.6377V6.0091C0.75 5.37751 1.23298 4.89453 1.86457 4.89453H13.4932C14.1248 4.89453 14.6078 5.37751 14.6078 6.0091V17.6377C14.6078 18.2322 14.0876 18.7523 13.4932 18.7523Z" fill="white"/>
<path fill-rule="evenodd" clip-rule="evenodd" d="M1.86457 5.64453C1.64719 5.64453 1.5 5.79172 1.5 6.0091V17.6377C1.5 17.8551 1.64719 18.0023 1.86457 18.0023H13.4932C13.6734 18.0023 13.8578 17.818 13.8578 17.6377V6.0091C13.8578 5.79172 13.7106 5.64453 13.4932 5.64453H1.86457ZM0 6.0091C0 4.9633 0.818765 4.14453 1.86457 4.14453H13.4932C14.539 4.14453 15.3578 4.9633 15.3578 6.0091V17.6377C15.3578 18.6464 14.5019 19.5023 13.4932 19.5023H1.86457C0.818765 19.5023 0 18.6835 0 17.6377V6.0091Z" fill="#364063"/>
</svg>
