<svg width="30" height="26" viewBox="0 0 30 26" fill="none" xmlns="http://www.w3.org/2000/svg">
<path d="M30 7.20843C30 8.92618 29.6381 10.3985 29.0351 11.8709C28.4321 13.3433 27.7086 14.5702 26.7438 15.7972C26.0202 16.7788 25.2965 17.6376 24.4523 18.4965C23.0051 20.0916 21.4372 21.4412 19.7488 22.7909C18.3015 23.8952 16.8543 24.8767 15.4071 25.8583C15.1659 25.981 14.9247 26.1037 14.6835 25.8583C12.8745 24.7541 11.186 23.5271 9.49753 22.1774C8.5327 21.4412 7.68854 20.5824 6.84433 19.8462C5.51769 18.4965 4.19095 17.1469 3.10552 15.5518C2.0201 14.0794 1.17591 12.3617 0.572893 10.6439C0.331687 9.90775 0.211055 9.29427 0.0904521 8.55809C-0.0301507 7.94461 -0.0301507 7.33112 0.0904521 6.71764C0.211055 5.61337 0.452319 4.6318 1.05533 3.65022C2.02016 1.93247 3.46739 0.828203 5.27643 0.337417C6.12065 0.0920234 7.08553 -0.0306742 8.05035 0.0920225C9.85939 0.337416 11.3065 1.0736 12.6332 2.30056C13.1156 2.91405 13.598 3.52753 13.9598 4.14101C14.0804 4.26371 14.0805 4.38641 14.2011 4.6318C14.3217 4.99989 14.6834 5.12259 15.0452 5.12259C15.407 5.12259 15.7689 4.99989 15.8895 4.6318C16.0101 4.26371 16.2513 3.89562 16.4925 3.52753C17.578 1.68708 19.2664 0.582809 21.3167 0.0920225C22.0403 -0.0306742 22.8844 -0.0306742 23.608 0.0920225C24.814 0.214719 25.8995 0.705506 26.8644 1.44169C28.4322 2.54596 29.2764 4.01832 29.7589 5.85877C29.8795 6.22686 30 6.71764 30 7.20843Z" fill="#E83906"/>
</svg>
