<svg width="32" height="32" viewBox="0 0 32 32" fill="none" xmlns="http://www.w3.org/2000/svg">
<path d="M28.5516 10.3991C28.157 8.67949 27.2691 7.36449 25.8879 6.35294C25 5.74601 24.0135 5.3414 22.9283 5.13909C22.139 5.03793 21.4484 5.03793 20.7579 5.13909C18.7848 5.54371 17.3049 6.55525 16.3184 8.27488C16.2197 8.47719 16.0224 8.78065 15.9238 8.98296L15.8251 9.18527H15.7265L15.5291 8.78065C15.2332 8.07257 14.8386 7.56679 14.3453 7.06102C13.2601 5.94832 11.8789 5.24024 10.3004 5.03793C9.41256 4.93678 8.62332 5.03793 7.73543 5.3414C6.0583 5.84717 4.77578 6.85871 3.88789 8.37603C3.39462 9.28642 3.09865 10.298 3 11.3095C3 11.8153 3 12.4222 3 12.928C3.09865 13.5349 3.19731 14.1418 3.39462 14.7488C3.78924 16.1649 4.47982 17.5811 5.56502 18.9973C6.45292 20.3123 7.43946 21.425 8.72197 22.6388C9.41256 23.3469 10.2018 24.055 10.991 24.6619C12.2735 25.7746 13.6547 26.7861 15.2332 27.7977C15.4305 27.8988 15.7265 28 15.9238 28C16.1211 28 16.417 27.8988 16.6144 27.7977C17.9955 26.8873 19.1794 26.0781 20.2646 25.1677C21.7444 23.9538 23.0269 22.74 24.1121 21.6273C24.8027 20.818 25.4933 20.11 25.9866 19.3007C26.7758 18.188 27.4664 17.0753 27.861 15.8615C28.4529 14.4453 28.6502 13.2314 28.6502 11.8153C28.7489 11.4107 28.6502 10.9049 28.5516 10.3991Z" fill="white"/>
</svg>
