<svg width="32" height="32" viewBox="0 0 32 32" fill="none" xmlns="http://www.w3.org/2000/svg">
<g opacity="0.5">
<path fill-rule="evenodd" clip-rule="evenodd" d="M21.9951 5.74799C20.4632 6.11451 19.2584 6.9105 18.4827 8.20341L18.4723 8.22063L18.4612 8.23733C18.2406 8.56815 18.1098 8.77502 18.0508 8.95193C17.7718 9.78897 16.9593 9.93589 16.538 9.93589C16.127 9.93589 15.3445 9.79615 15.0471 9.01332C15.0203 8.95674 14.9992 8.90654 14.9819 8.86333C14.9741 8.8438 14.967 8.82559 14.9611 8.81028L14.9521 8.80126L14.8987 8.71219C14.6374 8.2768 14.2848 7.83005 13.8868 7.33229C12.8984 6.44776 11.847 5.93345 10.5281 5.75694C9.84909 5.67255 9.15217 5.75646 8.52742 5.93494L8.52025 5.93698L8.51305 5.9389C7.20158 6.28863 6.16746 7.06345 5.46676 8.28968L5.4585 8.30413L5.44968 8.31825C5.03045 8.98901 4.85211 9.66766 4.75872 10.5081L4.75467 10.5446L4.74747 10.5806C4.66751 10.98 4.66751 11.3762 4.74747 11.7757L4.75015 11.7891L4.7524 11.8026C4.85058 12.3917 4.9433 12.8496 5.1248 13.3959C5.61087 14.7546 6.28551 16.0972 7.13904 17.2353L7.14864 17.2481L7.15776 17.2612C8.01741 18.5029 9.07308 19.5642 10.1925 20.6837C10.4659 20.9188 10.7195 21.1489 10.9677 21.3743C11.4214 21.7861 11.8572 22.1817 12.3635 22.5613L12.371 22.567L12.3785 22.5729C13.7406 23.6431 15.0934 24.6116 16.5307 25.4834C17.6983 24.7048 18.8466 23.9349 19.9928 23.0758C21.4007 21.9693 22.6807 20.8836 23.8551 19.6114L23.8665 19.599L23.8784 19.587C24.5602 18.9053 25.1449 18.2236 25.7335 17.4388L25.7414 17.4282L25.7497 17.4179C26.5159 16.4601 27.0854 15.5103 27.563 14.3642C28.0377 13.2247 28.3121 12.1143 28.3121 10.822C28.3121 10.5425 28.2396 10.2325 28.152 9.96949L28.1438 9.94501L28.1372 9.92008C27.7689 8.53909 27.1513 7.50952 26.0299 6.73318L26.0167 6.72406L26.0039 6.71445C25.2904 6.17933 24.5173 5.84355 23.6787 5.75969L23.6512 5.75694L23.6239 5.75238C23.1142 5.66736 22.5081 5.6659 21.9951 5.74799ZM23.8742 4.08339C23.1782 3.97073 22.3839 3.97222 21.6906 4.08788L21.6632 4.09245L21.6361 4.09881C19.728 4.54779 18.098 5.57615 17.0464 7.31736C17.0417 7.32437 17.037 7.33145 17.0322 7.33861C16.8799 7.56671 16.6782 7.86877 16.5344 8.19923C16.5276 8.18139 16.519 8.15933 16.5073 8.13008C16.4723 8.04237 16.415 7.91266 16.3051 7.77721C15.9762 7.24271 15.5585 6.72064 15.1805 6.24816L15.1199 6.17242L15.0704 6.12742C13.8352 5.00444 12.4581 4.31185 10.7476 4.08378L10.7409 4.08291C9.79563 3.96465 8.86843 4.08338 8.07105 4.31031C6.33828 4.77425 4.93602 5.82551 4.00982 7.4381C3.42516 8.37923 3.1966 9.31296 3.08552 10.2864C2.97001 10.8876 2.97151 11.4918 3.09002 12.093C3.1942 12.7166 3.30457 13.2716 3.5267 13.938L3.52954 13.9465L3.53256 13.955C4.06208 15.4376 4.80783 16.9362 5.77942 18.2349C6.7367 19.6144 7.89729 20.775 8.99729 21.8749L9.04486 21.9225L9.06946 21.9436C9.2789 22.1231 9.50604 22.3287 9.74618 22.5461C10.2375 22.9908 10.7832 23.4848 11.3432 23.9056C12.7638 25.0214 14.1943 26.045 15.7301 26.9713C15.9985 27.1937 16.3204 27.281 16.6427 27.2407C16.8958 27.2091 17.1179 27.096 17.2033 27.0525C17.2099 27.0491 17.2157 27.0462 17.2207 27.0437L17.2677 27.0202L17.318 26.9866C18.5343 26.1758 19.7723 25.3505 21.0128 24.4201L21.0204 24.4144L21.0279 24.4086C22.4618 23.2819 23.8211 22.1341 25.0836 20.7683C25.8183 20.0326 26.4492 19.2962 27.0756 18.4618C27.9334 17.3879 28.5823 16.3052 29.1206 15.0133C29.6634 13.7106 29.9996 12.3789 29.9996 10.822C29.9996 10.3001 29.8748 9.8073 29.7611 9.46083C29.3153 7.80463 28.512 6.404 27.0036 5.35487C26.099 4.6793 25.0538 4.20699 23.8742 4.08339Z" fill="#364063"/>
</g>
</svg>
