<svg width="26" height="23" viewBox="0 0 26 23" fill="none" xmlns="http://www.w3.org/2000/svg">
<path d="M25.5516 5.39912C25.157 3.67949 24.2691 2.36449 22.8879 1.35294C22 0.746014 21.0135 0.341396 19.9283 0.139087C19.139 0.0379329 18.4484 0.0379329 17.7579 0.139087C15.7848 0.543705 14.3049 1.55525 13.3184 3.27488C13.2197 3.47719 13.0224 3.78065 12.9238 3.98296L12.8251 4.18527H12.7265L12.5291 3.78065C12.2332 3.07257 11.8386 2.56679 11.3453 2.06102C10.2601 0.948323 8.87893 0.240242 7.30045 0.0379329C6.41256 -0.0632215 5.62332 0.0379329 4.73543 0.341396C3.0583 0.847169 1.77578 1.85871 0.887892 3.37603C0.394619 4.28642 0.0986547 5.29797 0 6.30951C0 6.81528 0 7.42221 0 7.92798C0.0986547 8.53491 0.197309 9.14184 0.394619 9.74876C0.789238 11.1649 1.47982 12.5811 2.56502 13.9973C3.45292 15.3123 4.43946 16.425 5.72197 17.6388C6.41256 18.3469 7.2018 19.055 7.99103 19.6619C9.27354 20.7746 10.6547 21.7861 12.2332 22.7977C12.4305 22.8988 12.7265 23 12.9238 23C13.1211 23 13.417 22.8988 13.6144 22.7977C14.9955 21.8873 16.1794 21.0781 17.2646 20.1677C18.7444 18.9538 20.0269 17.74 21.1121 16.6273C21.8027 15.818 22.4933 15.11 22.9866 14.3007C23.7758 13.188 24.4664 12.0753 24.861 10.8615C25.4529 9.4453 25.6502 8.23145 25.6502 6.81528C25.7489 6.41067 25.6502 5.90489 25.5516 5.39912Z" fill="white"/>
</svg>
