<svg width="32" height="32" viewBox="0 0 32 32" fill="none" xmlns="http://www.w3.org/2000/svg">
<path fill-rule="evenodd" clip-rule="evenodd" d="M15.606 9.7208C15.7046 10.0165 16.0002 10.1151 16.2959 10.1151C16.5916 10.1151 16.8874 10.0165 16.9859 9.7208C17.0845 9.4251 17.2816 9.12941 17.4787 8.83372C18.3658 7.35526 19.7457 6.46818 21.4213 6.07392C22.0127 5.97536 22.7025 5.97536 23.2939 6.07392C24.2796 6.17249 25.1667 6.56674 25.9552 7.15813C27.2366 8.04521 27.9265 9.22797 28.3208 10.7064C28.4194 11.0021 28.5179 11.3964 28.5179 11.7906C28.5179 13.1705 28.2221 14.3533 27.7293 15.5361C27.2365 16.7188 26.6452 17.7045 25.8567 18.6901C25.2653 19.4786 24.6739 20.1686 23.9839 20.8585C22.8012 22.1399 21.5198 23.2241 20.1399 24.3083C18.9572 25.1954 17.7744 25.9839 16.5916 26.7724C16.3945 26.871 16.1974 26.9695 16.0003 26.7724C14.5218 25.8853 13.1419 24.8997 11.762 23.8155C11.2448 23.4276 10.7701 22.9973 10.3099 22.5803C10.0685 22.3614 9.83104 22.1463 9.59361 21.9427L9.59283 21.942C8.50889 20.858 7.42489 19.774 6.53803 18.493C5.65095 17.3102 4.96102 15.9303 4.4682 14.5504C4.27108 13.9591 4.17249 13.4662 4.07392 12.8748C3.97536 12.382 3.97536 11.8892 4.07392 11.3964C4.17249 10.5093 4.36966 9.72079 4.86248 8.93228C5.651 7.55238 6.83377 6.66531 8.31223 6.27105C9.00218 6.07392 9.79074 5.97536 10.5793 6.07392C12.0577 6.27105 13.2404 6.86244 14.3246 7.84808C14.7189 8.3409 15.1131 8.83372 15.4088 9.32654C15.4697 9.38748 15.493 9.44841 15.5252 9.53264C15.5451 9.58465 15.5684 9.64554 15.606 9.7208ZM16.2199 8.73583C16.2477 8.77074 16.2724 8.80523 16.2943 8.83874C16.4063 8.63888 16.5252 8.46085 16.6199 8.31915C16.6247 8.31197 16.6294 8.30488 16.6341 8.29789C17.6821 6.56491 19.3053 5.54449 21.1923 5.10051L21.2244 5.09295L21.2569 5.08753C21.9464 4.97262 22.7335 4.97085 23.426 5.08223C24.6037 5.20666 25.644 5.6782 26.5401 6.34679C28.0412 7.39185 28.839 8.78731 29.2793 10.42C29.3921 10.7648 29.5179 11.2606 29.5179 11.7906C29.5179 13.3274 29.1855 14.6413 28.6524 15.9207C28.1246 17.1874 27.4876 18.2502 26.6474 19.3026C26.0371 20.1152 25.4217 20.8337 24.7052 21.5515C23.4734 22.8836 22.1488 24.0016 20.7577 25.0946L20.7489 25.1015L20.7399 25.1083C19.5347 26.0122 18.3325 26.8137 17.1559 27.5981L17.0945 27.639L17.0389 27.6668C17.0346 27.669 17.0292 27.6717 17.0229 27.6749C16.942 27.7164 16.6993 27.8406 16.42 27.8755C16.0618 27.9203 15.7041 27.8237 15.4077 27.5829C13.9169 26.6829 12.529 25.6895 11.1528 24.6086C10.6045 24.1964 10.0634 23.7068 9.58452 23.2734C9.3542 23.0649 9.13826 22.8695 8.94282 22.702L8.91366 22.677L8.85784 22.6212C7.79607 21.5595 6.6629 20.4263 5.72662 19.0778C4.77345 17.803 4.04387 16.3355 3.52646 14.8868L3.52288 14.8768L3.51952 14.8667C3.30033 14.2091 3.19153 13.6616 3.09005 13.0544C2.97178 12.4522 2.97001 11.8466 3.08474 11.2443C3.1944 10.2883 3.42133 9.35813 4.00397 8.41917C4.92542 6.81642 6.32289 5.76883 8.04601 5.3071C8.83683 5.08219 9.75945 4.96367 10.7033 5.08165L10.7114 5.08266C12.4082 5.30889 13.7757 5.99757 14.9973 7.10814L15.056 7.16147L15.1268 7.24998C15.4884 7.70199 15.8961 8.21154 16.2199 8.73583Z" fill="#364063" fill-opacity="0.2"/>
</svg>
