<svg width="27" height="23" viewBox="0 0 27 23" fill="none" xmlns="http://www.w3.org/2000/svg">
<path fill-rule="evenodd" clip-rule="evenodd" d="M12.606 4.7208C12.7046 5.01649 13.0002 5.11505 13.2959 5.11505C13.5916 5.11505 13.8874 5.01649 13.9859 4.7208C14.0845 4.4251 14.2816 4.12941 14.4787 3.83372C15.3658 2.35526 16.7457 1.46818 18.4213 1.07392C19.0127 0.975359 19.7025 0.975359 20.2939 1.07392C21.2796 1.17249 22.1667 1.56674 22.9552 2.15813C24.2366 3.04521 24.9265 4.22797 25.3208 5.70644C25.4194 6.00213 25.5179 6.39639 25.5179 6.79064C25.5179 8.17054 25.2221 9.35331 24.7293 10.5361C24.2365 11.7188 23.6452 12.7045 22.8567 13.6901C22.2653 14.4786 21.6739 15.1686 20.9839 15.8585C19.8012 17.1399 18.5198 18.2241 17.1399 19.3083C15.9572 20.1954 14.7744 20.9839 13.5916 21.7724C13.3945 21.871 13.1974 21.9695 13.0003 21.7724C11.5218 20.8853 10.1419 19.8997 8.76197 18.8155C8.24481 18.4276 7.77007 17.9973 7.30991 17.5803C7.06847 17.3614 6.83104 17.1463 6.59361 16.9427L6.59283 16.942C5.50889 15.858 4.42489 14.774 3.53803 13.493C2.65095 12.3102 1.96102 10.9303 1.4682 9.55044C1.27108 8.95905 1.17249 8.46623 1.07392 7.87485C0.975359 7.38202 0.975359 6.8892 1.07392 6.39638C1.17249 5.50931 1.36966 4.72079 1.86248 3.93228C2.651 2.55238 3.83377 1.66531 5.31223 1.27105C6.00218 1.07392 6.79074 0.975359 7.57925 1.07392C9.05771 1.27105 10.2404 1.86244 11.3246 2.84808C11.7189 3.3409 12.1131 3.83372 12.4088 4.32654C12.4697 4.38748 12.493 4.44841 12.5252 4.53264C12.5451 4.58465 12.5684 4.64554 12.606 4.7208ZM13.2199 3.73583C13.2477 3.77074 13.2724 3.80523 13.2943 3.83874C13.4063 3.63888 13.5252 3.46085 13.6199 3.31915C13.6247 3.31197 13.6294 3.30488 13.6341 3.29789C14.6821 1.56491 16.3053 0.544488 18.1923 0.100506L18.2244 0.0929515L18.2569 0.0875291C18.9464 -0.0273836 19.7335 -0.0291488 20.426 0.0822333C21.6037 0.206658 22.644 0.678201 23.5401 1.34679C25.0412 2.39185 25.839 3.78731 26.2793 5.41995C26.3921 5.76477 26.5179 6.26064 26.5179 6.79064C26.5179 8.32738 26.1855 9.64127 25.6524 10.9207C25.1246 12.1874 24.4876 13.2502 23.6474 14.3026C23.0371 15.1152 22.4217 15.8337 21.7052 16.5515C20.4734 17.8836 19.1488 19.0016 17.7577 20.0946L17.7489 20.1015L17.7399 20.1083C16.5347 21.0122 15.3325 21.8137 14.1559 22.5981L14.0945 22.639L14.0389 22.6668C14.0346 22.669 14.0292 22.6717 14.0229 22.6749C13.942 22.7164 13.6993 22.8406 13.42 22.8755C13.0618 22.9203 12.7041 22.8237 12.4077 22.5829C10.9169 21.6829 9.529 20.6895 8.15279 19.6086C7.60453 19.1964 7.06344 18.7068 6.58452 18.2734C6.3542 18.0649 6.13826 17.8695 5.94282 17.702L5.91366 17.677L5.85784 17.6212C4.79607 16.5595 3.6629 15.4263 2.72662 14.0778C1.77345 12.803 1.04387 11.3355 0.526462 9.88677L0.522884 9.87675L0.51952 9.86666C0.300329 9.20909 0.191532 8.66155 0.0900521 8.05436C-0.0282189 7.45223 -0.0299904 6.84657 0.0847375 6.24434C0.194398 5.28831 0.421328 4.35813 1.00397 3.41917C1.92542 1.81642 3.32289 0.768828 5.04601 0.307104C5.83683 0.0821865 6.75945 -0.0363338 7.70329 0.0816452L7.71142 0.0826619C9.40816 0.308895 10.7757 0.997568 11.9973 2.10814L12.056 2.16147L12.1268 2.24998C12.4884 2.70199 12.8961 3.21154 13.2199 3.73583Z" fill="#364063" fill-opacity="0.2"/>
</svg>
