<svg width="32" height="27" viewBox="0 0 32 27" fill="none" xmlns="http://www.w3.org/2000/svg">
<path fill-rule="evenodd" clip-rule="evenodd" d="M16.4071 25.8638C16.1659 25.9817 15.9247 26.0997 15.6835 25.8638C13.8745 24.802 12.186 23.6222 10.4975 22.3244C9.86473 21.8602 9.28383 21.3452 8.72078 20.846C8.42536 20.584 8.13484 20.3265 7.84433 20.0829L7.84336 20.0819C6.51705 18.7845 5.19068 17.487 4.10552 15.9537C3.0201 14.5379 2.17591 12.8862 1.57289 11.2346C1.33169 10.5267 1.21106 9.9368 1.09045 9.22893C0.96985 8.63905 0.96985 8.04916 1.09045 7.45927C1.21106 6.39747 1.45232 5.45365 2.05533 4.50983C3.02016 2.85815 4.46739 1.79635 6.27643 1.32444C7.12065 1.08848 8.08553 0.970506 9.05035 1.08848C10.8594 1.32444 12.3065 2.03231 13.6332 3.21208C14.1156 3.80197 14.598 4.39186 14.9598 4.98174C15.0343 5.05468 15.0628 5.12762 15.1022 5.22844C15.1265 5.29069 15.155 5.36357 15.2011 5.45365C15.3217 5.80759 15.6834 5.92556 16.0452 5.92556C16.407 5.92556 16.7689 5.80759 16.8895 5.45365C17.0101 5.09972 17.2513 4.74579 17.4925 4.39186C18.578 2.62219 20.2664 1.56039 22.3167 1.08848C23.0403 0.970506 23.8844 0.970506 24.608 1.08848C25.814 1.20646 26.8995 1.67837 27.8644 2.38624C29.4322 3.44803 30.2764 4.86377 30.7589 6.63343C30.8795 6.98736 31 7.45927 31 7.93118C31 9.58287 30.6381 10.9986 30.0351 12.4143C29.4321 13.8301 28.7086 15.0098 27.7438 16.1896C27.0202 17.1334 26.2965 17.9593 25.4523 18.7851C24.0051 20.3188 22.4372 21.6166 20.7488 22.9143C19.3015 23.9761 17.8543 24.92 16.4071 25.8638ZM26.1659 19.486C24.669 21.07 23.0576 22.401 21.3582 23.7072L21.3493 23.714L21.3403 23.7206C19.8706 24.7989 18.4038 25.7555 16.9628 26.6952L16.9018 26.735L16.8465 26.7621C16.8406 26.765 16.8337 26.7684 16.8258 26.7723C16.7241 26.823 16.4632 26.9528 16.1667 26.9891C15.7923 27.0349 15.4146 26.9367 15.0961 26.6784C13.276 25.6046 11.5806 24.4178 9.89684 23.124C9.23304 22.6361 8.5859 22.0631 8.00355 21.5474C7.71896 21.2954 7.44985 21.0571 7.20181 20.8491L7.17244 20.8245L7.11508 20.7684C5.81197 19.4937 4.43576 18.1475 3.30028 16.5469C2.14729 15.0391 1.26215 13.2993 0.633539 11.5775L0.629828 11.5673L0.626337 11.5571C0.362204 10.7819 0.230939 10.1363 0.107306 9.41241C-0.033895 8.71082 -0.0357438 8.00542 0.101757 7.30373C0.233982 6.17134 0.506356 5.0837 1.20186 3.98836C2.30336 2.11253 3.96737 0.895459 6.01562 0.359016C6.95893 0.0963593 8.05499 -0.0406774 9.17173 0.0958765L9.17969 0.0968503C11.2022 0.360644 12.8326 1.16189 14.2977 2.46482L14.357 2.51757L14.4297 2.6065C14.8772 3.15356 15.3726 3.75932 15.7632 4.37996C15.8944 4.53862 15.9635 4.69109 16.0059 4.79474C16.0215 4.83285 16.0323 4.86033 16.0408 4.88201C16.2127 4.49301 16.4549 4.13828 16.636 3.87294C16.6418 3.86446 16.6475 3.85607 16.6532 3.84777C17.9033 1.82331 19.8367 0.633153 22.0924 0.113965L22.1238 0.106715L22.1557 0.101515C22.9754 -0.0321199 23.9145 -0.0338165 24.7372 0.0964251C26.1311 0.239168 27.368 0.785225 28.4407 1.56886C30.2289 2.78557 31.1849 4.41299 31.7156 6.34098C31.8509 6.74436 32 7.32008 32 7.93118C32 9.74331 31.5998 11.2927 30.9551 12.8062C30.3159 14.307 29.5454 15.5642 28.5279 16.8104C27.785 17.7784 27.0369 18.6326 26.1659 19.486Z" fill="#364063" fill-opacity="0.2"/>
</svg>
