<svg width="32" height="32" viewBox="0 0 32 32" fill="none" xmlns="http://www.w3.org/2000/svg">
<path d="M28.5516 9.39912C28.157 7.67949 27.2691 6.36449 25.8879 5.35294C25 4.74601 24.0135 4.3414 22.9283 4.13909C22.139 4.03793 21.4484 4.03793 20.7579 4.13909C18.7848 4.54371 17.3049 5.55525 16.3184 7.27488C16.2197 7.47719 16.0224 7.78065 15.9238 7.98296L15.8251 8.18527H15.7265L15.5291 7.78065C15.2332 7.07257 14.8386 6.56679 14.3453 6.06102C13.2601 4.94832 11.8789 4.24024 10.3004 4.03793C9.41256 3.93678 8.62332 4.03793 7.73543 4.3414C6.0583 4.84717 4.77578 5.85871 3.88789 7.37603C3.39462 8.28642 3.09865 9.29797 3 10.3095C3 10.8153 3 11.4222 3 11.928C3.09865 12.5349 3.19731 13.1418 3.39462 13.7488C3.78924 15.1649 4.47982 16.5811 5.56502 17.9973C6.45292 19.3123 7.43946 20.425 8.72197 21.6388C9.41256 22.3469 10.2018 23.055 10.991 23.6619C12.2735 24.7746 13.6547 25.7861 15.2332 26.7977C15.4305 26.8988 15.7265 27 15.9238 27C16.1211 27 16.417 26.8988 16.6144 26.7977C17.9955 25.8873 19.1794 25.0781 20.2646 24.1677C21.7444 22.9538 23.0269 21.74 24.1121 20.6273C24.8027 19.818 25.4933 19.11 25.9866 18.3007C26.7758 17.188 27.4664 16.0753 27.861 14.8615C28.4529 13.4453 28.6502 12.2314 28.6502 10.8153C28.7489 10.4107 28.6502 9.90489 28.5516 9.39912Z" fill="white"/>
</svg>
