<svg width="32" height="32" viewBox="0 0 32 32" fill="none" xmlns="http://www.w3.org/2000/svg">
<g clip-path="url(#clip0_1921_1385)">
<path d="M1.24605 10.1691C1.53603 9.9205 1.96409 9.94812 2.22645 10.2381C2.26787 10.3071 7.7222 16.4933 15.9934 16.4933C24.2508 16.4933 29.719 10.3071 29.7742 10.2381C30.0227 9.94812 30.4646 9.9205 30.7546 10.1691C31.0446 10.4176 31.0722 10.8595 30.8236 11.1494C30.727 11.2737 29.5947 12.5441 27.6477 13.9526L29.2909 16.7971C29.4842 17.1285 29.3738 17.5566 29.0424 17.7361C28.9319 17.8051 28.8214 17.8327 28.6971 17.8327C28.4624 17.8327 28.2277 17.7084 28.1034 17.4875L26.5016 14.7258C25.756 15.1953 24.9274 15.651 24.0299 16.0791L25.1484 19.1583C25.2727 19.5173 25.0931 19.9178 24.7341 20.0421C24.6513 20.0697 24.5822 20.0835 24.4994 20.0835C24.2232 20.0835 23.9471 19.904 23.8504 19.6278L22.7595 16.6176C22.0139 16.9075 21.213 17.1561 20.3845 17.3632L20.9506 20.5806C21.0197 20.9534 20.7711 21.3124 20.3845 21.3815C20.3431 21.3953 20.3016 21.3953 20.2602 21.3953C19.9288 21.3953 19.6388 21.1605 19.5836 20.8291L19.0175 17.6394C18.2718 17.7637 17.4985 17.8465 16.6976 17.8741V21.1329C16.6976 21.5196 16.3939 21.8233 16.0072 21.8233C15.6206 21.8233 15.3168 21.5196 15.3168 21.1329V17.8603C14.5159 17.8327 13.7426 17.7499 12.9832 17.6256L12.417 20.8153C12.3618 21.1467 12.0718 21.3815 11.7404 21.3815C11.699 21.3815 11.6576 21.3815 11.6161 21.3677C11.2433 21.2986 10.9948 20.9396 11.05 20.5668L11.6161 17.3494C10.7739 17.1423 9.98677 16.8937 9.24112 16.6038L8.13645 19.614C8.03979 19.8902 7.77743 20.0697 7.48745 20.0697C7.4046 20.0697 7.33556 20.0559 7.25271 20.0283C6.89369 19.8902 6.71418 19.5035 6.83846 19.1445L7.95694 16.0652C7.04558 15.651 6.21708 15.1815 5.48523 14.712L3.88346 17.4737C3.75918 17.6946 3.52444 17.8189 3.2897 17.8189C3.16542 17.8189 3.05495 17.7913 2.94449 17.7222C2.61308 17.5289 2.50262 17.1147 2.69594 16.7833L4.33914 13.9388C2.37834 12.5303 1.25986 11.2599 1.1632 11.1356C0.914652 10.8595 0.956078 10.4176 1.24605 10.1691Z" fill="#364063"/>
</g>
<defs>
<clipPath id="clip0_1921_1385">
<rect width="30" height="12" fill="white" transform="translate(1 10)"/>
</clipPath>
</defs>
</svg>
