<svg width="30" height="12" viewBox="0 0 30 12" fill="none" xmlns="http://www.w3.org/2000/svg">
<path opacity="0.5" d="M0.245534 0.169052C0.535511 -0.0794992 0.96357 -0.0518823 1.22593 0.238094C1.26735 0.307136 6.72168 6.4933 14.9929 6.4933C23.2503 6.4933 28.7185 0.307136 28.7737 0.238094C29.0222 -0.0518823 29.4641 -0.0794992 29.7541 0.169052C30.0441 0.417603 30.0717 0.859472 29.8231 1.14945C29.7265 1.27372 28.5942 2.5441 26.6472 3.95256L28.2904 6.79709C28.4837 7.12849 28.3733 7.55655 28.0419 7.73606C27.9314 7.8051 27.8209 7.83272 27.6966 7.83272C27.4619 7.83272 27.2272 7.70844 27.1029 7.48751L25.5011 4.72583C24.7555 5.19531 23.9269 5.65099 23.0294 6.07905L24.1479 9.15832C24.2722 9.51734 24.0926 9.91779 23.7336 10.0421C23.6508 10.0697 23.5817 10.0835 23.4989 10.0835C23.2227 10.0835 22.9466 9.90398 22.8499 9.62781L21.759 6.61758C21.0134 6.90755 20.2125 7.15611 19.384 7.36323L19.9501 10.5806C20.0192 10.9534 19.7706 11.3124 19.384 11.3815C19.3426 11.3953 19.3011 11.3953 19.2597 11.3953C18.9283 11.3953 18.6383 11.1605 18.5831 10.8291L18.017 7.6394C17.2713 7.76367 16.498 7.84653 15.6971 7.87414V11.1329C15.6971 11.5196 15.3934 11.8233 15.0067 11.8233C14.6201 11.8233 14.3163 11.5196 14.3163 11.1329V7.86033C13.5154 7.83272 12.7421 7.74987 11.9827 7.62559L11.4165 10.8153C11.3613 11.1467 11.0713 11.3815 10.7399 11.3815C10.6985 11.3815 10.6571 11.3815 10.6156 11.3677C10.2428 11.2986 9.99427 10.9396 10.0495 10.5668L10.6156 7.34942C9.77333 7.1423 8.98625 6.89375 8.2406 6.60377L7.13593 9.614C7.03927 9.89017 6.77691 10.0697 6.48693 10.0697C6.40408 10.0697 6.33504 10.0559 6.25219 10.0283C5.89317 9.89017 5.71366 9.50353 5.83794 9.14452L6.95642 6.06524C6.04506 5.65099 5.21656 5.1815 4.48471 4.71202L2.88294 7.4737C2.75866 7.69463 2.52392 7.81891 2.28918 7.81891C2.1649 7.81891 2.05443 7.79129 1.94397 7.72225C1.61256 7.52893 1.5021 7.11468 1.69542 6.78328L3.33862 3.93875C1.37782 2.53029 0.259342 1.25992 0.162683 1.13564C-0.0858684 0.859472 -0.0444424 0.417603 0.245534 0.169052Z" fill="#364063"/>
</svg>
