<svg width="19" height="19" viewBox="0 0 19 19" fill="none" xmlns="http://www.w3.org/2000/svg">
<path opacity="0.5" fill-rule="evenodd" clip-rule="evenodd" d="M9.5 18C14.1944 18 18 14.1944 18 9.5C18 4.80558 14.1944 1 9.5 1C4.80558 1 1 4.80558 1 9.5C1 14.1944 4.80558 18 9.5 18ZM9.5 19C14.7467 19 19 14.7467 19 9.5C19 4.25329 14.7467 0 9.5 0C4.25329 0 0 4.25329 0 9.5C0 14.7467 4.25329 19 9.5 19Z" fill="#364063"/>
<path opacity="0.5" d="M8.33836 11.3553C8.33836 10.8353 8.45336 10.4053 8.68336 10.0653C8.92336 9.72531 9.26836 9.35031 9.71836 8.94031C10.0484 8.64031 10.2884 8.39031 10.4384 8.19031C10.5984 7.98031 10.6784 7.74531 10.6784 7.48531C10.6784 7.11531 10.5284 6.82531 10.2284 6.61531C9.93836 6.39531 9.54836 6.28531 9.05836 6.28531C8.58836 6.28531 8.16836 6.38531 7.79836 6.58531C7.43836 6.77531 7.13336 7.04531 6.88336 7.39531L5.06836 6.33031C5.48836 5.69031 6.05336 5.19531 6.76336 4.84531C7.48336 4.49531 8.33336 4.32031 9.31336 4.32031C10.4634 4.32031 11.3834 4.56531 12.0734 5.05531C12.7734 5.54531 13.1234 6.22531 13.1234 7.09531C13.1234 7.50531 13.0534 7.86531 12.9134 8.17531C12.7834 8.48531 12.6184 8.75031 12.4184 8.97031C12.2284 9.18031 11.9784 9.42531 11.6684 9.70531C11.2984 10.0353 11.0284 10.3153 10.8584 10.5453C10.6884 10.7653 10.6034 11.0353 10.6034 11.3553H8.33836ZM9.47836 15.1203C9.06836 15.1203 8.72336 14.9903 8.44336 14.7303C8.17336 14.4603 8.03836 14.1353 8.03836 13.7553C8.03836 13.3753 8.17336 13.0603 8.44336 12.8103C8.71336 12.5503 9.05836 12.4203 9.47836 12.4203C9.89836 12.4203 10.2434 12.5503 10.5134 12.8103C10.7834 13.0603 10.9184 13.3753 10.9184 13.7553C10.9184 14.1353 10.7784 14.4603 10.4984 14.7303C10.2284 14.9903 9.88836 15.1203 9.47836 15.1203Z" fill="#364063"/>
</svg>
