<svg width="25" height="18" viewBox="0 0 25 18" fill="none" xmlns="http://www.w3.org/2000/svg">
<path d="M2.1309 0H22.072C22.3277 0 22.5834 0 22.7538 0.0841071L12.8685 9.33586C12.6128 9.58818 12.3572 9.67228 12.1015 9.67228C11.8459 9.67228 11.5902 9.50407 11.3345 9.33586L1.44922 0.0841071C1.52583 0.0841071 1.61964 0.067114 1.72293 0.0484043C1.84944 0.0254896 1.99016 0 2.1309 0Z" fill="#364063"/>
<path d="M0 2.18689C0 1.85047 6.24061e-05 1.51404 0.170499 1.26172L10.2262 10.5976C10.8227 11.1022 11.5045 11.3545 12.1863 11.3545C12.868 11.3545 13.635 11.1022 14.1463 10.5976L24.202 1.26172C24.2873 1.51404 24.3725 1.85047 24.3725 2.18689V15.7281C24.3725 16.9056 23.3498 17.9149 22.1568 17.9149H2.21576C1.0227 17.9149 0 16.9056 0 15.7281V2.18689Z" fill="#364063"/>
</svg>
