<svg width="32" height="32" viewBox="0 0 32 32" fill="none" xmlns="http://www.w3.org/2000/svg">
<path d="M23.0894 8.51392L16.1015 14.9901L9.11355 8.51392H23.0894ZM26.072 7H6.1309C5.87525 7 5.61966 7.08411 5.44922 7.08411L15.3345 16.3359C15.5902 16.5041 15.8459 16.6723 16.1015 16.6723C16.3572 16.6723 16.6128 16.5882 16.8685 16.3359L26.7538 7.08411C26.5834 7 26.3277 7 26.072 7Z" fill="#364063"/>
<path d="M5.44877 11.538L13.1184 18.6871C13.8854 19.444 14.9932 19.8646 16.1011 19.8646C17.2089 19.8646 18.2315 19.444 19.0837 18.6871L26.7534 11.538V22.7242C26.7534 23.0606 26.4124 23.397 26.0716 23.397H6.13046C5.78959 23.397 5.44877 23.0606 5.44877 22.7242V11.538ZM4.1705 8.25781C4.00006 8.51013 4 8.84656 4 9.18299V22.7242C4 23.9017 5.0227 24.911 6.21576 24.911H26.1568C27.3498 24.911 28.3725 23.9017 28.3725 22.7242V9.18299C28.3725 8.84656 28.2873 8.51013 28.202 8.25781L18.1463 17.5937C17.635 18.0983 16.868 18.3506 16.1863 18.3506C15.5045 18.3506 14.8227 18.0983 14.2262 17.5937L4.1705 8.25781Z" fill="#364063"/>
</svg>
