<svg width="29" height="22" viewBox="0 0 29 22" fill="none" xmlns="http://www.w3.org/2000/svg">
<path d="M14.1992 10.5984C14.0992 10.5984 13.9992 10.5984 13.8992 10.4984L3.69922 0.898438H24.5992L14.3992 10.4984C14.3992 10.4984 14.2992 10.5984 14.1992 10.5984Z" fill="white"/>
<path d="M22.3992 1.8L14.1992 9.5L5.99915 1.8H22.3992ZM25.8992 0H2.49915C2.19915 0 1.89922 0.1 1.69922 0.1L13.2992 11.1C13.5992 11.3 13.8992 11.5 14.1992 11.5C14.4992 11.5 14.7992 11.4 15.0992 11.1L26.6992 0.1C26.4992 3.7998e-07 26.1992 0 25.8992 0Z" fill="white"/>
<path d="M2.50073 20.3969C1.60073 20.3969 0.800781 19.5969 0.800781 18.6969V3.29688L11.3008 13.1969C12.1008 13.8969 13.1008 14.2969 14.2008 14.2969C15.3008 14.2969 16.3008 13.8969 17.1008 13.1969L27.6008 3.29688V18.6969C27.6008 19.5969 26.8008 20.3969 25.9008 20.3969H2.50073Z" fill="white"/>
<path d="M1.70007 5.4L10.7001 13.9C11.6001 14.8 12.9001 15.3 14.2001 15.3C15.5001 15.3 16.7001 14.8 17.7001 13.9L26.7001 5.4V18.7C26.7001 19.1 26.3 19.5 25.9 19.5H2.5C2.1 19.5 1.70007 19.1 1.70007 18.7V5.4ZM0.200073 1.5C7.32392e-05 1.8 0 2.2 0 2.6V18.7C0 20.1 1.2001 21.3 2.6001 21.3H26C27.4 21.3 28.6001 20.1 28.6001 18.7V2.6C28.6001 2.2 28.5 1.8 28.4 1.5L16.6001 12.6C16.0001 13.2 15.1 13.5 14.3 13.5C13.5 13.5 12.7 13.2 12 12.6L0.200073 1.5Z" fill="white"/>
</svg>
