<svg width="18" height="27" viewBox="0 0 18 27" fill="none" xmlns="http://www.w3.org/2000/svg">
<g opacity="0.5" clip-path="url(#clip0_591_1649)">
<path fill-rule="evenodd" clip-rule="evenodd" d="M3.83378 0H13.2145C14.6012 0 14.7643 3.0997 14.7643 4.48641V11.4199C14.7643 12.8066 14.6012 14.9275 13.2145 14.9275H3.83378C2.44708 14.9275 2.28394 12.8066 2.28394 11.4199V4.48641C2.28394 3.0997 2.44708 0 3.83378 0Z" fill="#364063"/>
<path fill-rule="evenodd" clip-rule="evenodd" d="M3.42593 15.498H13.5407C14.1933 15.498 14.6827 15.9875 14.6827 16.64V17.7005C14.6827 18.353 14.1933 18.8425 13.5407 18.8425H3.42593C2.77336 18.8425 2.28394 18.353 2.28394 17.7005V16.64C2.28394 15.9875 2.77336 15.498 3.42593 15.498Z" fill="#364063"/>
<path fill-rule="evenodd" clip-rule="evenodd" d="M1.71296 15.9872V10.0325C1.71296 9.54308 1.30511 9.2168 0.897253 9.2168C0.407827 9.2168 0.081543 9.62465 0.081543 10.0325V15.9872C0.081543 16.4766 0.489398 16.8029 0.897253 16.8029C1.30511 16.8029 1.71296 16.395 1.71296 15.9872Z" fill="#364063"/>
<path fill-rule="evenodd" clip-rule="evenodd" d="M17.0484 15.9872V10.0325C17.0484 9.54308 16.6406 9.2168 16.2327 9.2168C15.7433 9.2168 15.417 9.62465 15.417 10.0325V15.9872C15.417 16.4766 15.8248 16.8029 16.2327 16.8029C16.6406 16.8029 17.0484 16.395 17.0484 15.9872Z" fill="#364063"/>
<path fill-rule="evenodd" clip-rule="evenodd" d="M7.7491 19.4961H9.38052V21.4538C9.62524 21.4538 9.78838 21.6985 9.78838 21.8617V23.6562H15.3352C15.9062 23.6562 16.3956 24.1456 16.3956 24.7166V24.7982C16.7219 25.0429 16.8851 25.3692 16.8851 25.7771C16.8851 26.4296 16.3141 27.0006 15.6615 27.0006C15.0089 27.0006 14.4379 26.4296 14.4379 25.7771C14.4379 25.6139 14.4379 25.5323 14.5195 25.3692H9.95152C9.95152 25.5323 10.0331 25.6139 10.0331 25.7771C10.0331 26.4296 9.4621 27.0006 8.80953 27.0006C8.15696 27.0006 7.58596 26.4296 7.58596 25.7771C7.58596 25.6139 7.58596 25.5323 7.66753 25.3692H2.77327C2.77327 25.5323 2.85484 25.6139 2.85484 25.7771C2.85484 26.4296 2.28385 27.0006 1.63128 27.0006C0.978712 27.0006 0.407715 26.4296 0.407715 25.7771C0.407715 25.3692 0.570857 25.0429 0.897141 24.7982V24.7166C0.897141 24.1456 1.38657 23.6562 1.95756 23.6562H7.34125V21.9432C7.34125 21.6985 7.50439 21.5354 7.7491 21.5354V19.4961Z" fill="#364063"/>
</g>
<defs>
<clipPath id="clip0_591_1649">
<rect width="17.0483" height="27" fill="white"/>
</clipPath>
</defs>
</svg>
