<svg width="32" height="32" viewBox="0 0 32 32" fill="none" xmlns="http://www.w3.org/2000/svg">
<path fill-rule="evenodd" clip-rule="evenodd" d="M29.0213 15.5106C29.0213 22.9724 22.9724 29.0213 15.5106 29.0213C8.04892 29.0213 2 22.9724 2 15.5106C2 8.04892 8.04892 2 15.5106 2C22.9724 2 29.0213 8.04892 29.0213 15.5106ZM10.3191 8.6383C9.25532 9.51064 8.3617 10.4894 8.34043 12.0213C8.36405 12.1394 8.38439 12.2624 8.4051 12.3877C8.45899 12.7136 8.51533 13.0543 8.6383 13.3617C10.4043 17.7021 13.4468 20.7234 17.8511 22.3404C19.5957 22.9787 21.1277 22.4255 22.3191 21C22.6596 20.617 22.7234 20.2766 22.3404 19.8936C22.093 19.6462 21.8432 19.3987 21.5926 19.1505C21.0891 18.6517 20.5823 18.1497 20.0851 17.6383C19.6809 17.2128 19.2979 17.2766 18.9149 17.6809C18.5532 18.0638 18.1702 18.4468 17.7872 18.8085C17.1277 19.383 16.617 19.4894 15.9787 18.9149C14.6596 17.7447 13.383 16.5106 12.1915 15.2128C11.5532 14.5106 11.6596 13.9787 12.3404 13.2553C12.7021 12.8723 13.0851 12.4894 13.4681 12.1277C13.8511 11.766 13.8511 11.383 13.4894 11.0213L13.4893 11.0213C12.7234 10.234 11.9574 9.4468 11.1489 8.70213C10.9787 8.55319 10.4894 8.51064 10.3191 8.6383Z" fill="white"/>
</svg>
