<svg width="40" height="40" viewBox="0 0 40 40" fill="none" xmlns="http://www.w3.org/2000/svg">
<path d="M32.7284 18.6046C32.7284 19.2936 32.1772 19.8907 31.4422 19.8907C30.7532 19.8907 30.1561 19.3396 30.1561 18.6046C30.1102 14.5625 27.5379 10.9797 23.7255 9.60173C23.0365 9.37207 22.715 8.63713 22.9446 7.94814C23.1743 7.25914 23.9092 6.93761 24.5982 7.16727C29.4212 8.91273 32.6824 13.506 32.7284 18.6046Z" fill="#364063"/>
<path d="M28.0455 26.7273C28.7345 27.2326 29.056 28.1053 28.8264 28.9321C28.5508 29.8967 28.1374 30.8154 27.5862 31.6881L27.5402 31.734L27.4943 31.8259L27.4484 31.9178L27.4024 32.0096L27.3565 32.0556L27.3106 32.1015L27.2646 32.1474L27.2187 32.1934L27.0809 32.2852L27.035 32.3312L26.989 32.3771L26.9431 32.423L26.8972 32.469L26.8053 32.5149L26.7134 32.5608L26.6216 32.6986L26.5297 32.7446L26.4378 32.7905L26.346 32.8364L26.2541 32.8824L26.1622 32.9283L26.0704 32.9742L25.9785 33.0202L25.8866 33.0661L25.7948 33.112L25.7029 33.158V33.112L25.611 33.158L25.5651 33.2039H25.4732L25.3814 33.2498L25.2895 33.2958H25.1976H25.1058L24.922 33.3417L24.7383 33.3876L24.5546 33.4336H24.3708H24.1871H24.0034H23.8197H23.6359H23.4522H23.2685H23.0847L22.901 33.3876L22.7173 33.3417L22.5335 33.2958L22.3498 33.2498C11.877 30.9991 5.21674 20.7101 7.42153 10.2833L7.46746 10.0995L7.51339 9.9158L7.55933 9.73207L7.60526 9.54833L7.65119 9.3646L7.69713 9.18087L7.78899 8.99714L7.88086 8.8134L7.97273 8.62967L8.06459 8.44594L8.15646 8.26221L8.24832 8.07847L8.34019 7.89474L8.43206 7.75694L8.52392 7.61914L8.56986 7.52728L8.61579 7.43541L8.66172 7.34354L8.70766 7.25168L8.75359 7.20574L8.79952 7.15981L8.84545 7.11388L8.89139 7.06795L8.93732 7.02201L8.98325 6.97608L9.02919 6.93015L9.07512 6.88421L9.16699 6.83828L9.25885 6.79235L9.35072 6.74641L9.44259 6.70048L9.53445 6.65455L9.62632 6.60861L9.71818 6.56268L9.81005 6.51675L9.90192 6.47081L9.99378 6.42488L10.0856 6.37895L10.1775 6.33302L10.2694 6.28708L10.3612 6.24115L10.4531 6.19522L10.545 6.14928L10.6368 6.10335H10.7287H10.8206H10.9124H11.0043H11.0962C12.1067 5.96555 13.1172 5.96555 14.1278 6.10335C15.0005 6.19522 15.6436 6.83828 15.8273 7.71101C15.9651 8.35407 16.011 8.9512 16.011 9.59427L16.057 11.6153C16.1029 12.7637 15.5058 13.866 14.5412 14.5091L12.0148 16.1627C12.566 20.5723 15.0924 24.5225 18.9507 26.8192L21.4771 25.2115C22.4417 24.5685 23.6819 24.4766 24.7383 24.9819L26.5756 25.8546C26.9431 26.0383 27.4943 26.3599 28.0455 26.7273Z" fill="#364063"/>
<path d="M26.7576 18.6883C26.7576 19.3773 26.2064 19.9744 25.4715 19.9744C24.7825 19.9744 24.1853 19.4232 24.1853 18.6883C24.1853 17.1725 23.1748 15.7945 21.7509 15.2892C21.0619 15.0596 20.7403 14.3246 20.97 13.6356C21.1997 12.9466 21.9346 12.6251 22.6236 12.8548C25.0581 13.7275 26.7116 16.0701 26.7576 18.6883Z" fill="#364063"/>
</svg>
