<svg width="20" height="19" viewBox="0 0 20 19" fill="none" xmlns="http://www.w3.org/2000/svg">
<path d="M3.77119 0.0763043C3.52542 0.186474 3.26271 0.45766 3.15254 0.694948L3.05932 0.906813L3.05085 4.30512L3.04237 7.70342H2.52542C1.90678 7.70342 1.67797 7.7458 1.28814 7.93224C0.915254 8.1102 0.449153 8.55935 0.254237 8.93224C0 9.41529 0 9.37291 0 12.3899C0 14.1949 0.0169492 15.161 0.0423729 15.2119C0.144068 15.3983 0.228814 15.4068 1.68644 15.4068H3.04237L3.05932 16.4831C3.0678 17.5424 3.0678 17.5594 3.17797 17.7797C3.30508 18.0509 3.52542 18.2797 3.77119 18.3899L3.95763 18.4746H10H16.0339L16.2203 18.3899C16.4576 18.2797 16.7203 18.017 16.8305 17.7797C16.9068 17.6102 16.9153 17.5255 16.9237 16.5L16.9322 15.4068L18.3305 15.3983L19.7373 15.3899L19.8644 15.2543L20 15.1272V12.4068C20 9.89834 20 9.66952 19.9237 9.43224C19.8051 9.01698 19.6271 8.72037 19.2966 8.38139C18.7881 7.87291 18.322 7.70342 17.4237 7.70342H16.9322L16.9237 5.94918C16.9068 4.23732 16.9068 4.18647 16.8136 3.91529C16.5678 3.178 16.4237 2.97461 15.2288 1.77122C14.161 0.694949 13.8898 0.474609 13.339 0.245796C12.7203 -0.00844151 13 3.31042e-05 8.26271 3.31042e-05C4.1017 3.31042e-05 3.9322 3.30806e-05 3.77119 0.0763043ZM12.2797 2.63563C12.2966 3.88986 12.2966 3.91529 12.6017 4.23732C12.9237 4.58478 12.9407 4.59325 14.2288 4.60173L15.3644 4.6102V6.91529V9.22037H9.99153H4.6017V5.37291V1.52546H8.4322H12.2627L12.2797 2.63563ZM17.8729 9.27122C18.1186 9.33901 18.339 9.55088 18.4068 9.78817C18.4746 10.0424 18.4407 10.3305 18.322 10.4577C18.1695 10.6272 17.8559 10.7543 17.5932 10.7543C17.3814 10.7543 17.3475 10.7458 17.1949 10.6017C16.839 10.2882 16.822 9.85596 17.1356 9.47461C17.339 9.24579 17.5339 9.18647 17.8729 9.27122ZM15.3559 15.3899V16.9322H9.98305H4.6017V15.3899V13.8475H9.97458H15.3475V15.3899H15.3559Z" fill="#364063"/>
</svg>
