<svg width="22" height="21" viewBox="0 0 22 21" fill="none" xmlns="http://www.w3.org/2000/svg">
<path opacity="0.5" d="M20.8083 0H0.6591C0.282478 0 0 0.258197 0 0.602459V14.7172C0 15.0615 0.282478 15.3197 0.6591 15.3197H8.00321V17.7295H3.10712C2.7305 17.7295 2.63633 17.9016 2.44802 18.2459L0.470777 20.3975C0.470777 20.7418 0.282478 21 0.6591 21H20.8083C21.1849 21 21.185 20.7418 21.185 20.3975L19.0194 18.2459C18.7369 17.8156 18.7369 17.7295 18.3603 17.7295H13.0876V15.4057H20.8083C21.1849 15.4057 21.4674 15.1475 21.4674 14.8033V0.602459C21.5616 0.258197 21.1849 0 20.8083 0ZM19.0194 11.877C19.0194 12.1352 18.7369 12.3074 18.4544 12.3074H2.9188C2.63633 12.3074 2.35389 12.1352 2.35389 11.877V2.92623C2.35389 2.66803 2.63633 2.4959 2.9188 2.4959H18.4544C18.7369 2.4959 19.0194 2.66803 19.0194 2.92623V11.877Z" fill="#364063"/>
</svg>
