<svg width="32" height="32" viewBox="0 0 32 32" fill="none" xmlns="http://www.w3.org/2000/svg">
<path opacity="0.5" d="M25.8083 6H5.6591C5.28248 6 5 6.2582 5 6.60246V20.7172C5 21.0615 5.28248 21.3197 5.6591 21.3197H13.0032V23.7295H8.10712C7.7305 23.7295 7.63633 23.9016 7.44802 24.2459L5.47078 26.3975C5.47078 26.7418 5.28248 27 5.6591 27H25.8083C26.1849 27 26.185 26.7418 26.185 26.3975L24.0194 24.2459C23.7369 23.8156 23.7369 23.7295 23.3603 23.7295H18.0876V21.4057H25.8083C26.1849 21.4057 26.4674 21.1475 26.4674 20.8033V6.60246C26.5616 6.2582 26.1849 6 25.8083 6ZM24.0194 17.877C24.0194 18.1352 23.7369 18.3074 23.4544 18.3074H7.9188C7.63633 18.3074 7.35389 18.1352 7.35389 17.877V8.92623C7.35389 8.66803 7.63633 8.4959 7.9188 8.4959H23.4544C23.7369 8.4959 24.0194 8.66803 24.0194 8.92623V17.877Z" fill="#364063"/>
</svg>
