<svg width="32" height="32" viewBox="0 0 32 32" fill="none" xmlns="http://www.w3.org/2000/svg">
<path fill-rule="evenodd" clip-rule="evenodd" d="M7.4705 13.0232C7.4705 9.95651 9.95652 7.4705 13.0232 7.4705C16.0898 7.4705 18.5758 9.95651 18.5758 13.0232C18.5758 16.0898 16.0898 18.5758 13.0232 18.5758C9.95652 18.5758 7.4705 16.0898 7.4705 13.0232ZM13.0232 4C8.03982 4 4 8.0398 4 13.0232C4 18.0065 8.03982 22.0463 13.0232 22.0463C14.8892 22.0463 16.6229 21.4799 18.0618 20.5096L25.4905 27.8575C26.1718 28.5315 27.2705 28.5255 27.9445 27.8441C28.6184 27.1628 28.6124 26.0641 27.931 25.3901L20.5146 18.0543C21.4818 16.6169 22.0463 14.886 22.0463 13.0232C22.0463 8.0398 18.0065 4 13.0232 4Z" fill="#364063" fill-opacity="0.2"/>
</svg>
