<svg width="27" height="30" viewBox="0 0 27 30" fill="none" xmlns="http://www.w3.org/2000/svg">
<path opacity="0.5" fill-rule="evenodd" clip-rule="evenodd" d="M26.9974 4.49968C26.9974 6.98479 24.9829 8.99936 22.4978 8.99936C21.1336 8.99936 19.9112 8.3923 19.086 7.43358L8.84668 13.8331C8.94627 14.2052 8.99937 14.5962 8.99937 14.9997C8.99937 15.4007 8.9469 15.7896 8.84845 16.1596L19.0903 22.5608C19.9154 21.6049 21.1359 21 22.4978 21C24.9829 21 26.9974 23.0146 26.9974 25.4997C26.9974 27.9848 24.9829 29.9994 22.4978 29.9994C20.0126 29.9994 17.9981 27.9848 17.9981 25.4997C17.9981 25.0959 18.0513 24.7045 18.151 24.3322L7.91205 17.9329C7.08686 18.892 5.8642 19.4994 4.49969 19.4994C2.01458 19.4994 0 17.4848 0 14.9997C0 12.5146 2.01458 10.5 4.49969 10.5C5.86182 10.5 7.08259 11.1052 7.90774 12.0615L18.1492 5.66055C18.0506 5.29021 17.9981 4.90108 17.9981 4.49968C17.9981 2.01458 20.0126 0 22.4978 0C24.9829 0 26.9974 2.01458 26.9974 4.49968Z" fill="#364063"/>
</svg>
