<svg width="57" height="60" viewBox="0 0 57 60" fill="none" xmlns="http://www.w3.org/2000/svg">
<g opacity="0.5" filter="url(#filter0_d_3001_1513)">
<path fill-rule="evenodd" clip-rule="evenodd" d="M41.9974 19.4997C41.9974 21.9848 39.9829 23.9994 37.4978 23.9994C36.1336 23.9994 34.9112 23.3923 34.086 22.4336L23.8467 28.8331C23.9463 29.2052 23.9994 29.5962 23.9994 29.9997C23.9994 30.4007 23.9469 30.7896 23.8484 31.1596L34.0903 37.5608C34.9154 36.6049 36.1359 36 37.4978 36C39.9829 36 41.9974 38.0146 41.9974 40.4997C41.9974 42.9848 39.9829 44.9994 37.4978 44.9994C35.0126 44.9994 32.9981 42.9848 32.9981 40.4997C32.9981 40.0959 33.0513 39.7045 33.151 39.3322L22.9121 32.9329C22.0869 33.892 20.8642 34.4994 19.4997 34.4994C17.0146 34.4994 15 32.4848 15 29.9997C15 27.5146 17.0146 25.5 19.4997 25.5C20.8618 25.5 22.0826 26.1052 22.9077 27.0615L33.1492 20.6606C33.0506 20.2902 32.9981 19.9011 32.9981 19.4997C32.9981 17.0146 35.0126 15 37.4978 15C39.9829 15 41.9974 17.0146 41.9974 19.4997Z" fill="#364063"/>
</g>
<defs>
<filter id="filter0_d_3001_1513" x="0" y="0" width="56.998" height="60" filterUnits="userSpaceOnUse" color-interpolation-filters="sRGB">
<feFlood flood-opacity="0" result="BackgroundImageFix"/>
<feColorMatrix in="SourceAlpha" type="matrix" values="0 0 0 0 0 0 0 0 0 0 0 0 0 0 0 0 0 0 127 0" result="hardAlpha"/>
<feOffset/>
<feGaussianBlur stdDeviation="7.5"/>
<feComposite in2="hardAlpha" operator="out"/>
<feColorMatrix type="matrix" values="0 0 0 0 1 0 0 0 0 1 0 0 0 0 1 0 0 0 0.75 0"/>
<feBlend mode="normal" in2="BackgroundImageFix" result="effect1_dropShadow_3001_1513"/>
<feBlend mode="normal" in="SourceGraphic" in2="effect1_dropShadow_3001_1513" result="shape"/>
</filter>
</defs>
</svg>
