<svg width="32" height="32" viewBox="0 0 32 32" fill="none" xmlns="http://www.w3.org/2000/svg">
<path opacity="0.5" fill-rule="evenodd" clip-rule="evenodd" d="M29.9974 5.49968C29.9974 7.98479 27.9829 9.99936 25.4978 9.99936C24.1336 9.99936 22.9112 9.3923 22.086 8.43358L11.8467 14.8331C11.9463 15.2052 11.9994 15.5962 11.9994 15.9997C11.9994 16.4007 11.9469 16.7896 11.8484 17.1596L22.0903 23.5608C22.9154 22.6049 24.1359 22 25.4978 22C27.9829 22 29.9974 24.0146 29.9974 26.4997C29.9974 28.9848 27.9829 30.9994 25.4978 30.9994C23.0126 30.9994 20.9981 28.9848 20.9981 26.4997C20.9981 26.0959 21.0513 25.7045 21.151 25.3322L10.9121 18.9329C10.0869 19.892 8.8642 20.4994 7.49969 20.4994C5.01458 20.4994 3 18.4848 3 15.9997C3 13.5146 5.01458 11.5 7.49969 11.5C8.86182 11.5 10.0826 12.1052 10.9077 13.0615L21.1492 6.66055C21.0506 6.29021 20.9981 5.90108 20.9981 5.49968C20.9981 3.01458 23.0126 1 25.4978 1C27.9829 1 29.9974 3.01458 29.9974 5.49968Z" fill="#364063"/>
</svg>
