<svg width="22" height="21" viewBox="0 0 22 21" fill="none" xmlns="http://www.w3.org/2000/svg">
<path opacity="0.5" d="M20.8225 0H0.659549C0.28267 0 0 0.259259 0 0.604938V7.08642V7.95062V13.0494V13.9136V20.3951C0 20.7407 0.28267 21 0.659549 21H20.8225C21.1994 21 21.4821 20.7407 21.4821 20.3951V13.9136V13.0494V7.95062V7.08642V0.604938C21.4821 0.259259 21.1994 0 20.8225 0ZM19.0324 12.0123C19.0324 12.2716 18.7497 12.4444 18.467 12.4444H2.92081C2.63815 12.4444 2.35549 12.2716 2.35549 12.0123V9.50617C2.35549 9.24691 2.63815 9.07407 2.92081 9.07407H18.467C18.7497 9.07407 19.0324 9.24691 19.0324 9.50617V12.0123ZM2.44972 2.93827C2.44972 2.67901 2.73238 2.50617 3.01504 2.50617H18.5613C18.8439 2.50617 19.1266 2.67901 19.1266 2.93827V5.96296C19.1266 6.22222 18.8439 6.39506 18.5613 6.39506H3.01504C2.73238 6.39506 2.44972 6.22222 2.44972 5.96296V2.93827ZM19.0324 17.6296C19.0324 17.8889 18.7497 18.0617 18.467 18.0617H2.92081C2.63815 18.0617 2.35549 17.8889 2.35549 17.6296V15.4691C2.35549 15.2099 2.63815 15.037 2.92081 15.037H18.467C18.7497 15.037 19.0324 15.2099 19.0324 15.4691V17.6296Z" fill="#364063"/>
</svg>
