<svg width="32" height="32" viewBox="0 0 32 32" fill="none" xmlns="http://www.w3.org/2000/svg">
<path opacity="0.5" d="M25.8225 6H5.65955C5.28267 6 5 6.25926 5 6.60494V13.0864V13.9506V19.0494V19.9136V26.3951C5 26.7407 5.28267 27 5.65955 27H25.8225C26.1994 27 26.4821 26.7407 26.4821 26.3951V19.9136V19.0494V13.9506V13.0864V6.60494C26.4821 6.25926 26.1994 6 25.8225 6ZM24.0324 18.0123C24.0324 18.2716 23.7497 18.4444 23.467 18.4444H7.92081C7.63815 18.4444 7.35549 18.2716 7.35549 18.0123V15.5062C7.35549 15.2469 7.63815 15.0741 7.92081 15.0741H23.467C23.7497 15.0741 24.0324 15.2469 24.0324 15.5062V18.0123ZM7.44972 8.93827C7.44972 8.67901 7.73238 8.50617 8.01504 8.50617H23.5613C23.8439 8.50617 24.1266 8.67901 24.1266 8.93827V11.963C24.1266 12.2222 23.8439 12.3951 23.5613 12.3951H8.01504C7.73238 12.3951 7.44972 12.2222 7.44972 11.963V8.93827ZM24.0324 23.6296C24.0324 23.8889 23.7497 24.0617 23.467 24.0617H7.92081C7.63815 24.0617 7.35549 23.8889 7.35549 23.6296V21.4691C7.35549 21.2099 7.63815 21.037 7.92081 21.037H23.467C23.7497 21.037 24.0324 21.2099 24.0324 21.4691V23.6296Z" fill="#364063"/>
</svg>
