<svg width="40" height="40" viewBox="0 0 40 40" fill="none" xmlns="http://www.w3.org/2000/svg">
<path d="M11.3672 19.9448C11.3672 15.441 11.3672 10.9736 11.3672 6.46981C11.3672 5.88868 11.5153 5.34387 11.8485 4.83538C12.2558 4.29057 12.7741 4 13.5146 4C17.6243 4 21.7341 4 25.8438 4C26.8435 4 27.5839 4.61745 27.8801 5.45283C27.9912 5.77972 28.0653 6.1066 28.0653 6.46981C28.0653 15.4773 28.0653 24.5212 28.0653 33.5287C28.0653 34.1099 27.9172 34.6184 27.5839 35.1269C27.1767 35.6717 26.6583 35.9986 25.9549 35.9986C22.6967 35.9986 19.4385 35.9986 16.1804 35.9986C15.3288 35.9986 14.4773 35.9622 13.5887 35.9986C12.589 36.0349 11.8485 35.3811 11.5523 34.582C11.4412 34.2552 11.3672 33.892 11.3672 33.5287C11.3672 28.9523 11.3672 24.4486 11.3672 19.9448ZM12.3669 6.65141C12.2928 7.85 12.3298 31.6401 12.4039 32.0033C17.18 32.0033 21.9562 32.0033 26.7324 32.0033C26.8064 32.0033 26.9175 32.0033 26.9916 32.0033H27.0286L27.0656 31.967C27.1397 30.6594 27.1026 7.05094 27.0286 6.65141C22.1413 6.65141 17.2541 6.65141 12.3669 6.65141ZM18.55 33.9283C18.5129 34.7273 19.1423 35.0905 19.7347 35.1269C20.3642 35.1632 20.9566 34.5457 20.9566 33.9283C20.9195 33.2382 20.3271 32.766 19.7718 32.766C19.0683 32.766 18.4759 33.3835 18.55 33.9283ZM17.4762 5.2349C17.6243 5.45283 17.8465 5.48915 18.0686 5.48915C19.1794 5.48915 20.2531 5.48915 21.3638 5.48915C21.4379 5.48915 21.5119 5.48915 21.586 5.48915C21.7341 5.45283 21.9192 5.41651 21.9192 5.2349C21.8451 5.08962 21.697 5.01698 21.5119 5.01698C20.2901 5.01698 19.1053 5.01698 17.8835 5.01698C17.6984 4.98066 17.5873 5.0533 17.4762 5.2349Z" fill="#364063"/>
<path d="M2 19.6198C2.07405 17.6585 2.55537 15.8061 3.51801 14.099C3.9623 13.3 4.51767 12.6099 5.14709 11.9561C5.36923 11.7382 5.66543 11.6655 5.99865 11.7382C6.18378 11.7745 6.33187 11.9198 6.3689 12.1377C6.40592 12.392 6.3689 12.6462 6.2208 12.8278C5.96163 13.1184 5.70246 13.4453 5.48031 13.7358C4.62874 14.7891 4.07338 15.9877 3.74015 17.2952C3.40693 18.3849 3.36991 19.5471 3.48098 20.7094C3.59206 22.1259 4.07338 23.4335 4.81387 24.632C5.18411 25.2495 5.59138 25.7943 6.10973 26.3391C6.29485 26.557 6.44295 26.775 6.40592 27.0655C6.3689 27.5014 5.99865 27.683 5.70246 27.6103C5.51733 27.574 5.33221 27.5014 5.14709 27.3561C4.62874 26.8113 4.14742 26.2301 3.77718 25.6127C3.29586 24.85 2.88859 24.0509 2.62942 23.1792C2.37025 22.3802 2.1481 21.5811 2.11107 20.7457C2.07405 20.3825 2.03702 19.983 2 19.6198Z" fill="#364063"/>
<path fill-rule="evenodd" clip-rule="evenodd" d="M1.59961 19.6262L1.60066 19.5983C1.67687 17.5797 2.17298 15.6645 3.16937 13.8972C3.63517 13.0597 4.21417 12.3424 4.85931 11.6723L4.86724 11.664L4.86735 11.6641C5.1985 11.3393 5.63672 11.2444 6.08048 11.3401C6.43421 11.4114 6.70035 11.6918 6.76363 12.0643L6.76521 12.0736L6.7651 12.0736C6.81134 12.3911 6.77571 12.7743 6.53117 13.0742L6.52558 13.081L6.51969 13.0876C6.27032 13.3672 6.01816 13.685 5.79846 13.9723L5.79186 13.981L5.79174 13.9809C4.98143 14.9832 4.44926 16.1276 4.12814 17.3876L4.12581 17.3968L4.12305 17.4058C3.81038 18.4282 3.77142 19.5335 3.87955 20.6649L3.88019 20.6717L3.88014 20.6717C3.98549 22.0152 4.4421 23.2622 5.15454 24.4154L5.15733 24.4199L5.1573 24.4199C5.5132 25.0134 5.90285 25.5345 6.3999 26.057L6.40766 26.0651L6.41496 26.0737C6.60522 26.2977 6.86051 26.6316 6.80412 27.1014C6.74054 27.7942 6.12573 28.1134 5.61741 27.9948C5.38063 27.9472 5.13833 27.851 4.90052 27.6643L4.87768 27.6464L4.85767 27.6254C4.32916 27.0699 3.82741 26.4663 3.43687 25.8159C2.94487 25.0357 2.52017 24.2056 2.2478 23.2916C1.98825 22.4909 1.75335 21.6545 1.71237 20.7686C1.69414 20.5895 1.67594 20.4019 1.65784 20.2155L1.65779 20.215C1.63926 20.0241 1.62084 19.8344 1.60244 19.6539L1.59961 19.6262ZM2.6298 23.1728C2.88897 24.0445 3.29624 24.8435 3.77756 25.6063C4.1478 26.2237 4.62912 26.8049 5.14747 27.3497C5.33259 27.4949 5.51771 27.5676 5.70283 27.6039C5.99903 27.6766 6.36928 27.4949 6.4063 27.0591C6.44333 26.7685 6.29523 26.5506 6.1101 26.3327C5.59176 25.7879 5.18449 25.2431 4.81424 24.6256C4.07375 23.427 3.59243 22.1195 3.48136 20.703C3.37029 19.5407 3.40731 18.3784 3.74053 17.2888C4.07375 15.9813 4.62912 14.7827 5.48069 13.7294C5.70283 13.4388 5.96201 13.1119 6.22118 12.8214C6.36928 12.6398 6.4063 12.3855 6.36928 12.1313C6.33225 11.9134 6.18415 11.7681 5.99903 11.7318C5.66581 11.6591 5.36961 11.7318 5.14747 11.9497C4.51805 12.6035 3.96268 13.2935 3.51838 14.0926C2.55575 15.7997 2.07443 17.652 2.00038 19.6134C2.01889 19.795 2.0374 19.9856 2.05591 20.1763C2.07443 20.367 2.09294 20.5577 2.11145 20.7393C2.14848 21.5747 2.37062 22.3737 2.6298 23.1728Z" fill="#364063"/>
<path d="M37.3974 19.63C37.3974 21.1554 37.1012 22.6446 36.4718 24.0611C35.9534 25.2597 35.25 26.313 34.3243 27.2573C34.2133 27.3663 34.0652 27.5116 33.88 27.5479C33.5468 27.6568 33.3247 27.6205 33.1025 27.4026C32.9544 27.2573 32.9544 26.8578 33.0655 26.6399C33.1396 26.4946 33.2506 26.3856 33.3617 26.2767C34.5835 24.9328 35.398 23.371 35.7683 21.5913C35.9904 20.5743 35.9904 19.5573 35.9164 18.5767C35.8423 17.5597 35.5461 16.6153 35.1389 15.671C34.7316 14.763 34.1762 13.9276 33.5098 13.1649C33.3987 13.0196 33.2876 12.9106 33.1766 12.7653C32.9915 12.5474 32.9915 12.3295 33.0285 12.0753C33.0655 11.8573 33.2506 11.712 33.4357 11.712C33.7319 11.6757 33.9911 11.7484 34.2133 11.9663C34.4724 12.2569 34.7316 12.5111 34.9908 12.8017C36.0645 14.1455 36.768 15.6347 37.1382 17.3054C37.3233 18.0682 37.4344 18.8309 37.3974 19.63Z" fill="#364063"/>
<path fill-rule="evenodd" clip-rule="evenodd" d="M34.6041 27.5366L34.6041 27.5365C34.5993 27.5412 34.5941 27.5463 34.5886 27.5518C34.49 27.6493 34.2758 27.8612 33.9832 27.9284C33.789 27.9897 33.5854 28.0228 33.3777 27.9851C33.1552 27.9446 32.9749 27.8318 32.822 27.6818C32.6351 27.4985 32.5922 27.2303 32.5866 27.0549C32.5805 26.8614 32.6149 26.636 32.7087 26.4519C32.8129 26.2476 32.9646 26.099 33.0689 25.9968C33.0703 25.9955 33.0716 25.9941 33.073 25.9928C34.2442 24.7018 35.0219 23.2071 35.3763 21.5035L35.3771 21.4996L35.3771 21.4996C35.5876 20.536 35.5898 19.5622 35.5171 18.6005L35.5171 18.5994C35.4475 17.6436 35.1688 16.7455 34.7723 15.8258C34.3833 14.9592 33.8513 14.1577 33.2082 13.4217L33.1996 13.4119L33.1916 13.4015C33.1452 13.3408 33.098 13.2866 33.0416 13.222L33.0387 13.2187C32.9864 13.1589 32.9258 13.0895 32.8643 13.0097C32.5733 12.6611 32.5902 12.2998 32.6323 12.0113L32.6336 12.0019L32.6337 12.0019C32.7009 11.6068 33.0333 11.3195 33.4081 11.3062C33.8044 11.2629 34.1807 11.3681 34.493 11.6744L34.5025 11.6838L34.5114 11.6937C34.636 11.8334 34.7612 11.9651 34.8914 12.1019L34.8933 12.104C35.0217 12.2389 35.155 12.379 35.2889 12.5291L35.2961 12.5372L35.3029 12.5457C36.4146 13.9371 37.144 15.481 37.5275 17.2086C37.7171 17.9909 37.8349 18.7891 37.797 19.6328C37.7958 21.2074 37.4892 22.7484 36.8377 24.2154C36.3001 25.4578 35.5694 26.5517 34.6096 27.531L34.6041 27.5366ZM36.4714 24.0548C37.1008 22.6383 37.397 21.1491 37.397 19.6236C37.434 18.8246 37.3229 18.0618 37.1378 17.2991C36.7676 15.6284 36.0641 14.1392 34.9904 12.7953C34.8608 12.6501 34.7312 12.5139 34.6016 12.3777C34.472 12.2414 34.3425 12.1052 34.2129 11.96C33.9907 11.742 33.7315 11.6694 33.4354 11.7057C33.2502 11.7057 33.0651 11.851 33.0281 12.0689C32.9911 12.3232 32.9911 12.5411 33.1762 12.759C33.2317 12.8317 33.2873 12.8952 33.3428 12.9588C33.3983 13.0223 33.4539 13.0859 33.5094 13.1585C34.1758 13.9213 34.7312 14.7567 35.1385 15.6647C35.5458 16.609 35.8419 17.5534 35.916 18.5703C35.99 19.551 35.99 20.568 35.7679 21.585C35.3977 23.3647 34.5831 24.9265 33.3613 26.2703C33.2502 26.3793 33.1392 26.4882 33.0651 26.6335C32.954 26.8515 32.954 27.251 33.1021 27.3963C33.3243 27.6142 33.5464 27.6505 33.8796 27.5416C34.0648 27.5052 34.2129 27.3599 34.3239 27.251C35.2496 26.3066 35.953 25.2533 36.4714 24.0548Z" fill="#364063"/>
<path d="M9.14649 14.5394C9.14649 14.721 9.07244 14.9389 8.92435 15.0842C8.44303 15.629 8.03576 16.2465 7.73956 16.9002C7.48039 17.445 7.33229 18.0262 7.25824 18.6073C7.18419 19.0431 7.18419 19.4427 7.18419 19.8785C7.22122 21.295 7.66551 22.6026 8.5541 23.7285C8.66517 23.8738 8.81327 24.0554 8.92435 24.2007C9.10947 24.4549 9.14649 24.7092 9.10947 25.0361C9.07245 25.254 8.88732 25.363 8.66517 25.3993C8.36898 25.4356 8.14683 25.363 7.92468 25.1814C7.70254 24.9271 7.44336 24.6729 7.25824 24.3823C6.55477 23.3653 6.07346 22.2394 5.88833 21.0045C5.85131 20.6049 5.74023 20.1691 5.74023 19.7696C5.77726 18.2804 6.07346 16.8639 6.888 15.5564C7.18419 15.1205 7.44336 14.6847 7.81361 14.2851C7.96171 14.1399 8.10981 14.0309 8.33195 13.9582C8.8503 13.813 9.14649 14.0309 9.14649 14.5394Z" fill="#364063"/>
<path fill-rule="evenodd" clip-rule="evenodd" d="M7.73917 16.9016C7.48 17.4465 7.3319 18.0276 7.25785 18.6087C7.1838 19.0446 7.1838 19.4441 7.1838 19.8799C7.22083 21.2965 7.66512 22.604 8.55371 23.7299C8.60925 23.8026 8.67405 23.8843 8.73884 23.966C8.80363 24.0478 8.86842 24.1295 8.92396 24.2021C9.10908 24.4564 9.1461 24.7106 9.10908 25.0375C9.07205 25.2554 8.88693 25.3644 8.66478 25.4007C8.36859 25.437 8.14644 25.3644 7.92429 25.1828C7.86724 25.1175 7.80775 25.0522 7.7477 24.9863C7.57391 24.7955 7.39543 24.5997 7.25785 24.3837C6.55438 23.3667 6.07306 22.2408 5.88794 21.0059C5.87338 20.8487 5.84736 20.686 5.82115 20.522C5.78073 20.2691 5.73984 20.0134 5.73984 19.771C5.77687 18.2818 6.07306 16.8653 6.8876 15.5578C6.95132 15.464 7.01332 15.3703 7.07509 15.2769C7.30044 14.9361 7.52262 14.6001 7.81322 14.2866C7.96132 14.1413 8.10942 14.0323 8.33156 13.9597C8.84991 13.8144 9.1461 14.0323 9.1461 14.5408C9.1461 14.7224 9.07205 14.9403 8.92396 15.0856C8.44264 15.6304 8.03537 16.2479 7.73917 16.9016ZM9.21556 15.3597C9.44314 15.1293 9.5461 14.8092 9.5461 14.5408C9.5461 14.2186 9.45123 13.885 9.1668 13.6804C8.88762 13.4795 8.53954 13.486 8.22361 13.5745L8.21537 13.5768L8.20724 13.5795C7.91049 13.6765 7.71123 13.8263 7.5331 14.001L7.5263 14.0077L7.51983 14.0147C7.20469 14.3547 6.95932 14.7261 6.73194 15.0702C6.67264 15.16 6.61455 15.2479 6.55677 15.3329L6.5523 15.3395L6.54809 15.3463C5.685 16.7318 5.37818 18.2242 5.33997 19.761L5.33984 19.761V19.771C5.33984 20.0039 5.37203 20.2389 5.40474 20.4498C5.41237 20.499 5.41997 20.5466 5.42737 20.5929C5.45318 20.7545 5.47642 20.9001 5.48965 21.0428L5.49069 21.054L5.49236 21.0652C5.6872 22.3649 6.1929 23.5456 6.92473 24.6053C7.08234 24.8509 7.29393 25.0829 7.47079 25.2768C7.5258 25.3371 7.57745 25.3937 7.62308 25.446L7.64515 25.4712L7.67113 25.4925C7.97253 25.7389 8.30242 25.8481 8.71347 25.7977L8.72142 25.7967L8.72933 25.7955C9.02204 25.7476 9.42408 25.5715 9.50343 25.1045L9.50529 25.0935L9.50654 25.0825C9.55088 24.691 9.5092 24.3263 9.24732 23.9667L9.24741 23.9666L9.24173 23.9592C9.18405 23.8837 9.11747 23.7997 9.05368 23.7193L9.05227 23.7175C8.9869 23.6351 8.92445 23.5563 8.87148 23.487L8.87152 23.487L8.86771 23.4821C8.03673 22.4292 7.61964 21.2079 7.5838 19.8746C7.58381 19.4372 7.58491 19.0718 7.6522 18.6757L7.65359 18.6675L7.65464 18.6593C7.72455 18.1106 7.86315 17.5722 8.10038 17.0735L8.10044 17.0735L8.10352 17.0667C8.38055 16.4552 8.76243 15.8744 9.21556 15.3597Z" fill="#364063"/>
<path d="M30.8816 25.4047C30.5114 25.4047 30.2892 25.2231 30.2892 24.8598C30.2892 24.6056 30.3633 24.3514 30.5484 24.1334C31.3629 23.2254 31.9183 22.1358 32.1405 20.9372C32.3256 20.0292 32.2886 19.1212 32.1034 18.2132C31.8443 17.1235 31.4 16.1429 30.6595 15.2712C30.4744 15.0533 30.2522 14.799 30.2892 14.4721C30.3263 14 30.6225 13.782 31.0668 13.9273C31.2889 14 31.474 14.1089 31.6221 14.2905C32.3626 15.1622 32.955 16.1429 33.2882 17.2688C33.4734 17.8863 33.6214 18.5037 33.6214 19.1575C33.6214 19.4844 33.6214 19.8476 33.6214 20.1745C33.5844 21.0099 33.3993 21.8089 33.1031 22.5716C32.8069 23.407 32.3256 24.1334 31.7702 24.8598C31.6962 24.9688 31.5851 25.0778 31.474 25.1867C31.2889 25.332 31.1038 25.4047 30.8816 25.4047Z" fill="#364063"/>
<path fill-rule="evenodd" clip-rule="evenodd" d="M30.2521 23.8677C31.0203 23.0114 31.5406 21.9881 31.7487 20.8657L31.75 20.8587C31.9218 20.0158 31.8899 19.1653 31.7143 18.3008C31.4668 17.2639 31.0475 16.3455 30.3561 15.5316C30.3472 15.521 30.3375 15.5097 30.3272 15.4978C30.1605 15.304 29.8399 14.9311 29.8925 14.4357C29.9177 14.1309 30.0332 13.8295 30.2951 13.6435C30.5643 13.4523 30.8922 13.4503 31.1926 13.5485C31.4675 13.6384 31.7237 13.7832 31.9309 14.0358C32.6979 14.9393 33.3211 15.9671 33.6731 17.156C33.8614 17.7844 34.0229 18.4463 34.0229 19.1589V20.1847L34.0226 20.1936C33.9835 21.0754 33.7885 21.9154 33.4796 22.7124C33.1635 23.601 32.6558 24.3627 32.0956 25.0962C31.9993 25.2348 31.8676 25.3639 31.7685 25.4611C31.7641 25.4654 31.7598 25.4696 31.7556 25.4737L31.7399 25.4892L31.7225 25.5028C31.4784 25.6944 31.2084 25.8061 30.8831 25.8061C30.6382 25.8061 30.3813 25.7463 30.1819 25.5684C29.9748 25.3838 29.8907 25.1269 29.8907 24.8613C29.8907 24.5266 29.9898 24.1764 30.245 23.8759L30.2521 23.8677ZM31.7717 24.8613C32.3271 24.1348 32.8084 23.4084 33.1046 22.5731C33.4008 21.8103 33.5859 21.0113 33.6229 20.1759V19.1589C33.6229 18.5051 33.4748 17.8877 33.2897 17.2702C32.9565 16.1443 32.3641 15.1636 31.6236 14.2919C31.4755 14.1103 31.2904 14.0014 31.0682 13.9287C30.624 13.7834 30.3278 14.0014 30.2907 14.4735C30.2544 14.7943 30.4676 15.0451 30.6505 15.2603C30.654 15.2644 30.6575 15.2685 30.661 15.2726C31.4015 16.1443 31.8458 17.1249 32.1049 18.2146C32.2901 19.1226 32.3271 20.0306 32.142 20.9386C31.9198 22.1372 31.3644 23.2268 30.5499 24.1348C30.3648 24.3528 30.2907 24.607 30.2907 24.8613C30.2907 25.2245 30.5129 25.4061 30.8831 25.4061C31.1053 25.4061 31.2904 25.3334 31.4755 25.1881C31.5866 25.0792 31.6977 24.9702 31.7717 24.8613Z" fill="#364063"/>
</svg>
