<svg width="16" height="17" viewBox="0 0 16 17" fill="none" xmlns="http://www.w3.org/2000/svg">
<path d="M15.1393 2.33799H11.5205L10.4634 0.440491C10.3143 0.16942 10.0229 0 9.71114 0H6.28208C5.97035 0 5.68573 0.16942 5.52986 0.440491L4.47268 2.33799H0.853876C0.3795 2.33799 0 2.72427 0 3.19864C0 3.67302 0.386277 4.05252 0.853876 4.05252H1.47734L2.57518 15.3426C2.61584 15.7831 2.98856 16.1152 3.42906 16.1152H12.5709C13.0114 16.1152 13.3774 15.7831 13.4248 15.3426L14.5227 4.05252H15.1461C15.6205 4.05252 16 3.66624 16 3.19864C15.9932 2.72427 15.6069 2.33799 15.1393 2.33799ZM6.79034 1.71453H9.20966L9.55527 2.33799H6.43795L6.79034 1.71453ZM11.7848 14.4007H4.20839L3.19864 4.05252H12.7878L11.7848 14.4007Z" fill="#364063"/>
<path fill-rule="evenodd" clip-rule="evenodd" d="M11.2267 2.83799L10.0252 0.681454C9.96593 0.573599 9.84449 0.5 9.71114 0.5H6.28208C6.15567 0.5 6.03437 0.568023 5.96468 0.687366L4.76648 2.83799H0.853876C0.66078 2.83799 0.5 2.99525 0.5 3.19864C0.5 3.3943 0.659833 3.55252 0.853876 3.55252H1.93108L3.07307 15.2967C3.08946 15.4743 3.24124 15.6152 3.42906 15.6152H12.5709C12.7517 15.6152 12.9061 15.4803 12.9275 15.2912L14.0689 3.55252H15.1461C15.3406 3.55252 15.4981 3.39463 15.5 3.20219C15.4951 2.99619 15.3258 2.83799 15.1393 2.83799H11.2267ZM16 3.19864C16 3.66624 15.6205 4.05252 15.1461 4.05252H14.5227L13.4248 15.3426C13.3774 15.7831 13.0114 16.1152 12.5709 16.1152H3.42906C2.98856 16.1152 2.61584 15.7831 2.57518 15.3426L1.47734 4.05252H0.853876C0.386277 4.05252 0 3.67302 0 3.19864C0 2.72427 0.3795 2.33799 0.853876 2.33799H4.47268L5.52986 0.440491C5.68573 0.16942 5.97035 0 6.28208 0H9.71114C10.0229 0 10.3143 0.16942 10.4634 0.440491L11.5205 2.33799H15.1393C15.6069 2.33799 15.9932 2.72427 16 3.19864ZM6.49861 1.21453H9.50417L10.4041 2.83799H5.581L6.49861 1.21453ZM12.2387 14.9007H3.7548L2.64748 3.55252H13.3386L12.2387 14.9007ZM6.79034 1.71453H9.20966L9.55527 2.33799H6.43795L6.79034 1.71453ZM12.7878 4.05252L11.7848 14.4007H4.20839L3.19864 4.05252H12.7878Z" fill="white"/>
<path d="M5.42996 12.3727C5.45029 12.8336 5.82979 13.1927 6.28384 13.1927C6.29739 13.1927 6.31095 13.1927 6.3245 13.1927C6.79888 13.1724 7.16482 12.7726 7.14449 12.2982L6.85987 6.01611C6.83954 5.54174 6.43971 5.17579 5.96533 5.19612C5.49096 5.20967 5.12501 5.61628 5.14534 6.08388L5.42996 12.3727Z" fill="#364063"/>
<path fill-rule="evenodd" clip-rule="evenodd" d="M5.92948 12.3507C5.938 12.5438 6.09698 12.6927 6.28384 12.6927H6.31068C6.50408 12.68 6.65311 12.5163 6.64497 12.3201C6.64496 12.3199 6.64498 12.3203 6.64497 12.3201L6.36032 6.03752C6.35185 5.83984 6.18603 5.68712 5.98674 5.69566L5.97961 5.69597C5.79155 5.70134 5.63652 5.86584 5.64485 6.06182C5.64486 6.06193 5.64485 6.06171 5.64485 6.06182L5.92948 12.3507ZM5.14534 6.08388C5.12501 5.61628 5.49096 5.20967 5.96533 5.19612C6.43971 5.17579 6.83954 5.54174 6.85987 6.01611L7.14449 12.2982C7.16482 12.7726 6.79888 13.1724 6.3245 13.1927H6.28384C5.82979 13.1927 5.45029 12.8336 5.42996 12.3727L5.14534 6.08388Z" fill="white"/>
<path d="M9.67041 13.1849C9.68396 13.1849 9.69752 13.1849 9.71107 13.1849C10.1651 13.1849 10.5446 12.8257 10.5649 12.3649L10.8496 6.08284C10.8699 5.60847 10.504 5.20864 10.0296 5.18831C9.5552 5.16798 9.15537 5.53392 9.13504 6.0083L8.85042 12.2904C8.83009 12.7648 9.19603 13.1646 9.67041 13.1849Z" fill="#364063"/>
<path fill-rule="evenodd" clip-rule="evenodd" d="M9.13504 6.0083L8.85042 12.2904C8.83009 12.7648 9.19603 13.1646 9.67041 13.1849H9.71107C10.1651 13.1849 10.5446 12.8257 10.5649 12.3649L10.8496 6.08284C10.8699 5.60847 10.504 5.20864 10.0296 5.18831C9.5552 5.16798 9.15537 5.53392 9.13504 6.0083ZM10.35 6.06093C10.3501 6.06076 10.35 6.0611 10.35 6.06093C10.3583 5.86186 10.2057 5.69631 10.0082 5.68785C9.80888 5.67931 9.64306 5.83203 9.63458 6.02971L9.63453 6.03093L9.34996 12.3118C9.34995 12.3119 9.34997 12.3116 9.34996 12.3118C9.3418 12.508 9.48997 12.6722 9.68338 12.6849H9.7102C9.89706 12.6849 10.0569 12.536 10.0654 12.3429L10.35 6.06093Z" fill="white"/>
</svg>
