<svg width="24" height="24" viewBox="0 0 24 24" fill="none" xmlns="http://www.w3.org/2000/svg">
<path d="M19.1393 6.33799H15.5205L14.4634 4.44049C14.3143 4.16942 14.0229 4 13.7111 4H10.2821C9.97035 4 9.68573 4.16942 9.52986 4.44049L8.47268 6.33799H4.85388C4.3795 6.33799 4 6.72427 4 7.19864C4 7.67302 4.38628 8.05252 4.85388 8.05252H5.47734L6.57518 19.3426C6.61584 19.7831 6.98856 20.1152 7.42906 20.1152H16.5709C17.0114 20.1152 17.3774 19.7831 17.4248 19.3426L18.5227 8.05252H19.1461C19.6205 8.05252 20 7.66624 20 7.19864C19.9932 6.72427 19.6069 6.33799 19.1393 6.33799ZM10.7903 5.71453H13.2097L13.5553 6.33799H10.438L10.7903 5.71453Z" fill="#364063"/>
<path fill-rule="evenodd" clip-rule="evenodd" d="M15.2267 6.83799L14.0252 4.68145C13.9659 4.5736 13.8445 4.5 13.7111 4.5H10.2821C10.1557 4.5 10.0344 4.56803 9.96467 4.68739L8.76647 6.83799H4.85388C4.66078 6.83799 4.5 6.99525 4.5 7.19864C4.5 7.3943 4.65983 7.55252 4.85388 7.55252H5.93108L7.07307 19.2967C7.08946 19.4743 7.24124 19.6152 7.42906 19.6152H16.5709C16.7517 19.6152 16.9061 19.4803 16.9275 19.2912L18.0689 7.55252H19.1461C19.3406 7.55252 19.4981 7.39463 19.5 7.20219C19.4951 6.99619 19.3258 6.83799 19.1393 6.83799H15.2267ZM20 7.19864C20 7.66624 19.6205 8.05252 19.1461 8.05252H18.5227L17.4248 19.3426C17.3774 19.7831 17.0114 20.1152 16.5709 20.1152H7.42906C6.98856 20.1152 6.61584 19.7831 6.57518 19.3426L5.47734 8.05252H4.85388C4.38628 8.05252 4 7.67302 4 7.19864C4 6.72427 4.3795 6.33799 4.85388 6.33799H8.47268L9.52986 4.44049C9.68573 4.16942 9.97035 4 10.2821 4H13.7111C14.0229 4 14.3143 4.16942 14.4634 4.44049L15.5205 6.33799H19.1393C19.6069 6.33799 19.9932 6.72427 20 7.19864ZM10.4986 5.21453H13.5042L14.4041 6.83799H9.581L10.4986 5.21453ZM10.7903 5.71453H13.2097L13.5553 6.33799H10.438L10.7903 5.71453Z" fill="white"/>
<path d="M9.42996 16.3727C9.45029 16.8336 9.82979 17.1927 10.2838 17.1927C10.2974 17.1927 10.3109 17.1927 10.3245 17.1927C10.7989 17.1724 11.1648 16.7726 11.1445 16.2982L10.8599 10.0161C10.8395 9.54174 10.4397 9.17579 9.96533 9.19612C9.49096 9.20967 9.12501 9.61628 9.14534 10.0839L9.42996 16.3727Z" fill="white"/>
<path fill-rule="evenodd" clip-rule="evenodd" d="M9.92948 16.3507C9.938 16.5438 10.097 16.6927 10.2838 16.6927H10.3107C10.5041 16.68 10.6531 16.5163 10.645 16.3201C10.645 16.3199 10.645 16.3203 10.645 16.3201L10.3603 10.0375C10.3519 9.83984 10.186 9.68712 9.98674 9.69566L9.97961 9.69597C9.79155 9.70134 9.63652 9.86584 9.64485 10.0618C9.64486 10.0619 9.64485 10.0617 9.64485 10.0618L9.92948 16.3507ZM9.14534 10.0839C9.12501 9.61628 9.49096 9.20967 9.96533 9.19612C10.4397 9.17579 10.8395 9.54174 10.8599 10.0161L11.1445 16.2982C11.1648 16.7726 10.7989 17.1724 10.3245 17.1927H10.2838C9.82979 17.1927 9.45029 16.8336 9.42996 16.3727L9.14534 10.0839Z" fill="#364063"/>
<path d="M13.6704 17.1849C13.684 17.1849 13.6975 17.1849 13.7111 17.1849C14.1651 17.1849 14.5446 16.8257 14.5649 16.3649L14.8496 10.0828C14.8699 9.60847 14.504 9.20864 14.0296 9.18831C13.5552 9.16798 13.1554 9.53392 13.135 10.0083L12.8504 16.2904C12.8301 16.7648 13.196 17.1646 13.6704 17.1849Z" fill="white"/>
<path fill-rule="evenodd" clip-rule="evenodd" d="M13.135 10.0083L12.8504 16.2904C12.8301 16.7648 13.196 17.1646 13.6704 17.1849H13.7111C14.1651 17.1849 14.5446 16.8257 14.5649 16.3649L14.8496 10.0828C14.8699 9.60847 14.504 9.20864 14.0296 9.18831C13.5552 9.16798 13.1554 9.53392 13.135 10.0083ZM14.35 10.0609C14.3501 10.0608 14.35 10.0611 14.35 10.0609C14.3583 9.86186 14.2057 9.69631 14.0082 9.68785C13.8089 9.67931 13.6431 9.83203 13.6346 10.0297L13.6345 10.0309L13.35 16.3118C13.35 16.3119 13.35 16.3116 13.35 16.3118C13.3418 16.508 13.49 16.6722 13.6834 16.6849H13.7102C13.8971 16.6849 14.0569 16.536 14.0654 16.3429L14.35 10.0609Z" fill="#364063"/>
</svg>
