<svg width="24" height="24" viewBox="0 0 24 24" fill="none" xmlns="http://www.w3.org/2000/svg">
<g clip-path="url(#clip0_759_21)">
<path d="M19.64 6.34H15.73L14.5 4.18C14.4697 4.12892 14.4275 4.08589 14.377 4.05456C14.3265 4.02323 14.2693 4.00452 14.21 4H10.78C10.7218 4.00789 10.6663 4.02915 10.6177 4.06211C10.5691 4.09508 10.5288 4.13885 10.5 4.19L9.27001 6.34H5.35001C5.26608 6.35414 5.18988 6.39755 5.13492 6.46254C5.07996 6.52753 5.0498 6.60989 5.0498 6.695C5.0498 6.78011 5.07996 6.86247 5.13492 6.92746C5.18988 6.99245 5.26608 7.03586 5.35001 7.05H6.43001L7.57001 18.8C7.58194 18.8875 7.62479 18.9679 7.69081 19.0266C7.75684 19.0853 7.84169 19.1184 7.93001 19.12H17.07C17.1599 19.1181 17.2459 19.0836 17.3122 19.0228C17.3784 18.9621 17.4203 18.8793 17.43 18.79L18.57 7.05H19.65C19.7428 7.05 19.8319 7.01313 19.8975 6.94749C19.9631 6.88185 20 6.79283 20 6.7C20 6.60452 19.9621 6.51295 19.8946 6.44544C19.8271 6.37793 19.7355 6.34 19.64 6.34ZM11 4.71H14L14.9 6.34H10.08L11 4.71ZM16.74 18.4H8.25001L7.15001 7.05H17.84L16.74 18.4Z" fill="#364063"/>
<path d="M10.4303 15.8505C10.4353 15.9407 10.4741 16.0258 10.5389 16.0888C10.6038 16.1518 10.6899 16.1881 10.7803 16.1905C10.8272 16.1892 10.8733 16.1785 10.9159 16.1591C10.9586 16.1397 10.9969 16.1119 11.0286 16.0774C11.0603 16.0429 11.0848 16.0024 11.1005 15.9582C11.1163 15.9141 11.123 15.8672 11.1203 15.8205L10.8603 9.50046C10.848 9.41479 10.8044 9.33672 10.7379 9.28132C10.6714 9.22591 10.5868 9.19711 10.5003 9.20046C10.4543 9.20175 10.4091 9.21209 10.3671 9.23089C10.3251 9.24969 10.2873 9.27657 10.2557 9.31C10.2241 9.34343 10.1994 9.38276 10.1831 9.42574C10.1667 9.46871 10.159 9.51449 10.1603 9.56046L10.4303 15.8505Z" fill="#364063"/>
<path d="M14.1901 16.1797C14.236 16.181 14.2818 16.1733 14.3248 16.1569C14.3678 16.1406 14.4071 16.1159 14.4405 16.0843C14.474 16.0527 14.5008 16.0149 14.5196 15.9729C14.5384 15.9309 14.5488 15.8857 14.5501 15.8397L14.8301 9.5597C14.8328 9.51373 14.8264 9.46766 14.8112 9.42416C14.7961 9.38066 14.7725 9.34058 14.7419 9.3062C14.7112 9.27183 14.6741 9.24384 14.6326 9.22385C14.5911 9.20386 14.5461 9.19226 14.5001 9.1897C14.411 9.18637 14.3238 9.21623 14.2554 9.27351C14.1871 9.33078 14.1424 9.41138 14.1301 9.4997L13.8501 15.7797C13.8412 15.8291 13.8434 15.8798 13.8565 15.9283C13.8695 15.9768 13.8932 16.0217 13.9257 16.0599C13.9582 16.0982 13.9987 16.1288 14.0444 16.1495C14.0902 16.1702 14.1399 16.1805 14.1901 16.1797Z" fill="#364063"/>
</g>
<defs>
<clipPath id="clip0_759_21">
<rect width="15" height="15.12" fill="white" transform="translate(5 4)"/>
</clipPath>
</defs>
</svg>
