<svg width="11" height="13" viewBox="0 0 11 13" fill="none" xmlns="http://www.w3.org/2000/svg">
<path opacity="0.5" fill-rule="evenodd" clip-rule="evenodd" d="M5.55688 7.1438L6.80807 6.41041C7.69111 5.89282 8.26781 4.95203 8.26781 3.89427C8.26781 2.29377 7.00737 1 5.47136 1C3.945 1 2.73074 2.22644 2.73074 3.89427C2.73074 5.02447 3.31823 5.94096 4.1581 6.39223L5.55688 7.1438ZM5.42548 7.68432L4.03831 8.20856C2.4618 8.80434 1.26267 10.2422 1.03799 12H9.97564C9.79224 10.2332 8.59121 8.76676 6.99022 8.21934L5.42548 7.68432ZM8.21182 6.55538C8.86819 5.85388 9.26781 4.918 9.26781 3.89427C9.26781 1.77533 7.59291 0 5.47136 0C3.34981 0 1.73074 1.71806 1.73074 3.89427C1.73074 4.95241 2.12547 5.89486 2.77467 6.57776C3.03901 6.85582 3.34554 7.09085 3.68479 7.27313C3.31998 7.41099 2.97168 7.58612 2.645 7.79412C1.07185 8.79577 0 10.56 0 12.5991C0 12.8282 0.167491 13 0.390811 13H10.6077C10.8311 13 10.9986 12.8282 10.9986 12.5991C11.0449 10.5546 9.97518 8.74686 8.36452 7.766C8.03524 7.56547 7.68334 7.3995 7.31376 7.27313C7.64786 7.07729 7.95023 6.83495 8.21182 6.55538Z" fill="#364063"/>
</svg>
