<svg width="30" height="19" viewBox="0 0 30 19" fill="none" xmlns="http://www.w3.org/2000/svg">
<path d="M0.161905 10.6754C0.272388 10.5511 1.39102 9.28053 3.33828 7.87188L1.69485 5.02696C1.50151 4.69551 1.61199 4.2812 1.94344 4.08785C2.27488 3.89451 2.703 4.00499 2.88254 4.33644L4.48454 7.0985C5.23029 6.62895 6.0451 6.17321 6.95658 5.74509L5.83795 2.66539C5.71365 2.30632 5.89319 1.90582 6.25226 1.78153C6.61132 1.65724 7.01182 1.83677 7.13611 2.19584L8.24094 5.20649C8.9867 4.91647 9.78769 4.66789 10.6163 4.46073L10.0501 1.24293C9.98104 0.87005 10.2296 0.510982 10.6163 0.44193C10.9892 0.372879 11.3483 0.621464 11.4173 1.00815L11.9835 4.19834C12.7293 4.07404 13.5027 3.99118 14.3037 3.96356V0.690516C14.3037 0.303827 14.6075 0 14.9942 0C15.3809 0 15.6847 0.303827 15.6847 0.690516V3.94975C16.4857 3.97737 17.2591 4.06023 18.0186 4.18453L18.5711 0.994343C18.6401 0.621464 18.9992 0.372879 19.3721 0.42812C19.7449 0.497171 19.9935 0.85624 19.9383 1.22912L19.3721 4.44692C20.2145 4.65408 21.0017 4.90266 21.7474 5.19268L22.8384 2.18203C22.9765 1.82296 23.3632 1.64343 23.7223 1.76772C24.0814 1.89201 24.2609 2.29251 24.1366 2.65158L23.018 5.73128C23.9295 6.14559 24.7581 6.61514 25.49 7.08469L27.092 4.33644C27.2854 4.00499 27.6997 3.89451 28.0311 4.08785C28.3626 4.2812 28.4731 4.69551 28.2797 5.02696L26.6501 7.87188C28.5973 9.28053 29.716 10.5511 29.8265 10.6754C30.0474 10.9378 30.0474 11.3245 29.8265 11.573C29.5917 11.8493 23.9156 18.2849 15.0494 18.3125C15.0356 18.3125 15.0218 18.3125 15.008 18.3125C14.9942 18.3125 14.9804 18.3125 14.9666 18.3125C6.08653 18.2849 0.424301 11.8493 0.189526 11.573C-0.0590601 11.3107 -0.0590598 10.9378 0.161905 10.6754ZM14.9942 16.9314C18.1982 16.9314 20.7945 14.3213 20.7945 11.1311C20.7945 7.94093 18.1844 5.33078 14.9942 5.33078C11.7902 5.33078 9.19385 7.94093 9.19385 11.1311C9.19385 14.3213 11.7902 16.9314 14.9942 16.9314ZM20.1592 6.13178C21.416 7.42995 22.1894 9.18386 22.1894 11.1311C22.1894 13.0646 21.416 14.8323 20.1731 16.1166C24.3576 14.777 27.2992 12.1669 28.3488 11.1173C27.2992 10.0677 24.3714 7.45757 20.1592 6.13178ZM9.82913 16.1166C8.57239 14.8185 7.79901 13.0646 7.79901 11.1173C7.79901 9.18386 8.57239 7.41614 9.81532 6.13178C5.61698 7.47138 2.68919 10.0815 1.6258 11.1173C2.703 12.1807 5.63079 14.7909 9.82913 16.1166Z" fill="#364063"/>
</svg>
