<svg width="32" height="32" viewBox="0 0 32 32" fill="none" xmlns="http://www.w3.org/2000/svg">
<g clip-path="url(#clip0_1921_1383)">
<path d="M1.16242 17.6754C1.27291 17.5511 2.39154 16.2805 4.3388 14.8719L2.69537 12.027C2.50203 11.6955 2.61251 11.2812 2.94396 11.0879C3.2754 10.8945 3.70352 11.005 3.88306 11.3364L5.48506 14.0985C6.23081 13.6289 7.04562 13.1732 7.9571 12.7451L6.83847 9.66539C6.71417 9.30632 6.89371 8.90582 7.25278 8.78153C7.61184 8.65724 8.01234 8.83677 8.13663 9.19584L9.24146 12.2065C9.98722 11.9165 10.7882 11.6679 11.6168 11.4607L11.0506 8.24293C10.9816 7.87005 11.2301 7.51098 11.6168 7.44193C11.9897 7.37288 12.3488 7.62146 12.4178 8.00815L12.984 11.1983C13.7298 11.074 14.5032 10.9912 15.3042 10.9636V7.69052C15.3042 7.30383 15.608 7 15.9947 7C16.3814 7 16.6852 7.30383 16.6852 7.69052V10.9497C17.4862 10.9774 18.2596 11.0602 19.0191 11.1845L19.5716 7.99434C19.6406 7.62146 19.9997 7.37288 20.3726 7.42812C20.7454 7.49717 20.994 7.85624 20.9388 8.22912L20.3726 11.4469C21.215 11.6541 22.0022 11.9027 22.7479 12.1927L23.8389 9.18203C23.977 8.82296 24.3637 8.64343 24.7228 8.76772C25.0819 8.89201 25.2614 9.29251 25.1371 9.65158L24.0185 12.7313C24.93 13.1456 25.7586 13.6151 26.4905 14.0847L28.0925 11.3364C28.2859 11.005 28.7002 10.8945 29.0316 11.0879C29.3631 11.2812 29.4736 11.6955 29.2802 12.027L27.6506 14.8719C29.5978 16.2805 30.7165 17.5511 30.827 17.6754C31.0479 17.9378 31.0479 18.3245 30.827 18.573C30.5922 18.8493 24.9161 25.2849 16.0499 25.3125C16.0361 25.3125 16.0223 25.3125 16.0085 25.3125C15.9947 25.3125 15.9809 25.3125 15.9671 25.3125C7.08705 25.2849 1.42482 18.8493 1.19004 18.573C0.941458 18.3107 0.941459 17.9378 1.16242 17.6754ZM15.9947 23.9314C19.1987 23.9314 21.795 21.3213 21.795 18.1311C21.795 14.9409 19.1849 12.3308 15.9947 12.3308C12.7907 12.3308 10.1944 14.9409 10.1944 18.1311C10.1944 21.3213 12.7907 23.9314 15.9947 23.9314ZM21.1597 13.1318C22.4165 14.43 23.1899 16.1839 23.1899 18.1311C23.1899 20.0646 22.4165 21.8323 21.1736 23.1166C25.3581 21.777 28.2997 19.1669 29.3493 18.1173C28.2997 17.0677 25.3719 14.4576 21.1597 13.1318ZM10.8296 23.1166C9.57291 21.8185 8.79953 20.0646 8.79953 18.1173C8.79953 16.1839 9.57291 14.4161 10.8158 13.1318C6.6175 14.4714 3.68971 17.0815 2.62632 18.1173C3.70352 19.1807 6.63131 21.7909 10.8296 23.1166Z" fill="#364063"/>
</g>
<defs>
<clipPath id="clip0_1921_1383">
<rect width="30" height="19" fill="white" transform="translate(1 7)"/>
</clipPath>
</defs>
</svg>
