<svg width="12" height="23" viewBox="0 0 12 23" fill="none" xmlns="http://www.w3.org/2000/svg">
<path opacity="0.5" d="M10.8117 3.06084V2.01141H11.8151V0.961977H10.9121V0H0.6773C-0.225767 0 -0.225767 2.97338 0.6773 2.97338C3.18582 2.97338 3.98854 4.02281 2.38309 7.43346C1.48002 9.35741 0.275943 9.61977 0.275943 10.7567C0.275943 11.8061 0.175596 20.3764 0.175596 21.4259C0.175596 22.4753 0.376284 23 1.27935 23C2.18242 23 7.90183 23 9.40694 23C10.9121 23 10.611 22.5627 10.611 21.3384C10.611 20.1141 10.7114 17.2281 10.7114 15.4791C10.7114 13.73 9.90866 13.2053 9.10593 12.3308C8.30321 11.4563 7.90184 11.019 6.69775 9.79468C5.69434 8.74525 5.19264 7.95817 5.19264 6.73384C5.19264 4.98479 6.19605 4.98479 7.2998 6.12167C8.30321 7.08365 9.40694 8.13308 10.4104 9.35741C11.4138 10.5817 11.5141 8.48289 11.1128 8.04563C9.10593 5.50951 7.2998 4.54753 7.2998 3.4981C7.50048 2.71103 10.8117 3.06084 10.8117 3.06084Z" fill="#364063"/>
</svg>
