<svg width="32" height="32" viewBox="0 0 32 32" fill="none" xmlns="http://www.w3.org/2000/svg">
<path opacity="0.5" d="M20.8117 7.06084V6.01141H21.8151V4.96198H20.9121V4H10.6773C9.77423 4 9.77423 6.97338 10.6773 6.97338C13.1858 6.97338 13.9885 8.02281 12.3831 11.4335C11.48 13.3574 10.2759 13.6198 10.2759 14.7567C10.2759 15.8061 10.1756 24.3764 10.1756 25.4259C10.1756 26.4753 10.3763 27 11.2794 27C12.1824 27 17.9018 27 19.4069 27C20.9121 27 20.611 26.5627 20.611 25.3384C20.611 24.1141 20.7114 21.2281 20.7114 19.4791C20.7114 17.73 19.9087 17.2053 19.1059 16.3308C18.3032 15.4563 17.9018 15.019 16.6977 13.7947C15.6943 12.7452 15.1926 11.9582 15.1926 10.7338C15.1926 8.98479 16.196 8.98479 17.2998 10.1217C18.3032 11.0837 19.4069 12.1331 20.4104 13.3574C21.4138 14.5817 21.5141 12.4829 21.1128 12.0456C19.1059 9.50951 17.2998 8.54753 17.2998 7.4981C17.5005 6.71103 20.8117 7.06084 20.8117 7.06084Z" fill="#364063"/>
</svg>
