<svg width="368" height="102" viewBox="0 0 368 102" fill="none" xmlns="http://www.w3.org/2000/svg">
<path d="M139.425 80.2942L165.965 20.1982L227.727 21.1957C214.829 3.2417 192.257 0 183.576 0C173.406 0 164.229 2.24425 156.044 6.48338C147.859 10.9719 141.41 16.9565 136.945 24.6867C132.232 32.4169 130 41.1445 130 50.8696C130 60.5947 132.232 69.3223 136.945 77.0525C137.937 78.2993 138.681 79.2967 139.425 80.2942Z" fill="#374063"/>
<path d="M227.967 21.6836L201.427 81.5302L139.666 80.7821C152.564 98.7361 175.135 101.978 183.817 101.978C193.986 101.978 203.163 99.7335 211.349 95.4944C219.534 91.0059 225.983 85.0213 230.448 77.2911C235.16 69.5609 237.393 60.8333 237.393 51.1082C237.393 41.3831 235.16 32.6555 230.448 24.9253C229.703 23.6785 228.711 22.681 227.967 21.6836Z" fill="#374063"/>
<path d="M60.6944 100.489H38.3711L59.7023 47.375H82.0256L60.6944 100.489Z" fill="#374063"/>
<path d="M22.5714 55.1138H0L21.3312 2H43.9025L22.5714 55.1138Z" fill="#374063"/>
<path d="M345.696 100.489H323.373L344.704 47.375H367.028L345.696 100.489Z" fill="#374063"/>
<path d="M307.571 55.1138H285L306.331 2H328.903L307.571 55.1138Z" fill="#374063"/>
</svg>
