<svg width="40" height="41" viewBox="0 0 40 41" fill="none" xmlns="http://www.w3.org/2000/svg">
<path d="M40 20.6016C40 9.60156 31 0.601562 20 0.601562C9 0.601562 0 9.60156 0 20.6016C0 30.0016 6.50001 37.8016 15.2 40.0016V26.7015H11.1V20.6016H15.2V18.0016C15.2 11.2016 18.3 8.00159 25 8.00159C26.3 8.00159 28.5 8.20159 29.3 8.50159V14.0016C28.8 14.0016 28 13.9016 27 13.9016C23.7 13.9016 22.5 15.1016 22.5 18.4016V20.6016H29L27.9 26.7015H22.5V40.4016C32.3 39.2016 40 30.8016 40 20.6016Z" fill="#0866FF"/>
<path d="M27.8 26.7L28.9 20.6H22.4V18.4C22.4 15.2 23.7 13.9 26.9 13.9C27.9 13.9 28.7 13.9 29.2 14V8.5C28.3 8.3 26.1 8 24.9 8C18.2 8 15.1 11.2 15.1 18V20.6H11V26.7H15.1V40C16.6 40.4 18.3 40.6 19.9 40.6C20.7 40.6 21.5 40.5 22.3 40.5V26.8H27.8V26.7Z" fill="white"/>
</svg>
