<svg width="137" height="43" viewBox="0 0 137 43" fill="none" xmlns="http://www.w3.org/2000/svg">
<path d="M47.9125 18.2053V22.0942H53.0317V22.9992H47.9125V27.1992H46.866V17.3002H53.6539V18.2053H47.9125ZM57.901 19.7043C58.872 19.7043 59.6168 19.9494 60.1353 20.4396C60.6538 20.9204 60.9131 21.6369 60.9131 22.5891V27.1992H59.9515V26.0396C59.7252 26.4262 59.3905 26.7278 58.9474 26.9447C58.5138 27.1615 57.9952 27.2699 57.3919 27.2699C56.5623 27.2699 55.9023 27.0719 55.4121 26.676C54.9218 26.28 54.6767 25.7568 54.6767 25.1063C54.6767 24.4746 54.903 23.9655 55.3555 23.579C55.8175 23.1925 56.5481 22.9992 57.5474 22.9992H59.9091V22.5467C59.9091 21.9056 59.7299 21.4201 59.3717 21.0901C59.0134 20.7507 58.4902 20.581 57.802 20.581C57.3306 20.581 56.8781 20.6612 56.4444 20.8214C56.0107 20.9723 55.6383 21.1844 55.3272 21.4578L54.8747 20.7083C55.2518 20.3878 55.7043 20.1427 56.2323 19.973C56.7602 19.7938 57.3165 19.7043 57.901 19.7043ZM57.5474 26.478C58.1131 26.478 58.5986 26.3507 59.004 26.0962C59.4094 25.8322 59.7111 25.4551 59.9091 24.9649V23.7487H57.5757C56.303 23.7487 55.6666 24.1918 55.6666 25.078C55.6666 25.5117 55.8316 25.8558 56.1616 26.1103C56.4915 26.3554 56.9535 26.478 57.5474 26.478ZM66.7506 27.2699C66.0153 27.2699 65.3553 27.1097 64.7708 26.7891C64.1957 26.4686 63.7432 26.0208 63.4133 25.4457C63.0833 24.8612 62.9183 24.206 62.9183 23.48C62.9183 22.7541 63.0833 22.1036 63.4133 21.5285C63.7432 20.9534 64.1957 20.5056 64.7708 20.1851C65.3553 19.8645 66.0153 19.7043 66.7506 19.7043C67.3917 19.7043 67.9621 19.8315 68.4617 20.0861C68.9708 20.3312 69.3715 20.6942 69.6638 21.175L68.9143 21.6841C68.6691 21.3164 68.358 21.043 67.9809 20.8639C67.6038 20.6753 67.1937 20.581 66.7506 20.581C66.2133 20.581 65.7277 20.7036 65.2941 20.9487C64.8698 21.1844 64.5351 21.5238 64.29 21.9669C64.0543 22.41 63.9365 22.9144 63.9365 23.48C63.9365 24.0551 64.0543 24.5642 64.29 25.0073C64.5351 25.441 64.8698 25.7804 65.2941 26.0255C65.7277 26.2612 66.2133 26.379 66.7506 26.379C67.1937 26.379 67.6038 26.2895 67.9809 26.1103C68.358 25.9312 68.6691 25.6578 68.9143 25.2901L69.6638 25.7992C69.3715 26.28 68.9708 26.6477 68.4617 26.9022C67.9526 27.1474 67.3823 27.2699 66.7506 27.2699ZM77.9886 23.7911H71.7664C71.823 24.5642 72.1199 25.1911 72.6573 25.6719C73.1947 26.1433 73.8735 26.379 74.6937 26.379C75.1556 26.379 75.5799 26.2989 75.9664 26.1386C76.3529 25.9689 76.6876 25.7238 76.9704 25.4033L77.5361 26.0538C77.2061 26.4497 76.7913 26.7514 76.2917 26.9588C75.8014 27.1662 75.2593 27.2699 74.6654 27.2699C73.9018 27.2699 73.223 27.1097 72.629 26.7891C72.0445 26.4592 71.5873 26.0066 71.2573 25.4315C70.9274 24.8565 70.7624 24.206 70.7624 23.48C70.7624 22.7541 70.9179 22.1036 71.229 21.5285C71.5496 20.9534 71.9832 20.5056 72.53 20.1851C73.0863 19.8645 73.7085 19.7043 74.3967 19.7043C75.0849 19.7043 75.7024 19.8645 76.2492 20.1851C76.796 20.5056 77.225 20.9534 77.5361 21.5285C77.8472 22.0942 78.0028 22.7447 78.0028 23.48L77.9886 23.7911ZM74.3967 20.5669C73.6802 20.5669 73.0768 20.7979 72.5866 21.2598C72.1058 21.7123 71.8324 22.3063 71.7664 23.0416H77.0412C76.9752 22.3063 76.697 21.7123 76.2068 21.2598C75.726 20.7979 75.1226 20.5669 74.3967 20.5669ZM83.8788 19.7043C84.5764 19.7043 85.208 19.8645 85.7737 20.1851C86.3394 20.4962 86.7825 20.9393 87.103 21.5144C87.4235 22.0895 87.5838 22.7447 87.5838 23.48C87.5838 24.2154 87.4235 24.8706 87.103 25.4457C86.7825 26.0208 86.3394 26.4686 85.7737 26.7891C85.208 27.1097 84.5764 27.2699 83.8788 27.2699C83.2565 27.2699 82.6956 27.1379 82.1959 26.874C81.7057 26.61 81.3097 26.2282 81.008 25.7285V27.1992H80.0464V16.7063H81.0505V21.175C81.3616 20.6942 81.7575 20.3312 82.2383 20.0861C82.7286 19.8315 83.2754 19.7043 83.8788 19.7043ZM83.808 26.379C84.3266 26.379 84.7979 26.2612 85.2222 26.0255C85.6464 25.7804 85.9764 25.4363 86.2121 24.9932C86.4572 24.5501 86.5798 24.0457 86.5798 23.48C86.5798 22.9144 86.4572 22.41 86.2121 21.9669C85.9764 21.5238 85.6464 21.1844 85.2222 20.9487C84.7979 20.7036 84.3266 20.581 83.808 20.581C83.2801 20.581 82.804 20.7036 82.3798 20.9487C81.9649 21.1844 81.635 21.5238 81.3899 21.9669C81.1542 22.41 81.0363 22.9144 81.0363 23.48C81.0363 24.0457 81.1542 24.5501 81.3899 24.9932C81.635 25.4363 81.9649 25.7804 82.3798 26.0255C82.804 26.2612 83.2801 26.379 83.808 26.379ZM92.671 27.2699C91.9545 27.2699 91.3087 27.1097 90.7336 26.7891C90.1585 26.4592 89.706 26.0066 89.376 25.4315C89.046 24.8565 88.8811 24.206 88.8811 23.48C88.8811 22.7541 89.046 22.1036 89.376 21.5285C89.706 20.9534 90.1585 20.5056 90.7336 20.1851C91.3087 19.8645 91.9545 19.7043 92.671 19.7043C93.3875 19.7043 94.0332 19.8645 94.6083 20.1851C95.1834 20.5056 95.6312 20.9534 95.9518 21.5285C96.2817 22.1036 96.4467 22.7541 96.4467 23.48C96.4467 24.206 96.2817 24.8565 95.9518 25.4315C95.6312 26.0066 95.1834 26.4592 94.6083 26.7891C94.0332 27.1097 93.3875 27.2699 92.671 27.2699ZM92.671 26.379C93.1989 26.379 93.6703 26.2612 94.0851 26.0255C94.5093 25.7804 94.8393 25.4363 95.075 24.9932C95.3107 24.5501 95.4285 24.0457 95.4285 23.48C95.4285 22.9144 95.3107 22.41 95.075 21.9669C94.8393 21.5238 94.5093 21.1844 94.0851 20.9487C93.6703 20.7036 93.1989 20.581 92.671 20.581C92.143 20.581 91.6669 20.7036 91.2427 20.9487C90.8279 21.1844 90.4979 21.5238 90.2528 21.9669C90.0171 22.41 89.8992 22.9144 89.8992 23.48C89.8992 24.0457 90.0171 24.5501 90.2528 24.9932C90.4979 25.4363 90.8279 25.7804 91.2427 26.0255C91.6669 26.2612 92.143 26.379 92.671 26.379ZM101.537 27.2699C100.82 27.2699 100.175 27.1097 99.5996 26.7891C99.0245 26.4592 98.572 26.0066 98.242 25.4315C97.912 24.8565 97.7471 24.206 97.7471 23.48C97.7471 22.7541 97.912 22.1036 98.242 21.5285C98.572 20.9534 99.0245 20.5056 99.5996 20.1851C100.175 19.8645 100.82 19.7043 101.537 19.7043C102.253 19.7043 102.899 19.8645 103.474 20.1851C104.049 20.5056 104.497 20.9534 104.818 21.5285C105.148 22.1036 105.313 22.7541 105.313 23.48C105.313 24.206 105.148 24.8565 104.818 25.4315C104.497 26.0066 104.049 26.4592 103.474 26.7891C102.899 27.1097 102.253 27.2699 101.537 27.2699ZM101.537 26.379C102.065 26.379 102.536 26.2612 102.951 26.0255C103.375 25.7804 103.705 25.4363 103.941 24.9932C104.177 24.5501 104.295 24.0457 104.295 23.48C104.295 22.9144 104.177 22.41 103.941 21.9669C103.705 21.5238 103.375 21.1844 102.951 20.9487C102.536 20.7036 102.065 20.581 101.537 20.581C101.009 20.581 100.533 20.7036 100.109 20.9487C99.6939 21.1844 99.3639 21.5238 99.1188 21.9669C98.8831 22.41 98.7652 22.9144 98.7652 23.48C98.7652 24.0457 98.8831 24.5501 99.1188 24.9932C99.3639 25.4363 99.6939 25.7804 100.109 26.0255C100.533 26.2612 101.009 26.379 101.537 26.379ZM110.12 23.4659L108.367 25.078V27.1992H107.363V16.7063H108.367V23.8194L112.807 19.7608H114.051L110.87 22.8012L114.348 27.1992H113.118L110.12 23.4659Z" fill="#364063"/>
<path d="M34.8817 20.7416C34.8817 13.4824 28.9423 7.54297 21.683 7.54297C14.4238 7.54297 8.48438 13.4824 8.48438 20.7416C8.48438 26.945 12.7739 32.0925 18.5154 33.5443V24.7672H15.8096V20.7416H18.5154V19.0258C18.5154 14.5383 20.5611 12.4265 24.9827 12.4265C25.8406 12.4265 27.2924 12.5585 27.8204 12.7565V16.3861C27.4904 16.3861 26.9625 16.3201 26.3026 16.3201C24.1248 16.3201 23.3329 17.112 23.3329 19.2898V20.7416H27.6224L26.8965 24.7672H23.3329V33.8083C29.8002 33.0164 34.8817 27.4729 34.8817 20.7416Z" fill="#0866FF"/>
</svg>
