<svg width="324" height="67" viewBox="0 0 324 67" fill="none" xmlns="http://www.w3.org/2000/svg">
<path d="M296.673 67H0.412109L27.3274 0H323.589L296.673 67Z" fill="white"/>
<path d="M291.159 22.2524C291.962 22.2524 292.689 22.4391 293.338 22.8125C293.996 23.186 294.511 23.7014 294.885 24.359C295.258 25.0084 295.445 25.7308 295.445 26.5264C295.445 27.3219 295.254 28.0525 294.872 28.7181C294.491 29.3757 293.971 29.8952 293.314 30.2767C292.656 30.6583 291.93 30.849 291.134 30.849C290.339 30.849 289.612 30.6583 288.955 30.2767C288.305 29.8952 287.79 29.3757 287.408 28.7181C287.035 28.0606 286.848 27.3381 286.848 26.5507C286.848 25.7633 287.035 25.0408 287.408 24.3833C287.79 23.7258 288.309 23.2062 288.967 22.8247C289.624 22.4432 290.355 22.2524 291.159 22.2524ZM291.134 30.3985C291.849 30.3985 292.498 30.228 293.082 29.8871C293.667 29.538 294.13 29.0713 294.471 28.4868C294.811 27.8942 294.982 27.2407 294.982 26.5264C294.982 25.812 294.816 25.1667 294.483 24.5903C294.15 24.0058 293.691 23.5472 293.107 23.2144C292.53 22.8734 291.881 22.703 291.159 22.703C290.436 22.703 289.778 22.8734 289.186 23.2144C288.601 23.5553 288.139 24.0221 287.798 24.6147C287.465 25.1991 287.299 25.8445 287.299 26.5507C287.299 27.257 287.465 27.9064 287.798 28.499C288.139 29.0834 288.601 29.5461 289.186 29.8871C289.77 30.228 290.42 30.3985 291.134 30.3985ZM293.314 25.7227C293.314 26.0961 293.216 26.4168 293.022 26.6847C292.835 26.9444 292.567 27.1352 292.218 27.257L293.362 29.0104H292.705L291.646 27.3666C291.581 27.3747 291.487 27.3787 291.366 27.3787H290.099V29.0104H289.466V24.0911H291.366C291.966 24.0911 292.441 24.2372 292.79 24.5294C293.139 24.8217 293.314 25.2194 293.314 25.7227ZM291.329 26.843C291.759 26.843 292.092 26.7455 292.327 26.5507C292.571 26.3559 292.693 26.0799 292.693 25.7227C292.693 25.3737 292.571 25.1058 292.327 24.9191C292.092 24.7242 291.759 24.6268 291.329 24.6268H290.087V26.843H291.329Z" fill="#374063"/>
<path d="M220.237 21.6831C221.782 22.4599 222.813 23.5604 223.263 24.9198C223.714 26.3439 223.585 28.027 222.941 29.9043C222.233 31.7816 221.138 33.4647 219.657 34.8889C218.176 36.313 216.373 37.4135 214.249 38.1256C212.124 38.9024 209.87 39.2261 207.359 39.2261H201.757L199.117 46.4116H192.678L203.109 20.4531H214.184C216.695 20.5179 218.692 20.9063 220.237 21.6831ZM213.605 33.2705C214.892 32.4937 215.794 31.3932 216.309 29.9691C216.824 28.4802 216.76 27.3797 215.987 26.6029C215.279 25.8261 213.927 25.4377 211.995 25.4377H206.715L203.431 34.4357H208.711C210.707 34.4357 212.317 34.0473 213.605 33.2705Z" fill="#E63B11"/>
<path d="M239.102 46.4741L236.333 39.2238H236.011H230.409L227.769 46.4741H221.33L231.761 20.5156H242.901C245.348 20.5156 247.408 20.904 248.954 21.6808C250.499 22.4577 251.529 23.5581 251.98 24.9176C252.431 26.3417 252.302 28.0248 251.658 29.9021C251.014 31.7794 249.855 33.4625 248.31 34.8866C246.829 36.3108 244.961 37.3465 242.901 38.1234L246.12 46.4741H239.102ZM244.704 26.6006C243.996 25.8238 242.643 25.4354 240.712 25.4354H235.432L232.148 34.4982H237.428C239.359 34.4982 240.969 34.1098 242.321 33.333C243.609 32.5562 244.511 31.4557 245.09 29.9668C245.541 28.4779 245.477 27.3775 244.704 26.6006Z" fill="#E63B11"/>
<path d="M257.005 41.2384L264.024 25.3785L280.379 25.6375C276.967 20.9119 271.043 20.0703 268.725 20.0703C266.02 20.0703 263.638 20.6529 261.448 21.8181C259.323 22.9834 257.585 24.6017 256.362 26.6085C255.138 28.68 254.559 30.9457 254.559 33.4703C254.559 35.995 255.138 38.3254 256.362 40.3321C256.619 40.6558 256.812 40.9795 257.005 41.2384Z" fill="#E63B11"/>
<path d="M280.442 25.7656L273.424 41.5608L257.068 41.3019C260.481 46.0275 266.405 46.869 268.723 46.869C271.427 46.869 273.81 46.2864 275.999 45.1212C278.124 43.956 279.863 42.3376 281.086 40.3308C282.309 38.2593 282.889 35.9936 282.889 33.469C282.889 30.9444 282.309 28.6139 281.086 26.6072C280.828 26.2835 280.635 26.0246 280.442 25.7656Z" fill="#E63B11"/>
<path d="M274.331 41.4938H256.816L263.255 25.375H280.834L274.331 41.4938Z" fill="white"/>
<path d="M271.048 32.6978L268.666 33.3452L270.211 31.4679L281.93 23.5703L282.832 24.865L271.048 32.6978Z" fill="#374063"/>
<path d="M243.228 34.5712L246.77 25.3789L227.967 25.4436L224.619 34.5064C224.619 34.4417 237.304 34.5712 243.228 34.5712Z" fill="white"/>
<path d="M214.574 34.5712L218.115 25.3789L199.313 25.4436L195.965 34.5064C196.029 34.4417 208.65 34.5712 214.574 34.5712Z" fill="white"/>
<path d="M182.056 41.6826L179.866 46.4082H166.924L169.435 20.7734H190.555L188.366 25.499H171.689L169.371 31.0662H186.434L184.245 35.6623H171.753L169.821 41.6179H182.056V41.6826Z" fill="#374063"/>
<path d="M44.1285 41.1608L51.0183 25.5599L67.0515 25.8188C63.7032 21.158 57.8437 20.3164 55.59 20.3164C52.95 20.3164 50.5675 20.899 48.4427 21.9995C46.3178 23.1647 44.6436 24.7183 43.4846 26.7251C42.2612 28.7319 41.6816 30.9976 41.6816 33.5222C41.6816 36.0468 42.2612 38.3125 43.4846 40.3193C43.7421 40.643 43.9353 40.9019 44.1285 41.1608Z" fill="#374063"/>
<path d="M67.1145 25.9453L60.2247 41.4815L44.1914 41.2873C47.5397 45.9482 53.3993 46.7898 55.6529 46.7898C58.293 46.7898 60.6754 46.2071 62.8003 45.1067C64.9252 43.9414 66.5993 42.3878 67.7584 40.3811C68.9818 38.3743 69.5613 36.1086 69.5613 33.584C69.5613 31.0593 68.9818 28.7936 67.7584 26.7869C67.5652 26.4632 67.3076 26.2042 67.1145 25.9453Z" fill="#374063"/>
<path d="M168.083 46.4101H163.189L169.371 31.1328H174.2L168.083 46.4101Z" fill="#374063"/>
<path d="M141.238 41.2351L148.128 25.6341L164.161 25.893C160.813 21.2322 154.953 20.3906 152.699 20.3906C150.059 20.3906 147.677 20.9732 145.552 22.0737C143.427 23.2389 141.753 24.7926 140.594 26.7993C139.371 28.8061 138.791 31.0718 138.791 33.5964C138.791 36.1211 139.371 38.3868 140.594 40.3935C140.852 40.6525 141.045 40.9114 141.238 41.2351Z" fill="#374063"/>
<path d="M149.607 28.0254L150.573 25.8891H159.523L161.584 20.3867H152.118L149.156 23.494L149.607 28.0254Z" fill="#374063"/>
<path d="M150.636 39.1016L151.602 41.3025H156.753L158.813 46.8049H151.408L145.678 39.1016H150.636Z" fill="#374063"/>
<path d="M141.236 41.2338L148.126 25.6328L166.026 25.9565L159.78 41.4927L141.3 41.2985C141.3 41.2985 141.043 40.9101 141.236 41.2338Z" fill="white"/>
<path d="M154.819 35.6635L161.708 20.0625L164.284 20.3862L164.413 35.9871L153.338 35.7282C153.338 35.7929 153.08 35.4045 154.819 35.6635Z" fill="white"/>
<path d="M152.567 46.7385L139.174 46.4148L141.234 41.3008L155.529 41.4303L152.567 46.7385Z" fill="#374063"/>
<path d="M167.566 35.7248H162.801L168.789 20.8359H173.554L167.566 35.7248Z" fill="#374063"/>
<path d="M105.37 25.5638L102.408 32.3609H117.154L115.093 37.0865H105.37L101.7 46.4082H100.283L105.821 20.7734H120.953L118.892 25.499H105.37V25.5638Z" fill="#374063"/>
<path d="M102.535 46.4056H96.7402L102.278 32.6172H108.137L102.535 46.4056Z" fill="#374063"/>
<path d="M104.274 34.6243H98.4141L104.016 20.8359H109.811L104.274 34.6243Z" fill="#374063"/>
<path d="M127.067 46.4129H121.143L126.873 32.3008H132.733L127.067 46.4129Z" fill="#374063"/>
<path d="M128.869 34.6282H123.074L128.612 20.8398H134.407L128.869 34.6282Z" fill="#374063"/>
<path d="M81.0286 25.5638L78.0666 32.3609H92.8121L90.7516 37.0865H81.0286L77.3583 46.4082H76.2637L82.0588 20.7734H96.6111L94.5506 25.499H81.0286V25.5638Z" fill="#374063"/>
<path d="M78.1955 46.4056H72.4004L77.938 32.6172H83.7331L78.1955 46.4056Z" fill="#374063"/>
<path d="M79.9338 34.6243H74.0742L79.6118 20.8359H85.4714L79.9338 34.6243Z" fill="#374063"/>
</svg>
