<svg width="264" height="70" viewBox="0 0 264 70" fill="none" xmlns="http://www.w3.org/2000/svg">
<g clip-path="url(#clip0_810_111)">
<g clip-path="url(#clip1_810_111)">
<path d="M260.177 27.789C259.765 27.789 259.383 27.7149 259.032 27.5666C258.68 27.4183 258.373 27.2124 258.109 26.9488C257.845 26.6797 257.639 26.3694 257.491 26.018C257.348 25.6665 257.277 25.2876 257.277 24.8812C257.277 24.4749 257.351 24.096 257.499 23.7445C257.648 23.393 257.854 23.0855 258.117 22.8219C258.381 22.5528 258.688 22.3442 259.04 22.1959C259.397 22.0476 259.781 21.9735 260.193 21.9735C260.605 21.9735 260.987 22.0476 261.338 22.1959C261.695 22.3387 262.002 22.5419 262.261 22.8054C262.524 23.069 262.727 23.3766 262.87 23.728C263.018 24.074 263.093 24.4529 263.093 24.8648C263.093 25.2766 263.018 25.661 262.87 26.018C262.722 26.3694 262.513 26.6797 262.244 26.9488C261.98 27.2124 261.673 27.4183 261.321 27.5666C260.97 27.7149 260.588 27.789 260.177 27.789ZM261.239 26.5452L260.407 25.2602H260.852L261.684 26.5452H261.239ZM260.168 27.4842C260.542 27.4842 260.885 27.4183 261.198 27.2865C261.511 27.1492 261.786 26.9625 262.022 26.7264C262.263 26.4903 262.45 26.2129 262.582 25.8944C262.714 25.5704 262.779 25.2272 262.779 24.8648C262.779 24.4968 262.714 24.1564 262.582 23.8433C262.455 23.5303 262.274 23.2558 262.038 23.0196C261.807 22.7835 261.533 22.6023 261.214 22.476C260.901 22.3442 260.561 22.2783 260.193 22.2783C259.82 22.2783 259.474 22.3442 259.155 22.476C258.837 22.6077 258.559 22.7945 258.323 23.0361C258.092 23.2722 257.911 23.5468 257.779 23.8598C257.648 24.1728 257.582 24.5133 257.582 24.8812C257.582 25.2437 257.648 25.5842 257.779 25.9027C257.911 26.2157 258.092 26.493 258.323 26.7346C258.559 26.9708 258.834 27.1547 259.147 27.2865C259.465 27.4183 259.806 27.4842 260.168 27.4842ZM259.048 26.5452V23.2173H260.333C260.745 23.2173 261.066 23.3189 261.297 23.5221C261.533 23.7198 261.651 23.9861 261.651 24.3211C261.651 24.6726 261.533 24.9471 261.297 25.1448C261.066 25.3425 260.745 25.4414 260.333 25.4414H259.476V26.5452H259.048ZM259.468 25.0789H260.308C260.599 25.0789 260.825 25.013 260.984 24.8812C261.149 24.7494 261.231 24.5627 261.231 24.3211C261.231 24.085 261.149 23.9038 260.984 23.7774C260.825 23.6456 260.599 23.5798 260.308 23.5798H259.468V25.0789Z" fill="white"/>
<path d="M251.4 27.9C251.3 27.7 251.1 27.4 250.9 27.2L244.3 43.5H243.4V43.6L237.6 43.5H226.3C229.9 48.3 236 49.2 238.4 49.2C241.2 49.2 243.8 48.6 246 47.4C248.3 46.2 250 44.5 251.3 42.4C252.6 40.3 253.2 37.9 253.2 35.2C253.3 32.4 252.7 30 251.4 27.9Z" fill="white"/>
<path d="M232.8 26.6H250.5C246.9 21.9 240.9 21.1 238.5 21.1C235.7 21.1 233.1 21.7 230.9 22.9C228.6 24.1 226.9 25.8 225.6 27.9C224.3 30 223.7 32.4 223.7 35.1C223.7 37.8 224.3 40.2 225.6 42.3C225.8 42.6 226 42.8 226.1 43.1L232.8 26.6Z" fill="white"/>
<path d="M240.9 34.3L238.4 34.9L240 33L252.4 24.7L253.3 26.1L240.9 34.3Z" fill="white"/>
<path d="M220.8 26.2C220.3 24.7 219.2 23.6 217.6 22.8C216 22 213.9 21.6 211.3 21.6H199.6L197.5 26.7H215.4L213.6 31.3C213.6 31.4 213.6 31.4 213.5 31.5C213.5 31.6 213.4 31.6 213.4 31.7L211.6 36.3C206.7 36.3 197.3 36.2 193.6 36.2L188.5 48.8H195.3L198.1 41.2H204H204.3L207.2 48.8H214.5L211.1 40.1C213.3 39.3 215.2 38.2 216.8 36.7C218.4 35.2 219.5 33.5 220.3 31.5C221.2 29.4 221.3 27.6 220.8 26.2Z" fill="white"/>
<path d="M190.7 26.2C190.2 24.7 189.1 23.6 187.5 22.8C185.9 22 183.8 21.6 181.2 21.6H169.5L167.4 26.7H185.3L181.6 36.3C176.7 36.3 167.3 36.2 163.6 36.2L158.5 48.8H165.3L168 41.3H173.9C176.5 41.3 178.9 40.9 181.1 40.1C183.3 39.3 185.2 38.2 186.8 36.7C188.4 35.2 189.5 33.5 190.3 31.5C191.1 29.4 191.2 27.6 190.7 26.2Z" fill="white"/>
<path d="M228.877 41.5489C228.785 41.5489 228.716 41.5185 228.668 41.4578C228.629 41.392 228.626 41.3136 228.661 41.2225C228.696 41.1314 228.758 41.0555 228.846 40.9948C228.94 40.934 229.033 40.9037 229.125 40.9037C229.217 40.9037 229.284 40.934 229.326 40.9948C229.373 41.0555 229.379 41.1314 229.344 41.2225C229.309 41.3136 229.244 41.392 229.148 41.4578C229.06 41.5185 228.969 41.5489 228.877 41.5489ZM233.32 41.5185L233.667 40.6152L233.703 40.4786L234.274 38.9908C234.416 38.6214 234.415 38.3405 234.272 38.1482C234.135 37.9559 233.86 37.8598 233.448 37.8598C233.155 37.8598 232.863 37.9079 232.571 38.004C232.287 38.0951 232.027 38.214 231.792 38.3608L231.694 38.0875C231.973 37.9104 232.28 37.7738 232.615 37.6776C232.952 37.5764 233.283 37.5258 233.609 37.5258C234.135 37.5258 234.491 37.6498 234.677 37.8977C234.864 38.1457 234.863 38.5151 234.675 39.006L233.71 41.5185H233.32ZM231.78 41.5489C231.465 41.5489 231.209 41.5033 231.011 41.4123C230.82 41.3161 230.695 41.182 230.637 41.0099C230.584 40.8379 230.6 40.6405 230.685 40.4179C230.763 40.2155 230.882 40.0333 231.041 39.8713C231.209 39.7043 231.428 39.5702 231.7 39.469C231.974 39.3628 232.306 39.3096 232.696 39.3096H234.257L234.144 39.6057H232.591C232.152 39.6057 231.814 39.6816 231.576 39.8334C231.345 39.9852 231.185 40.175 231.098 40.4027C231.001 40.6557 231.026 40.8581 231.174 41.0099C231.321 41.1618 231.582 41.2377 231.956 41.2377C232.314 41.2377 232.644 41.1618 232.946 41.0099C233.254 40.8581 233.522 40.638 233.752 40.3496L233.767 40.6076C233.543 40.8961 233.259 41.1263 232.917 41.2984C232.581 41.4654 232.203 41.5489 231.78 41.5489ZM242.203 37.5258C242.545 37.5258 242.816 37.5891 243.016 37.7156C243.225 37.837 243.351 38.0243 243.394 38.2773C243.44 38.5252 243.392 38.8339 243.25 39.2034L242.362 41.5185H241.955L242.832 39.2337C243.003 38.7884 243.017 38.4493 242.873 38.2166C242.729 37.9838 242.449 37.8674 242.031 37.8674C241.711 37.8674 241.411 37.9306 241.129 38.0572C240.847 38.1837 240.601 38.3608 240.388 38.5885C240.176 38.8162 240.009 39.0895 239.887 39.4083L239.077 41.5185H238.67L239.547 39.2337C239.718 38.7884 239.732 38.4493 239.588 38.2166C239.444 37.9838 239.164 37.8674 238.746 37.8674C238.427 37.8674 238.126 37.9306 237.844 38.0572C237.563 38.1837 237.316 38.3608 237.104 38.5885C236.892 38.8162 236.724 39.0895 236.602 39.4083L235.792 41.5185H235.385L236.906 37.5562H237.297L236.877 38.6492L236.867 38.5278C237.11 38.2191 237.412 37.9762 237.773 37.7991C238.135 37.6169 238.523 37.5258 238.934 37.5258C239.357 37.5258 239.673 37.627 239.883 37.8294C240.1 38.0268 240.171 38.3228 240.095 38.7175L239.977 38.6644C240.221 38.3254 240.54 38.0521 240.934 37.8446C241.33 37.6321 241.753 37.5258 242.203 37.5258Z" fill="white"/>
<path d="M147.4 43.7L145.1 48.7H131.5L134.2 21.9H156.4L154.1 26.9H136.6L134.2 32.7H152L149.7 37.5H136.6L134.5 43.7H147.4Z" fill="white"/>
<path d="M2.5 43.2L9.7 26.9L26.6 27.2C23.1 22.3 16.9 21.5 14.6 21.5C11.8 21.5 9.3 22.1 7.1 23.3C4.9 24.4 3.1 26 1.9 28.1C0.6 30.2 0 32.6 0 35.2C0 37.8 0.6 40.2 1.9 42.3C2.1 42.6 2.3 42.9 2.5 43.2Z" fill="white"/>
<path d="M26.7 27.2L19.5 43.5L2.59998 43.2C6.09998 48.1 12.3 48.9 14.6 48.9C17.4 48.9 19.9 48.3 22.1 47.1C24.3 45.9 26.1 44.3 27.3 42.2C28.6 40.1 29.2 37.7 29.2 35.1C29.2 32.5 28.6 30.1 27.3 28C27.1 27.8 26.9 27.5 26.7 27.2Z" fill="white"/>
<path d="M132.7 48.6H127.6L134.1 32.7H139.2L132.7 48.6Z" fill="white"/>
<path d="M104.5 43.2L111.7 26.9L123.3 27.1L125.8 21.4H115.8C113.3 21.5 111.1 22.1 109 23.2C106.8 24.4 105 26 103.8 28.1C102.5 30.2 101.9 32.6 101.9 35.2C101.9 37.8 102.5 40.2 103.8 42.3C104.1 42.6 104.3 42.8 104.5 43.2C104.5 43.1 104.5 43.1 104.5 43.2Z" fill="white"/>
<path d="M132.2 37.4H127.2L133.5 21.9H138.5L132.2 37.4Z" fill="white"/>
<path d="M66.9 26.8L63.8 33.9H79.3L77.1 38.9H66.9L63 48.6H61.5L67.3 21.8H83.2L81 26.8H66.9Z" fill="white"/>
<path d="M63.9 48.6H57.8L63.6 34.2H69.7L63.9 48.6Z" fill="white"/>
<path d="M65.7 36.3H59.6L65.4 21.9H71.5L65.7 36.3Z" fill="white"/>
<path d="M89.6 48.6H83.5L89.4 33.9H95.6L89.6 48.6Z" fill="white"/>
<path d="M91.5 36.3H85.4L91.2 21.9H97.4L91.5 36.3Z" fill="white"/>
<path d="M133.7 36.4H127.6L133.4 22H139.6L133.7 36.4Z" fill="white"/>
<path d="M132.7 48.6H126.6L132.4 34.2H138.6L132.7 48.6Z" fill="white"/>
<path d="M41.3 26.8L38.2 33.9H53.7L51.5 38.9H41.3L37.4 48.7H36.2L42.3 21.9H57.6L55.4 26.9H41.3V26.8Z" fill="white"/>
<path d="M38.3 48.6H32.2L38 34.2H44.1L38.3 48.6Z" fill="white"/>
<path d="M40.1 36.3H34L39.8 21.9H45.9L40.1 36.3Z" fill="white"/>
<path d="M110.9 43.3H104.5L102.3 48.6H114.9H122.9L120.8 43.3H110.9Z" fill="white"/>
</g>
</g>
<defs>
<clipPath id="clip0_810_111">
<rect width="263.5" height="70" fill="white"/>
</clipPath>
<clipPath id="clip1_810_111">
<rect width="263.5" height="28.1" fill="white" transform="translate(0 21)"/>
</clipPath>
</defs>
</svg>
