<svg width="113" height="70" viewBox="0 0 113 70" fill="none" xmlns="http://www.w3.org/2000/svg">
<g clip-path="url(#clip0_810_113)">
<path d="M109.432 6.97358C109.975 6.97358 110.467 7.09989 110.906 7.3525C111.351 7.60511 111.7 7.95382 111.952 8.39864C112.205 8.83796 112.331 9.3267 112.331 9.86487C112.331 10.403 112.202 10.8973 111.944 11.3476C111.686 11.7924 111.335 12.1439 110.89 12.402C110.445 12.6601 109.953 12.7891 109.415 12.7891C108.877 12.7891 108.386 12.6601 107.941 12.402C107.501 12.1439 107.153 11.7924 106.895 11.3476C106.642 10.9028 106.516 10.414 106.516 9.88135C106.516 9.34867 106.642 8.85992 106.895 8.41511C107.153 7.9703 107.504 7.61884 107.949 7.36074C108.394 7.10263 108.888 6.97358 109.432 6.97358ZM109.415 12.4843C109.899 12.4843 110.338 12.369 110.733 12.1384C111.129 11.9022 111.442 11.5865 111.672 11.1911C111.903 10.7902 112.018 10.3481 112.018 9.86487C112.018 9.38162 111.906 8.94504 111.681 8.55514C111.455 8.15975 111.145 7.84948 110.75 7.62433C110.36 7.39368 109.92 7.27836 109.432 7.27836C108.943 7.27836 108.498 7.39368 108.097 7.62433C107.702 7.85497 107.389 8.17074 107.158 8.57162C106.933 8.96701 106.821 9.40359 106.821 9.88135C106.821 10.3591 106.933 10.7984 107.158 11.1993C107.389 11.5947 107.702 11.9077 108.097 12.1384C108.493 12.369 108.932 12.4843 109.415 12.4843ZM110.89 9.32121C110.89 9.57382 110.824 9.79074 110.692 9.97196C110.566 10.1477 110.385 10.2767 110.148 10.3591L110.923 11.5453H110.478L109.761 10.4332C109.717 10.4387 109.654 10.4415 109.572 10.4415H108.715V11.5453H108.287V8.21741H109.572C109.978 8.21741 110.299 8.31626 110.536 8.51396C110.772 8.71165 110.89 8.98074 110.89 9.32121ZM109.547 10.079C109.838 10.079 110.063 10.0131 110.223 9.88135C110.387 9.74955 110.47 9.56284 110.47 9.32121C110.47 9.08508 110.387 8.90386 110.223 8.77755C110.063 8.64575 109.838 8.57986 109.547 8.57986H108.707V10.079H109.547Z" fill="white"/>
<path d="M92.9 42.9C92.8 42.7 92.6 42.4 92.4 42.2L85.8 58.5H84.9V58.6L79.1 58.5H67.9C71.5 63.3 77.6 64.2 80 64.2C82.8 64.2 85.4 63.6 87.6 62.4C89.9 61.2 91.6 59.5 92.9 57.4C94.2 55.3 94.8 52.9 94.8 50.2C94.8 47.4 94.2 45 92.9 42.9Z" fill="white"/>
<path d="M74.2 41.5H91.9C88.3 36.8 82.3 36 79.9 36C77.1 36 74.5 36.6 72.3 37.8C70 39 68.3 40.7 67 42.8C65.7 44.9 65.1 47.3 65.1 50C65.1 52.7 65.7 55.1 67 57.2C67.2 57.5 67.4 57.7 67.5 58L74.2 41.5Z" fill="white"/>
<path d="M82.4 49.2L79.9 49.9L81.5 47.9L93.9 39.7L94.8 41L82.4 49.2Z" fill="white"/>
<path d="M62.3 41.1C61.8 39.6 60.7 38.5 59.1 37.7C57.5 36.9 55.4 36.5 52.8 36.5H41.1L39 41.6H56.9L55.1 46.2C55.1 46.3 55.1 46.3 55 46.4C55 46.5 54.9 46.5 54.9 46.6L53.1 51.2C48.2 51.2 38.8 51.1 35.1 51.1L30 63.7H36.8L39.6 56.1H45.5H45.8L48.7 63.7H56L52.6 55C54.8 54.2 56.7 53.1 58.3 51.6C59.9 50.1 61 48.4 61.8 46.4C62.7 44.3 62.8 42.6 62.3 41.1Z" fill="white"/>
<path d="M32.2 41.1C31.7 39.6 30.6 38.5 29 37.7C27.4 36.9 25.3 36.5 22.7 36.5H10.9L8.8 41.6H26.7L23 51.2C18.1 51.2 8.7 51.1 5 51.1L0 63.6H6.8L9.5 56.1H15.4C18 56.1 20.4 55.7 22.6 54.9C24.8 54.1 26.7 53 28.3 51.5C29.9 50 31 48.3 31.8 46.3C32.6 44.3 32.7 42.6 32.2 41.1Z" fill="white"/>
<path d="M70.3646 56.4874C70.2725 56.4874 70.2028 56.457 70.1557 56.3963C70.1159 56.3305 70.1135 56.2521 70.1484 56.161C70.1834 56.0699 70.2451 55.994 70.3334 55.9333C70.4272 55.8725 70.5202 55.8422 70.6123 55.8422C70.7045 55.8422 70.7714 55.8725 70.8131 55.9333C70.8603 55.994 70.8664 56.0699 70.8314 56.161C70.7964 56.2521 70.7311 56.3305 70.6354 56.3963C70.547 56.457 70.4568 56.4874 70.3646 56.4874ZM75.096 52.4643C75.6218 52.4643 75.9771 52.5908 76.1618 52.8438C76.3485 53.0918 76.3486 53.4587 76.1621 53.9445L75.1975 56.457H74.8073L75.0783 55.7511C74.8534 55.9839 74.5856 56.166 74.2749 56.2976C73.9662 56.4241 73.6302 56.4874 73.267 56.4874C72.7954 56.4874 72.4612 56.3836 72.2644 56.1762C72.073 55.9687 72.0424 55.6954 72.1726 55.3564C72.2989 55.0274 72.5255 54.7618 72.8526 54.5593C73.187 54.3519 73.6307 54.2481 74.1836 54.2481H75.639L75.7614 53.9293C75.9032 53.5599 75.9026 53.279 75.7596 53.0867C75.622 52.8944 75.3472 52.7983 74.9353 52.7983C74.6534 52.7983 74.3649 52.8438 74.0697 52.9349C73.78 53.026 73.5166 53.1475 73.2794 53.2993L73.181 53.026C73.4604 52.8489 73.7676 52.7123 74.1027 52.6161C74.4397 52.5149 74.7708 52.4643 75.096 52.4643ZM73.4434 56.1762C73.7957 56.1762 74.123 56.1003 74.4252 55.9484C74.7328 55.7966 75.0044 55.5765 75.2398 55.2881L75.5253 54.5442H74.078C73.6607 54.5442 73.3299 54.615 73.0858 54.7567C72.8471 54.8984 72.6802 55.0932 72.585 55.3412C72.4859 55.5993 72.5102 55.8042 72.6579 55.956C72.8075 56.1028 73.0694 56.1762 73.4434 56.1762ZM83.6904 52.4643C84.2162 52.4643 84.5728 52.6085 84.7602 52.897C84.953 53.1854 84.9455 53.6004 84.7376 54.1419L83.8488 56.457H83.4423L84.3194 54.1722C84.4904 53.7269 84.504 53.3878 84.3603 53.1551C84.2165 52.9223 83.936 52.8059 83.5186 52.8059C83.0416 52.8059 82.6087 52.945 82.22 53.2234C81.8367 53.5017 81.5547 53.8762 81.3741 54.3468L80.564 56.457H80.1574L81.0345 54.1722C81.2055 53.7269 81.2191 53.3878 81.0754 53.1551C80.9317 52.9223 80.6511 52.8059 80.2337 52.8059C79.7567 52.8059 79.3239 52.945 78.9351 53.2234C78.5518 53.5017 78.2699 53.8762 78.0892 54.3468L77.2791 56.457H76.8726L78.3937 52.4947H78.784L78.4576 53.3448C78.7054 53.0665 78.9966 52.8514 79.3314 52.6996C79.6734 52.5427 80.0369 52.4643 80.4218 52.4643C80.8066 52.4643 81.1008 52.5453 81.3042 52.7072C81.5131 52.8691 81.6142 53.107 81.6076 53.4207C81.8612 53.1272 82.1701 52.8944 82.5343 52.7224C82.9039 52.5503 83.2893 52.4643 83.6904 52.4643Z" fill="white"/>
<path d="M99.7 26L98.3 28.9H90.3L91.9 13.2H104.9L103.5 16.1H93.3L91.9 19.5H102.4L101 22.3H93.3L92.1 26H99.7Z" fill="white"/>
<path d="M14.8 25.7L19 16.2L28.9 16.4C26.8 13.5 23.2 13 21.9 13C20.3 13 18.8 13.3 17.5 14C16.2 14.7 15.2 15.7 14.4 16.9C13.7 18.1 13.3 19.5 13.3 21C13.3 22.5 13.7 23.9 14.4 25.1C14.6 25.4 14.7 25.6 14.8 25.7Z" fill="white"/>
<path d="M29 16.4L24.8 25.9L14.9 25.7C17 28.6 20.6 29.1 21.9 29.1C23.5 29.1 25 28.8 26.3 28.1C27.6 27.4 28.6 26.4 29.4 25.2C30.1 24 30.5 22.6 30.5 21.1C30.5 19.6 30.1 18.2 29.4 17C29.2 16.7 29.1 16.6 29 16.4Z" fill="white"/>
<path d="M91.1 28.9H88.1L91.8 19.6H94.9L91.1 28.9Z" fill="white"/>
<path d="M74.6 25.7L78.8 16.2L85.6 16.3L87.1 13H81.3C79.8 13.1 78.5 13.4 77.3 14C76 14.7 75 15.7 74.2 16.9C73.5 18.1 73.1 19.5 73.1 21C73.1 22.5 73.5 23.9 74.2 25.1C74.3 25.4 74.4 25.5 74.6 25.7C74.5 25.7 74.5 25.7 74.6 25.7Z" fill="white"/>
<path d="M90.8 22.4H87.8L91.5 13.3H94.4L90.8 22.4Z" fill="white"/>
<path d="M52.5 16.2L50.7 20.3H59.8L58.5 23.2H52.5L50.2 28.9H49.3L52.7 13.2H62L60.7 16.1H52.5V16.2Z" fill="white"/>
<path d="M50.8 28.9H47.2L50.6 20.5H54.2L50.8 28.9Z" fill="white"/>
<path d="M51.8 21.7H48.2L51.6 13.3H55.2L51.8 21.7Z" fill="white"/>
<path d="M65.8 28.9H62.2L65.7 20.3H69.3L65.8 28.9Z" fill="white"/>
<path d="M66.9 21.7H63.4L66.8 13.3H70.4L66.9 21.7Z" fill="white"/>
<path d="M91.7 21.8H88.1L91.5 13.3H95.1L91.7 21.8Z" fill="white"/>
<path d="M91.1 28.9H87.5L90.9 20.5H94.5L91.1 28.9Z" fill="white"/>
<path d="M37.5 16.2L35.7 20.3H44.8L43.5 23.2H37.5L35.2 28.9H34.5L38.1 13.2H47L45.7 16.1H37.5V16.2Z" fill="white"/>
<path d="M35.8 28.9H32.2L35.6 20.5H39.2L35.8 28.9Z" fill="white"/>
<path d="M36.8 21.7H33.2L36.7 13.3H40.2L36.8 21.7Z" fill="white"/>
<path d="M78.3 25.8H74.5L73.3 28.9H80.7H85.3L84.1 25.8H78.3Z" fill="white"/>
</g>
<defs>
<clipPath id="clip0_810_113">
<rect width="112.8" height="58.1" fill="white" transform="translate(0 6)"/>
</clipPath>
</defs>
</svg>
