<svg width="359" height="70" viewBox="0 0 359 70" fill="none" xmlns="http://www.w3.org/2000/svg">
<path d="M358.5 0H29L0 70H329.5L358.5 0Z" fill="white"/>
<path d="M173.796 43.871L155.565 43.5484C159.437 48.871 166.052 49.6774 168.472 49.6774C169.44 49.6774 170.247 49.6774 171.215 49.5161C171.699 48.5484 173.796 43.871 173.796 43.871Z" fill="#364063"/>
<path d="M94.9007 25.9677L91.5125 33.5484H108.292L106.033 38.871H94.9007V49.3548H88.1244V20.4839H110.067L107.808 25.8065H94.9007V25.9677Z" fill="#364063"/>
<path d="M121.361 25.9677L117.972 33.5484H134.752L132.493 38.871H121.361V49.3548H114.584V20.4839H136.527L134.268 25.8065H121.361V25.9677Z" fill="#364063"/>
<path d="M141.044 20.4839H147.82V49.3548H141.044V20.4839Z" fill="#364063"/>
<path d="M207.355 44.0323L205.096 49.3548H184.929V20.4839H206.871L204.612 25.8065H191.705L188.317 32.0968H205.096L202.838 37.2581H191.705L188.317 44.0323H207.355Z" fill="#364063"/>
<path d="M242.366 21.7742C244.141 22.5806 245.27 23.871 245.754 25.3226C246.238 26.7742 246.077 28.7097 245.432 30.9677C244.625 33.0645 243.496 35 241.721 36.4516C240.107 38.0645 238.01 39.1935 235.751 40C233.331 40.8064 230.911 41.2903 228.007 41.2903H221.715L218.81 49.1935H211.55L222.199 20.3226H235.751C238.494 20.4839 240.753 20.9677 242.366 21.7742ZM234.945 34.6774C236.397 33.871 237.365 32.5806 238.01 30.9677C238.655 29.3548 238.494 28.0645 237.687 27.2581C236.881 26.4516 235.429 25.9677 233.17 25.9677H227.362L223.651 35.9677H229.62C231.718 35.9677 233.492 35.6452 234.945 34.6774Z" fill="#E83906"/>
<path d="M261.566 49.3548L258.5 41.2903H251.885L248.981 49.3548H241.721L252.369 20.4839H265.922C268.665 20.4839 270.924 20.9677 272.698 21.7742C274.473 22.5806 275.602 23.871 276.086 25.3226C276.57 26.9355 276.409 28.7097 275.764 30.9677C274.957 33.0645 273.666 35 272.053 36.4516C270.44 38.0645 268.342 39.1935 265.922 40L269.471 49.3548H261.566ZM267.858 27.2581C267.051 26.4516 265.599 25.9677 263.341 25.9677H257.371L253.66 35.9677H259.63C261.727 35.9677 263.663 35.4839 265.115 34.6774C266.567 33.871 267.535 32.5806 268.181 30.9677C268.826 29.3548 268.665 28.2258 267.858 27.2581Z" fill="#E83906"/>
<path d="M279.959 43.5484L287.703 25.9677L305.935 26.2903C302.062 20.9677 295.447 20 292.866 20C289.8 20 287.219 20.6452 284.799 21.9355C282.379 23.2258 280.443 25 279.152 27.2581C277.861 29.5161 277.054 32.0968 277.054 34.8387C277.054 37.5806 277.7 40.1613 279.152 42.4194C279.475 42.9032 279.636 43.2258 279.959 43.5484Z" fill="#E83906"/>
<path d="M306.096 26.2903L298.351 44.0323L280.12 43.7097C283.992 49.0323 290.607 50 293.189 50C296.254 50 298.836 49.3548 301.256 48.0645C303.676 46.7742 305.612 45 306.903 42.7419C308.193 40.4839 309 37.9032 309 35.1613C309 32.4194 308.355 29.8387 306.903 27.5806C306.58 26.9355 306.257 26.6129 306.096 26.2903Z" fill="#E83906"/>
<path d="M54.2428 43.5484L61.9872 25.9677L80.2187 26.2903C76.5078 20.9677 69.8929 20 67.3114 20C64.2459 20 61.6645 20.6452 59.2444 21.9355C56.8242 23.2258 54.8882 25 53.5974 27.2581C52.1454 29.5161 51.5 32.0968 51.5 34.8387C51.5 37.5806 52.1454 40.1613 53.5974 42.4194C53.7588 42.9032 53.9201 43.2258 54.2428 43.5484Z" fill="#364063"/>
<path d="M80.38 26.2903L72.4743 43.871L54.2428 43.5484C58.115 48.871 64.7299 49.6774 67.1501 49.6774C70.2155 49.6774 72.797 49.0323 75.2171 47.7419C77.6372 46.4516 79.5733 44.6774 80.864 42.4194C82.1548 40.1613 82.9615 37.5806 82.9615 34.8387C82.9615 32.0968 82.3161 29.5161 80.864 27.2581C80.864 26.9355 80.5414 26.6129 80.38 26.2903Z" fill="#364063"/>
<path d="M160.405 48.0645C162.825 49.3548 165.407 50 168.472 50C169.117 50 169.763 50 170.408 49.8387C170.57 49.8387 170.731 49.8387 170.892 49.8387C171.376 49.8387 172.022 49.6774 172.506 49.5161C172.667 49.5161 172.828 49.5161 172.99 49.3548C173.474 49.1935 173.958 49.0323 174.442 48.871C174.603 48.871 174.764 48.7097 174.764 48.7097C175.41 48.5484 175.894 48.2258 176.539 47.9032C178.153 47.0968 179.443 45.9677 180.411 44.8387L181.218 43.871H170.086C169.763 44.0323 169.279 44.1935 168.795 44.1935C167.827 44.1935 167.02 44.0323 166.052 43.871H156.049C156.049 43.871 155.565 41.7742 155.888 42.0968L159.76 32.5806C159.921 31.7742 160.244 30.8065 160.728 30.1613C160.728 30 160.889 30 160.889 29.8387L162.502 25.9677L179.121 26.2903L179.927 22.7419C178.475 21.129 177.346 22.2581 175.41 21.4516C173.312 20.4839 171.054 20 168.472 20C165.568 20 162.825 20.6452 160.405 21.9355C157.985 23.2258 156.21 25 154.758 27.2581C153.467 29.5161 152.661 32.0968 152.661 35C152.661 37.9032 153.306 40.4839 154.758 42.7419C156.21 45 157.985 46.7742 160.405 48.0645Z" fill="#364063"/>
<path d="M282.946 41.8529C282.83 41.8529 282.739 41.8118 282.675 41.7295C282.617 41.6473 282.602 41.5471 282.632 41.4289C282.662 41.3107 282.726 41.2131 282.825 41.136C282.931 41.0538 283.042 41.0126 283.158 41.0126C283.275 41.0126 283.365 41.0538 283.429 41.136C283.495 41.2131 283.513 41.3107 283.483 41.4289C283.453 41.5471 283.385 41.6473 283.28 41.7295C283.174 41.8118 283.063 41.8529 282.946 41.8529Z" fill="#364063"/>
<path d="M287.158 37.7288C287.704 37.7288 288.089 37.8624 288.313 38.1296C288.538 38.3917 288.586 38.7823 288.455 39.3013L287.821 41.8143H287.28L287.439 41.1822C287.259 41.3929 287.029 41.5574 286.75 41.6756C286.476 41.7938 286.17 41.8529 285.831 41.8529C285.364 41.8529 285.02 41.745 284.799 41.5291C284.578 41.3133 284.512 41.0281 284.601 40.6735C284.688 40.3291 284.886 40.0516 285.193 39.8409C285.506 39.6302 285.944 39.5249 286.506 39.5249H287.834L287.896 39.2782C287.984 38.9287 287.95 38.6641 287.794 38.4842C287.639 38.2992 287.368 38.2067 286.981 38.2067C286.716 38.2067 286.451 38.2504 286.185 38.3378C285.92 38.42 285.682 38.5356 285.469 38.6846L285.318 38.2761C285.574 38.1014 285.862 37.9677 286.182 37.8752C286.504 37.7776 286.829 37.7288 287.158 37.7288ZM286.027 41.4212C286.345 41.4212 286.636 41.3518 286.899 41.2131C287.163 41.0692 287.385 40.8636 287.563 40.5964L287.731 39.9334H286.418C285.703 39.9334 285.284 40.175 285.162 40.658C285.102 40.8944 285.148 41.082 285.298 41.2208C285.45 41.3544 285.693 41.4212 286.027 41.4212Z" fill="#364063"/>
<path d="M295.602 37.7288C296.127 37.7288 296.501 37.8752 296.724 38.1682C296.952 38.4611 296.994 38.8928 296.85 39.4632L296.257 41.8143H295.692L296.272 39.5172C296.378 39.0958 296.353 38.7746 296.197 38.5536C296.046 38.3326 295.78 38.2221 295.398 38.2221C294.963 38.2221 294.588 38.3532 294.273 38.6153C293.959 38.8722 293.744 39.2294 293.629 39.6868L293.092 41.8143H292.527L293.107 39.5172C293.213 39.0958 293.188 38.7746 293.032 38.5536C292.881 38.3326 292.612 38.2221 292.225 38.2221C291.796 38.2221 291.42 38.3532 291.1 38.6153C290.786 38.8722 290.571 39.2294 290.456 39.6868L289.919 41.8143H289.354L290.377 37.7596H290.918L290.731 38.4996C290.942 38.253 291.197 38.0628 291.496 37.9292C291.794 37.7956 292.116 37.7288 292.461 37.7288C292.811 37.7288 293.095 37.8007 293.313 37.9446C293.536 38.0885 293.676 38.3018 293.732 38.5844C293.953 38.3172 294.226 38.1091 294.55 37.96C294.88 37.8059 295.231 37.7288 295.602 37.7288Z" fill="#364063"/>
<path d="M156.049 42.0968L162.502 25.9677H163.309L179.121 26.2903C179.927 24.6774 180.895 22.0968 181.702 20.6452C177.83 20.6452 170.408 20.1613 168.633 20.1613C165.568 20.1613 162.987 20.8065 160.566 22.0968C157.985 23.2258 156.21 25 154.758 27.2581C153.467 29.5161 152.661 32.0968 152.661 34.8387C152.661 37.5806 153.306 40.1613 154.758 42.4194C154.919 42.7419 155.242 43.0645 155.404 43.3871L155.888 42.2581C155.888 42.2581 155.888 42.0968 156.049 42.0968Z" fill="#364063"/>
<path d="M160.244 47.7419C157.824 46.4516 156.21 45 154.758 42.7419C153.306 40.4839 152.661 37.9032 152.661 35C152.661 32.0968 153.306 29.5161 154.758 27.2581C156.21 25 163.471 23.5484 162.502 25.9677C160.566 30.4839 159.598 32.4194 159.598 35C159.598 36.7742 159.921 38.3871 160.728 39.8387C161.534 41.2903 162.341 41.9355 163.793 42.7419C165.245 43.5484 166.859 43.871 168.633 43.871C171.538 43.871 170.731 49.5161 168.311 49.5161C165.245 49.6774 162.664 49.0323 160.244 47.7419Z" fill="#364063"/>
<path d="M295.609 34.1938L293.027 34.839L294.641 32.7422L307.87 23.8713L308.839 25.3229L295.609 34.1938Z" fill="#364063"/>
</svg>
