<svg width="81" height="10" viewBox="0 0 81 10" fill="none" xmlns="http://www.w3.org/2000/svg">
<path d="M57.2557 0.799313C57.7614 1.06904 58.1323 1.43991 58.2672 1.91192C58.4357 2.38394 58.402 2.9571 58.1323 3.59769C57.8963 4.23829 57.5254 4.81145 57.0197 5.28347C56.514 5.75548 55.9071 6.12635 55.1991 6.39608C54.491 6.6658 53.7156 6.76695 52.8727 6.76695H50.9509L50.0743 9.19446H47.8828L51.0858 0.462158H55.1653C56.042 0.428443 56.7163 0.563304 57.2557 0.799313ZM55.0305 4.7103C55.4688 4.44058 55.7722 4.06971 55.9408 3.59769C56.1094 3.09196 56.0757 2.72109 55.8397 2.45137C55.6037 2.18165 55.1316 2.04678 54.491 2.04678H52.7041L51.5915 5.08118H53.3784C54.019 5.11489 54.5922 4.98003 55.0305 4.7103Z" fill="#E83906"/>
<path d="M63.058 9.16199L62.114 6.73448H62.0129H60.0911L59.1808 9.16199H56.9893L60.1922 0.429688H64.2718C65.1147 0.429688 65.789 0.56455 66.3284 0.800558C66.8342 1.07028 67.205 1.44115 67.3399 1.91317C67.5085 2.38518 67.4748 2.95835 67.205 3.59894C66.969 4.23953 66.5982 4.8127 66.0924 5.28471C65.5867 5.75673 64.9798 6.1276 64.2718 6.36361L65.3507 9.16199H63.058ZM64.9798 2.45261C64.7438 2.18289 64.2718 2.04803 63.6312 2.04803H61.8443L60.7317 5.08242H62.5186C63.1929 5.08242 63.7323 4.94756 64.1706 4.67784C64.609 4.40811 64.9124 4.03724 65.081 3.56523C65.2495 3.09321 65.2158 2.72234 64.9798 2.45261Z" fill="#E83906"/>
<path d="M68.6075 7.41083L70.9676 2.08379L76.497 2.18494C75.3506 0.600314 73.3277 0.296875 72.5522 0.296875C71.6419 0.296875 70.8328 0.499168 70.091 0.870038C69.3493 1.27462 68.7761 1.81407 68.3715 2.48838C67.9669 3.16269 67.7646 3.93814 67.7646 4.81474C67.7646 5.69135 67.9669 6.43309 68.3715 7.14111C68.4727 7.20854 68.5401 7.30969 68.6075 7.41083Z" fill="#E83906"/>
<path d="M76.531 2.18359L74.1709 7.51064L68.6416 7.40949C69.7879 8.99412 71.8109 9.29756 72.5863 9.29756C73.4966 9.29756 74.3058 9.09526 75.0475 8.72439C75.7893 8.31981 76.3624 7.78036 76.767 7.10605C77.1716 6.43174 77.3739 5.65629 77.3739 4.77968C77.3739 3.90308 77.1716 3.16134 76.767 2.45332C76.6659 2.38589 76.5984 2.28474 76.531 2.18359Z" fill="#E83906"/>
<path d="M31.3058 7.39834L33.6743 2.08375L39.1622 2.14152C38.0068 0.524038 36.0427 0.292969 35.234 0.292969C34.3097 0.292969 33.501 0.466271 32.8078 0.870641C32.0568 1.27501 31.5369 1.79492 31.1325 2.48812C30.7281 3.18133 30.4971 3.93231 30.4971 4.79881C30.4971 5.66532 30.7281 6.4163 31.1325 7.1095C31.1903 7.22504 31.248 7.28281 31.3058 7.39834Z" fill="#364063"/>
<path d="M38.4081 2.19922L36.0397 7.5138L31.3027 7.45604C32.4581 9.07352 34.4222 9.30459 35.2309 9.30459C36.1552 9.30459 36.9639 9.13129 37.6571 8.72692C38.4081 8.32255 38.928 7.80264 39.3324 7.10943C39.7368 6.41623 39.9678 5.66525 39.9678 4.79874C39.9678 3.93224 39.7368 3.18126 39.3324 2.48805C39.3324 2.37252 38.4659 2.31475 38.4081 2.19922Z" fill="#364063"/>
<path d="M13.059 2.08623L12.0192 4.39692H17.0449L16.3517 6.01441H13.0012V9.1916H11.0371V0.46875H17.6226L16.9294 2.08623H13.059Z" fill="#364063"/>
<path d="M21.0269 2.08623L19.9871 4.39692H25.0128L24.3196 6.01441H20.9691V9.1916H18.9473V0.46875H25.5327L24.8973 2.08623H21.0269Z" fill="#364063"/>
<path d="M26.9795 0.46875H29.0013V9.1916H26.9795V0.46875Z" fill="#364063"/>
<path d="M46.9062 7.57412L46.1553 9.1916H40.1475V0.46875H46.7329L45.982 2.08623H42.1693L41.1295 3.99255H46.213L45.462 5.55227H42.1693L41.1295 7.57412H46.9062Z" fill="#364063"/>
<path d="M31.3128 7.40052L33.6812 2.08594L40.0934 2.20147L40.1512 7.51606L31.3128 7.40052C31.3128 7.45829 31.255 7.28499 31.3128 7.40052Z" fill="white"/>
<path d="M0.80874 7.39834L3.1772 2.08375L8.66509 2.14152C7.50974 0.524038 5.54565 0.292969 4.73691 0.292969C3.81264 0.292969 3.0039 0.466271 2.31069 0.870641C1.55972 1.27501 1.03981 1.79492 0.635439 2.48812C0.231068 3.18133 0 3.93231 0 4.79881C0 5.66532 0.231068 6.4163 0.635439 7.1095C0.635439 7.22504 0.693206 7.28281 0.80874 7.39834Z" fill="#364063"/>
<path d="M8.66201 2.19922L6.29355 7.5138L0.805664 7.45604C1.96101 9.07352 3.92509 9.30459 4.73384 9.30459C5.65811 9.30459 6.46685 9.13129 7.16006 8.72692C7.91103 8.32255 8.43094 7.80264 8.83531 7.10943C9.23968 6.41623 9.47075 5.66525 9.47075 4.79874C9.47075 3.93224 9.23968 3.18126 8.83531 2.48805C8.77754 2.37252 8.71978 2.31475 8.66201 2.19922Z" fill="#364063"/>
<path d="M73.3678 4.54323L72.5586 4.74552L73.0643 4.10493L77.0428 1.44141L77.3462 1.87971L73.3678 4.54323Z" fill="#364063"/>
<path d="M69.1815 7.01547C69.1351 7.01547 69.0955 7 69.0629 6.96905C69.0319 6.93639 69.0165 6.89684 69.0165 6.85042C69.0165 6.7954 69.0336 6.7507 69.068 6.71632C69.1041 6.68021 69.148 6.66216 69.1996 6.66216C69.246 6.66216 69.2847 6.67849 69.3156 6.71116C69.3466 6.74211 69.362 6.78165 69.362 6.82979C69.362 6.88309 69.344 6.92779 69.3079 6.96389C69.2735 6.99828 69.2314 7.01547 69.1815 7.01547ZM71.2133 5.63316L70.9425 7H70.7053L70.7388 6.83237C70.6769 6.89082 70.6047 6.93639 70.5222 6.96905C70.4413 7 70.3528 7.01547 70.2565 7.01547C70.1396 7.01547 70.0356 6.99226 69.9445 6.94584C69.8533 6.8977 69.782 6.82893 69.7304 6.73953C69.6788 6.65012 69.653 6.54525 69.653 6.42489C69.653 6.27016 69.6866 6.13175 69.7536 6.00968C69.8207 5.88761 69.9127 5.79219 70.0296 5.72342C70.1482 5.65465 70.2806 5.62026 70.4267 5.62026C70.5436 5.62026 70.6434 5.64089 70.7259 5.68216C70.8101 5.72342 70.8746 5.78445 70.9193 5.86526L70.9657 5.63316H71.2133ZM70.3107 6.79884C70.4121 6.79884 70.5032 6.77477 70.584 6.72663C70.6666 6.67677 70.7302 6.608 70.7749 6.52032C70.8213 6.43263 70.8445 6.33291 70.8445 6.22116C70.8445 6.09909 70.8093 6.00453 70.7388 5.93747C70.6683 5.87042 70.5677 5.83689 70.437 5.83689C70.3356 5.83689 70.2445 5.86182 70.1637 5.91168C70.0829 5.95982 70.0193 6.02774 69.9728 6.11542C69.9264 6.2031 69.9032 6.30282 69.9032 6.41458C69.9032 6.53493 69.9385 6.62949 70.0089 6.69826C70.0812 6.76532 70.1817 6.79884 70.3107 6.79884ZM73.3581 5.62026C73.5128 5.62026 73.6332 5.65981 73.7191 5.73889C73.8068 5.81626 73.8507 5.92716 73.8507 6.07158C73.8507 6.11112 73.8446 6.16528 73.8326 6.23405L73.6804 7H73.4329L73.585 6.23405C73.5936 6.18591 73.5979 6.14637 73.5979 6.11542C73.5979 6.02602 73.573 5.9581 73.5231 5.91168C73.4733 5.86526 73.3976 5.84205 73.2962 5.84205C73.1689 5.84205 73.0641 5.87816 72.9815 5.95037C72.9007 6.02086 72.8457 6.12746 72.8165 6.27016L72.6695 7H72.4219L72.5767 6.23405C72.5852 6.18763 72.5895 6.14895 72.5895 6.118C72.5895 6.0286 72.5638 5.96068 72.5122 5.91426C72.4623 5.86612 72.3867 5.84205 72.2852 5.84205C72.158 5.84205 72.0531 5.87816 71.9706 5.95037C71.8898 6.02258 71.8348 6.13175 71.8055 6.27789L71.6611 7H71.4135L71.6843 5.63316H71.9216L71.8881 5.80337C72.0084 5.6813 72.1666 5.62026 72.3626 5.62026C72.4692 5.62026 72.5603 5.64089 72.636 5.68216C72.7116 5.72342 72.7666 5.7836 72.801 5.86268C72.9403 5.70107 73.126 5.62026 73.3581 5.62026Z" fill="#364063"/>
<path d="M79.1111 0.879877C79.3102 0.879877 79.4901 0.92612 79.651 1.0186C79.8138 1.11109 79.9415 1.23876 80.034 1.40161C80.1265 1.56246 80.1727 1.7414 80.1727 1.93843C80.1727 2.13546 80.1255 2.31641 80.031 2.48128C79.9365 2.64413 79.8078 2.77281 79.6449 2.8673C79.4821 2.9618 79.3021 3.00905 79.1051 3.00905C78.9081 3.00905 78.7281 2.9618 78.5653 2.8673C78.4044 2.77281 78.2768 2.64413 78.1823 2.48128C78.0898 2.31842 78.0435 2.13949 78.0435 1.94446C78.0435 1.74944 78.0898 1.5705 78.1823 1.40765C78.2768 1.24479 78.4054 1.11612 78.5683 1.02162C78.7311 0.927125 78.9121 0.879877 79.1111 0.879877ZM79.1051 2.89746C79.282 2.89746 79.4429 2.85524 79.5876 2.7708C79.7324 2.68434 79.847 2.56874 79.9314 2.42398C80.0159 2.27721 80.0581 2.11536 80.0581 1.93843C80.0581 1.7615 80.0169 1.60166 79.9345 1.45891C79.852 1.31416 79.7384 1.20056 79.5937 1.11813C79.4509 1.03368 79.2901 0.991463 79.1111 0.991463C78.9322 0.991463 78.7693 1.03368 78.6226 1.11813C78.4778 1.20257 78.3632 1.31818 78.2788 1.46495C78.1963 1.60971 78.1551 1.76954 78.1551 1.94446C78.1551 2.11938 78.1963 2.28022 78.2788 2.42699C78.3632 2.57175 78.4778 2.68635 78.6226 2.7708C78.7673 2.85524 78.9282 2.89746 79.1051 2.89746ZM79.6449 1.73939C79.6449 1.83187 79.6208 1.91129 79.5726 1.97764C79.5263 2.04197 79.46 2.08922 79.3735 2.11938L79.657 2.55366H79.4942L79.2318 2.14652C79.2157 2.14853 79.1926 2.14954 79.1624 2.14954H78.8488V2.55366H78.6919V1.33527H79.1624C79.3112 1.33527 79.4288 1.37146 79.5153 1.44384C79.6017 1.51622 79.6449 1.61473 79.6449 1.73939ZM79.1534 2.01684C79.2599 2.01684 79.3424 1.99272 79.4007 1.94446C79.461 1.89621 79.4911 1.82785 79.4911 1.73939C79.4911 1.65293 79.461 1.58658 79.4007 1.54034C79.3424 1.49209 79.2599 1.46796 79.1534 1.46796H78.8458V2.01684H79.1534Z" fill="#364063"/>
<path d="M64.4706 5.1487L65.6844 2.04688H61.942L60.8294 5.08127C60.7957 5.11498 63.9986 5.1487 64.4706 5.1487Z" fill="white"/>
<path d="M55.3281 5.1487L56.5418 2.04688H52.7994L51.6868 5.08127C51.6531 5.11498 54.856 5.1487 55.3281 5.1487Z" fill="white"/>
</svg>
