<svg width="340" height="70" viewBox="0 0 340 70" fill="none" xmlns="http://www.w3.org/2000/svg">
<g clip-path="url(#clip0_2491_1095)">
<path d="M311.005 70H0L28.995 0H340L311.005 70Z" fill="white"/>
<path d="M305.114 22.3166C305.549 22.5632 305.909 22.9233 306.156 23.3586C306.406 23.8102 306.536 24.3182 306.535 24.8343C306.533 25.3504 306.4 25.8577 306.147 26.3078C305.896 26.7482 305.532 27.1137 305.093 27.3664C304.643 27.6199 304.136 27.7532 303.62 27.7532C303.104 27.7532 302.597 27.6199 302.148 27.3664C301.712 27.1143 301.351 26.7502 301.102 26.3118C300.851 25.8639 300.719 25.359 300.719 24.8454C300.719 24.3319 300.851 23.827 301.102 23.3791C301.352 22.9404 301.714 22.5765 302.152 22.3254C302.603 22.0653 303.115 21.9314 303.635 21.9377C304.153 21.9313 304.663 22.0621 305.114 22.3166ZM304.936 27.0989C305.527 26.7404 305.956 26.1667 306.133 25.4985C306.31 24.8302 306.22 24.1196 305.884 23.5159C305.663 23.1282 305.343 22.8065 304.957 22.5842C304.551 22.3592 304.094 22.2416 303.63 22.2424C303.166 22.2433 302.71 22.3626 302.305 22.5891C301.913 22.8132 301.588 23.1387 301.366 23.5315C301.142 23.9331 301.024 24.3855 301.024 24.8454C301.024 25.3054 301.142 25.7577 301.366 26.1594C301.587 26.5518 301.91 26.8776 302.301 27.1028C302.703 27.33 303.157 27.4492 303.619 27.4485C304.081 27.4478 304.535 27.3273 304.936 27.0989ZM304.899 24.9319C304.762 25.1166 304.571 25.2536 304.352 25.3235L305.126 26.51H304.681L303.964 25.3977C303.901 25.4041 303.838 25.4067 303.775 25.4055H302.918V26.51H302.49V23.1818H303.775C304.121 23.1625 304.463 23.2678 304.739 23.4787C304.856 23.5771 304.948 23.7009 305.01 23.8408C305.071 23.9807 305.099 24.1328 305.093 24.2853C305.1 24.516 305.032 24.7428 304.899 24.9319ZM304.43 24.8459C304.511 24.7779 304.575 24.6918 304.618 24.5944C304.66 24.4971 304.679 24.3913 304.673 24.2854C304.678 24.1813 304.659 24.0775 304.617 23.9822C304.575 23.887 304.511 23.8031 304.43 23.7375C304.232 23.5976 303.992 23.5294 303.75 23.5442H302.91V25.0432H303.75C303.993 25.0582 304.233 24.9885 304.43 24.8459Z" fill="#374063"/>
<path d="M294.415 28.1831C294.27 27.9421 294.103 27.7232 293.94 27.5L287.242 43.6652C287.242 43.6652 269.956 43.6437 269.973 43.6652C273.521 48.2269 279.408 49.0497 281.704 49.0497C284.311 49.089 286.886 48.4732 289.193 47.2587C291.354 46.124 293.16 44.4165 294.415 42.3234C295.684 40.1859 296.337 37.7389 296.301 35.2533C296.337 32.7676 295.684 30.3206 294.415 28.1831Z" fill="#E63B11"/>
<path d="M276.245 26.9062H293.484C293.457 26.8708 293.416 26.8194 293.388 26.7845C289.836 22.2741 283.99 21.4549 281.704 21.4549C279.097 21.4158 276.522 22.0314 274.214 23.2455C272.054 24.3804 270.248 26.088 268.993 28.1813C267.724 30.3187 267.071 32.7657 267.107 35.2514C267.071 37.737 267.724 40.184 268.993 42.3215C269.158 42.5956 269.353 42.8447 269.539 43.0996L276.245 26.9062Z" fill="#E63B11"/>
<path d="M284.258 34.6966L281.789 35.3466L283.358 33.3936L295.363 25.1016L296.263 26.4046L284.258 34.6966Z" fill="#374063"/>
<path d="M264.35 26.4447C264.087 25.7023 263.674 25.0217 263.138 24.4449C262.601 23.8681 261.953 23.4071 261.231 23.0906C259.273 22.2296 257.144 21.8256 255.006 21.9092H243.764L241.683 26.9334L259.075 26.8873L255.161 36.3374C250.332 36.3374 240.366 36.3344 237.787 36.3344L232.662 48.7047H239.34L242.424 41.2826H248.215L251.143 48.7047H258.318L254.954 40.0126C257.028 39.3109 258.935 38.1885 260.556 36.7157C262.096 35.3083 263.272 33.5498 263.986 31.5897C264.693 29.9671 264.822 28.1507 264.35 26.4447Z" fill="#E63B11"/>
<path d="M234.734 26.4475C234.471 25.7052 234.058 25.0247 233.522 24.4478C232.986 23.871 232.337 23.41 231.616 23.0934C229.652 22.241 227.52 21.8447 225.38 21.9343H214.136L212.077 26.9063H229.45L225.543 36.3403C220.703 36.3403 211.812 36.264 208.214 36.2328L203.043 48.7076H209.725L212.802 41.2852H218.269C220.691 41.2932 223.096 40.883 225.379 40.0727C227.452 39.3547 229.354 38.2124 230.961 36.7186C232.485 35.3023 233.654 33.546 234.37 31.5927C235.077 29.9699 235.206 28.1536 234.734 26.4475Z" fill="#E63B11"/>
<path d="M271.992 41.6079C271.974 41.5713 271.965 41.5309 271.965 41.49C271.965 41.4491 271.975 41.4088 271.994 41.3725C272.035 41.2778 272.102 41.197 272.188 41.1401C272.266 41.083 272.359 41.0506 272.455 41.0474C272.492 41.0449 272.529 41.0521 272.562 41.0684C272.595 41.0847 272.623 41.1095 272.644 41.1401C272.663 41.176 272.672 41.2159 272.672 41.2565C272.672 41.297 272.662 41.3369 272.643 41.3725C272.601 41.4682 272.534 41.5499 272.447 41.6079C272.37 41.6672 272.277 41.701 272.18 41.7046C272.143 41.7077 272.105 41.7003 272.072 41.6832C272.039 41.6661 272.011 41.64 271.992 41.6079Z" fill="#374063"/>
<path d="M278.145 37.9943C278.223 38.174 278.257 38.3697 278.245 38.5653C278.233 38.7609 278.174 38.9507 278.074 39.1193L277.004 41.675H276.633L276.934 40.9572C276.706 41.1959 276.432 41.3856 276.128 41.5144C275.825 41.6432 275.498 41.7085 275.168 41.7062C274.999 41.7256 274.828 41.7073 274.668 41.6525C274.507 41.5978 274.36 41.5081 274.238 41.3898C274.153 41.269 274.104 41.1264 274.097 40.9786C274.09 40.8309 274.125 40.6842 274.198 40.5558C274.341 40.2178 274.586 39.9327 274.898 39.7404C275.286 39.5165 275.73 39.4081 276.177 39.4279H277.56L277.695 39.1036C277.771 38.975 277.816 38.8304 277.825 38.6814C277.834 38.5324 277.808 38.3833 277.749 38.2462C277.657 38.1357 277.538 38.0506 277.403 37.9992C277.269 37.9477 277.123 37.9315 276.981 37.9522C276.699 37.9544 276.42 38.0015 276.153 38.0919C275.879 38.1795 275.617 38.304 275.376 38.462L275.299 38.1837C275.579 38.0028 275.883 37.8612 276.202 37.7628C276.51 37.6656 276.83 37.6149 277.152 37.6124C277.337 37.5863 277.524 37.6076 277.698 37.6745C277.872 37.7413 278.025 37.8514 278.145 37.9943ZM276.306 41.1584C276.619 40.9917 276.894 40.7631 277.116 40.4865L277.434 39.7287H276.059C275.728 39.7132 275.398 39.7878 275.106 39.9445C274.875 40.082 274.694 40.291 274.591 40.5402C274.534 40.6356 274.508 40.7456 274.513 40.8563C274.519 40.9669 274.558 41.0734 274.624 41.1623C274.723 41.249 274.84 41.3141 274.966 41.3533C275.092 41.3925 275.224 41.4049 275.355 41.3898C275.686 41.3907 276.012 41.3113 276.306 41.1584Z" fill="#374063"/>
<path d="M286.619 38.0515C286.698 38.2568 286.73 38.4771 286.712 38.6963C286.694 38.9155 286.628 39.1279 286.518 39.3181L285.531 41.6736H285.146L286.119 39.3493C286.208 39.1937 286.263 39.021 286.281 38.8426C286.298 38.6642 286.278 38.4841 286.221 38.3142C286.139 38.1866 286.022 38.0853 285.884 38.0223C285.746 37.9592 285.593 37.9372 285.442 37.9587C284.989 37.9589 284.547 38.1081 284.187 38.3835C283.795 38.6768 283.492 39.0721 283.311 39.5261L282.411 41.6736H282.025L282.999 39.3493C283.088 39.1939 283.144 39.0211 283.161 38.8426C283.178 38.6641 283.157 38.484 283.1 38.3142C283.018 38.1864 282.901 38.085 282.763 38.0219C282.625 37.9589 282.471 37.9369 282.321 37.9587C281.868 37.959 281.427 38.1083 281.066 38.3835C280.675 38.6766 280.372 39.0719 280.19 39.5261L279.291 41.6736H278.904L280.593 37.6423H280.964L280.602 38.5075C280.846 38.2303 281.143 38.0054 281.477 37.8464C281.803 37.6907 282.16 37.6103 282.521 37.6111C282.818 37.5892 283.113 37.6772 283.35 37.8581C283.445 37.9507 283.517 38.0651 283.559 38.1915C283.6 38.3179 283.611 38.4524 283.589 38.5837C283.847 38.2865 284.162 38.0449 284.517 37.8737C284.861 37.7021 285.241 37.6123 285.626 37.611C285.816 37.5851 286.01 37.6126 286.185 37.6904C286.36 37.7682 286.511 37.8932 286.619 38.0515Z" fill="#374063"/>
<path d="M148.19 43.6635L155.126 26.9059L167.067 26.9082L169.341 21.4549H161.25C160.613 21.4314 159.977 21.4513 159.343 21.5144C156.984 21.5715 154.669 22.1706 152.578 23.2654C150.418 24.4001 148.611 26.1077 147.357 28.2009C146.088 30.3384 145.435 32.7855 145.47 35.2712C145.435 37.757 146.088 40.204 147.357 42.3415C147.524 42.6213 148.155 43.6186 148.19 43.6635Z" fill="#374063"/>
<path d="M125.584 26.9095L127.643 21.9375H109.016L103.02 36.3565H106.352L101.234 48.7105H104.955H106.46H107.349L111.381 38.9575H120.625L122.713 33.9855H110.1L113.033 26.9095H125.584Z" fill="#374063"/>
<path d="M140.987 21.9375H134.865L128.867 36.3565H131.889L126.732 48.7105H132.9L139.036 33.9345H135.968L140.987 21.9375Z" fill="#374063"/>
<path d="M99.846 26.9095L101.925 21.9375H83.252L77.265 36.3565H80.624L75.502 48.7105H79.704H80.864H81.656L85.695 38.9575H94.851L96.9 33.9855H84.506L87.365 26.9095H99.846Z" fill="#374063"/>
<path d="M70.7525 28.1831C70.608 27.9421 70.441 27.7232 70.2778 27.5L63.5798 43.6652C63.5798 43.6652 46.2938 43.6437 46.3106 43.6652C49.8587 48.2269 55.7462 49.0497 58.0419 49.0497C60.6488 49.089 63.2239 48.4732 65.5311 47.2587C67.6915 46.1239 69.4979 44.4165 70.7525 42.3234C72.0217 40.1859 72.6746 37.7389 72.6391 35.2533C72.6747 32.7676 72.0217 30.3206 70.7525 28.1831Z" fill="#374063"/>
<path d="M52.5833 26.9062H69.822C69.7948 26.8708 69.7538 26.8194 69.7263 26.7845C66.1735 22.2741 60.328 21.4549 58.0415 21.4549C55.4346 21.4158 52.8596 22.0314 50.5523 23.2455C48.392 24.3804 46.5857 26.088 45.3313 28.1813C44.0621 30.3187 43.4091 32.7657 43.4447 35.2514C43.4093 37.737 44.0623 40.184 45.3313 42.3215C45.4955 42.5956 45.6912 42.8447 45.8765 43.0996L52.5833 26.9062Z" fill="#374063"/>
<path d="M197.445 26.9095L199.514 21.9375H176.936L170.963 36.3775H173.985L168.881 48.7105H174.92H176.185H188.423L190.483 43.7385H176.928L179.515 37.5425H193.043L195.038 32.7235H178.627L181.047 26.9095H197.445Z" fill="#374063"/>
<path d="M158.869 49.0488C154.366 49.0488 149.965 46.5105 148.191 43.6645C151.827 43.6645 159.665 43.6641 159.665 43.6641H164.795L162.565 49.0488H158.869Z" fill="#374063"/>
</g>
<defs>
<clipPath id="clip0_2491_1095">
<rect width="340" height="70" fill="white"/>
</clipPath>
</defs>
</svg>
