<svg width="340" height="70" viewBox="0 0 340 70" fill="none" xmlns="http://www.w3.org/2000/svg">
<g clip-path="url(#clip0_2410_1018)">
<path d="M311.2 70H0L28.3 0H339.5L311.2 70Z" fill="white"/>
<path d="M303.612 21.8654C304.156 21.8654 304.647 21.9917 305.086 22.2443C305.531 22.497 305.88 22.8457 306.133 23.2905C306.385 23.7298 306.511 24.2185 306.511 24.7567C306.511 25.2949 306.382 25.7891 306.124 26.2394C305.866 26.6842 305.515 27.0357 305.07 27.2938C304.625 27.5519 304.134 27.681 303.595 27.681C303.057 27.681 302.566 27.5519 302.121 27.2938C301.682 27.0357 301.333 26.6842 301.075 26.2394C300.822 25.7946 300.696 25.3059 300.696 24.7732C300.696 24.2405 300.822 23.7518 301.075 23.307C301.333 22.8621 301.684 22.5107 302.129 22.2526C302.574 21.9945 303.068 21.8654 303.612 21.8654ZM303.595 27.3762C304.079 27.3762 304.518 27.2609 304.913 27.0302C305.309 26.7941 305.622 26.4783 305.852 26.0829C306.083 25.682 306.198 25.24 306.198 24.7567C306.198 24.2735 306.086 23.8369 305.861 23.447C305.636 23.0516 305.325 22.7413 304.93 22.5162C304.54 22.2855 304.101 22.1702 303.612 22.1702C303.123 22.1702 302.678 22.2855 302.277 22.5162C301.882 22.7468 301.569 23.0626 301.338 23.4635C301.113 23.8589 301.001 24.2954 301.001 24.7732C301.001 25.251 301.113 25.6903 301.338 26.0912C301.569 26.4866 301.882 26.7996 302.277 27.0302C302.673 27.2609 303.112 27.3762 303.595 27.3762ZM305.07 24.2131C305.07 24.4657 305.004 24.6826 304.872 24.8638C304.746 25.0395 304.565 25.1686 304.329 25.251L305.103 26.4371H304.658L303.941 25.3251C303.897 25.3306 303.834 25.3333 303.752 25.3333H302.895V26.4371H302.467V23.1093H303.752C304.158 23.1093 304.48 23.2081 304.716 23.4058C304.952 23.6035 305.07 23.8726 305.07 24.2131ZM303.727 24.9709C304.018 24.9709 304.243 24.905 304.403 24.7732C304.567 24.6414 304.65 24.4547 304.65 24.2131C304.65 23.9769 304.567 23.7957 304.403 23.6694C304.243 23.5376 304.018 23.4717 303.727 23.4717H302.887V24.9709H303.727Z" fill="#374063"/>
<path d="M230.9 22.5984C232.5 23.3984 233.6 24.4984 234.1 25.9984C234.6 27.4984 234.5 29.1984 233.7 31.1984C233 33.1984 231.8 34.8984 230.2 36.3984C228.6 37.8984 226.7 38.9984 224.5 39.7984C222.3 40.5984 219.9 40.9984 217.3 40.9984H211.4L208.7 48.4984H201.9L212.8 21.3984H224.5C227.2 21.3984 229.3 21.7984 230.9 22.5984ZM224 34.6984C225.4 33.8984 226.3 32.6984 226.9 31.1984C227.5 29.6984 227.4 28.4984 226.6 27.6984C225.8 26.8984 224.4 26.4984 222.4 26.4984H216.9L213.4 35.8984H218.9C220.9 35.9984 222.6 35.5984 224 34.6984Z" fill="#E63B11"/>
<path d="M250.8 48.5984L247.9 40.9984H247.6H241.7L238.9 48.5984H232.1L243 21.3984H254.7C257.3 21.3984 259.4 21.7984 261 22.5984C262.6 23.3984 263.7 24.4984 264.2 25.9984C264.7 27.4984 264.6 29.1984 263.8 31.1984C263.1 33.1984 261.9 34.9984 260.3 36.3984C258.7 37.8984 256.8 38.9984 254.6 39.7984L258 48.4984H250.8V48.5984ZM256.7 27.7984C255.9 26.9984 254.5 26.5984 252.5 26.5984H247L243.5 36.0984H249C251 36.0984 252.7 35.6984 254.1 34.8984C255.5 34.0984 256.4 32.8984 257 31.3984C257.5 29.7984 257.4 28.5984 256.7 27.7984Z" fill="#E63B11"/>
<path d="M269.601 43.1L277.001 26.5L294.201 26.8C290.601 21.8 284.401 21 282.001 21C279.201 21 276.601 21.6 274.401 22.8C272.101 24 270.401 25.7 269.101 27.8C267.801 29.9 267.201 32.3 267.201 35C267.201 37.7 267.801 40.1 269.101 42.2C269.201 42.5 269.401 42.8 269.601 43.1Z" fill="#E63B11"/>
<path d="M294.202 26.8984L286.802 43.4984L269.602 43.1984C273.202 48.1984 279.402 48.9984 281.802 48.9984C284.602 48.9984 287.202 48.3984 289.402 47.1984C291.702 45.9984 293.402 44.2984 294.702 42.1984C296.002 40.0984 296.602 37.6984 296.602 34.9984C296.602 32.2984 296.002 29.8984 294.702 27.7984C294.602 27.4984 294.402 27.1984 294.202 26.8984Z" fill="#E63B11"/>
<path d="M287.8 43.4H269.4L276.2 26.5H294.6L287.8 43.4Z" fill="white"/>
<path d="M284.301 34.2016L281.801 34.8016L283.501 32.9016L295.801 24.6016L296.701 25.9016L284.301 34.2016Z" fill="#374063"/>
<path d="M255.1 36.1L258.8 26.5L239 26.6L235.5 36C235.6 36 248.9 36.1 255.1 36.1Z" fill="white"/>
<path d="M225 36.1L228.7 26.5H209L205.5 35.9C205.5 36 218.8 36.1 225 36.1Z" fill="white"/>
<path d="M272.296 41.4443C272.203 41.4443 272.134 41.4139 272.087 41.3532C272.047 41.2874 272.044 41.2089 272.079 41.1179C272.114 41.0268 272.176 40.9509 272.264 40.8901C272.358 40.8294 272.451 40.799 272.543 40.799C272.635 40.799 272.702 40.8294 272.744 40.8901C272.791 40.9509 272.797 41.0268 272.762 41.1179C272.727 41.2089 272.662 41.2874 272.566 41.3532C272.478 41.4139 272.388 41.4443 272.296 41.4443ZM277.027 37.4212C277.553 37.4212 277.908 37.5477 278.093 37.8007C278.28 38.0487 278.28 38.4156 278.093 38.9014L277.129 41.4139H276.738L277.009 40.708C276.784 40.9407 276.517 41.1229 276.206 41.2545C275.897 41.381 275.561 41.4443 275.198 41.4443C274.726 41.4443 274.392 41.3405 274.195 41.133C274.004 40.9256 273.973 40.6523 274.104 40.3132C274.23 39.9843 274.457 39.7186 274.784 39.5162C275.118 39.3087 275.562 39.205 276.115 39.205H277.57L277.692 38.8862C277.834 38.5168 277.834 38.2359 277.691 38.0436C277.553 37.8513 277.278 37.7552 276.866 37.7552C276.584 37.7552 276.296 37.8007 276.001 37.8918C275.711 37.9829 275.448 38.1043 275.21 38.2561L275.112 37.9829C275.391 37.8058 275.699 37.6691 276.034 37.573C276.371 37.4718 276.702 37.4212 277.027 37.4212ZM275.374 41.133C275.727 41.133 276.054 41.0571 276.356 40.9053C276.664 40.7535 276.935 40.5334 277.171 40.2449L277.456 39.501H276.009C275.592 39.501 275.261 39.5719 275.017 39.7136C274.778 39.8553 274.611 40.0501 274.516 40.2981C274.417 40.5561 274.441 40.7611 274.589 40.9129C274.739 41.0597 275 41.133 275.374 41.133ZM285.621 37.4212C286.147 37.4212 286.504 37.5654 286.691 37.8538C286.884 38.1423 286.876 38.5572 286.669 39.0987L285.78 41.4139H285.373L286.25 39.1291C286.421 38.6838 286.435 38.3447 286.291 38.1119C286.148 37.8791 285.867 37.7627 285.45 37.7627C284.973 37.7627 284.54 37.9019 284.151 38.1802C283.768 38.4586 283.486 38.833 283.305 39.3037L282.495 41.4139H282.088L282.966 39.1291C283.137 38.6838 283.15 38.3447 283.006 38.1119C282.863 37.8791 282.582 37.7627 282.165 37.7627C281.688 37.7627 281.255 37.9019 280.866 38.1802C280.483 38.4586 280.201 38.833 280.02 39.3037L279.21 41.4139H278.804L280.325 37.4515H280.715L280.389 38.3017C280.636 38.0234 280.928 37.8083 281.262 37.6565C281.604 37.4996 281.968 37.4212 282.353 37.4212C282.738 37.4212 283.032 37.5021 283.235 37.6641C283.444 37.826 283.545 38.0638 283.539 38.3776C283.792 38.0841 284.101 37.8513 284.465 37.6792C284.835 37.5072 285.22 37.4212 285.621 37.4212Z" fill="#374063"/>
<path d="M190.8 43.5969L188.5 48.5969H174.9L177.6 21.7969H199.8L197.5 26.7969H180L177.6 32.5969H195.5L193.2 37.3969H180L177.9 43.5969H190.8Z" fill="#374063"/>
<path d="M45.9004 42.9969L53.1004 26.6969L70.0004 26.9969C66.5004 22.0969 60.3004 21.2969 58.0004 21.2969C55.2004 21.2969 52.7004 21.8969 50.5004 23.0969C48.3004 24.2969 46.5004 25.8969 45.3004 27.9969C44.0004 30.0969 43.4004 32.4969 43.4004 35.0969C43.4004 37.6969 44.0004 40.0969 45.3004 42.1969C45.5004 42.4969 45.7004 42.6969 45.9004 42.9969Z" fill="#374063"/>
<path d="M70.1 27.0938L62.9 43.3938L46 43.0937C49.5 47.9937 55.7 48.7937 58 48.7937C60.8 48.7937 63.3 48.1938 65.5 46.9937C67.7 45.7937 69.5 44.1937 70.7 42.0937C72 39.9937 72.6 37.5938 72.6 34.9937C72.6 32.3937 72 29.9937 70.7 27.8937C70.5 27.6937 70.3 27.3938 70.1 27.0938Z" fill="#374063"/>
<path d="M176.2 48.5H171L177.5 32.5H182.6L176.2 48.5Z" fill="#374063"/>
<path d="M148 43.0969L155.2 26.7969L172 26.9969C168.5 22.0969 162.3 21.2969 160 21.2969C157.2 21.2969 154.7 21.8969 152.5 23.0969C150.3 24.2969 148.5 25.8969 147.3 27.9969C146 30.0969 145.4 32.4969 145.4 35.0969C145.4 37.6969 146 40.0969 147.3 42.1969C147.5 42.4969 147.7 42.7969 148 43.0969Z" fill="#374063"/>
<path d="M156.801 29.2969L157.801 26.9969H167.201L169.401 21.2969H159.401L156.301 24.5969L156.801 29.2969Z" fill="#374063"/>
<path d="M157.8 40.8984L158.8 43.1984H164.2L166.4 48.8984H158.6L152.6 40.8984H157.8Z" fill="#374063"/>
<path d="M148.001 43.0969L155.201 26.7969L174.001 27.0969L167.401 43.3969L148.001 43.0969C148.001 43.1969 147.701 42.7969 148.001 43.0969Z" fill="white"/>
<path d="M162.2 37.3L169.4 21L172.1 21.3L172.2 37.6L160.6 37.3C160.7 37.4 160.4 37 162.2 37.3Z" fill="white"/>
<path d="M159.901 48.9031L145.801 48.5031L147.901 43.2031L163.001 43.3031L159.901 48.9031Z" fill="#374063"/>
<path d="M175.6 37.2969H170.6L176.9 21.7969H181.9L175.6 37.2969Z" fill="#374063"/>
<path d="M110.3 26.6969L107.2 33.7969H122.7L120.5 38.7969H110.3L106.4 48.5969H104.9L110.7 21.7969H126.6L124.4 26.7969H110.3V26.6969Z" fill="#374063"/>
<path d="M107.301 48.4938H101.201L107.001 34.0938H113.101L107.301 48.4938Z" fill="#374063"/>
<path d="M109.102 36.1969H103.002L108.802 21.7969H114.902L109.102 36.1969Z" fill="#374063"/>
<path d="M133 48.4969H126.9L132.8 33.7969H139L133 48.4969Z" fill="#374063"/>
<path d="M135.001 36.1969H128.801L134.701 21.7969H140.801L135.001 36.1969Z" fill="#374063"/>
<path d="M177.2 36.2984H171L176.9 21.8984H183L177.2 36.2984Z" fill="#374063"/>
<path d="M176.2 48.4938H170L175.9 34.0938H182L176.2 48.4938Z" fill="#374063"/>
<path d="M84.6996 26.6969L81.5996 33.7969H97.0996L94.8996 38.7969H84.6996L80.7996 48.5969H79.5996L85.6996 21.7969H101L98.7996 26.7969H84.6996V26.6969Z" fill="#374063"/>
<path d="M81.6996 48.4938H75.5996L81.3996 34.0938H87.5996L81.6996 48.4938Z" fill="#374063"/>
<path d="M83.5004 36.1969H77.4004L83.2004 21.7969H89.3004L83.5004 36.1969Z" fill="#374063"/>
</g>
<defs>
<clipPath id="clip0_2410_1018">
<rect width="339.5" height="70" fill="white"/>
</clipPath>
</defs>
</svg>
