<svg width="160" height="18" viewBox="0 0 160 18" fill="none" xmlns="http://www.w3.org/2000/svg">
<path d="M159.136 0.926674C159.4 1.07587 159.619 1.2938 159.769 1.55719C159.921 1.83045 160.001 2.13782 160 2.45014C159.999 2.76245 159.918 3.06937 159.764 3.34178C159.612 3.60827 159.39 3.82939 159.123 3.98233C158.85 4.13574 158.541 4.21634 158.228 4.21634C157.914 4.21634 157.605 4.13574 157.332 3.98233C157.067 3.82974 156.847 3.60942 156.696 3.34414C156.543 3.07315 156.463 2.76762 156.463 2.45687C156.463 2.14613 156.543 1.8406 156.696 1.5696C156.848 1.3041 157.068 1.08393 157.335 0.931998C157.609 0.774613 157.92 0.693572 158.236 0.6974C158.551 0.693544 158.861 0.772645 159.136 0.926674ZM159.028 3.82042C159.387 3.60349 159.648 3.25636 159.756 2.85202C159.863 2.44768 159.809 2.01764 159.604 1.65233C159.47 1.41776 159.275 1.22312 159.04 1.08859C158.794 0.952443 158.516 0.881255 158.234 0.881771C157.951 0.882288 157.674 0.954493 157.427 1.09155C157.189 1.22715 156.992 1.42413 156.856 1.66178C156.72 1.90484 156.648 2.17854 156.648 2.45687C156.648 2.7352 156.72 3.0089 156.856 3.25196C156.991 3.4894 157.188 3.68653 157.425 3.82279C157.67 3.96031 157.946 4.03239 158.227 4.03198C158.508 4.03156 158.784 3.95867 159.028 3.82042ZM159.005 2.50916C158.922 2.62097 158.805 2.70387 158.672 2.74613L159.143 3.46409H158.873L158.437 2.79103C158.398 2.79491 158.36 2.79649 158.321 2.79576H157.801V3.46409H157.54V1.45021H158.321C158.532 1.43852 158.74 1.50225 158.908 1.62985C158.979 1.68937 159.035 1.76433 159.072 1.84896C159.11 1.93359 159.127 2.02562 159.123 2.11795C159.127 2.25755 159.086 2.39476 159.005 2.50916ZM158.72 2.45716C158.769 2.41599 158.808 2.36389 158.834 2.305C158.86 2.24611 158.871 2.18206 158.868 2.11797C158.871 2.05502 158.859 1.99216 158.834 1.93454C158.808 1.87692 158.769 1.82618 158.72 1.78647C158.599 1.70181 158.454 1.66053 158.307 1.66946H157.796V2.57651H158.307C158.454 2.5856 158.6 2.54342 158.72 2.45716Z" fill="white"/>
<path d="M152.629 4.47975C152.541 4.33392 152.44 4.20148 152.34 4.06641L148.267 13.848C148.267 13.848 137.754 13.835 137.765 13.848C139.922 16.6084 143.503 17.1062 144.899 17.1062C146.485 17.13 148.051 16.7574 149.454 16.0225C150.768 15.3358 151.866 14.3026 152.629 13.0361C153.401 11.7427 153.798 10.262 153.776 8.75795C153.798 7.25386 153.401 5.77316 152.629 4.47975Z" fill="white"/>
<path d="M141.58 3.70786H152.064C152.047 3.68646 152.022 3.65538 152.006 3.63425C149.845 0.904955 146.29 0.409265 144.899 0.409265C143.314 0.38559 141.748 0.758127 140.345 1.49275C139.031 2.17951 137.933 3.2128 137.17 4.47943C136.398 5.77281 136.001 7.25351 136.022 8.75758C136.001 10.2616 136.398 11.7423 137.17 13.0357C137.27 13.2016 137.388 13.3523 137.501 13.5066L141.58 3.70786Z" fill="white"/>
<path d="M146.453 8.42316L144.951 8.81648L145.905 7.63471L153.206 2.61719L153.754 3.40564L146.453 8.42316Z" fill="white"/>
<path d="M134.346 3.42965C134.186 2.98045 133.935 2.56864 133.609 2.21959C133.283 1.87053 132.888 1.59163 132.45 1.40009C131.259 0.879112 129.964 0.634655 128.664 0.685223H121.827L120.561 3.72536L131.138 3.69747L128.758 9.41579C125.821 9.41579 119.76 9.41398 118.192 9.41398L115.075 16.8993H119.137L121.012 12.4082H124.534L126.314 16.8993H130.678L128.632 11.6397C129.894 11.2151 131.053 10.5359 132.039 9.64468C132.975 8.7931 133.691 7.72899 134.125 6.54296C134.555 5.56108 134.633 4.46199 134.346 3.42965Z" fill="white"/>
<path d="M116.335 3.42987C116.175 2.9807 115.924 2.56891 115.598 2.21986C115.271 1.87081 114.877 1.5919 114.438 1.40031C113.244 0.884481 111.947 0.644683 110.646 0.698925H103.808L102.556 3.7075H113.121L110.745 9.41605C107.801 9.41605 102.394 9.36987 100.206 9.35099L97.0615 16.8996H101.125L102.997 12.4082H106.322C107.794 12.4131 109.257 12.1648 110.645 11.6745C111.906 11.2401 113.062 10.5489 114.04 9.64495C114.967 8.78796 115.677 7.72519 116.113 6.54323C116.543 5.56127 116.621 4.46226 116.335 3.42987Z" fill="white"/>
<path d="M138.993 12.6022C138.982 12.58 138.976 12.5556 138.977 12.5308C138.977 12.5061 138.983 12.4817 138.994 12.4598C139.019 12.4024 139.06 12.3535 139.113 12.3191C139.16 12.2845 139.216 12.265 139.275 12.263C139.297 12.2615 139.319 12.2659 139.34 12.2757C139.36 12.2856 139.377 12.3006 139.389 12.3191C139.401 12.3408 139.407 12.365 139.407 12.3895C139.407 12.4141 139.4 12.4382 139.389 12.4598C139.364 12.5176 139.322 12.5671 139.27 12.6022C139.223 12.6381 139.166 12.6585 139.107 12.6607C139.085 12.6626 139.062 12.6581 139.042 12.6477C139.022 12.6374 139.005 12.6216 138.993 12.6022Z" fill="white"/>
<path d="M142.735 10.4144C142.782 10.5231 142.803 10.6416 142.796 10.7599C142.788 10.8782 142.753 10.9931 142.692 11.0951L142.041 12.6416H141.815L141.998 12.2073C141.86 12.3517 141.693 12.4665 141.509 12.5444C141.324 12.6224 141.125 12.6619 140.925 12.6605C140.822 12.6722 140.718 12.6611 140.62 12.628C140.522 12.5949 140.433 12.5406 140.359 12.469C140.307 12.396 140.277 12.3096 140.273 12.2202C140.269 12.1308 140.29 12.0421 140.335 11.9644C140.422 11.7598 140.571 11.5873 140.761 11.471C140.996 11.3355 141.266 11.2699 141.538 11.2819H142.379L142.462 11.0857C142.508 11.0079 142.535 10.9203 142.54 10.8302C142.546 10.74 142.53 10.6498 142.494 10.5668C142.438 10.5 142.366 10.4485 142.284 10.4174C142.202 10.3862 142.114 10.3764 142.027 10.3889C141.856 10.3903 141.686 10.4188 141.524 10.4734C141.357 10.5265 141.198 10.6018 141.051 10.6974L141.004 10.529C141.175 10.4195 141.36 10.3338 141.554 10.2743C141.741 10.2155 141.935 10.1848 142.131 10.1833C142.243 10.1675 142.358 10.1804 142.463 10.2209C142.569 10.2613 142.662 10.3279 142.735 10.4144ZM141.616 12.329C141.807 12.2282 141.975 12.0898 142.109 11.9224L142.302 11.4639H141.466C141.265 11.4545 141.065 11.4997 140.887 11.5945C140.746 11.6777 140.636 11.8042 140.574 11.9549C140.539 12.0127 140.523 12.0792 140.527 12.1462C140.53 12.2131 140.554 12.2776 140.594 12.3314C140.654 12.3839 140.725 12.4232 140.802 12.4469C140.878 12.4706 140.959 12.4782 141.039 12.469C141.24 12.4696 141.438 12.4215 141.616 12.329Z" fill="white"/>
<path d="M147.888 10.45C147.936 10.5742 147.955 10.7075 147.945 10.8402C147.934 10.9728 147.893 11.1014 147.826 11.2164L147.227 12.6417H146.992L147.584 11.2353C147.638 11.1412 147.672 11.0367 147.682 10.9287C147.693 10.8208 147.68 10.7118 147.646 10.6089C147.596 10.5317 147.525 10.4704 147.441 10.4323C147.357 10.3942 147.264 10.3808 147.172 10.3939C146.896 10.394 146.628 10.4843 146.409 10.6509C146.171 10.8284 145.986 11.0676 145.876 11.3423L145.329 12.6417H145.094L145.687 11.2353C145.741 11.1412 145.774 11.0367 145.785 10.9287C145.796 10.8207 145.783 10.7117 145.748 10.6089C145.698 10.5316 145.627 10.4702 145.543 10.4321C145.459 10.394 145.366 10.3807 145.274 10.3939C144.999 10.3941 144.73 10.4844 144.511 10.6509C144.273 10.8282 144.089 11.0675 143.978 11.3423L143.431 12.6417H143.196L144.223 10.2024H144.449L144.228 10.7259C144.377 10.5582 144.558 10.4221 144.761 10.3259C144.959 10.2317 145.176 10.183 145.396 10.1835C145.577 10.1703 145.756 10.2235 145.9 10.333C145.958 10.389 146.001 10.4582 146.027 10.5347C146.052 10.6112 146.058 10.6926 146.045 10.772C146.202 10.5922 146.394 10.446 146.609 10.3424C146.819 10.2386 147.05 10.1842 147.284 10.1835C147.4 10.1678 147.517 10.1844 147.624 10.2315C147.731 10.2786 147.822 10.3542 147.888 10.45Z" fill="white"/>
<path d="M63.7028 13.8477L67.9211 3.70752L75.183 3.7089L76.566 0.409097H71.645C71.2582 0.39488 70.8708 0.406913 70.4856 0.445113C69.0507 0.479685 67.643 0.842211 66.3714 1.50465C65.0575 2.1913 63.959 3.22454 63.1961 4.49116C62.4242 5.78458 62.0271 7.26532 62.0487 8.76944C62.0271 10.2736 62.4242 11.7543 63.1961 13.0477C63.298 13.217 63.6817 13.8205 63.7028 13.8477Z" fill="white"/>
<path d="M49.954 3.70682L51.2062 0.698242H39.8782L36.2317 9.42324H38.258L35.1455 16.8987H37.4084H38.3237H38.8644L41.3164 10.9971H46.9382L48.208 7.98854H40.5374L42.3211 3.70682H49.954Z" fill="white"/>
<path d="M59.3216 0.698242H55.5985L51.9508 9.42324H53.7886L50.6523 16.8987H54.4034L58.1351 7.95767H56.2692L59.3216 0.698242Z" fill="white"/>
<path d="M34.3019 3.70682L35.5663 0.698242H24.2103L20.5692 9.42324H22.612L19.4971 16.8987H22.0525H22.758H23.2396L25.696 10.9971H31.2642L32.5103 7.98854H24.9729L26.7116 3.70682H34.3019Z" fill="white"/>
<path d="M16.6076 4.47975C16.5197 4.33392 16.4181 4.20148 16.3189 4.06641L12.2455 13.848C12.2455 13.848 1.73301 13.835 1.74317 13.848C3.90101 16.6084 7.48148 17.1062 8.87761 17.1062C10.463 17.13 12.0291 16.7574 13.4322 16.0225C14.746 15.3358 15.8446 14.3026 16.6076 13.0361C17.3794 11.7427 17.7765 10.262 17.755 8.75793C17.7766 7.25386 17.3795 5.77316 16.6076 4.47975Z" fill="white"/>
<path d="M5.5585 3.70786H16.0422C16.0257 3.68646 16.0007 3.65538 15.984 3.63425C13.8234 0.904979 10.2684 0.409265 8.8779 0.409265C7.29252 0.38559 5.72651 0.758127 4.32333 1.49275C3.00952 2.17951 1.91102 3.2128 1.14817 4.47943C0.376275 5.77281 -0.0208219 7.25351 0.000841269 8.75758C-0.0207067 10.2616 0.376382 11.7423 1.14817 13.0357C1.24801 13.2016 1.36701 13.3523 1.4797 13.5066L5.5585 3.70786Z" fill="white"/>
<path d="M93.6574 3.70682L94.9157 0.698242H81.1848L77.5523 9.43594H79.3901L76.2861 16.8987H79.9588H80.7281H88.1707L89.4235 13.8901H81.1799L82.7532 10.1409H90.9803L92.1936 7.22489H82.2132L83.6849 3.70682H93.6574Z" fill="white"/>
<path d="M70.1957 17.106C67.4572 17.106 64.7807 15.57 63.7021 13.8479C65.9133 13.8479 70.6798 13.8477 70.6798 13.8477H73.7995L72.4433 17.106H70.1957Z" fill="white"/>
</svg>
