<svg width="160" height="19" viewBox="0 0 160 19" fill="none" xmlns="http://www.w3.org/2000/svg">
<g clip-path="url(#clip0_1695_6137)">
<path d="M76.0386 14.8413L64.7031 14.6406C67.1106 17.951 71.2235 18.4525 72.7282 18.4525C73.3301 18.4525 73.8316 18.4525 74.4335 18.3522C74.7345 17.7503 76.0386 14.8413 76.0386 14.8413Z" fill="white"/>
<path d="M26.9846 3.70753L24.8781 8.42227H35.3107L33.9063 11.7326H26.9846V18.253H22.7715V0.296875H36.4141L35.0097 3.60722H26.9846V3.70753Z" fill="white"/>
<path d="M43.4358 3.71535L41.3292 8.43008H51.7618L50.3575 11.7404H43.4358V18.2608H39.2227V0.304688H52.8653L51.4609 3.61503H43.4358V3.71535Z" fill="white"/>
<path d="M55.6738 0.304688H59.887V18.2608H55.6738V0.304688Z" fill="white"/>
<path d="M96.9026 14.9426L95.4982 18.253H82.959V0.296875H96.6016L95.1972 3.60722H87.1722L85.0656 7.51945H95.4982L94.0938 10.7295H87.1722L85.0656 14.9426H96.9026Z" fill="white"/>
<path d="M118.672 1.10595C119.775 1.60751 120.477 2.41002 120.778 3.31284C121.079 4.21566 120.979 5.41943 120.578 6.82382C120.076 8.12789 119.374 9.33165 118.27 10.2345C117.267 11.2376 115.963 11.9398 114.559 12.4414C113.054 12.9429 111.549 13.2439 109.744 13.2439H105.831L104.026 18.1592H99.5117L106.132 0.203125H114.559C116.264 0.303438 117.668 0.604379 118.672 1.10595ZM114.057 9.13103C114.96 8.62946 115.562 7.82695 115.963 6.82382C116.364 5.82068 116.264 5.01817 115.763 4.5166C115.261 4.01504 114.358 3.7141 112.954 3.7141H109.342L107.035 9.93353H110.747C112.051 9.93353 113.154 9.73291 114.057 9.13103Z" fill="white"/>
<path d="M130.608 18.2608L128.702 13.2451H128.502H124.589L122.784 18.2608H118.27L124.89 0.304688H133.317C135.022 0.304688 136.426 0.605628 137.53 1.1072C138.633 1.60876 139.335 2.41127 139.636 3.31409C139.937 4.31723 139.837 5.42068 139.436 6.82506C138.934 8.12914 138.132 9.3329 137.128 10.2357C136.125 11.2389 134.821 11.9411 133.317 12.4426L135.523 18.2608H130.608ZM134.52 4.51785C134.019 4.01629 133.116 3.71535 131.712 3.71535H128L125.693 9.93478H129.404C130.708 9.93478 131.912 9.63384 132.815 9.13227C133.718 8.63071 134.32 7.8282 134.721 6.82506C135.122 5.82193 135.022 5.11973 134.52 4.51785Z" fill="white"/>
<path d="M142.044 14.6458L146.859 3.7116L158.194 3.91223C155.787 0.601881 151.674 0 150.069 0C148.163 0 146.558 0.401254 145.053 1.20376C143.549 2.00627 142.345 3.10972 141.542 4.51411C140.74 5.9185 140.238 7.52351 140.238 9.22884C140.238 10.9342 140.64 12.5392 141.542 13.9436C141.743 14.2445 141.843 14.4451 142.044 14.6458Z" fill="white"/>
<path d="M158.295 3.91406L153.48 14.9485L142.145 14.7479C144.552 18.0583 148.665 18.6601 150.27 18.6601C152.176 18.6601 153.781 18.2589 155.286 17.4564C156.79 16.6539 157.994 15.5504 158.797 14.146C159.599 12.7416 160.101 11.1366 160.101 9.4313C160.101 7.72597 159.699 6.12096 158.797 4.71657C158.596 4.31532 158.395 4.11469 158.295 3.91406Z" fill="white"/>
<path d="M1.70533 14.6458L6.52038 3.7116L17.8558 3.91223C15.5486 0.601881 11.4357 0 9.83072 0C7.92477 0 6.31975 0.401254 4.81505 1.20376C3.31035 2.00627 2.10658 3.10972 1.30408 4.51411C0.401254 5.9185 0 7.52351 0 9.22884C0 10.9342 0.401254 12.5392 1.30408 13.9436C1.40439 14.2445 1.5047 14.4451 1.70533 14.6458Z" fill="white"/>
<path d="M17.9559 3.91406L13.0405 14.8482L1.70508 14.6476C4.1126 17.958 8.22545 18.4595 9.73016 18.4595C11.6361 18.4595 13.2411 18.0583 14.7458 17.2558C16.2505 16.4532 17.4543 15.3498 18.2568 13.9454C19.0593 12.541 19.5609 10.936 19.5609 9.23068C19.5609 7.52535 19.1596 5.92033 18.2568 4.51594C18.2568 4.31532 18.0562 4.11469 17.9559 3.91406Z" fill="white"/>
<path d="M151.775 8.82631L150.17 9.22757L151.173 7.92349L159.399 2.40625L160.001 3.30907L151.775 8.82631Z" fill="white"/>
<path d="M67.7115 17.4545C69.2162 18.2571 70.8212 18.6583 72.7272 18.6583C73.1285 18.6583 73.5297 18.6583 73.931 18.558C74.0313 18.558 74.1316 18.558 74.2319 18.558C74.5328 18.558 74.9341 18.4577 75.235 18.3574C75.3354 18.3574 75.4357 18.3574 75.536 18.2571C75.8369 18.1567 76.1379 18.0564 76.4388 17.9561C76.5391 17.9561 76.6394 17.8558 76.6394 17.8558C77.0407 17.7555 77.3416 17.5549 77.7429 17.3542C78.746 16.8527 79.5485 16.1505 80.1504 15.4483L80.652 14.8464H73.7303C73.5297 14.9467 73.2288 15.047 72.9278 15.047C72.3259 15.047 71.8244 14.9467 71.2225 14.8464H65.0031C65.0031 14.8464 64.7021 13.5423 64.9028 13.7429L67.3103 7.82445C67.4106 7.32288 67.6112 6.721 67.9122 6.31975C67.9122 6.21944 68.0125 6.21944 68.0125 6.11912L69.0156 3.7116L79.3479 3.91223L79.8495 1.70533C78.9466 0.702194 78.2444 1.40439 77.0407 0.902821C75.7366 0.30094 74.3322 0 72.7272 0C70.9216 0 69.2162 0.401254 67.7115 1.20376C66.2068 2.00627 65.1034 3.10972 64.2006 4.51411C63.3981 5.9185 62.8965 7.52351 62.8965 9.32915C62.8965 11.1348 63.2977 12.7398 64.2006 14.1442C65.1034 15.5486 66.2068 16.652 67.7115 17.4545Z" fill="white"/>
<path d="M143.822 13.5895C143.691 13.5895 143.592 13.5496 143.527 13.47C143.463 13.3871 143.446 13.2836 143.477 13.1593C143.514 13.0128 143.594 12.8933 143.716 12.8009C143.837 12.7085 143.971 12.6623 144.115 12.6623C144.247 12.6623 144.344 12.7021 144.406 12.7818C144.471 12.8614 144.488 12.965 144.455 13.0924C144.419 13.2358 144.338 13.3553 144.212 13.4509C144.09 13.5433 143.96 13.5895 143.822 13.5895ZM148.606 10.98L147.43 13.5512H146.7L146.813 13.2979C146.544 13.4923 146.248 13.5895 145.926 13.5895C145.719 13.5895 145.54 13.5433 145.39 13.4509C145.239 13.3585 145.132 13.2262 145.071 13.0542C145.013 12.8789 145.014 12.6734 145.073 12.4377C145.145 12.1541 145.273 11.8992 145.459 11.673C145.648 11.4436 145.87 11.2651 146.126 11.1377C146.382 11.007 146.645 10.9417 146.915 10.9417C147.322 10.9417 147.577 11.0708 147.68 11.3288L147.837 10.98H148.606ZM146.319 12.9729C146.47 12.9729 146.613 12.9379 146.749 12.8678C146.886 12.7945 147.003 12.6941 147.101 12.5667C147.199 12.4392 147.269 12.2927 147.311 12.127C147.355 11.9518 147.336 11.8132 147.253 11.7112C147.174 11.6092 147.039 11.5583 146.848 11.5583C146.697 11.5583 146.553 11.5949 146.416 11.6682C146.28 11.7383 146.163 11.8371 146.065 11.9645C145.967 12.0919 145.898 12.2385 145.856 12.4042C145.812 12.5794 145.829 12.718 145.909 12.82C145.991 12.922 146.128 12.9729 146.319 12.9729ZM152.654 10.9417C152.943 10.9417 153.154 11.0182 153.286 11.1711C153.42 11.3209 153.451 11.5344 153.381 11.8116C153.356 11.9135 153.317 12.0187 153.267 12.127L152.617 13.5512H151.848L152.475 12.1796C152.504 12.1158 152.527 12.0505 152.544 11.9836C152.577 11.853 152.566 11.7542 152.511 11.6873C152.458 11.6204 152.363 11.5869 152.225 11.5869C151.854 11.5869 151.568 11.802 151.368 12.2321L150.764 13.5512H149.995L150.622 12.1796C150.651 12.1158 150.674 12.0521 150.69 11.9884C150.723 11.8578 150.711 11.759 150.656 11.6921C150.605 11.622 150.51 11.5869 150.372 11.5869C150.001 11.5869 149.712 11.8052 149.507 12.2417L148.91 13.5512H148.141L149.318 10.98H150.047L149.92 11.2476C150.202 11.0437 150.505 10.9417 150.831 10.9417C151.015 10.9417 151.168 10.9784 151.291 11.0516C151.418 11.1217 151.5 11.2253 151.538 11.3623C151.7 11.2253 151.876 11.1217 152.065 11.0516C152.254 10.9784 152.451 10.9417 152.654 10.9417Z" fill="white"/>
<path d="M65.0031 13.7442L69.0156 3.71285H69.5172L79.3479 3.91348C79.8495 2.91034 80.4513 1.30532 80.9529 0.402503C78.5454 0.402503 73.931 0.101562 72.8275 0.101562C70.9216 0.101562 69.3165 0.502816 67.8118 1.30532C66.2068 2.00752 65.1034 3.11097 64.2006 4.51536C63.3981 5.91974 62.8965 7.52476 62.8965 9.23009C62.8965 10.9354 63.2977 12.5404 64.2006 13.9448C64.3009 14.1454 64.5015 14.3461 64.6018 14.5467L64.9028 13.8445C64.9028 13.8445 64.9028 13.7442 65.0031 13.7442Z" fill="white"/>
<path d="M67.6112 17.2501C66.1065 16.4476 65.1034 15.5448 64.2006 14.1404C63.2977 12.736 62.8965 11.131 62.8965 9.32535C62.8965 7.5197 63.2977 5.91469 64.2006 4.5103C65.1034 3.10591 69.6175 2.20309 69.0156 3.70779C67.8118 6.51657 67.21 7.72033 67.21 9.32535C67.21 10.4288 67.4106 11.4319 67.9122 12.3348C68.4137 13.2376 68.9153 13.6388 69.8181 14.1404C70.7209 14.642 71.7241 14.8426 72.8275 14.8426C74.6332 14.8426 74.1316 18.3536 72.6269 18.3536C70.7209 18.4539 69.1159 18.0526 67.6112 17.2501Z" fill="white"/>
</g>
<defs>
<clipPath id="clip0_1695_6137">
<rect width="160" height="18.6583" fill="white"/>
</clipPath>
</defs>
</svg>
