<svg width="159" height="34" viewBox="0 0 159 34" fill="none" xmlns="http://www.w3.org/2000/svg">
<rect width="56.6667" height="34" rx="4" fill="#71BE43"/>
<path d="M51.9013 26.4541C51.3558 26.4541 50.8103 26.4541 50.2361 26.4541C50.2648 26.3645 50.3223 26.3346 50.3223 26.2749C50.4084 26.0361 50.351 25.8271 50.2361 25.6181C50.0639 25.3494 49.8055 25.1703 49.4896 25.1106C49.4896 25.2002 49.4896 25.2599 49.4896 25.3494C49.4896 25.5584 49.4896 25.7376 49.4896 25.9465C49.4896 26.1257 49.4896 26.3048 49.6332 26.4541C49.4609 26.4839 48.3986 26.4839 48.0254 26.4839C48.0254 26.3944 48.0254 26.3944 48.0828 26.2451C48.0828 24.7822 48.0828 23.2895 48.0828 21.7968C48.1977 21.8266 48.2838 21.8565 48.3699 21.8863C48.4561 21.9162 48.5422 21.946 48.5996 21.9162C48.7432 21.8565 48.8867 21.8565 49.059 21.7968C49.2887 21.7371 49.5471 21.7072 49.7768 21.7669C49.9203 21.7968 50.0926 21.7968 50.2361 21.8565C50.4658 21.946 50.6668 22.0655 50.8391 22.2446C51.0113 22.4237 51.1549 22.6327 51.2123 22.9014C51.241 23.0208 51.2697 23.1701 51.2984 23.2895C51.2984 23.3791 51.2697 23.4686 51.2697 23.5283C51.2697 23.6477 51.2123 23.7672 51.1836 23.8866C51.1262 24.006 51.0974 24.1553 50.9826 24.2448C50.9539 24.2747 50.9252 24.3344 50.8965 24.3941C51.2123 24.5732 51.442 24.8121 51.5568 25.1405C51.6717 25.4092 51.7578 25.6778 51.7291 25.9764C51.7291 26.0361 51.7865 26.3048 51.8152 26.3346C51.8439 26.3645 51.8726 26.3943 51.9013 26.4242C51.9013 26.4242 51.9013 26.4242 51.9013 26.4541ZM50.0064 23.3791C49.9777 23.3193 49.949 23.2298 49.9203 23.1701C49.7768 23.0805 49.6619 22.991 49.4896 23.0208C49.4896 23.2895 49.4896 23.588 49.4896 23.8567C49.7768 23.9463 50.0351 23.7075 50.0064 23.3791Z" fill="#005C42"/>
<path d="M51.8969 10.173C51.8394 10.173 51.782 10.173 51.6959 10.173C51.6959 9.93413 51.6959 9.6953 51.6959 9.42661C51.581 9.60573 51.5523 9.81471 51.4662 9.96399C51.4088 9.96399 51.3227 9.96399 51.2652 9.96399C51.2078 9.78486 51.1217 9.63559 51.0643 9.45646C51.0068 9.6953 51.0355 9.93413 51.0355 10.173C50.9781 10.173 50.9207 10.173 50.8633 10.173C50.8633 9.75501 50.8633 9.30719 50.8633 8.85938C50.9207 8.85938 51.0068 8.85938 51.0643 8.85938C51.1791 9.12806 51.2939 9.39675 51.4088 9.6953C51.5236 9.39675 51.6098 9.12806 51.7246 8.85938C51.8107 8.85938 51.8682 8.85938 51.9256 8.85938C51.8969 9.30719 51.8969 9.75501 51.8969 10.173Z" fill="white"/>
<path d="M30.5422 10.3359C31.0016 10.3359 31.4322 10.4852 31.8055 10.7539C32.0638 10.933 32.2648 11.1719 32.4371 11.4405C32.6094 11.7092 32.6955 11.9779 32.7529 12.3063C32.7529 12.3959 32.7816 12.4855 32.7816 12.5452C32.7816 12.6049 32.7529 12.6646 32.8103 12.7243C32.8103 12.7243 32.8103 12.7541 32.8103 12.784C32.7529 13.1124 32.7529 13.4408 32.6094 13.7393C32.4945 13.9782 32.3797 14.217 32.2074 14.3961C31.9203 14.7245 31.6045 14.9634 31.2025 15.0828C30.9154 15.1723 30.5996 15.2321 30.2838 15.1723C29.8818 15.1126 29.5086 14.9634 29.1928 14.6947C28.9057 14.4857 28.7047 14.1872 28.5611 13.8886C28.4463 13.6498 28.3889 13.4109 28.3602 13.1422C28.3027 12.9333 28.3027 12.7541 28.3027 12.6049C28.3027 12.4556 28.3314 12.3063 28.3889 12.1571C28.4463 11.8884 28.5611 11.6495 28.7047 11.4107C28.8482 11.2017 29.0205 10.9927 29.1928 10.8435C29.2789 10.7539 29.3937 10.6942 29.5086 10.6046C29.6809 10.4852 29.8818 10.4554 30.0541 10.3956C30.2264 10.3658 30.3986 10.3658 30.5422 10.3359ZM29.7096 12.7541C29.7383 12.8736 29.7383 12.993 29.767 13.1124C29.8531 13.3811 30.0541 13.5901 30.3125 13.6498C30.3986 13.6796 30.5135 13.6796 30.6283 13.6796C30.8867 13.6796 31.0877 13.5304 31.2312 13.3214C31.4322 12.993 31.4609 12.6347 31.2887 12.2765C31.2025 12.0973 31.059 11.9481 30.8867 11.8884C30.7432 11.8287 30.5996 11.7988 30.4273 11.8287C30.1689 11.8884 29.9967 12.0675 29.8531 12.2765C29.7383 12.4257 29.7096 12.6049 29.7096 12.7541Z" fill="white"/>
<path d="M30.5135 26.4994C30.3125 26.5292 30.0828 26.4993 29.8818 26.4098C29.5947 26.3202 29.3076 26.171 29.0779 25.9321C28.8482 25.6933 28.6473 25.4544 28.5037 25.1559C28.4176 24.9469 28.3602 24.7379 28.3314 24.4991C28.3027 24.3498 28.3027 24.2006 28.3027 24.0214C28.3027 23.7229 28.3889 23.4244 28.5037 23.1557C28.6186 22.8571 28.7908 22.5586 29.0205 22.3496C29.3076 22.0809 29.6521 21.8719 30.0254 21.7824C30.2551 21.7226 30.456 21.6928 30.6857 21.7226C30.9154 21.7525 31.1451 21.7824 31.3461 21.8719C31.748 22.0212 32.0351 22.2899 32.3222 22.6183C32.5232 22.8571 32.6381 23.1258 32.6955 23.4243C32.7242 23.5736 32.7816 23.7229 32.7816 23.902C32.7816 23.9617 32.7529 24.0214 32.8103 24.0811C32.839 24.111 32.839 24.1409 32.8103 24.1707C32.7529 24.2603 32.7816 24.3797 32.7816 24.4693C32.7529 24.6185 32.7529 24.7678 32.6955 24.9171C32.6094 25.126 32.5232 25.335 32.4084 25.5142C32.2074 25.8127 31.949 26.0515 31.6619 26.2307C31.4896 26.3501 31.3174 26.4098 31.1164 26.4695C30.9154 26.4994 30.7432 26.5292 30.5135 26.4994ZM30.3699 23.1855C30.3125 23.2154 30.2551 23.2452 30.1976 23.2751C30.0541 23.3646 29.968 23.4841 29.8531 23.6035C29.7096 23.8125 29.7096 24.2603 29.7957 24.4693C29.9392 24.8574 30.2264 25.0663 30.5996 25.0663C30.8867 25.0663 31.0877 24.9171 31.2599 24.6782C31.3461 24.5588 31.4035 24.4095 31.4035 24.2901C31.4322 24.0214 31.3748 23.7527 31.2025 23.5139C31.059 23.3049 30.858 23.2154 30.6283 23.1855C30.5422 23.1855 30.4273 23.1855 30.3699 23.1855Z" fill="#005C42"/>
<path d="M30.4814 20.8364C30.1943 20.8663 29.8785 20.7468 29.5914 20.5976C29.2756 20.4483 29.0172 20.2095 28.8162 19.9408C28.6727 19.7318 28.5578 19.5228 28.4717 19.284C28.4143 19.1347 28.3568 18.9854 28.3568 18.8063C28.3568 18.6869 28.3281 18.5675 28.3281 18.4481C28.3281 18.0898 28.3855 17.7316 28.5291 17.4032C28.6727 17.0748 28.8736 16.7464 29.1894 16.5075C29.4191 16.3583 29.6201 16.209 29.8785 16.1194C29.9934 16.0896 30.1082 16.0597 30.223 16.0299C30.3379 16 30.4814 16 30.5963 16C31.0269 16 31.4289 16.1493 31.7734 16.3881C32.0892 16.5971 32.3189 16.8658 32.4912 17.1942C32.606 17.4032 32.6922 17.6718 32.7496 17.9107C32.7783 18.06 32.7496 18.2391 32.807 18.3884C32.7783 18.5078 32.7783 18.657 32.7783 18.8063C32.7209 19.0451 32.6635 19.3138 32.5486 19.5228C32.4625 19.7019 32.3476 19.8512 32.2615 20.0005C32.118 20.2095 31.9457 20.3289 31.7447 20.4782C31.515 20.6274 31.2279 20.7468 30.9695 20.8066C30.826 20.8364 30.6824 20.8364 30.4814 20.8364ZM30.7685 17.5226C30.6824 17.5226 30.5963 17.5226 30.5101 17.5226C30.1943 17.5226 29.9934 17.7017 29.8498 17.9405C29.7062 18.1794 29.735 18.4182 29.7637 18.6869C29.7924 18.8362 29.8785 19.0153 29.9934 19.1347C30.0795 19.2243 30.1943 19.3138 30.3092 19.3437C30.424 19.3735 30.5676 19.4034 30.7111 19.3735C30.9695 19.3138 31.1705 19.1646 31.2853 18.9257C31.4002 18.7466 31.4289 18.5078 31.4002 18.2988C31.3715 18.0898 31.2853 17.9107 31.1705 17.7316C31.0269 17.642 30.9121 17.5823 30.7685 17.5226Z" fill="white"/>
<path d="M35.2213 26.4293C35.3648 26.2203 35.3935 26.0114 35.3074 25.7725C35.25 25.6233 35.1639 25.474 35.049 25.3844C34.8767 25.2351 34.7045 25.1157 34.4748 25.0859C34.4748 25.1157 34.4748 25.1754 34.4748 25.2053C34.4748 25.4143 34.4748 25.6233 34.4748 25.8322C34.4748 26.0412 34.4748 26.2502 34.5896 26.4293C34.4461 26.4592 33.3551 26.4592 32.9531 26.4293C32.9531 26.3995 32.9531 26.3398 32.9818 26.3099C33.0393 26.1606 33.068 26.0412 33.068 25.8919C33.068 24.5784 33.068 23.2648 33.068 21.981C33.068 21.9213 33.068 21.8616 33.068 21.772C33.2115 21.8318 33.3264 21.8915 33.4986 21.8915C33.5848 21.8915 33.6996 21.8915 33.7857 21.8616C33.9293 21.8318 34.0728 21.8019 34.2164 21.772C34.3312 21.7422 34.4748 21.7422 34.5896 21.7422C34.9342 21.7422 35.25 21.8318 35.5371 22.0109C35.7668 22.1303 35.939 22.3094 36.0539 22.5483C36.14 22.7572 36.2262 22.9364 36.2262 23.1752C36.2262 23.2648 36.2549 23.3543 36.2549 23.4439C36.2262 23.7126 36.14 23.9813 35.9965 24.2201C35.9678 24.2798 35.939 24.3395 35.9103 24.3992C35.9965 24.4589 36.0539 24.5186 36.1113 24.5784C36.3123 24.6978 36.3984 24.8769 36.5133 25.056C36.6568 25.3247 36.7717 25.6233 36.743 25.9517C36.743 26.1009 36.7717 26.2203 36.8291 26.3696C36.8578 26.3995 36.8578 26.4293 36.8578 26.489C36.3123 26.4293 35.7668 26.4293 35.2213 26.4293ZM34.4748 23.0558C34.4748 23.3543 34.4748 23.623 34.4748 23.8917C34.5609 23.8917 34.6184 23.8917 34.7332 23.8917C34.7906 23.832 34.8767 23.7723 34.9629 23.6827C35.0203 23.4737 35.0203 23.4737 34.9629 23.2648C34.8193 23.1155 34.6758 23.0259 34.4748 23.0558Z" fill="#005C42"/>
<path d="M35.9103 18.6755C36.3123 18.9143 36.5133 19.2725 36.6568 19.6905C36.6855 19.7801 36.7142 19.8995 36.743 20.0189C36.743 20.2577 36.743 20.4966 36.8865 20.7354C36.3123 20.7354 35.7955 20.7354 35.25 20.7354C35.2787 20.6458 35.3361 20.5861 35.3648 20.4966C35.3648 20.407 35.3648 20.2876 35.3361 20.198C35.3074 19.989 35.1639 19.8398 35.0203 19.7204C34.8767 19.5711 34.6758 19.4815 34.4748 19.4517C34.4748 19.7801 34.4748 20.1085 34.4748 20.4667C34.4748 20.5563 34.5322 20.6757 34.5609 20.7653C34.0441 20.7653 33.4986 20.7653 32.9531 20.7653C32.9818 20.6757 33.0105 20.5861 33.0393 20.4966C33.068 20.407 33.068 20.3174 33.068 20.198C33.068 18.9143 33.068 17.6007 33.068 16.317C33.068 16.2573 33.068 16.1975 33.068 16.108C33.1541 16.1378 33.2402 16.1677 33.3264 16.1975C33.4125 16.2274 33.4699 16.2274 33.5561 16.2274C33.757 16.1975 33.9293 16.1378 34.1303 16.108C34.3025 16.0781 34.4461 16.0781 34.6184 16.0781C35.0203 16.0781 35.3935 16.1975 35.7094 16.4364C35.8529 16.5259 35.9678 16.6752 36.0539 16.8543C36.1687 17.0633 36.2549 17.2723 36.2549 17.5111C36.3123 17.6007 36.3123 17.7201 36.2836 17.8097C36.2262 18.0187 36.1974 18.2276 36.0826 18.4366C36.0539 18.4963 35.9965 18.556 35.9678 18.6157C35.939 18.556 35.939 18.6157 35.9103 18.6755ZM34.9342 17.541C34.7906 17.3917 34.6758 17.332 34.4461 17.3619C34.4461 17.5111 34.4461 17.6306 34.4461 17.7798C34.4461 17.9291 34.4461 18.0485 34.4461 18.1978C34.5609 18.1679 34.6758 18.1679 34.7619 18.1381C34.8193 18.0784 34.8767 18.0187 34.9342 17.959C35.0203 17.8395 35.0203 17.6903 34.9342 17.541Z" fill="white"/>
<path d="M34.4748 13.7095C34.4748 14.0677 34.4748 14.3961 34.4748 14.7245C34.4748 14.8141 34.5322 14.9335 34.5609 15.0231C34.0441 15.0231 33.4986 15.0231 32.9531 15.0231C32.9531 14.9335 33.0393 14.8439 33.0393 14.7544C33.068 14.6648 33.068 14.5753 33.068 14.4558C33.068 13.1721 33.068 11.8585 33.068 10.5748C33.068 10.5151 33.068 10.4554 33.068 10.3658C33.1828 10.3956 33.2977 10.4554 33.3838 10.4852C33.4125 10.4852 33.4412 10.5151 33.4699 10.4852C33.6135 10.4255 33.757 10.4255 33.9293 10.3956C34.1016 10.3359 34.3025 10.3359 34.5035 10.3359C34.8193 10.3359 35.1064 10.3956 35.3648 10.5151C35.6519 10.6345 35.8816 10.8435 36.0252 11.1122C36.14 11.3211 36.2262 11.5301 36.2262 11.7689C36.2262 11.8287 36.2549 11.9182 36.2549 11.9779C36.2549 12.0973 36.2262 12.1869 36.1974 12.3063C36.1687 12.4257 36.1113 12.575 36.0539 12.6944C35.9965 12.784 35.939 12.8736 35.8529 12.9631C35.9103 13.0228 35.9965 13.0825 36.0539 13.1422C36.3123 13.3214 36.4558 13.5901 36.5707 13.8886C36.6568 14.0976 36.7142 14.3364 36.6855 14.5753C36.6855 14.7245 36.743 14.8738 36.8004 15.0231C36.6568 15.0529 35.8816 15.0828 35.1926 15.0529C35.2213 14.9634 35.25 14.9037 35.3074 14.8141C35.3074 14.7245 35.3074 14.6051 35.2787 14.5156C35.2213 14.2767 35.0777 14.0976 34.8767 13.9782C34.7906 13.8289 34.6471 13.7393 34.4748 13.7095ZM34.5035 11.6794C34.4748 11.8287 34.4748 12.366 34.5035 12.5153C34.5609 12.5153 34.6184 12.5153 34.7045 12.5153C34.7906 12.4556 34.8767 12.366 34.9629 12.3063C34.9916 12.1869 34.9916 12.0973 35.0203 11.9779C34.9342 11.8884 34.8767 11.7988 34.8193 11.7092C34.6758 11.7092 34.5896 11.6794 34.5035 11.6794Z" fill="white"/>
<path d="M41.7369 16.108C41.823 16.317 41.8805 16.5558 41.9666 16.7648C42.0814 17.0932 42.1963 17.4514 42.3398 17.7798C42.426 18.0187 42.5121 18.2575 42.5982 18.4963C42.7131 18.8546 42.8279 19.2128 42.9715 19.5412C43.0576 19.7502 43.115 19.9293 43.1724 20.1383C43.2299 20.3473 43.316 20.5264 43.4595 20.6757C42.8853 20.6757 42.3111 20.6757 41.7082 20.6757C41.823 20.4369 41.7082 20.2577 41.6221 20.0488C41.2201 20.0488 40.8182 20.0488 40.4162 20.0488C40.3301 20.2577 40.2726 20.4369 40.3588 20.6757C39.7846 20.6757 39.2103 20.6757 38.6074 20.6757C38.8371 20.3473 38.9232 19.989 39.0381 19.6308C39.1816 19.2725 39.2965 18.8844 39.44 18.5262C39.6123 18.0485 39.7846 17.5708 39.9568 17.0932C40.0143 16.914 40.1004 16.7349 40.1578 16.5259C40.2152 16.3767 40.2439 16.1975 40.0717 16.0781C40.6459 16.108 41.1627 16.108 41.7369 16.108ZM41.3062 19.0039C41.2775 18.8844 41.2775 18.765 41.2488 18.6755C41.1627 18.3769 41.1053 18.0784 41.0478 17.7798C41.0478 17.7201 41.0478 17.6306 40.9617 17.6007C40.9043 17.8395 40.8756 18.0784 40.8182 18.2873C40.7894 18.5262 40.7033 18.7352 40.7033 18.974C40.933 19.0039 41.1053 19.0039 41.3062 19.0039Z" fill="white"/>
<path d="M43.1988 26.2999C43.2275 26.3297 43.2562 26.3596 43.2849 26.4193C43.2562 26.4491 43.2562 26.4491 43.2275 26.4491C42.9691 26.4491 42.7107 26.4491 42.4523 26.4491C42.1939 26.4491 41.9355 26.4491 41.6484 26.4491C41.5336 26.3596 41.5336 26.2103 41.4762 26.061C41.3326 25.6431 41.1891 25.1953 41.0168 24.7773C40.9019 24.5086 40.8445 24.2399 40.7297 23.9414C40.6148 23.6428 40.5 23.3144 40.4139 23.0159C40.3564 22.8069 40.2703 22.6278 40.2129 22.4188C40.1842 22.3292 40.1555 22.2098 40.098 22.1203C40.0406 22.0307 39.9832 21.9411 39.9258 21.8516C40.5 21.8516 41.0742 21.8516 41.6484 21.8516C41.5336 22.0605 41.6197 22.2695 41.6771 22.4487C41.7633 22.7472 41.8207 23.0159 41.9068 23.3144C41.9642 23.5533 42.0504 23.7921 42.1078 24.0309C42.1365 24.1802 42.1939 24.2996 42.2226 24.419C42.2226 24.4787 42.2514 24.5086 42.2801 24.5982C42.3088 24.5086 42.3662 24.4787 42.3662 24.419C42.3949 24.1802 42.5098 23.9414 42.5672 23.7025C42.682 23.3144 42.7969 22.8965 42.9117 22.5084C42.9404 22.4188 42.9691 22.3591 42.9978 22.2695C43.0265 22.1203 43.084 22.0008 42.9691 21.8516C43.5721 21.8516 44.1463 21.8516 44.7492 21.8516C44.6918 21.9411 44.6344 22.0008 44.6056 22.0904C44.4908 22.3889 44.4047 22.6576 44.2898 22.9562C44.2037 23.195 44.1176 23.4338 44.0314 23.6727C43.9453 23.9115 43.8592 24.1205 43.773 24.3593C43.6582 24.6579 43.5433 24.9564 43.4572 25.255C43.3711 25.5237 43.2562 25.7923 43.1701 26.0909C43.1988 26.1506 43.1988 26.2103 43.1988 26.2999Z" fill="#005C42"/>
<path d="M44.8965 21.8203C45.8152 21.8203 46.7053 21.8203 47.624 21.8203C47.624 22.2681 47.624 22.7159 47.624 23.1638L47.5953 23.1936C47.4517 23.1339 47.2795 23.1339 47.1072 23.0742C47.0785 23.0742 47.0211 23.0742 46.9924 23.0742C46.7914 23.0742 46.6191 23.0742 46.4182 23.0742C46.3894 23.104 46.3894 23.104 46.3607 23.1339C46.3607 23.2832 46.3607 23.4026 46.3607 23.5519C46.5043 23.5519 46.6191 23.5519 46.7627 23.5519C46.8775 23.5519 47.0211 23.522 47.1646 23.522C47.1646 23.9101 47.1646 24.2684 47.1646 24.6863C47.0498 24.6863 46.9062 24.6565 46.7914 24.6565C46.6478 24.6565 46.533 24.6565 46.3894 24.6565C46.3894 24.8356 46.3894 24.9849 46.3894 25.164C46.5904 25.1939 46.8201 25.164 47.0211 25.164C47.2221 25.164 47.423 25.1043 47.624 25.0744C47.624 25.5223 47.624 25.9701 47.624 26.4179C47.4805 26.4477 45.2984 26.4477 44.8965 26.4179C44.8965 26.388 44.9252 26.3582 44.9252 26.3283C44.9826 26.2388 45.0113 26.1492 45.0113 26.0298C45.0113 24.746 45.0113 23.4623 45.0113 22.1786C45.0113 22.089 44.9539 21.9696 44.8965 21.8203Z" fill="#005C42"/>
<path d="M37.0577 21.8203C37.1438 21.8203 37.2587 21.8502 37.3448 21.8502C38.1487 21.8502 38.9239 21.8502 39.7278 21.8502C39.7565 21.9994 39.7565 22.8354 39.7278 23.2235C39.3258 23.0742 38.9239 23.1638 38.5219 23.1339C38.4932 23.2832 38.5219 23.4324 38.5219 23.5817C38.809 23.5817 39.0674 23.6116 39.3258 23.522C39.3258 23.94 39.3258 24.2982 39.3258 24.6863C39.211 24.746 39.0674 24.6266 38.9526 24.6565C38.809 24.6863 38.6942 24.6565 38.5506 24.6565C38.5506 24.8356 38.5506 24.9849 38.5506 25.164C38.7516 25.1939 38.9526 25.164 39.1823 25.164C39.3833 25.1939 39.5842 25.1043 39.7852 25.0744C39.7852 25.5223 39.7852 25.9701 39.7852 26.4179C39.6417 26.4477 37.6032 26.4477 37.1151 26.4179C37.1438 26.3283 37.1725 26.2089 37.2012 26.1193C37.2012 26.0596 37.2299 26.0298 37.2299 25.9701C37.2299 24.7162 37.2299 23.4922 37.2299 22.2383C37.2299 22.1189 37.1725 22.0293 37.1438 21.9099C37.0577 21.88 37.0577 21.8502 37.0577 21.8203Z" fill="#005C42"/>
<path d="M37 10.4375C37.9187 10.4375 38.8088 10.4375 39.6988 10.4375C39.7275 10.5569 39.7562 11.3331 39.7275 11.7809C39.5266 11.7809 39.3543 11.6914 39.1533 11.6914C38.9523 11.6914 38.7514 11.6914 38.5217 11.6914C38.493 11.8407 38.5217 11.9899 38.493 12.1691C38.7514 12.1691 39.0098 12.1989 39.2682 12.1093C39.2969 12.1392 39.2969 12.1392 39.2969 12.1392C39.2969 12.1392 39.2969 12.1392 39.2969 12.1691C39.2969 12.5273 39.2969 12.9154 39.2969 13.3035C39.1533 13.2737 39.0385 13.2438 38.9236 13.214C38.7801 13.214 38.6652 13.214 38.5217 13.214C38.493 13.3035 38.5217 13.3931 38.5217 13.4826C38.5217 13.5722 38.5217 13.6618 38.5217 13.7513C38.7226 13.7812 38.9523 13.7513 39.1533 13.7513C39.3543 13.7513 39.5553 13.6618 39.7562 13.6618C39.7562 14.1096 39.7562 14.5276 39.7562 14.9754C39.6127 15.0052 37.6891 15.0351 37.0574 15.0052C37.1436 14.8559 37.1723 14.6768 37.1723 14.4977C37.1723 13.3632 37.1723 12.2586 37.1723 11.1242C37.1436 10.8853 37.201 10.6465 37 10.4375Z" fill="white"/>
<path d="M40.2434 15.0764C40.2434 14.4793 40.2434 13.912 40.2434 13.2851C40.5592 13.6135 40.8751 13.9419 41.3344 13.9419C41.478 13.8822 41.5641 13.7926 41.6215 13.6434C41.5928 13.4344 41.4206 13.315 41.277 13.1955C41.076 13.0463 40.9038 12.9269 40.7028 12.8074C40.4444 12.5985 40.2721 12.3298 40.186 12.0014C40.0999 11.673 40.1573 11.3744 40.2721 11.1057C40.4157 10.7773 40.6741 10.5684 40.9899 10.4489C41.2483 10.3594 41.5067 10.3594 41.7651 10.3594C41.8512 10.3594 41.9374 10.4191 42.0235 10.4489C42.1958 10.5086 42.3106 10.5086 42.4829 10.4489C42.4829 10.9266 42.4829 11.3744 42.4829 11.8819C42.4542 11.8521 42.4254 11.8222 42.4254 11.8222C42.3106 11.673 42.1671 11.5237 41.9661 11.4341C41.8799 11.4341 41.7364 11.4043 41.6503 11.4938C41.6215 11.5535 41.5928 11.6133 41.5641 11.673C41.6215 11.8819 41.7651 12.0014 41.9374 12.0909C42.1958 12.2402 42.4542 12.3895 42.6551 12.6283C42.8274 12.8074 42.9135 13.0463 42.971 13.2552C43.0284 13.4941 43.0284 13.7031 42.9997 13.9419C42.971 14.2106 42.8848 14.4494 42.6838 14.6584C42.4254 14.9271 42.1096 15.1062 41.7651 15.1659C41.6503 15.1958 41.5354 15.1958 41.4206 15.1958C41.2196 15.1958 41.0473 15.1659 40.8751 15.1062C40.6454 15.0167 40.4444 15.0167 40.2434 15.0764Z" fill="white"/>
<path d="M46.3305 15.0692C46.3305 14.4722 46.3305 13.8751 46.3305 13.2481C46.3879 13.3078 46.4453 13.3675 46.474 13.3974C46.5314 13.4571 46.5601 13.487 46.6176 13.5467C46.7324 13.6362 46.8472 13.7556 46.9621 13.8154C47.1056 13.9049 47.2779 13.9646 47.5076 13.9348C47.565 13.9049 47.6224 13.8452 47.6799 13.7855C47.766 13.5168 47.5937 13.3675 47.4215 13.2183C47.2492 13.069 47.0482 12.9496 46.8472 12.8302C46.6176 12.651 46.4166 12.4421 46.3017 12.1435C46.273 12.0838 46.273 12.0241 46.273 11.9644C46.2443 11.6957 46.2443 11.3972 46.3305 11.1285C46.4453 10.7702 46.7037 10.5612 47.0482 10.4418C47.3928 10.3224 47.7373 10.2925 48.0818 10.412C48.1392 10.4418 48.1967 10.4717 48.2828 10.4717C48.3689 10.4717 48.4838 10.4717 48.5699 10.4418C48.5699 10.8896 48.5699 11.3673 48.5699 11.845C48.4263 11.636 48.2828 11.4867 48.0818 11.3972C48.0244 11.3972 47.9383 11.3972 47.8521 11.3972C47.8234 11.3972 47.8234 11.427 47.7947 11.427C47.6511 11.5166 47.6224 11.636 47.7086 11.7554C47.766 11.845 47.8521 11.9047 47.9383 11.9644C48.1679 12.1137 48.3976 12.2629 48.5986 12.4122C48.8857 12.651 49.0293 12.9496 49.0867 13.3377C49.0867 13.4571 49.1154 13.6064 49.1154 13.7258C49.0867 13.9945 49.0293 14.2333 48.8857 14.4722C48.7134 14.7408 48.4838 14.8901 48.1967 15.0095C47.9383 15.129 47.6511 15.1588 47.364 15.129C47.2205 15.129 47.0769 15.0991 46.9621 15.0394C46.8472 15.0095 46.7324 15.0394 46.6463 14.9797C46.5601 15.0095 46.4453 15.0394 46.3592 15.0692C46.3592 15.0692 46.3592 15.0692 46.3305 15.0692Z" fill="white"/>
<path d="M27.8121 19.0086C27.6685 18.9788 27.525 18.9489 27.3814 18.9191C27.0369 18.8892 27.0369 18.9191 26.9508 18.9788C26.9508 19.4266 26.9508 19.9043 26.9508 20.3521C26.9508 20.4715 27.0082 20.5909 27.0369 20.7103C26.5201 20.7103 25.9746 20.7103 25.4291 20.7103C25.5152 20.5611 25.5439 20.4118 25.5439 20.2327C25.5439 19.0385 25.5439 17.8742 25.5439 16.68C25.5439 16.471 25.5152 16.2919 25.4004 16.1128C25.4578 16.1128 25.4865 16.0829 25.4865 16.0829C26.3478 16.0829 27.2092 16.0829 28.0705 16.0829C28.1279 16.0829 28.214 16.053 28.2428 16.1426C28.2428 16.5606 28.2428 16.9785 28.2428 17.4263C28.214 17.4263 28.1853 17.4562 28.1853 17.4263C28.0418 17.3666 27.8695 17.3368 27.6973 17.3368C27.4389 17.3368 27.1805 17.3368 26.8934 17.3368C26.8934 17.4861 26.8934 17.6353 26.8934 17.8145C27.1805 17.8145 27.4676 17.8443 27.7547 17.7547C27.8121 18.2026 27.8121 18.5907 27.8121 19.0086Z" fill="white"/>
<path d="M25.4004 10.4375C26.3766 10.4375 27.2953 10.4375 28.2715 10.4375C28.2715 10.8853 28.2715 11.3331 28.2715 11.7809C28.2428 11.7809 28.1853 11.7511 28.1566 11.7511C28.0418 11.7212 27.8982 11.7212 27.7547 11.7212C27.4676 11.7212 27.2092 11.7212 26.9221 11.7212C26.9221 11.9004 26.9221 12.0496 26.9221 12.1989C27.2092 12.1989 27.4963 12.2288 27.7834 12.1392C27.8121 12.3482 27.7834 12.5273 27.7834 12.7363C27.7834 12.9154 27.7834 13.1244 27.7834 13.3334C27.6398 13.3035 27.525 13.2737 27.3814 13.2438C27.2379 13.2438 27.0943 13.2438 26.9508 13.2438C26.9508 13.2737 26.9221 13.3035 26.9221 13.3632C26.9221 13.811 26.9221 14.2589 26.9221 14.7067C26.9221 14.8261 26.9795 14.9157 27.0082 15.0351C26.8934 15.0649 25.9746 15.0649 25.4291 15.0351C25.5152 14.8559 25.5439 14.6768 25.5439 14.4977C25.5439 13.3632 25.5439 12.2288 25.5439 11.0943C25.5439 10.8555 25.5439 10.6465 25.4004 10.4375Z" fill="white"/>
<path d="M27.8121 23.4967C27.8121 23.9147 27.8121 24.2729 27.8121 24.661C27.6685 24.7207 27.525 24.6013 27.3814 24.6312C27.2379 24.661 27.0943 24.6312 26.9221 24.6312C26.9221 24.6909 26.9221 24.7506 26.9221 24.7804C26.9221 25.1387 26.9221 25.4671 26.9221 25.8254C26.9221 26.0343 26.9221 26.2135 27.0369 26.3926C26.8934 26.4224 25.5727 26.4224 25.4004 26.3926C25.5152 26.1836 25.5152 25.9746 25.5152 25.7656C25.5152 24.661 25.5152 23.5564 25.5152 22.4518C25.5152 22.2428 25.5152 22.0338 25.4004 21.8547C25.5439 21.8249 27.7834 21.795 28.2428 21.8249C28.2428 22.2428 28.2428 22.6906 28.2428 23.1385C28.1279 23.1385 28.0131 23.1385 27.9269 23.1086C27.8121 23.0787 27.6973 23.0787 27.5824 23.0787C27.4676 23.0787 27.3527 23.0787 27.2379 23.0787C27.123 23.0787 27.0082 23.0489 26.8934 23.1086C26.8934 23.2579 26.8934 23.3773 26.8934 23.5564C27.2092 23.5564 27.4963 23.5863 27.8121 23.4967Z" fill="#005C42"/>
<path d="M42.8848 11.7809C42.8848 11.3331 42.8848 10.8853 42.8848 10.4375C43.8896 10.4375 44.8945 10.4375 45.9281 10.4375C45.9281 10.4674 45.9568 10.4972 45.9568 10.5271C45.9568 10.945 45.9568 11.363 45.9568 11.7809C45.6697 11.6615 45.4113 11.6914 45.1242 11.6914C45.1242 11.7212 45.1242 11.7809 45.1242 11.8108C45.1242 12.7363 45.1242 13.6916 45.1242 14.6171C45.1242 14.7664 45.1529 14.8858 45.2391 15.0052C44.6935 15.0052 44.148 15.0052 43.6025 15.0052C43.7174 14.7962 43.6887 14.5873 43.6887 14.3783C43.6887 13.5722 43.6887 12.7363 43.6887 11.9302C43.6887 11.8705 43.6887 11.8108 43.6887 11.7212C43.4303 11.6615 43.1145 11.6914 42.8848 11.7809Z" fill="white"/>
<path d="M47.9404 19.4499C48.1127 19.4499 48.285 19.4499 48.4285 19.4499C48.6008 19.4499 48.7156 19.3902 48.8879 19.3603C48.8879 19.8081 48.8879 20.2261 48.8879 20.6739C48.7443 20.7038 46.9068 20.7038 46.4188 20.6739C46.4475 20.644 46.4475 20.6142 46.4475 20.5843C46.4762 20.4948 46.4762 20.4052 46.4762 20.3156C46.4762 19.0021 46.4762 17.6885 46.4762 16.3749C46.4475 16.2853 46.39 16.1957 46.3613 16.136C46.4762 16.1062 47.7969 16.0763 48.0266 16.136C47.883 16.2853 47.883 16.4943 47.883 16.6734C47.9404 17.569 47.9404 18.4945 47.9404 19.4499Z" fill="white"/>
<path d="M45.124 19.4499C45.2963 19.4499 45.4685 19.4499 45.6121 19.4499C45.7844 19.4499 45.8992 19.3902 46.0715 19.3603C46.0715 19.8081 46.0715 20.2261 46.0715 20.6739C45.9279 20.7038 44.0904 20.7038 43.6023 20.6739C43.6311 20.644 43.6311 20.6142 43.6311 20.5843C43.6598 20.4948 43.6598 20.4052 43.6598 20.3156C43.6598 19.0021 43.6598 17.6885 43.6598 16.3749C43.6311 16.2853 43.5736 16.1957 43.5449 16.136C43.6598 16.1062 44.9805 16.0763 45.2101 16.136C45.0666 16.2853 45.0666 16.4943 45.0666 16.6734C45.124 17.569 45.124 18.4945 45.124 19.4499Z" fill="white"/>
<path d="M50.2924 10.1719C50.2062 10.1719 50.1488 10.1719 50.0914 10.1719C50.0914 9.87338 50.0914 9.54498 50.0914 9.24644C50.0914 9.18673 50.0914 9.15687 50.0914 9.09716C50.0914 9.06731 50.0627 9.03745 50.0627 9.0076C49.9479 9.0076 49.833 9.0076 49.6895 9.0076C49.6895 8.94789 49.6895 8.91804 49.6895 8.85833C49.833 8.82847 50.4359 8.82847 50.723 8.85833C50.723 8.91804 50.7518 8.97775 50.6656 9.03745C50.5508 9.03745 50.4359 9.03745 50.3211 9.03745C50.2924 9.42556 50.2924 9.78381 50.2924 10.1719Z" fill="white"/>
<path d="M17.7254 9.39814C17.6858 9.23967 17.7651 9.04159 17.6462 8.88312C17.6066 8.52656 17.4481 8.20962 17.2897 7.93229C17.0916 7.61535 16.8142 7.37765 16.4973 7.17956C16.22 7.02109 15.903 6.86262 15.6257 6.823C15.3484 6.78339 15.0711 6.66453 14.7937 6.78339C14.5957 6.78339 14.3976 6.823 14.1995 6.90224C13.8825 7.02109 13.5656 7.17956 13.2883 7.41727C12.8525 7.81344 12.4959 8.24923 12.179 8.76426C11.8224 9.31891 11.5451 9.91317 11.2678 10.5074C11.1093 10.864 10.9508 11.2602 10.7924 11.6167C10.6735 11.9337 10.5547 12.2506 10.4358 12.6072C10.3566 12.8449 10.2773 13.043 10.1981 13.2807C10 13.9145 9.80194 14.588 9.60385 15.2219C9.44538 15.8162 9.28691 16.4501 9.08882 17.0443C8.96997 17.3613 8.93035 17.7178 8.85112 18.0348C8.8115 18.2329 8.73227 18.3913 8.69265 18.5894C8.65303 18.8667 8.49456 19.0252 8.21724 19.1044C8.17762 19.1044 8.17762 19.1441 8.138 19.1441C7.86068 19.1837 7.62298 19.0648 7.46451 18.8667C7.34565 18.7479 7.2268 18.629 7.06833 18.5102C6.59292 18.0744 6.15713 17.599 5.68172 17.1632C5.32516 16.8462 4.9686 16.4897 4.61204 16.1727C4.53281 16.0935 4.45357 15.9747 4.41396 15.935C4.33472 15.4992 4.53281 15.2615 4.84975 15.0634C4.9686 15.0634 5.08745 15.0634 5.24592 15.0634C5.32516 15.1031 5.40439 15.1427 5.48363 15.2219C5.8798 15.6181 6.3156 16.0143 6.71177 16.3708C7.02871 16.6481 7.30604 16.9255 7.62298 17.2028C7.78145 16.5689 7.97953 15.9747 8.138 15.3408C8.25686 14.905 8.41533 14.4692 8.53418 13.9938C8.65303 13.5184 8.8115 13.043 8.96997 12.6072C9.12844 12.1318 9.28691 11.696 9.44538 11.2602C9.64347 10.7055 9.88117 10.1509 10.1189 9.63585C10.3962 9.04158 10.7131 8.48694 11.0697 7.93229C11.3866 7.4965 11.7036 7.06071 12.0998 6.70415C12.3375 6.46645 12.6148 6.26836 12.9317 6.07027C13.209 5.9118 13.526 5.75333 13.8429 5.67409C14.1203 5.59486 14.358 5.51562 14.6353 5.51562C14.8334 5.51562 15.0315 5.51562 15.2295 5.51562C15.705 5.51562 16.1804 5.67409 16.6162 5.87218C16.9331 5.99104 17.25 6.14951 17.4877 6.38721C17.7254 6.5853 17.9235 6.78339 18.1216 7.02109C18.3989 7.37765 18.597 7.73421 18.7555 8.17C18.7951 8.20962 18.7951 8.28885 18.7951 8.36809C19.0328 8.48694 19.2705 8.56617 19.5082 8.72464C19.6667 8.80388 19.8252 8.92273 19.944 9.0812C20.1817 9.31891 20.4591 9.55661 20.6175 9.87355C20.8552 10.2697 21.0533 10.7055 21.0929 11.1809C21.1326 11.379 21.1326 11.5375 21.1326 11.7356C21.1326 12.0921 21.0533 12.4487 20.9345 12.8052C20.9345 12.8449 20.9345 12.8845 20.9345 12.8845C21.5287 13.3599 22.0041 13.9542 22.1626 14.7465C22.2022 14.8654 22.2022 14.9842 22.2022 15.0634C22.2022 15.1427 22.1626 15.2219 22.2418 15.3012V15.3408C22.1626 15.5389 22.2418 15.7766 22.1626 15.9747C22.0834 16.252 22.0041 16.5293 21.8457 16.767C21.6476 17.1236 21.4099 17.4009 21.1326 17.6782C20.8552 17.9159 20.5779 18.0744 20.261 18.1932C19.944 18.3517 19.6271 18.4309 19.2705 18.4309C19.0724 18.4309 18.914 18.4309 18.7159 18.4309C18.2009 18.4309 17.7254 18.2725 17.2897 18.0744C17.2104 18.0348 17.1708 18.0348 17.0916 17.9951C17.0916 17.9951 17.0519 17.9951 17.0123 17.9951C17.0123 18.7083 17.0123 19.4214 17.0123 20.0949C16.8539 20.3722 16.8539 20.3722 16.5369 20.5307C15.5069 20.5307 14.4768 20.5307 13.4468 20.5307C13.1298 20.5307 12.9317 20.3722 12.7733 20.1345C12.7733 20.0949 12.7336 20.0949 12.7336 20.0553C12.7336 19.3025 12.7336 18.5894 12.7336 17.7971C12.6544 17.7971 12.5752 17.7971 12.4563 17.8367C12.4167 17.8367 12.3771 17.8763 12.3375 17.8763C12.1394 17.9159 11.9017 17.8763 11.7036 17.9555C11.4659 17.9951 11.2678 17.9951 11.0697 17.9951C10.832 17.9159 10.6735 17.7971 10.5547 17.5594C10.5547 17.4405 10.5547 17.3216 10.5547 17.2028C10.7131 16.8859 10.9508 16.7274 11.347 16.7274C11.5847 16.7274 11.8224 16.7274 12.0205 16.6482C12.0601 16.6482 12.0601 16.6482 12.0998 16.6482C12.3375 16.6482 12.5752 16.6481 12.8129 16.5689C13.0902 16.4897 13.3675 16.5293 13.6052 16.5293C13.8429 16.6085 13.9618 16.8066 14.041 17.0443C14.041 17.7971 14.041 18.5498 14.041 19.3421C14.2391 19.3421 14.3976 19.3421 14.5957 19.3421C14.7541 19.3421 14.9522 19.3421 15.1107 19.3421C15.3088 19.3421 15.4672 19.3818 15.6653 19.3025C15.6653 18.5102 15.6653 17.7178 15.6653 16.9651C15.7446 16.8066 15.8238 16.6878 15.9427 16.6085C16.1011 16.5293 16.2596 16.4501 16.4577 16.4897C16.6558 16.5293 16.8539 16.5689 17.0519 16.6482C17.2897 16.7274 17.5274 16.8462 17.7651 16.9651C18.082 17.0839 18.3989 17.2028 18.7159 17.2028C18.7555 17.2028 18.8347 17.2424 18.914 17.2424C18.9536 17.2424 18.9932 17.2028 19.0724 17.2028C19.7063 17.1632 20.2213 16.8462 20.5383 16.2916C20.6968 16.0539 20.776 15.7766 20.8156 15.4596C20.8156 15.0634 20.7364 14.7069 20.4987 14.39C20.261 14.0334 19.944 13.7561 19.5479 13.558C19.3498 13.4391 19.1913 13.3599 18.9932 13.241C19.6271 12.5279 19.8648 11.7356 19.4686 10.864C19.3498 9.87355 18.6763 9.47738 17.7254 9.39814Z" fill="white"/>
<path d="M8.494 22.4754C8.45438 22.4358 8.41477 22.3962 8.37515 22.3566C8.17706 22.3566 8.01859 22.3566 7.8205 22.3566C7.78089 22.3169 7.74127 22.2773 7.70165 22.2377C7.70165 22.1585 7.66203 22.0792 7.78089 22C9.20712 22 10.6333 22 12.0992 22C12.0992 22 12.1388 22.0396 12.1784 22.1189C12.2973 22.3962 12.4161 22.6735 12.535 22.9508C12.4954 22.9904 12.4558 22.9904 12.4161 23.0301C12.3369 23.0301 12.2577 23.0301 12.1784 23.0301C12.02 22.9112 11.8219 22.7527 11.6634 22.6735C11.5049 22.5546 11.3068 22.4754 11.1484 22.3566C10.6333 22.3962 10.1183 22.3169 9.64291 22.3962C9.56367 22.515 9.56368 22.5943 9.56368 22.7131C9.56368 23.1093 9.56368 23.5055 9.56368 23.9413C9.76176 23.9809 9.99947 23.9413 10.1976 23.9413C10.4353 23.9413 10.6333 23.862 10.7918 23.7828C10.8314 23.5847 10.8711 23.347 11.0691 23.2281C11.1088 23.2281 11.1484 23.2281 11.2276 23.2281C11.2672 23.2678 11.3068 23.3074 11.3861 23.347C11.3861 23.7036 11.3861 24.0997 11.3861 24.4563C11.3861 24.5751 11.4257 24.7336 11.4257 24.8921C11.4257 24.9317 11.3861 24.9713 11.3465 25.0109C11.2672 25.0109 11.188 25.0109 11.0691 25.0109C10.9899 24.8128 10.9107 24.6148 10.8314 24.4167C10.4353 24.2582 9.99947 24.3771 9.56368 24.3374C9.56368 24.8128 9.52406 25.2883 9.64291 25.7637C9.92023 25.8825 10.1976 25.8429 10.4749 25.8825C10.5937 25.9618 10.5937 26.041 10.5541 26.1202C10.4353 26.2391 10.2768 26.2787 10.1183 26.2391C10.0391 26.1995 9.95985 26.1995 9.88062 26.1995C9.4052 26.1995 8.92979 26.1995 8.45438 26.1995C8.33553 26.1995 8.21668 26.1995 8.09783 26.2391C7.97897 26.2787 7.8205 26.2391 7.70165 26.0806C7.74127 26.041 7.74127 25.9618 7.78089 25.8825C8.05821 25.8825 8.29591 25.8825 8.57324 25.7637C8.57324 25.6844 8.57324 25.6448 8.57324 25.5656C8.57324 25.2486 8.61285 24.8921 8.61285 24.5751C8.61285 24.2582 8.61285 23.9016 8.61285 23.5847C8.57324 23.1885 8.53362 22.832 8.494 22.4754Z" fill="white"/>
<path d="M14.2803 22.6738C14.2407 22.8718 14.3199 23.0303 14.4784 23.1492C14.6369 23.268 14.7954 23.3076 14.9538 23.3869C15.0727 23.4661 15.2311 23.5453 15.35 23.585C15.6273 23.7038 15.9443 23.8623 16.2216 24.0208C16.4989 24.1792 16.7366 24.3773 16.9347 24.615C17.1724 24.8923 17.1328 25.2885 16.9347 25.5658C16.697 25.8432 16.3801 26.0016 16.0235 26.1205C15.4688 26.279 14.9142 26.2393 14.3992 26.2393C14.1615 26.2393 13.8841 26.1601 13.6464 26.1205C13.4087 26.0809 13.2899 26.0016 13.2503 25.7639C13.2107 25.6055 13.2106 25.4074 13.1314 25.2885C13.0918 25.1697 13.0918 25.0904 13.0918 24.9716C13.1314 24.9716 13.171 24.932 13.2106 24.8923C13.2899 24.8923 13.3691 24.8923 13.488 24.8923C13.6068 25.13 13.7257 25.3281 13.9238 25.5262C14.0822 25.6847 14.2803 25.7639 14.4784 25.8432C14.835 25.9224 15.1915 25.9224 15.5481 25.8432C15.7066 25.8035 15.865 25.7243 15.9839 25.6055C16.1423 25.3677 16.1423 25.1697 15.9443 24.932C15.7858 24.7735 15.5877 24.6546 15.3896 24.5358C15.0331 24.3377 14.6369 24.1792 14.2803 23.9811C14.003 23.8227 13.7653 23.7038 13.5276 23.5057C13.3295 23.3076 13.2106 23.1095 13.2899 22.8322C13.3691 22.5945 13.5276 22.3964 13.7653 22.2776C13.9238 22.1983 14.1615 22.1191 14.3199 22.0795C14.7557 21.9606 15.2311 21.9606 15.7066 22.0003C16.0235 22.0399 16.3404 22.0795 16.6574 22.1587C16.697 22.238 16.7366 22.2776 16.7762 22.3568C16.8158 22.5153 16.7762 22.7134 16.8158 22.8718C16.8555 22.9511 16.8158 23.0699 16.7762 23.1492C16.6178 23.1888 16.4989 23.1888 16.3404 23.2284C16.3008 23.1492 16.3008 23.0699 16.2612 22.9907C16.1423 22.6738 15.9046 22.4757 15.5481 22.3964C15.2708 22.3568 14.9934 22.3964 14.7161 22.4757C14.4784 22.436 14.3596 22.5549 14.2803 22.6738Z" fill="white"/>
<path d="M22.0439 22.1622C22.0439 22.4396 22.0439 22.6773 22.0439 22.9546C22.0043 22.9942 21.9647 23.0338 21.9251 23.0734C21.8062 23.0734 21.727 23.0734 21.6478 23.0734C21.6478 22.9942 21.6081 22.8753 21.5685 22.7961C21.4497 22.5188 21.212 22.3603 20.895 22.3207C20.7762 22.3207 20.6177 22.2811 20.4988 22.2811C20.1423 22.3207 19.7461 22.3603 19.4292 22.5188C18.8745 22.7565 18.5576 23.3508 18.5576 23.9054C18.5576 24.3412 18.6764 24.7374 18.9141 25.0939C19.0726 25.3316 19.3499 25.4901 19.5876 25.6486C19.9442 25.807 20.5781 25.8863 20.9743 25.807C21.2516 25.7674 21.5289 25.7278 21.8062 25.5693C21.8458 25.5297 21.9251 25.5693 21.9647 25.5297C22.0439 25.609 22.0835 25.6882 22.1628 25.7674C21.9647 25.9259 21.727 25.9655 21.5289 26.0447C21.212 26.1636 20.895 26.2032 20.5385 26.2032C20.38 26.2032 20.1819 26.2032 20.0234 26.2032C19.3896 26.1636 18.7557 26.0051 18.2803 25.609C17.8841 25.292 17.6464 24.8958 17.5671 24.3808C17.4879 24.0243 17.6068 23.7073 17.686 23.3508C17.7256 23.2319 17.8049 23.113 17.8841 23.0338C18.3199 22.5188 18.8745 22.2018 19.5084 22.0434C19.7065 22.0038 19.9046 21.9641 20.1027 21.9245C20.4592 21.8453 20.8158 21.8849 21.1723 21.8849C21.3704 21.8849 21.6081 21.8849 21.8458 21.9641C21.9251 22.0434 22.0043 22.1226 22.0439 22.1622Z" fill="white"/>
<rect x="62.332" width="34" height="34" rx="4" fill="white"/>
<path d="M79.139 3.66685L79.1743 3.70212C79.1743 3.66685 79.139 3.66685 79.139 3.66685C79.1037 3.52577 79.0684 3.34942 79.0332 3.20834C79.1743 3.10254 79.3153 2.99673 79.4564 2.85565C79.4564 2.85565 79.4564 2.82038 79.4211 2.82038C79.2448 2.82038 79.0684 2.82038 78.8568 2.82038C78.7863 2.64403 78.751 2.50295 78.6805 2.3266C78.6099 2.50295 78.5747 2.6793 78.5041 2.82038C78.3278 2.85565 78.1162 2.82038 77.9045 2.85565C78.0809 2.99673 78.222 3.10254 78.363 3.20834C78.2925 3.38469 78.2572 3.56104 78.1867 3.73739C78.363 3.59631 78.5041 3.52577 78.6452 3.41996C78.7157 3.4905 78.8216 3.52577 78.8921 3.59631C79.0332 3.63158 79.0684 3.63158 79.139 3.66685ZM81.7489 16.4698C81.7842 16.4698 81.8547 16.4698 81.89 16.4345C82.4543 16.2581 83.0187 16.1523 83.583 16.1876C83.6182 16.1876 83.6888 16.1876 83.724 16.1876C83.724 16.1523 83.724 16.1171 83.724 16.0818C83.7593 16.0818 83.7946 16.0818 83.7946 16.0818C84.0767 16.1523 84.3236 16.1523 84.6058 16.0818C84.8174 16.0465 85.029 15.976 85.2054 15.976C85.4875 15.9407 85.7697 15.9407 86.0166 15.976C86.2987 16.0112 86.5456 15.8702 86.8278 15.9054C86.863 15.9054 86.9336 15.9054 87.0041 15.8702C86.6514 15.6938 86.3693 15.5527 86.0871 15.4117C85.7344 15.2353 85.3817 15.1648 84.9585 15.2353C85.0643 15.2706 85.1348 15.3059 85.2054 15.3411C84.7821 15.3411 84.3942 15.3059 83.9709 15.1648C84.3589 14.9884 84.7469 15.059 85.1701 15.0237C85.0996 14.9884 85.0996 14.9532 85.0643 14.9532C84.6763 14.8473 84.2884 14.7063 83.9004 14.671C83.1245 14.6005 82.3838 14.6357 81.6431 14.9179C81.2904 15.059 80.9377 15.2706 80.6556 15.5175C80.3734 15.7996 80.1618 16.1171 80.2323 16.5403C80.3029 16.8577 80.3734 17.0341 80.7614 16.8225C80.7967 16.7872 80.8672 16.7872 80.9025 16.7519C81.1141 16.6461 81.361 16.505 81.5726 16.3992C81.6784 16.4345 81.7137 16.3992 81.7489 16.4698C81.7489 16.4698 81.7137 16.4698 81.7137 16.505C81.7137 16.505 81.7137 16.505 81.7489 16.5403C81.7489 16.505 81.7489 16.505 81.7489 16.4698ZM83.4066 28.6025C83.6182 28.6025 83.8299 28.6378 84.0415 28.6025C84.1473 28.6025 84.2178 28.5673 84.2884 28.6025C84.4294 28.6731 84.5705 28.6378 84.7116 28.6731C85.2054 28.7436 85.805 28.1088 85.805 27.615C85.7697 26.2747 85.805 24.9698 85.805 23.6295C85.805 23.2415 85.6286 22.9594 85.3465 22.7478C85.0643 22.5361 84.7116 22.4303 84.3589 22.6067C84.2884 22.642 84.2178 22.642 84.112 22.6772C84.112 21.7955 84.112 20.9843 84.112 20.1025C83.8651 20.1025 83.6535 20.1025 83.4419 20.1025C83.4066 22.9241 83.4066 25.7457 83.4066 28.6025ZM70.1805 25.0403C70.1805 24.7934 70.1805 24.5818 70.1805 24.3349C69.863 24.3349 69.5456 24.3349 69.2282 24.3349C69.1929 23.9469 69.1929 20.9843 69.2282 20.7727C69.5103 20.7727 69.7925 20.7727 70.0747 20.7727C70.3568 20.7727 70.639 20.7727 70.9211 20.7727C70.9211 20.5258 70.9211 20.3142 70.9211 20.0673C70.5332 20.032 68.6991 20.032 68.4875 20.0673C68.4875 22.9241 68.4875 25.7457 68.4875 28.6025C68.9813 28.6378 70.7095 28.6378 70.9211 28.5673C70.9211 28.3556 70.9564 28.1088 70.8859 27.8971C70.3216 27.8971 69.7572 27.8971 69.1929 27.8971C69.1929 26.9449 69.1929 25.9926 69.1929 25.005C69.5456 25.0403 69.8278 25.0403 70.1805 25.0403ZM81.7489 24.6876C81.6784 24.6523 81.6079 24.6523 81.5726 24.6523C81.1846 24.476 80.8319 24.5465 80.5145 24.7934C80.2323 25.005 80.056 25.2519 80.056 25.6046C80.056 26.31 80.056 27.0154 80.056 27.6855C80.056 27.7913 80.056 27.8619 80.0913 27.9324C80.2676 28.4262 80.7967 28.8141 81.4315 28.6378C81.6431 28.5673 81.89 28.5673 82.1016 28.6378C82.1722 28.6731 82.278 28.6731 82.3838 28.6731C82.3838 28.6025 82.3838 28.532 82.3838 28.4967C82.3838 28.2498 82.3838 28.0029 82.3838 27.7208C82.3838 26.4158 82.3838 25.0756 82.3838 23.7706C82.3838 23.6295 82.3838 23.4884 82.3485 23.3826C82.0664 22.7125 81.5021 22.4656 80.8319 22.6772C80.2676 22.8183 79.8796 23.4179 80.0913 24.088C80.3029 24.0527 80.4792 24.1233 80.6908 24.0527C80.6908 23.9117 80.6908 23.8059 80.6908 23.7C80.6908 23.5942 80.7261 23.4884 80.8319 23.4179C81.0083 23.3121 81.1846 23.2415 81.361 23.2768C81.4668 23.3121 81.5373 23.3473 81.6079 23.4179C81.6784 23.5237 81.7137 23.6295 81.7137 23.7353C81.7842 24.088 81.7489 24.3702 81.7489 24.6876ZM75.083 25.6751C75.083 26.3453 75.083 27.0154 75.083 27.6855C75.083 27.7913 75.1182 27.9324 75.1535 28.0382C75.3299 28.4615 75.6473 28.7083 76.1411 28.7436C76.3879 28.7436 76.6348 28.7436 76.8464 28.6378C77.2697 28.3909 77.4813 28.0382 77.4813 27.5797C77.4813 26.3453 77.4813 25.0756 77.4813 23.8411C77.4813 23.559 77.446 23.2768 77.2344 23.0652C76.9875 22.7478 76.6701 22.642 76.2469 22.6067C75.612 22.5714 75.0124 23.2063 75.0477 23.7706C75.1182 24.4054 75.083 25.0403 75.083 25.6751ZM89.1556 26.0984C89.1556 26.0631 89.1908 26.0278 89.1908 26.0278C89.1908 25.2166 89.1908 24.4407 89.1908 23.6295C89.1908 23.3121 89.0145 23.1005 88.8029 22.8888C88.556 22.642 88.2386 22.6067 87.8859 22.6067C87.2863 22.642 86.7925 23.1357 86.7925 23.7C86.7925 24.9698 86.7925 26.2747 86.7925 27.5444C86.7925 27.9677 87.0041 28.2851 87.3568 28.532C87.6037 28.7083 87.8506 28.6731 88.1328 28.6731C88.2738 28.6731 88.4502 28.6378 88.556 28.5673C89.1203 28.2146 89.2614 27.7561 89.1203 27.0507C88.9087 27.0507 88.6971 27.0154 88.4855 27.0859C88.4855 27.2623 88.4855 27.4386 88.4855 27.5797C88.4855 27.7208 88.4502 27.8266 88.3091 27.8971C88.168 28.0029 87.9917 28.0382 87.8153 28.0382C87.6743 28.0029 87.5332 27.9677 87.4979 27.8266C87.4626 27.6855 87.3921 27.5092 87.3921 27.3681C87.3921 27.0154 87.3921 26.6627 87.3921 26.3453C87.3921 26.2747 87.3921 26.2395 87.4274 26.1689C88.0269 26.0984 88.5913 26.0984 89.1556 26.0984ZM78.0456 16.9283C78.222 16.8225 78.2572 16.7166 78.1867 16.5756C78.1514 16.505 78.1162 16.3992 78.1162 16.3287C78.0809 16.0465 77.9751 15.7644 77.834 15.4822C77.5871 14.9532 77.2344 14.4947 76.8464 14.0714C76.529 13.7187 76.1763 13.4013 75.7884 13.0839C75.0477 12.4843 74.2365 11.9552 73.3547 11.4967C73.0373 11.3204 72.7552 11.3204 72.4025 11.3909C72.8962 11.6378 73.1784 11.8494 73.5664 12.2727C74.1307 12.8722 74.6245 13.5424 75.083 14.2125C75.4709 14.7415 75.8589 15.2706 76.2469 15.7644C76.4232 16.0112 76.6348 16.2229 76.917 16.3992C77.305 16.5756 77.6577 16.7519 78.0456 16.9283ZM74.0954 24.7934C74.0954 24.4054 74.0954 24.088 74.0954 23.7353C74.0954 23.3121 73.8838 23.0299 73.5664 22.783C73.3195 22.6067 73.0373 22.6067 72.7552 22.6067C72.2261 22.5714 71.6971 23.2415 71.6971 23.6648C71.6971 25.005 71.6971 26.31 71.6971 27.6503C71.6971 28.0382 71.8734 28.2851 72.1556 28.532C72.4025 28.7436 72.6846 28.7083 73.0021 28.7436C73.4253 28.7789 74.0249 28.3204 74.0601 27.7561C74.0954 27.4034 74.0601 27.0154 74.0601 26.6627C73.8133 26.5922 73.5664 26.5922 73.39 26.6627C73.39 26.7332 73.39 26.8038 73.39 26.9096C73.39 27.1565 73.39 27.4034 73.39 27.6503C73.39 27.7208 73.3547 27.8266 73.3195 27.8971C73.1431 28.0735 72.9315 28.1088 72.6846 28.0735C72.5083 28.0382 72.4377 27.8971 72.4025 27.7208C72.3672 27.615 72.3672 27.5092 72.3672 27.4034C72.3672 26.5922 72.3672 25.7457 72.3672 24.9345C72.3672 24.5465 72.3672 24.1586 72.3672 23.8059C72.3672 23.6648 72.4025 23.5237 72.5083 23.4532C72.6494 23.3826 72.7904 23.3121 72.9315 23.3121C73.1784 23.3121 73.3547 23.4532 73.39 23.7C73.39 23.7706 73.39 23.8764 73.39 23.9469C73.39 24.1586 73.39 24.4054 73.39 24.6171C73.39 24.6876 73.39 24.7581 73.4253 24.8287C73.6016 24.8287 73.7427 24.8287 73.8838 24.8287C73.9543 24.7934 74.0249 24.7934 74.0954 24.7934ZM90.1784 20.1025C90.1784 22.9241 90.1784 25.781 90.1784 28.6025C90.39 28.6025 90.6016 28.6025 90.8133 28.6025C90.8485 28.0029 90.8485 20.3142 90.778 20.1025C90.5664 20.1025 90.39 20.1025 90.1784 20.1025ZM79.1037 28.6025C79.1037 25.7457 79.1037 22.9241 79.1037 20.1025C78.8921 20.1025 78.6805 20.1025 78.4689 20.1025C78.4689 22.9241 78.4689 25.781 78.4689 28.6025C78.5394 28.6025 78.6452 28.6025 78.7157 28.6025C78.8568 28.6025 78.9626 28.6025 79.1037 28.6025ZM80.1265 6.70005C80.5145 6.10046 81.0788 5.85357 81.7137 5.99465C81.8547 6.02992 82.0311 6.06519 82.1722 6.10046C82.3485 6.171 82.5601 6.10046 82.5954 5.95938C82.6307 5.8183 82.5601 5.64195 82.3838 5.57141C82.1016 5.43034 81.7842 5.32453 81.4668 5.32453C80.6556 5.32453 80.0207 5.64195 79.5622 6.31208C79.2095 6.80585 79.0684 7.37017 79.2095 7.93448C79.4211 8.8515 79.9855 9.45108 80.9377 9.69797C81.0788 9.59216 81.2199 9.52162 81.2199 9.34527C81.1846 9.16892 81.0435 9.13365 80.9025 9.09838C80.4087 8.95731 80.0913 8.60461 79.9149 8.1461C79.8091 7.86395 79.7738 7.58179 79.8444 7.29963C80.2323 7.44071 80.6203 7.58179 81.0083 7.75814C81.1494 7.82868 81.2199 7.79341 81.2904 7.6876C81.4315 7.51125 81.3962 7.22909 81.1846 7.15855C81.0435 7.08801 80.8672 7.05274 80.7261 6.9822C80.5498 6.87639 80.3382 6.80585 80.1265 6.70005ZM85.0643 17.9511C84.8527 17.81 84.7116 17.7395 84.5352 17.7042C84.112 17.5631 83.6535 17.4573 83.2303 17.422C82.7718 17.3515 82.3485 17.3868 81.89 17.4926C81.5021 17.5631 81.1141 17.6337 80.7614 17.7395C80.5498 17.81 80.3382 17.8453 80.1265 17.9864C79.9855 18.0922 79.9502 18.198 79.9855 18.3743C80.0207 18.5859 80.1618 18.727 80.3382 18.7976C80.7261 18.9739 81.1494 19.0092 81.5726 18.9034C81.9253 18.8328 82.278 18.727 82.5954 18.5859C82.9128 18.4449 83.3008 18.4096 83.583 18.198C83.6182 18.1627 83.6535 18.1627 83.6888 18.1627C83.9357 18.1274 84.2178 18.0922 84.4647 18.0216C84.2531 17.8805 84.0415 17.9511 83.7593 17.8805C83.8651 17.8805 83.9709 17.8805 83.9709 17.8453C84.0767 17.6689 84.2178 17.7395 84.3589 17.7747C84.5352 17.81 84.6763 17.8453 84.8527 17.9158C84.9232 17.9511 84.9585 17.9511 85.0643 17.9511ZM78.9274 19.6793C78.9626 19.6088 78.9979 19.5735 79.0332 19.5029C79.1037 19.3619 79.1037 19.1855 79.139 19.0092C79.1742 18.7623 79.2095 18.4801 79.2095 18.2332C79.2095 17.9511 79.2448 17.6689 79.2448 17.3515C79.2801 16.9283 79.3859 16.5403 79.5269 16.1876C79.7386 15.6233 79.8091 15.0237 79.8091 14.4241C79.8091 14.3183 79.7738 14.2125 79.7033 14.0714C79.668 13.9656 79.5975 13.9303 79.4917 13.9303C79.4211 13.9303 79.3506 14.0361 79.3153 14.0714C79.2801 14.1067 79.3153 14.142 79.2801 14.1772C79.1742 14.6005 79.0332 15.0237 78.9274 15.4822C78.7157 16.2581 78.5394 17.0693 78.4336 17.8453C78.3983 18.198 78.3983 18.5859 78.4336 18.9386C78.4336 19.0797 78.5041 19.2208 78.5747 19.3619C78.6099 19.6088 78.7157 19.6793 78.9274 19.6793ZM68.946 17.8805C68.946 17.5984 68.946 17.3515 68.9813 17.0693C69.5103 17.0693 70.0041 17.0693 70.5332 17.0693C70.5332 16.9988 70.5332 16.9635 70.5332 16.9283C70.5332 16.893 70.5332 16.8225 70.5332 16.7872C70.1805 16.7519 68.7697 16.7519 68.5581 16.7872C68.5581 17.7747 68.5581 18.727 68.5581 19.7146C69.1929 19.7146 69.863 19.7146 70.4979 19.7146C70.4979 19.644 70.4979 19.5735 70.4979 19.5382C70.4979 19.4677 70.4979 19.3971 70.4979 19.3266C70.2157 19.3266 69.9689 19.3266 69.722 19.3266C69.4751 19.3266 69.1929 19.3266 68.946 19.3266C68.946 18.9739 68.946 18.6212 68.946 18.2685C69.4751 18.2685 70.0041 18.2685 70.4979 18.2685C70.4979 18.1274 70.4979 18.0216 70.4979 17.8805C69.9689 17.8805 69.4751 17.8805 68.946 17.8805ZM71.1328 16.7872C71.1328 16.8225 71.1328 16.8577 71.1328 16.893C71.1328 17.5278 71.1328 18.198 71.1328 18.8328C71.1328 19.2208 71.3444 19.5029 71.6618 19.7146C71.9087 19.8556 72.1556 19.8556 72.4025 19.8556C72.861 19.8556 73.2842 19.5029 73.3547 19.0797C73.4253 18.727 73.4958 18.3743 73.4606 17.9864C73.4253 17.6689 73.4606 17.3515 73.4606 17.0341C73.4606 16.9635 73.4606 16.893 73.4606 16.8225C73.3195 16.8225 73.1784 16.8225 73.0373 16.8225C73.0373 16.9283 73.0373 16.9988 73.0373 17.1046C73.0373 17.5984 73.0373 18.1274 73.0373 18.6212C73.0373 18.9386 72.9315 19.2561 72.6141 19.4324C72.3672 19.5735 72.1203 19.5382 71.8734 19.3971C71.6618 19.2561 71.5207 19.115 71.5207 18.8328C71.556 18.2332 71.5207 17.5984 71.5207 16.9988C71.5207 16.9283 71.5207 16.8577 71.5207 16.7872C71.3796 16.7872 71.2738 16.7872 71.1328 16.7872ZM67.6411 30.9303H67.6058C67.5705 30.7187 67.5 30.5071 67.4647 30.2955C67.4294 30.0486 67.4294 30.0486 67.1825 30.0486C67.112 30.0486 67.0062 30.0133 66.9004 30.0839C67.0415 30.5424 67.1825 31.0361 67.3589 31.4946C67.5352 31.4946 67.7116 31.4946 67.8879 31.4946C67.9585 31.1772 68.0643 30.8951 68.1348 30.5424C68.2406 30.8598 68.3464 31.1772 68.4523 31.4946C68.6286 31.4946 68.7697 31.4946 68.946 31.4946C69.0871 31.0714 69.1929 30.6834 69.334 30.2955C69.3693 30.2249 69.3693 30.1544 69.3693 30.0486C69.1929 30.0486 69.0871 30.0486 68.946 30.0486C68.8755 30.366 68.7697 30.6482 68.6991 30.9303C68.6286 30.754 68.5581 30.5776 68.5228 30.4013C68.417 30.0486 68.417 30.0486 68.029 30.0486C68.029 30.0486 67.9938 30.0486 67.9585 30.0839C67.8527 30.3307 67.7469 30.6482 67.6411 30.9303ZM69.5456 30.0486C69.6867 30.5424 69.863 31.0009 70.0041 31.4946C70.2157 31.4946 70.3921 31.4946 70.5684 31.4946C70.6037 31.3183 70.639 31.1772 70.7095 31.0361C70.7448 30.8951 70.7448 30.754 70.8506 30.6129C70.9564 30.9303 71.0622 31.2125 71.1328 31.4946C71.3091 31.4946 71.4502 31.4946 71.6265 31.4946C71.7676 31.0361 71.944 30.5424 72.085 30.0839C72.0498 30.0486 72.0145 30.0486 72.0145 30.0486C71.6265 30.0133 71.6265 30.0133 71.5207 30.4013C71.4855 30.5776 71.4149 30.7893 71.3444 31.0009C71.2386 30.6834 71.168 30.4366 71.0975 30.1897C71.0622 30.0839 70.9917 30.0133 70.8506 30.0133C70.639 30.0133 70.639 30.0133 70.5684 30.2249C70.4979 30.4718 70.3921 30.7187 70.3216 31.0009C70.251 30.6482 70.1805 30.366 70.1099 30.0486C69.863 30.0486 69.722 30.0486 69.5456 30.0486ZM73.9896 31.0009C73.9543 30.9303 73.9191 30.8598 73.9191 30.8245C73.8485 30.6129 73.778 30.4013 73.7074 30.2249C73.6369 30.0486 73.6369 30.0486 73.4606 30.0486C73.2489 30.0486 73.2489 30.0486 73.2137 30.2249C73.1431 30.4013 73.0726 30.6129 73.0021 30.7893C73.0021 30.8245 72.9668 30.8598 72.9315 30.9303C72.7552 30.6129 72.7904 30.2955 72.6141 30.0133C72.5435 30.0133 72.473 30.0133 72.4025 30.0133C72.3319 30.0133 72.2967 30.0133 72.1908 30.0486C72.3319 30.5424 72.473 31.0361 72.6494 31.4946C72.8257 31.4946 72.9668 31.4946 73.1079 31.4946C73.2137 31.1772 73.3195 30.8951 73.4253 30.5424C73.5311 30.8951 73.6369 31.1772 73.7427 31.4946C73.9191 31.4946 74.0601 31.4946 74.2365 31.4946C74.3776 31.0714 74.4834 30.6834 74.6245 30.2955C74.6597 30.2249 74.6597 30.1544 74.6597 30.0486C74.4834 30.0486 74.3776 30.0486 74.2012 30.0486C74.1307 30.366 74.0601 30.6482 73.9896 31.0009ZM83.9357 31.6005C84.0767 31.6005 84.1826 31.6357 84.2884 31.6005C84.4294 31.5652 84.5352 31.6005 84.6411 31.6005C84.9585 31.6005 85.1701 31.5299 85.3465 31.2478C85.4523 31.0361 85.4523 30.8245 85.4523 30.6129C85.417 30.1897 85.029 29.9428 84.6411 30.1191C84.5705 30.1544 84.5 30.1897 84.4294 30.2249C84.4294 29.9781 84.4294 29.7664 84.4294 29.5548C84.2531 29.5548 84.112 29.5548 83.9709 29.5548C83.9357 30.2249 83.9357 30.8951 83.9357 31.6005ZM87.1452 30.8598C87.1452 30.7187 87.1099 30.5776 87.1099 30.4718C87.1099 30.1897 86.9336 30.0486 86.722 29.9428C86.1929 29.6959 85.6639 30.0133 85.5933 30.5776C85.5581 30.9303 85.805 31.3183 86.1577 31.4241C86.4751 31.5299 86.7572 31.4594 87.0747 31.4594C87.1099 31.4594 87.1805 31.4241 87.2157 31.3888C87.2157 31.283 87.251 31.142 87.1805 31.0361C87.1099 31.0714 87.0394 31.0714 86.9689 31.1067C86.8278 31.2478 86.6162 31.2125 86.4398 31.1772C86.2987 31.142 86.1929 31.0714 86.2282 30.8598C86.5104 30.8598 86.8278 30.8598 87.1452 30.8598ZM90.8133 30.8598C90.8133 30.6129 90.8485 30.4366 90.7427 30.2249C90.5664 29.9075 90.1431 29.7664 89.7552 29.9075C89.4377 30.0133 89.2614 30.2602 89.2614 30.6482C89.2614 30.9656 89.473 31.3183 89.7552 31.3888C90.0726 31.4946 90.4253 31.4594 90.7427 31.4241C90.778 31.4241 90.8485 31.3888 90.8838 31.3536C90.8485 31.2478 90.9191 31.1067 90.8133 31.0009C90.778 31.0361 90.7427 31.0361 90.6722 31.0714C90.5311 31.1772 90.3547 31.1772 90.2137 31.1772C90.0373 31.1772 89.9668 31.1067 89.9315 30.8598C90.2137 30.8598 90.4958 30.8598 90.8133 30.8598ZM77.2697 30.8598C77.2697 30.754 77.2697 30.6834 77.2697 30.5776C77.2697 30.2955 77.1286 30.0486 76.8817 29.9075C76.6348 29.7664 76.1411 29.837 75.9647 30.0133C75.612 30.3307 75.6473 31.1772 76.2821 31.3536C76.5996 31.4241 76.917 31.3888 77.2344 31.3888C77.2697 31.3888 77.305 31.3536 77.305 31.3183C77.305 31.1772 77.305 31.0714 77.305 30.9303C77.0933 31.0361 76.917 31.142 76.6701 31.1067C76.4585 31.0714 76.3879 31.0361 76.3527 30.7893C76.6701 30.8598 76.9523 30.8598 77.2697 30.8598ZM78.0103 18.198C77.9398 18.0216 77.8693 17.81 77.7282 17.6689C77.4813 17.422 77.1991 17.2104 76.917 17.0341C76.4232 16.7519 75.8589 16.8225 75.3299 16.8225C75.5062 16.9283 75.7178 17.0341 75.8942 17.1751C76.2469 17.4573 76.5996 17.7395 76.9523 18.0569C77.1639 18.3038 77.7282 18.3743 78.0103 18.198ZM80.8319 30.7893C80.8319 30.7187 80.8319 30.6482 80.8319 30.6129C80.7967 30.366 80.6908 30.1544 80.444 30.0839C80.2323 30.0133 80.056 30.0133 79.8444 30.0486C79.5269 30.1191 79.3506 30.2955 79.2801 30.6129C79.2448 30.754 79.2448 30.9303 79.2801 31.0714C79.3153 31.3183 79.4564 31.4946 79.668 31.5652C79.9149 31.6357 80.1618 31.671 80.444 31.5652C80.585 31.5299 80.6556 31.4241 80.7261 31.3183C80.8319 31.1067 80.8319 30.9303 80.8319 30.7893ZM92.7178 31.4946C92.7178 31.0009 92.7178 30.5071 92.7178 30.0486C92.5767 30.0486 92.4357 30.0486 92.2946 30.0486C92.2946 30.4013 92.2946 30.754 92.2946 31.1067C92.224 31.142 92.1888 31.1772 92.1535 31.1772C91.9066 31.2125 91.7303 31.142 91.7655 30.8598C91.7655 30.6834 91.7655 30.5071 91.7655 30.3307C91.7655 30.2249 91.7655 30.1544 91.7655 30.0486C91.5892 30.0486 91.4128 30.0486 91.2365 30.0839C91.2365 30.4366 91.2365 30.7893 91.2365 31.1067C91.2365 31.2478 91.2718 31.3888 91.4128 31.4946C91.6245 31.6005 91.8008 31.7063 92.0477 31.5652C92.1182 31.5299 92.224 31.4946 92.2593 31.4594C92.4004 31.5652 92.5415 31.4594 92.7178 31.4946ZM82.1722 30.4718C82.278 30.4366 82.3838 30.4013 82.4543 30.366C82.5601 30.3307 82.7012 30.3307 82.8423 30.3307C82.9481 30.3307 83.0539 30.4013 83.0539 30.5776C82.9128 30.5776 82.807 30.6129 82.6659 30.6129C82.5249 30.6129 82.3838 30.6482 82.278 30.7187C82.2074 30.7893 82.1016 30.8598 82.0664 30.9656C82.0311 31.142 82.0664 31.3536 82.2427 31.4594C82.4191 31.5652 82.5954 31.671 82.807 31.4946C82.8776 31.4241 82.9481 31.4241 83.0539 31.3888C83.1245 31.6005 83.1597 31.6357 83.5477 31.5652C83.5477 31.2478 83.5477 30.8951 83.5477 30.5776C83.5477 30.366 83.4419 30.2249 83.2303 30.1544C83.0187 30.1191 82.807 30.0839 82.5954 30.0486C82.4191 30.0486 82.278 30.0839 82.1369 30.1897C82.1369 30.2602 82.1369 30.366 82.1722 30.4718ZM79.0684 31.0009C78.9274 31.1067 78.8568 31.1772 78.751 31.2125C78.5041 31.283 78.3278 31.142 78.2572 30.9656C78.1514 30.754 78.222 30.5071 78.3983 30.366C78.5394 30.2602 78.7157 30.2955 78.8921 30.4013C78.9274 30.4366 78.9979 30.4366 79.0684 30.4718C79.0684 30.2955 79.0684 30.1544 79.0684 30.0133C78.7157 29.837 78.3983 29.9075 78.0809 30.0486C77.6929 30.2249 77.5871 30.6129 77.6929 31.0009C77.834 31.4241 78.363 31.6357 78.7157 31.4946C78.751 31.4946 78.7863 31.4594 78.8568 31.4594C79.0684 31.3888 79.0684 31.3888 79.0684 31.1772C79.0684 31.1772 79.0684 31.1067 79.0684 31.0009ZM81.1846 29.4843C81.1846 30.1544 81.1846 30.8245 81.1846 31.4946C81.361 31.4946 81.5021 31.5299 81.6431 31.4946C81.6431 30.8245 81.6431 30.1544 81.6431 29.4843C81.4668 29.4137 81.3257 29.4137 81.1846 29.4843ZM87.6037 29.4843C87.6037 30.1544 87.6037 30.8245 87.6037 31.4946C87.7448 31.4946 87.8859 31.4946 88.0269 31.4946C88.0269 30.8245 88.0269 30.1544 88.0269 29.4843C87.8859 29.4843 87.7448 29.4843 87.6037 29.4843ZM79.3153 12.8017C79.2448 12.5901 79.2095 12.449 79.1743 12.2727C79.3153 12.1668 79.4564 12.0258 79.5975 11.92V11.8847C79.4211 11.8847 79.2448 11.8847 79.1037 11.8847C78.9979 11.7083 78.9979 11.532 78.8921 11.3556C78.8216 11.532 78.7863 11.7083 78.7157 11.8494C78.5394 11.8847 78.3278 11.8494 78.1162 11.8847C78.2925 12.0258 78.4336 12.1316 78.5747 12.2374C78.5394 12.4137 78.4689 12.5901 78.4336 12.7664C78.6099 12.6254 78.751 12.5548 78.8921 12.449C78.9979 12.5901 79.139 12.6606 79.3153 12.8017ZM77.2344 10.3328C77.3402 10.2623 77.4108 10.1917 77.4813 10.1565C77.5518 10.0859 77.6577 10.0859 77.6929 9.94486C77.4813 9.94486 77.305 9.94486 77.1286 9.94486C77.0581 9.76851 77.0228 9.62743 76.9523 9.45108C76.8817 9.62743 76.8464 9.80378 76.7759 9.98013C76.5996 9.98013 76.3879 9.98013 76.1763 9.98013C76.3527 10.1212 76.529 10.227 76.6701 10.3681C76.6348 10.5444 76.5996 10.6855 76.529 10.8266C76.529 10.8266 76.5643 10.8266 76.5643 10.8619C76.7054 10.7913 76.8112 10.6855 76.9523 10.5797C77.0933 10.6855 77.2344 10.7561 77.4108 10.8971C77.3402 10.6503 77.305 10.5092 77.2344 10.3328ZM86.6162 10.0154C86.6162 9.98013 86.6162 9.98013 86.6162 9.94486C86.4398 9.94486 86.2282 9.94486 86.0518 9.94486C85.9813 9.76851 85.946 9.62743 85.8755 9.41581C85.805 9.59216 85.7697 9.76851 85.6991 9.90959C85.4875 9.90959 85.3112 9.90959 85.0643 9.90959C85.2759 10.0507 85.417 10.1917 85.5581 10.2976C85.5228 10.4739 85.4523 10.6503 85.3817 10.8266C85.5581 10.7208 85.6991 10.615 85.8402 10.5092C85.9813 10.615 86.1224 10.6855 86.2635 10.7913C86.1929 10.5797 86.1577 10.4386 86.1224 10.2623C86.2987 10.227 86.4751 10.1212 86.6162 10.0154ZM83.7593 11.8494C83.6535 11.8494 83.5477 11.8494 83.4772 11.8494C83.4066 11.8494 83.3008 11.8142 83.195 11.8847C83.3361 12.0258 83.4772 12.1316 83.6182 12.2374C83.583 12.4137 83.5124 12.5901 83.4772 12.7664C83.583 12.6959 83.6535 12.6606 83.724 12.5901C83.9357 12.4137 83.9357 12.4137 84.1473 12.5901C84.2178 12.6254 84.2884 12.6606 84.3942 12.7312C84.3236 12.5195 84.2884 12.3432 84.2531 12.2021C84.3942 12.0963 84.5352 11.9905 84.7116 11.8494C84.4647 11.8494 84.3236 11.8494 84.1473 11.8494C84.0767 11.6731 84.0415 11.4967 83.9709 11.2498C83.8651 11.4967 83.8299 11.6731 83.7593 11.8494ZM84.3589 3.20834C84.5 3.10254 84.6411 2.99673 84.8174 2.85565C84.8174 2.82038 84.8174 2.82038 84.7821 2.78511C84.6411 2.78511 84.5352 2.78511 84.3942 2.78511C84.2884 2.78511 84.2178 2.74984 84.1825 2.60876C84.1473 2.50295 84.112 2.39714 84.0767 2.29133C84.0062 2.50295 83.9709 2.64403 83.9004 2.82038C83.724 2.82038 83.5477 2.82038 83.3361 2.82038V2.85565C83.4772 2.96146 83.6182 3.06727 83.7593 3.20834C83.724 3.34942 83.6888 3.52577 83.6535 3.66685L83.6888 3.70212C83.7946 3.63158 83.9357 3.52577 84.0767 3.45523C84.2178 3.56104 84.3589 3.63158 84.5352 3.77266C84.4647 3.52577 84.4294 3.34942 84.3589 3.20834ZM81.6079 2.15025C81.502 1.9739 81.5021 1.76229 81.361 1.58594C81.2904 1.79756 81.2199 1.9739 81.1846 2.15025C81.0083 2.15025 80.8672 2.15025 80.6556 2.15025C80.7967 2.29133 80.9377 2.36187 81.0788 2.46768C81.0435 2.64403 81.0083 2.78511 80.9377 2.99673C81.1141 2.89092 81.2552 2.78511 81.4315 2.71457C81.5726 2.78511 81.7137 2.89092 81.9253 2.99673C81.8547 2.78511 81.7842 2.64403 81.7489 2.50295C81.8547 2.39714 82.0664 2.3266 82.1722 2.15025C81.9253 2.15025 81.7842 2.15025 81.6079 2.15025ZM85.805 7.37017C86.0166 7.51125 86.1577 7.61706 86.2635 7.72287C86.2635 7.89922 86.1224 8.04029 86.1929 8.21664C86.334 8.11083 86.4398 8.04029 86.5809 7.96975C86.722 8.07556 86.863 8.1461 87.0394 8.25191C87.0041 8.07556 86.9336 7.89922 86.8983 7.75814C87.0394 7.65233 87.1805 7.54652 87.3921 7.40544C87.1452 7.40544 86.9689 7.40544 86.7925 7.40544C86.7572 7.29963 86.722 7.22909 86.6867 7.15855C86.6514 7.05274 86.6162 6.9822 86.5809 6.84112C86.5104 7.05274 86.4398 7.26436 86.3693 7.44071C86.1929 7.37017 86.0166 7.37017 85.805 7.37017ZM80.9025 13.5424C81.1141 13.4013 81.2552 13.3308 81.3962 13.2249C81.5373 13.3308 81.6784 13.4013 81.8547 13.5424C81.7842 13.3308 81.7489 13.1544 81.6784 13.0133C81.8195 12.9075 81.9606 12.8017 82.1369 12.6959C81.89 12.6959 81.7489 12.6959 81.6079 12.6959C81.4668 12.5195 81.4668 12.3079 81.3257 12.1316C81.2552 12.3432 81.2199 12.4843 81.1494 12.6959C80.973 12.6959 80.8319 12.6959 80.6203 12.6959C80.7967 12.837 80.9025 12.9075 81.0435 13.0133C81.0083 13.1544 80.973 13.2955 80.9025 13.5424ZM76 7.37017C75.8236 7.37017 75.6473 7.37017 75.4004 7.37017C75.5767 7.51125 75.7178 7.61706 75.8589 7.72287C75.8236 7.86395 75.7884 8.04029 75.7531 8.21664C75.9294 8.11083 76.0705 8.04029 76.1763 7.96975C76.3174 8.04029 76.4585 8.1461 76.5996 8.25191C76.529 8.04029 76.4938 7.89922 76.4585 7.75814C76.5996 7.65233 76.7406 7.54652 76.917 7.40544C76.6701 7.40544 76.4938 7.40544 76.3174 7.40544C76.2469 7.22909 76.1763 7.05274 76.1058 6.84112C76.1411 7.01747 76.0705 7.19382 76 7.37017ZM86.2635 5.21872C86.4045 5.11291 86.5456 5.0071 86.722 4.86602C86.4751 4.86602 86.2987 4.86602 86.1224 4.86602C86.0518 4.68967 85.9813 4.51332 85.9108 4.3017C85.8402 4.51332 85.7697 4.68967 85.6991 4.86602C85.5228 4.86602 85.3464 4.86602 85.1348 4.86602C85.3112 5.0071 85.4523 5.11291 85.5933 5.18345C85.5933 5.3598 85.4523 5.50088 85.5228 5.67722C85.6639 5.57141 85.805 5.50087 85.9108 5.43034C86.0518 5.50087 86.1929 5.60668 86.334 5.67722C86.334 5.50088 86.2987 5.3598 86.2635 5.21872ZM77.0933 4.86602C77.0228 4.68967 76.9523 4.51332 76.8817 4.3017C76.8112 4.51332 76.7406 4.68967 76.6701 4.86602C76.4938 4.86602 76.3174 4.86602 76.1058 4.86602C76.2821 5.0071 76.4232 5.11291 76.5643 5.21872C76.529 5.39507 76.4232 5.50088 76.4585 5.67722C76.529 5.60668 76.5996 5.57141 76.6701 5.53614C76.8464 5.43034 76.8464 5.43034 77.0228 5.53614C77.0933 5.57141 77.1639 5.64195 77.2697 5.71249C77.2344 5.50088 77.1991 5.32453 77.1639 5.18345C77.305 5.07764 77.4108 5.0071 77.5518 4.86602C77.4108 4.86602 77.2344 4.86602 77.0933 4.86602ZM75.4709 31.5652C75.4709 31.3888 75.4709 31.2478 75.4709 31.0714C75.3299 31.0714 75.1888 31.0361 75.0477 31.1067C75.0477 31.283 75.0477 31.4241 75.0477 31.5652C75.1888 31.5652 75.3299 31.5652 75.4709 31.5652ZM88.944 31.0714C88.8029 31.0714 88.6618 31.0714 88.5207 31.0714C88.5207 31.2478 88.5207 31.3888 88.5207 31.5652C88.6618 31.5652 88.8029 31.5652 88.944 31.5652C88.944 31.3888 88.944 31.2478 88.944 31.0714Z" fill="#FDFDFD"/>
<path d="M83.4062 28.6094C83.4062 25.7525 83.4062 22.931 83.4062 20.1094C83.6179 20.1094 83.8295 20.1094 84.0764 20.1094C84.0764 20.9558 84.0764 21.8023 84.0764 22.6841C84.1822 22.6488 84.2527 22.6488 84.3233 22.6135C84.676 22.4372 85.0287 22.543 85.3108 22.7546C85.593 22.9662 85.7693 23.2484 85.7693 23.6363C85.7693 24.9766 85.7693 26.2816 85.7693 27.6218C85.7693 28.1156 85.1697 28.7505 84.676 28.6799C84.5349 28.6799 84.3938 28.6799 84.2527 28.6094C84.1822 28.5741 84.0764 28.5741 84.0058 28.6094C83.8295 28.6094 83.6179 28.6094 83.4062 28.6094ZM85.1345 25.682C85.1345 25.0471 85.1345 24.4123 85.1345 23.8127C85.1345 23.6716 85.0992 23.5658 85.0287 23.46C84.8523 23.2131 84.3585 23.2131 84.1469 23.46C84.1116 23.5305 84.0764 23.6011 84.0764 23.6716C84.0764 23.7069 84.0764 23.7774 84.0764 23.848C84.0764 25.0471 84.0764 26.2816 84.0764 27.4807C84.0764 27.5513 84.0764 27.6218 84.0764 27.6924C84.1116 27.8687 84.1822 28.0451 84.3938 28.1156C84.7818 28.2214 85.1345 27.9745 85.1345 27.5513C85.1345 26.8812 85.1345 26.2816 85.1345 25.682Z" fill="#33699D"/>
<path d="M70.1811 25.0488C69.8284 25.0488 69.5463 25.0488 69.2288 25.0488C69.2288 26.0011 69.2288 26.9534 69.2288 27.9409C69.7931 27.9409 70.3575 27.9409 70.9218 27.9409C70.957 28.1878 70.9218 28.3994 70.957 28.611C70.7454 28.6463 69.0172 28.6816 68.5234 28.6463C68.5234 25.7895 68.5234 22.9679 68.5234 20.111C68.6998 20.0758 70.5338 20.0405 70.957 20.111C70.957 20.3227 70.957 20.5695 70.957 20.8164C70.6749 20.8164 70.3927 20.8164 70.1106 20.8164C69.8284 20.8164 69.5463 20.8164 69.2641 20.8164C69.2288 21.0281 69.1936 23.9554 69.2641 24.3787C69.5815 24.3787 69.899 24.3787 70.2164 24.3787C70.1811 24.5903 70.1811 24.8019 70.1811 25.0488Z" fill="#2D659A"/>
<path d="M81.7494 24.6866C81.7494 24.3692 81.7494 24.0871 81.7494 23.8049C81.7494 23.6991 81.7141 23.558 81.6435 23.4875C81.6083 23.4169 81.5025 23.3464 81.3967 23.3464C81.185 23.3111 81.0087 23.3817 80.8676 23.4875C80.7618 23.558 80.7265 23.6638 80.7265 23.7696C80.7265 23.8754 80.7265 24.0165 80.7265 24.1223C80.5149 24.1929 80.3033 24.1223 80.127 24.1576C79.9153 23.4522 80.3033 22.8879 80.8676 22.7468C81.573 22.5705 82.1021 22.7821 82.3842 23.4522C82.4195 23.558 82.4195 23.7344 82.4195 23.8402C82.4195 25.1452 82.4195 26.4854 82.4195 27.7904C82.4195 28.0373 82.4195 28.2842 82.4195 28.5663C82.4195 28.6016 82.4195 28.6721 82.4195 28.7427C82.3137 28.7074 82.2079 28.7074 82.1373 28.7074C81.8904 28.6369 81.6788 28.6369 81.4672 28.7074C80.8323 28.8837 80.3033 28.4958 80.127 28.002C80.0917 27.9315 80.0917 27.8257 80.0917 27.7551C80.0917 27.0497 80.0917 26.3443 80.0917 25.6742C80.0917 25.3215 80.268 25.0746 80.5502 24.863C80.8676 24.6161 81.2556 24.5808 81.6083 24.7219C81.6435 24.6514 81.6788 24.6866 81.7494 24.6866ZM80.7265 26.6265C80.7265 26.9439 80.7265 27.2613 80.7265 27.5788C80.7265 27.8257 80.8676 28.0373 81.044 28.0725C81.185 28.1078 81.3614 28.1078 81.5025 28.0373C81.6788 27.9667 81.7846 27.8257 81.7846 27.614C81.7846 27.0145 81.7846 26.4149 81.7846 25.8153C81.7494 25.251 81.4672 25.1452 81.0087 25.3215C80.8323 25.392 80.7618 25.4979 80.7618 25.7095C80.7265 25.9916 80.7265 26.3091 80.7265 26.6265Z" fill="#2E669B"/>
<path d="M75.0836 25.6752C75.0836 25.0403 75.1189 24.4055 75.0836 23.7706C75.0483 23.2063 75.6126 22.5362 76.2828 22.6067C76.6707 22.642 76.9882 22.7478 77.2703 23.0652C77.4467 23.2768 77.5172 23.559 77.5172 23.8411C77.5172 25.0756 77.5172 26.3453 77.5172 27.5797C77.5172 28.0735 77.3056 28.3909 76.8824 28.6378C76.6707 28.7789 76.4238 28.7436 76.177 28.7436C75.6832 28.7084 75.401 28.4615 75.1894 28.0382C75.1541 27.9324 75.1189 27.8266 75.1189 27.6855C75.0836 27.0154 75.0836 26.3453 75.0836 25.6752ZM76.8118 25.7104C76.8118 25.0756 76.8118 24.4407 76.8118 23.8059C76.8118 23.4884 76.6707 23.3121 76.3886 23.2768C76.0712 23.2063 75.7537 23.4532 75.7537 23.7706C75.7537 25.005 75.7537 26.2395 75.7537 27.4739C75.7537 27.615 75.789 27.7561 75.8595 27.8972C75.8948 28.003 76.0006 28.0735 76.0712 28.0735C76.2122 28.0735 76.3533 28.0735 76.4591 28.0382C76.7413 27.9677 76.7765 27.8619 76.7765 27.5797C76.8118 26.9449 76.8118 26.3453 76.8118 25.7104Z" fill="#2E669B"/>
<path d="M89.1579 26.1013C88.5936 26.1013 88.0292 26.1013 87.4649 26.1013C87.4649 26.1718 87.4649 26.2424 87.4297 26.2777C87.4297 26.6303 87.4297 26.983 87.4297 27.3005C87.4297 27.4416 87.4649 27.6179 87.5355 27.759C87.5707 27.9001 87.7118 27.9706 87.8529 27.9706C88.0292 28.0059 88.2056 27.9353 88.3467 27.8295C88.4525 27.759 88.523 27.6532 88.523 27.5121C88.523 27.3357 88.523 27.1947 88.523 27.0183C88.7346 26.9478 88.9463 27.0183 89.1579 26.983C89.299 27.6884 89.1579 28.1469 88.5936 28.4996C88.4525 28.5702 88.3114 28.6055 88.1703 28.6055C87.9234 28.6055 87.6413 28.6055 87.3944 28.4644C87.0417 28.2175 86.8301 27.9353 86.8301 27.4768C86.8301 26.2071 86.8301 24.9021 86.8301 23.6324C86.8301 23.0681 87.3591 22.5743 87.9234 22.5391C88.2761 22.5391 88.5583 22.5743 88.8405 22.8212C89.0521 23.0328 89.2284 23.2797 89.2284 23.5619C89.2284 24.3731 89.2284 25.149 89.2284 25.9602C89.1579 26.0308 89.1579 26.066 89.1579 26.1013ZM88.523 25.4312C88.523 24.8669 88.523 24.3025 88.523 23.7735C88.523 23.5972 88.4525 23.3855 88.2761 23.315C87.8882 23.1386 87.4649 23.4208 87.4649 23.8088C87.4649 24.3025 87.4649 24.7611 87.4649 25.2548C87.4649 25.3254 87.4649 25.3606 87.4649 25.4312C87.8176 25.4312 88.1703 25.4312 88.523 25.4312Z" fill="#2E669B"/>
<path d="M78.0473 16.936C77.6946 16.7597 77.3067 16.5833 76.954 16.3717C76.6718 16.2306 76.4602 15.9837 76.2839 15.7368C75.8959 15.2078 75.5079 14.714 75.12 14.185C74.6262 13.5148 74.1677 12.8447 73.6034 12.2451C73.2154 11.8572 72.9332 11.6103 72.4395 11.3634C72.7922 11.2929 73.1096 11.3281 73.3917 11.4692C74.2382 11.9277 75.0494 12.4568 75.8253 13.0563C76.2133 13.3738 76.566 13.6912 76.8834 14.0439C77.2714 14.4671 77.6241 14.9256 77.871 15.4547C78.0121 15.7368 78.0826 16.019 78.1531 16.3012C78.1531 16.407 78.1884 16.4775 78.2237 16.548C78.2237 16.7244 78.1884 16.8302 78.0473 16.936Z" fill="#54A748"/>
<path d="M81.7507 16.5057C81.7154 16.4352 81.6801 16.4704 81.6096 16.4704C81.398 16.5762 81.1511 16.7173 80.9395 16.8231C80.9042 16.8584 80.8337 16.8584 80.7984 16.8937C80.4104 17.1053 80.3399 16.8937 80.2693 16.6115C80.1988 16.1883 80.3752 15.8708 80.6926 15.5887C80.9747 15.3065 81.3274 15.1302 81.6801 14.9891C82.4208 14.7069 83.1615 14.6717 83.9374 14.7422C84.3254 14.7775 84.7133 14.9186 85.1013 15.0244C85.1366 15.0244 85.1718 15.0596 85.2071 15.0949C84.8191 15.1302 84.3959 15.0596 84.0079 15.236C84.4312 15.3771 84.8544 15.4123 85.2424 15.4123C85.1718 15.3771 85.1013 15.3418 84.9955 15.3065C85.4187 15.236 85.7714 15.3418 86.1241 15.4829C86.4063 15.624 86.6884 15.765 87.0411 15.9414C86.9353 15.9766 86.9 15.9766 86.8648 15.9766C86.5826 15.9414 86.3357 16.0825 86.0536 16.0472C85.7714 16.0119 85.5245 16.0472 85.2424 16.0472C85.0308 16.0472 84.8191 16.1177 84.6428 16.153C84.3606 16.2235 84.1137 16.2235 83.8316 16.153C83.7963 16.153 83.7963 16.153 83.761 16.153C83.761 16.1883 83.761 16.2235 83.761 16.2588C83.7258 16.2588 83.6552 16.2588 83.62 16.2588C83.0204 16.2235 82.4561 16.3293 81.927 16.5057C81.8565 16.4704 81.8212 16.4704 81.7507 16.5057Z" fill="#55A749"/>
<path d="M74.0956 24.7937C74.0251 24.7937 73.9545 24.7937 73.884 24.7937C73.7429 24.7937 73.6018 24.7937 73.4255 24.7937C73.4255 24.7232 73.3902 24.6526 73.3902 24.5821C73.3902 24.3705 73.3902 24.1236 73.3902 23.912C73.3902 23.8414 73.3902 23.7356 73.3902 23.6651C73.3549 23.4182 73.1786 23.3124 72.9317 23.2771C72.7554 23.2771 72.6143 23.3477 72.5085 23.4182C72.4027 23.4887 72.3674 23.6298 72.3674 23.7709C72.3674 24.1589 72.3674 24.5468 72.3674 24.8995C72.3674 25.7107 72.3674 26.5572 72.3674 27.3684C72.3674 27.4742 72.4027 27.58 72.4027 27.6858C72.4379 27.8622 72.5085 28.0033 72.6848 28.0385C72.8964 28.0738 73.1433 28.0738 73.3197 27.8622C73.3549 27.7916 73.3902 27.6858 73.3902 27.6153C73.3902 27.3684 73.3902 27.1215 73.3902 26.8746C73.3902 26.8041 73.3902 26.6983 73.3902 26.6277C73.5666 26.5572 73.8487 26.5572 74.0603 26.6277C74.0603 26.9804 74.0956 27.3684 74.0603 27.7211C73.9898 28.2854 73.4255 28.7439 73.0022 28.7087C72.6848 28.6734 72.4027 28.7087 72.1558 28.497C71.8736 28.2854 71.6973 28.0033 71.6973 27.6153C71.6973 26.275 71.6973 24.9701 71.6973 23.6298C71.6973 23.1713 72.2263 22.5365 72.7554 22.5717C73.0375 22.5717 73.3197 22.5717 73.5666 22.7481C73.884 22.995 74.0956 23.2771 74.0956 23.7004C74.0956 24.053 74.0956 24.4057 74.0956 24.7937Z" fill="#2E669B"/>
<path d="M90.1777 20.1094C90.3894 20.1094 90.601 20.1094 90.7773 20.1094C90.8126 20.2857 90.8479 28.0098 90.8126 28.6094C90.601 28.6094 90.3894 28.6094 90.1777 28.6094C90.1777 25.7525 90.1777 22.931 90.1777 20.1094Z" fill="#2C649A"/>
<path d="M79.1056 28.6094C78.9645 28.6094 78.8234 28.6094 78.7176 28.6094C78.6471 28.6094 78.5765 28.6094 78.4707 28.6094C78.4707 25.7525 78.4707 22.931 78.4707 20.1094C78.6823 20.1094 78.8939 20.1094 79.1056 20.1094C79.1056 22.931 79.1056 25.7525 79.1056 28.6094Z" fill="#2F679C"/>
<path d="M80.1273 6.71168C80.3389 6.78222 80.5153 6.85276 80.7269 6.9233C80.868 6.99384 81.0443 7.02911 81.1854 7.09965C81.397 7.20546 81.4676 7.45235 81.2912 7.6287C81.2207 7.7345 81.1501 7.76977 81.0091 7.69923C80.6211 7.55816 80.2684 7.41708 79.8452 7.24073C79.7746 7.52289 79.8099 7.80504 79.9157 8.0872C80.0921 8.58098 80.4095 8.89841 80.9033 9.03948C81.0443 9.07475 81.1854 9.11002 81.2207 9.28637C81.256 9.46272 81.0796 9.53326 80.9385 9.63907C80.0215 9.39218 79.4219 8.7926 79.2103 7.87558C79.0692 7.31127 79.2103 6.74695 79.563 6.25318C80.0215 5.58305 80.6564 5.26562 81.4676 5.26562C81.785 5.26562 82.1024 5.37143 82.3846 5.51251C82.5257 5.58305 82.6315 5.79467 82.5962 5.90048C82.5609 6.04156 82.3493 6.1121 82.173 6.04156C82.0319 6.00629 81.8555 5.93575 81.7145 5.93575C81.0796 5.90048 80.5153 6.14737 80.1273 6.71168Z" fill="#56A74A"/>
<path d="M85.0646 17.9524C84.9588 17.9524 84.8882 17.9524 84.853 17.9524C84.6766 17.9171 84.5355 17.8466 84.3592 17.8113C84.2181 17.776 84.077 17.7055 83.9712 17.8818C83.9712 17.9171 83.8654 17.8818 83.7596 17.9171C84.0065 17.9876 84.2534 17.8818 84.465 18.0582C84.1828 18.0934 83.9359 18.1287 83.6891 18.1993C83.6538 18.1993 83.6185 18.1993 83.5832 18.2345C83.3011 18.4461 82.9131 18.4814 82.5957 18.6225C82.243 18.7636 81.9256 18.8694 81.5729 18.9399C81.1496 19.0457 80.7617 19.0105 80.3384 18.8341C80.1621 18.7636 80.021 18.6225 79.9857 18.4109C79.9505 18.2345 80.021 18.1287 80.1268 18.0229C80.3032 17.8818 80.5148 17.8113 80.7617 17.776C81.1496 17.6702 81.5023 17.6349 81.8903 17.5291C82.3488 17.4233 82.772 17.4233 83.2306 17.4586C83.6891 17.5291 84.1123 17.5997 84.5355 17.7408C84.7119 17.7408 84.8882 17.8113 85.0646 17.9524Z" fill="#55A749"/>
<path d="M78.9294 19.6798C78.753 19.6798 78.6472 19.574 78.5767 19.4329C78.5414 19.2918 78.4709 19.1507 78.4356 19.0097C78.4356 18.657 78.4003 18.269 78.4356 17.9163C78.5414 17.1051 78.7178 16.3292 78.9294 15.5532C79.0352 15.13 79.1763 14.6715 79.2821 14.2483C79.2821 14.213 79.2821 14.1777 79.3173 14.1424C79.3526 14.0719 79.4231 14.0014 79.4937 14.0014C79.5995 13.9661 79.67 14.0366 79.7053 14.1424C79.7406 14.2482 79.7758 14.3541 79.8111 14.4951C79.8464 15.0947 79.7406 15.6943 79.529 16.2586C79.3879 16.6466 79.2821 17.0346 79.2468 17.4225C79.2468 17.7047 79.2115 17.9868 79.2115 18.3043C79.2115 18.5512 79.1763 18.8333 79.141 19.0802C79.141 19.2565 79.1057 19.3976 79.0352 19.574C78.9999 19.574 78.9294 19.6445 78.9294 19.6798Z" fill="#58A94D"/>
<path d="M68.9464 17.8763C69.5108 17.8763 70.0045 17.8763 70.5336 17.8763C70.5336 18.0174 70.5336 18.1232 70.5336 18.2642C70.0045 18.2642 69.5108 18.2642 68.9817 18.2642C68.9817 18.6169 68.9817 18.9344 68.9817 19.3223C69.2286 19.3223 69.5108 19.3223 69.7577 19.3223C70.0045 19.3223 70.2514 19.3223 70.5336 19.3223C70.5336 19.3929 70.5336 19.4634 70.5336 19.534C70.5336 19.6045 70.5336 19.6398 70.5336 19.7103C69.8635 19.7103 69.2286 19.7103 68.5938 19.7103C68.5938 18.7227 68.5938 17.7352 68.5938 16.7829C68.7701 16.7476 70.1809 16.7124 70.5689 16.7829C70.5689 16.8182 70.5689 16.8887 70.5689 16.924C70.5689 16.9593 70.5689 16.9945 70.5689 17.0651C70.0398 17.0651 69.546 17.0651 69.017 17.0651C68.9112 17.3472 68.9464 17.5941 68.9464 17.8763Z" fill="#57A84B"/>
<path d="M71.1328 16.7891C71.2739 16.7891 71.3797 16.7891 71.5208 16.7891C71.5208 16.8596 71.5208 16.9301 71.5208 17.0007C71.5208 17.6003 71.5208 18.2351 71.5208 18.8347C71.5208 19.1169 71.6619 19.2932 71.8735 19.399C72.1204 19.5401 72.3673 19.5401 72.6141 19.4343C72.9316 19.2579 73.0374 18.9405 73.0374 18.6231C73.0374 18.1293 73.0374 17.6003 73.0374 17.1065C73.0374 17.0007 73.0374 16.9301 73.0374 16.8243C73.1785 16.8243 73.3195 16.8243 73.4606 16.8243C73.4606 16.8949 73.4606 16.9654 73.4606 17.036C73.4606 17.3534 73.4253 17.6708 73.4606 17.9882C73.4959 18.3762 73.3901 18.7289 73.3548 19.0816C73.2843 19.5048 72.861 19.8575 72.4025 19.8575C72.1556 19.8575 71.9087 19.8575 71.6619 19.7164C71.3444 19.5048 71.1328 19.2227 71.1328 18.8347C71.1328 18.1999 71.1328 17.5297 71.1328 16.8949C71.1328 16.8596 71.1328 16.8243 71.1328 16.7891Z" fill="#5AAA4F"/>
<path d="M67.6412 30.9336C67.747 30.6515 67.8528 30.3341 67.9233 30.0519C67.9586 30.0519 67.9939 30.0166 67.9939 30.0166C68.3818 30.0166 68.3818 30.0166 68.4876 30.3693C68.5229 30.5457 68.5935 30.722 68.664 30.8984C68.7345 30.6162 68.8403 30.2988 68.9109 30.0166C69.052 30.0166 69.193 30.0166 69.3341 30.0166C69.3341 30.1224 69.2988 30.193 69.2988 30.2635C69.193 30.6515 69.052 31.0395 68.9109 31.4627C68.7698 31.4627 68.5935 31.4627 68.4171 31.4627C68.3113 31.1453 68.2055 30.8631 68.0997 30.5104C67.9939 30.8631 67.9233 31.1453 67.8528 31.4627C67.6764 31.4627 67.5001 31.4627 67.3237 31.4627C67.1474 31.0042 67.0063 30.5104 66.8652 30.0519C66.971 29.9814 67.0416 30.0166 67.1474 30.0166C67.3943 30.0166 67.3943 30.0166 67.4295 30.2635C67.4648 30.4751 67.5354 30.6868 67.5706 30.8984C67.6059 30.9336 67.6412 30.9336 67.6412 30.9336Z" fill="#57A84C"/>
<path d="M69.5449 30.0509C69.7213 30.0509 69.8976 30.0509 70.074 30.0509C70.1445 30.3683 70.215 30.6505 70.2856 31.0032C70.3914 30.721 70.4619 30.4741 70.5325 30.2272C70.603 30.0156 70.6383 30.0156 70.8146 30.0156C70.9557 30.0156 71.0262 30.0509 71.0615 30.192C71.1321 30.4389 71.2379 30.6858 71.3084 31.0032C71.3789 30.7563 71.4495 30.5799 71.4848 30.4036C71.5906 30.0156 71.5906 30.0156 71.9785 30.0509C71.9785 30.0509 72.0138 30.0509 72.0491 30.0862C71.908 30.5447 71.7669 31.0384 71.5906 31.497C71.4142 31.497 71.2731 31.497 71.0968 31.497C70.991 31.2148 70.8852 30.9326 70.8146 30.6152C70.6736 30.721 70.7088 30.8974 70.6736 31.0384C70.6383 31.1795 70.603 31.3206 70.5325 31.497C70.3561 31.497 70.1798 31.497 69.9682 31.497C69.8271 31.0032 69.686 30.5447 69.5449 30.0509Z" fill="#57A84B"/>
<path d="M73.99 31.0032C74.0959 30.6505 74.1664 30.3683 74.2369 30.0509C74.378 30.0509 74.5191 30.0509 74.6954 30.0509C74.6954 30.1567 74.6602 30.2272 74.6602 30.2978C74.5191 30.6858 74.4133 31.0737 74.2722 31.497C74.1311 31.497 73.9548 31.497 73.7784 31.497C73.6726 31.2148 73.5668 30.8974 73.461 30.5447C73.3552 30.8974 73.2494 31.1795 73.1436 31.497C73.0025 31.497 72.8261 31.497 72.6851 31.497C72.5087 31.0384 72.3676 30.5447 72.2266 30.0509C72.3324 30.0509 72.3676 30.0509 72.4382 30.0156C72.5087 30.0156 72.5793 30.0156 72.6498 30.0156C72.8261 30.2625 72.7909 30.6152 72.9672 30.9326C73.0025 30.8621 73.0025 30.8268 73.0378 30.7916C73.1083 30.6152 73.1788 30.4036 73.2494 30.2272C73.3199 30.0509 73.3199 30.0509 73.4963 30.0509C73.6726 30.0509 73.6726 30.0509 73.7432 30.2272C73.8137 30.4389 73.8842 30.6505 73.9548 30.8268C73.9195 30.8621 73.9195 30.8974 73.99 31.0032Z" fill="#57A84C"/>
<path d="M83.9355 31.6003C83.9355 30.8949 83.9355 30.2248 83.9355 29.5547C84.0766 29.5547 84.2177 29.5547 84.3941 29.5547C84.3941 29.7663 84.3941 29.9779 84.3941 30.2248C84.4999 30.1895 84.5351 30.1543 84.6057 30.119C84.9936 29.9779 85.3816 30.2248 85.4169 30.6128C85.4169 30.8244 85.4169 31.036 85.3111 31.2476C85.17 31.5298 84.9231 31.6003 84.6057 31.6003C84.4999 31.6003 84.3588 31.5651 84.253 31.6003C84.1824 31.6003 84.0766 31.6003 83.9355 31.6003ZM84.9231 30.9655C84.9231 30.8597 84.9231 30.7186 84.9231 30.6128C84.9231 30.4012 84.6762 30.2248 84.4646 30.2954C84.3941 30.3306 84.3235 30.4012 84.3235 30.507C84.3235 30.7186 84.3235 30.9655 84.3235 31.1771C84.5704 31.2124 84.7467 31.1418 84.9231 30.9655Z" fill="#57A84C"/>
<path d="M87.147 30.8533C86.8296 30.8533 86.5122 30.8533 86.23 30.8533C86.23 31.0296 86.3358 31.1354 86.4416 31.1707C86.618 31.206 86.7943 31.2412 86.9707 31.1001C87.0059 31.0649 87.1117 31.0296 87.1823 31.0296C87.2528 31.1707 87.2176 31.2765 87.2176 31.3823C87.1823 31.4176 87.1117 31.4528 87.0765 31.4528C86.759 31.4528 86.4769 31.5234 86.1595 31.4176C85.8068 31.3118 85.5599 30.9591 85.5951 30.5711C85.6657 30.0068 86.1947 29.6894 86.7238 29.9362C86.9354 30.0421 87.1117 30.2184 87.1117 30.4653C87.1117 30.5711 87.147 30.6769 87.147 30.8533ZM86.759 30.5711C86.7238 30.3948 86.6532 30.3242 86.5122 30.3242C86.3711 30.3242 86.3005 30.3948 86.3005 30.5711C86.4416 30.5711 86.5827 30.5711 86.759 30.5711Z" fill="#58A94D"/>
<path d="M90.8135 30.8585C90.496 30.8585 90.2139 30.8585 89.9317 30.8585C89.967 31.1054 90.0375 31.176 90.2139 31.176C90.3902 31.176 90.5313 31.2112 90.6724 31.0701C90.7077 31.0349 90.7782 31.0349 90.8487 30.9996C90.9546 31.1054 90.8487 31.2465 90.9193 31.3523C90.8487 31.3876 90.8135 31.4228 90.7782 31.4228C90.4608 31.4581 90.1081 31.4934 89.7907 31.3876C89.5085 31.2818 89.2969 30.9643 89.2969 30.6469C89.2969 30.2589 89.438 30.0121 89.7907 29.9062C90.1786 29.7652 90.6019 29.9062 90.7782 30.2237C90.8487 30.4 90.8135 30.6116 90.8135 30.8585ZM90.4255 30.5764C90.4255 30.4 90.355 30.3295 90.1786 30.3295C90.0375 30.3295 89.967 30.4 89.8965 30.5764C90.0728 30.5764 90.2492 30.5764 90.4255 30.5764Z" fill="#57A84B"/>
<path d="M77.2707 30.863C76.9533 30.863 76.6712 30.863 76.3537 30.863C76.389 31.1099 76.4595 31.1452 76.6712 31.1805C76.9181 31.2157 77.0944 31.1099 77.306 31.0041C77.306 31.1452 77.306 31.251 77.306 31.3921C77.306 31.3921 77.2707 31.4626 77.2355 31.4626C76.9181 31.4626 76.6006 31.4979 76.2832 31.4274C75.6483 31.251 75.6131 30.4045 75.9658 30.0871C76.1774 29.9108 76.6359 29.8402 76.8828 29.9813C77.1297 30.1224 77.2707 30.334 77.2707 30.6514C77.2707 30.6514 77.2707 30.7572 77.2707 30.863ZM76.4243 30.5456C76.6006 30.5456 76.777 30.5456 76.9533 30.5456C76.9181 30.3693 76.8475 30.2987 76.7417 30.2987C76.5654 30.2987 76.4948 30.3693 76.4243 30.5456Z" fill="#57A84B"/>
<path d="M78.0086 18.1918C77.7265 18.3682 77.1974 18.3329 76.9505 18.086C76.6331 17.7686 76.2451 17.4864 75.8924 17.2043C75.7161 17.0632 75.5045 16.9574 75.3281 16.8516C75.8572 16.8516 76.4215 16.781 76.9153 17.0632C77.2327 17.2396 77.4796 17.4159 77.7265 17.6981C77.8675 17.8039 77.9381 17.9802 78.0086 18.1918Z" fill="#56A74A"/>
<path d="M80.8342 30.7868C80.8342 30.9631 80.8342 31.1042 80.7284 31.2453C80.6578 31.3863 80.552 31.4569 80.4462 31.4921C80.1993 31.598 79.9524 31.5627 79.6703 31.4921C79.4234 31.4216 79.3176 31.21 79.2823 30.9984C79.247 30.8573 79.247 30.6809 79.2823 30.5399C79.3529 30.2577 79.4939 30.0461 79.8466 29.9755C80.0582 29.9403 80.2699 29.9755 80.4462 30.0108C80.6931 30.0814 80.7989 30.3282 80.8342 30.5399C80.8342 30.6457 80.8342 30.7162 80.8342 30.7868ZM80.1993 30.4693C80.0935 30.4693 80.023 30.4693 79.9172 30.4693C79.7408 30.4693 79.635 30.5751 79.635 30.7515C79.635 30.7867 79.635 30.822 79.635 30.8573C79.635 31.21 79.7761 31.3158 80.0935 31.2453C80.1993 31.21 80.3051 31.1394 80.3051 31.0336C80.3404 30.822 80.3757 30.6104 80.1993 30.4693Z" fill="#57A84C"/>
<path d="M92.7177 31.497C92.5414 31.4617 92.4003 31.5675 92.2592 31.4264C92.1887 31.4617 92.1181 31.4617 92.0476 31.5322C91.8007 31.6733 91.6243 31.5675 91.4127 31.4617C91.2716 31.3911 91.2364 31.2148 91.2364 31.0737C91.2011 30.7563 91.2364 30.4036 91.2364 30.0509C91.4127 30.0509 91.5538 30.0509 91.7654 30.0156C91.7654 30.1214 91.7654 30.2272 91.7654 30.2978C91.7654 30.4741 91.7654 30.6505 91.7654 30.8268C91.7302 31.109 91.9065 31.1795 92.1534 31.1443C92.1887 31.1443 92.2592 31.109 92.2945 31.0737C92.2945 30.721 92.2945 30.4036 92.2945 30.0156C92.4355 30.0156 92.5766 30.0156 92.7177 30.0156C92.7177 30.5094 92.7177 31.0032 92.7177 31.497Z" fill="#56A74A"/>
<path d="M82.1727 30.4741C82.1727 30.3683 82.1727 30.2625 82.1727 30.1567C82.3138 30.0509 82.4548 30.0156 82.6312 30.0156C82.8428 30.0509 83.0544 30.0509 83.266 30.1214C83.4777 30.1567 83.5835 30.3331 83.5835 30.5447C83.5835 30.8974 83.5835 31.2148 83.5835 31.5322C83.1955 31.6028 83.1602 31.6028 83.0897 31.3559C83.0191 31.3911 82.9133 31.4264 82.8428 31.4617C82.6312 31.6028 82.4548 31.5322 82.2785 31.4264C82.1021 31.3206 82.0669 31.109 82.1021 30.9326C82.1374 30.8268 82.2079 30.7563 82.3138 30.6858C82.4196 30.6152 82.5606 30.5799 82.7017 30.5799C82.8075 30.5799 82.9486 30.5799 83.0897 30.5447C83.0897 30.3683 82.9839 30.2978 82.8781 30.2978C82.7723 30.2978 82.6312 30.2978 82.4901 30.3331C82.349 30.4036 82.2785 30.4389 82.1727 30.4741ZM82.9839 30.7916C82.4901 30.7563 82.4901 30.7563 82.4196 31.0384C82.4901 31.0737 82.5254 31.1443 82.5959 31.1443C82.9133 31.2501 83.0191 31.1443 82.9839 30.7916Z" fill="#59A94E"/>
<path d="M79.0683 31.0022C79.0683 31.108 79.1036 31.1433 79.1036 31.2138C79.1036 31.4254 79.1036 31.4254 78.892 31.496C78.8567 31.496 78.8215 31.5313 78.7509 31.5313C78.3629 31.6723 77.8339 31.4607 77.7281 31.0375C77.6223 30.6495 77.7281 30.2615 78.1161 30.0852C78.4335 29.9441 78.7509 29.8736 79.1036 30.0499C79.1036 30.191 79.1036 30.3321 79.1036 30.5084C79.0331 30.4732 78.9978 30.4379 78.9273 30.4379C78.7509 30.3321 78.5746 30.2968 78.4335 30.4026C78.2571 30.5437 78.1866 30.7906 78.2924 31.0022C78.3629 31.1433 78.5393 31.2844 78.7862 31.2491C78.8567 31.2138 78.9273 31.108 79.0683 31.0022Z" fill="#5AAA4F"/>
<path d="M81.1855 29.4826C81.3266 29.4121 81.503 29.4121 81.6441 29.4826C81.6441 30.1527 81.6441 30.8228 81.6441 31.493C81.503 31.5282 81.3619 31.5282 81.1855 31.493C81.1855 30.8228 81.1855 30.1527 81.1855 29.4826Z" fill="#5CAA50"/>
<path d="M87.6035 29.4844C87.7446 29.4844 87.8857 29.4844 88.0268 29.4844C88.0268 30.1545 88.0268 30.8246 88.0268 31.4948C87.8857 31.4948 87.7446 31.4948 87.6035 31.4948C87.6035 30.8246 87.6035 30.1545 87.6035 29.4844Z" fill="#52A546"/>
<path d="M79.3165 12.8092C79.1401 12.7034 78.999 12.5976 78.858 12.4918C78.7169 12.5976 78.5758 12.6681 78.3995 12.8092C78.47 12.5976 78.5053 12.4565 78.5405 12.2802C78.3995 12.1744 78.2584 12.0686 78.082 11.9275C78.2936 11.8922 78.47 11.9275 78.6816 11.8922C78.7522 11.7159 78.7874 11.5748 78.858 11.3984C78.999 11.5395 78.9638 11.7511 79.0696 11.9275C79.2107 11.9275 79.387 11.9275 79.5634 11.9275V11.9628C79.4223 12.0686 79.2812 12.1744 79.1401 12.3155C79.2107 12.4213 79.2459 12.5976 79.3165 12.8092Z" fill="#346A9E"/>
<path d="M77.2359 10.3311C77.2712 10.5074 77.3417 10.6485 77.377 10.8601C77.2007 10.7543 77.0596 10.6485 76.9185 10.5427C76.7774 10.6485 76.6716 10.719 76.5305 10.8249C76.5305 10.8249 76.4953 10.8249 76.4953 10.7896C76.5305 10.6485 76.5658 10.5074 76.6364 10.3311C76.4953 10.2253 76.3542 10.1195 76.1426 9.94311C76.3895 9.94311 76.5658 9.94311 76.7422 9.94311C76.8127 9.76676 76.848 9.62568 76.9185 9.41406C76.9891 9.59041 77.0596 9.76676 77.0949 9.90784C77.2712 9.90784 77.4476 9.90784 77.6592 9.90784C77.6239 10.0136 77.5181 10.0489 77.4476 10.1195C77.4123 10.19 77.3417 10.2605 77.2359 10.3311Z" fill="#3A6FA1"/>
<path d="M86.6161 10.025C86.475 10.1308 86.3339 10.2366 86.1929 10.3777C86.2281 10.5541 86.2634 10.6952 86.3339 10.9068C86.1576 10.801 86.0518 10.7304 85.9107 10.6246C85.7696 10.7304 85.6285 10.801 85.4522 10.942C85.5227 10.7304 85.558 10.5541 85.6285 10.413C85.4875 10.3072 85.3111 10.1661 85.1348 10.025C85.3817 10.025 85.558 10.025 85.7696 10.025C85.8402 9.84868 85.8754 9.7076 85.946 9.53125C86.0165 9.7076 86.0518 9.88395 86.1223 10.0603C86.2987 10.0603 86.5103 10.0603 86.6866 10.0603C86.6161 9.98976 86.6161 9.98976 86.6161 10.025Z" fill="#3A6FA1"/>
<path d="M83.7616 11.8496C83.8321 11.6732 83.8674 11.4969 83.9732 11.25C84.0437 11.4616 84.1143 11.638 84.1495 11.8496C84.3259 11.8496 84.467 11.8496 84.7139 11.8496C84.5375 11.9907 84.3964 12.0965 84.2554 12.2023C84.2906 12.3786 84.3259 12.5197 84.3964 12.7313C84.2906 12.6608 84.2201 12.6255 84.1495 12.5902C83.9379 12.4492 83.9379 12.4492 83.7263 12.5902C83.6558 12.6255 83.5852 12.6961 83.4794 12.7666C83.55 12.555 83.5852 12.4139 83.6205 12.2376C83.4794 12.1317 83.3383 12.0259 83.1973 11.8849C83.3031 11.8143 83.3736 11.8496 83.4794 11.8496C83.55 11.8496 83.6558 11.8496 83.7616 11.8496Z" fill="#346A9E"/>
<path d="M84.3588 3.21389C84.394 3.39024 84.4646 3.53131 84.5351 3.74293C84.3588 3.63712 84.2177 3.53131 84.0766 3.42551C83.9355 3.53131 83.8297 3.60185 83.6886 3.67239L83.6534 3.63712C83.6886 3.49605 83.7239 3.3197 83.7592 3.17862C83.6181 3.07281 83.477 2.967 83.3359 2.82592V2.79065C83.5123 2.79065 83.6886 2.79065 83.9003 2.79065C83.9708 2.6143 84.0061 2.47322 84.0766 2.29688C84.1119 2.43795 84.1824 2.50849 84.1824 2.6143C84.2177 2.79065 84.2882 2.82592 84.394 2.82592C84.5351 2.82592 84.6409 2.82592 84.782 2.82592C84.782 2.86119 84.782 2.86119 84.8173 2.89646C84.6762 2.967 84.5351 3.10808 84.3588 3.21389Z" fill="#346A9E"/>
<path d="M79.1385 3.66837C79.068 3.6331 79.0327 3.6331 78.9622 3.59783C78.8916 3.56256 78.7858 3.49203 78.7153 3.42149C78.5742 3.5273 78.4331 3.6331 78.2568 3.73891C78.3273 3.5273 78.3626 3.38622 78.4331 3.20987C78.292 3.10406 78.151 2.99825 77.9746 2.85717C78.1862 2.78663 78.3626 2.85717 78.5742 2.8219C78.6095 2.68082 78.68 2.53974 78.7505 2.32812C78.8211 2.50447 78.8564 2.64555 78.9269 2.8219C79.1032 2.8219 79.2796 2.8219 79.4912 2.8219C79.4912 2.8219 79.4912 2.85717 79.5265 2.85717C79.3854 2.96298 79.2443 3.06879 79.1032 3.20987C79.068 3.35095 79.1032 3.52729 79.1385 3.66837Z" fill="#33699D"/>
<path d="M81.6067 2.15025C81.783 2.15025 81.9594 2.15025 82.1357 2.15025C82.0299 2.3266 81.8536 2.36187 81.7125 2.50295C81.7478 2.64403 81.8183 2.78511 81.8888 2.99673C81.6772 2.89092 81.5362 2.78511 81.3951 2.71457C81.254 2.82038 81.1129 2.89092 80.9013 2.99673C80.9718 2.78511 81.0071 2.60876 81.0424 2.46768C80.9013 2.36187 80.7955 2.29133 80.6191 2.15025C80.8308 2.15025 80.9718 2.15025 81.1482 2.15025C81.2187 1.9739 81.254 1.79756 81.3245 1.58594C81.5009 1.76229 81.5009 1.9739 81.6067 2.15025Z" fill="#3A6FA1"/>
<path d="M85.8066 7.38083C86.0183 7.38083 86.1946 7.38083 86.371 7.38083C86.4415 7.20449 86.512 7.02814 86.5826 6.78125C86.6178 6.92233 86.6531 6.99287 86.6884 7.09868C86.7237 7.16922 86.7589 7.27503 86.7942 7.34556C86.9705 7.34556 87.1469 7.34556 87.3938 7.34556C87.2174 7.48664 87.0764 7.59245 86.9 7.69826C86.9353 7.83934 86.9705 8.01569 87.0411 8.19204C86.8647 8.08623 86.7237 8.01569 86.5826 7.90988C86.4415 7.98042 86.3357 8.08623 86.1946 8.15677C86.1241 7.98042 86.2651 7.83934 86.2651 7.66299C86.1593 7.62772 86.0183 7.52191 85.8066 7.38083Z" fill="#356B9E"/>
<path d="M80.9013 13.5436C80.9718 13.332 81.0071 13.1556 81.0424 13.0146C80.9013 12.9087 80.7955 12.8382 80.6191 12.6971C80.8308 12.6971 80.9718 12.6971 81.1482 12.6971C81.2187 12.5208 81.254 12.3444 81.3245 12.1328C81.4656 12.3092 81.4656 12.5208 81.6067 12.6971C81.7478 12.6971 81.9241 12.6971 82.1357 12.6971C81.9594 12.8382 81.8536 12.9087 81.6772 13.0146C81.7125 13.1556 81.783 13.332 81.8536 13.5436C81.6772 13.4025 81.5362 13.332 81.3951 13.2262C81.254 13.2967 81.1129 13.4025 80.9013 13.5436Z" fill="#356B9E"/>
<path d="M75.9996 7.37682C76.0702 7.20047 76.1407 7.02412 76.2113 6.8125C76.2818 7.02412 76.3523 7.20047 76.4229 7.37682C76.5992 7.37682 76.7756 7.37682 77.0225 7.37682C76.8461 7.51789 76.705 7.6237 76.564 7.72951C76.5992 7.87059 76.6345 8.01167 76.705 8.22329C76.5287 8.11748 76.3876 8.04694 76.2818 7.94113C76.1407 8.01167 76.0349 8.08221 75.8586 8.18802C75.8938 8.01167 75.9291 7.87059 75.9644 7.69424C75.8233 7.58843 75.6822 7.48262 75.5059 7.34155C75.6822 7.37682 75.8586 7.37682 75.9996 7.37682Z" fill="#356B9E"/>
<path d="M86.2652 5.21768C86.3005 5.35876 86.3358 5.49984 86.371 5.71146C86.1947 5.60565 86.0889 5.53511 85.9478 5.46457C85.8067 5.53511 85.7009 5.64092 85.5598 5.71146C85.5246 5.53511 85.6304 5.39403 85.6304 5.21768C85.4893 5.11187 85.3482 5.00606 85.1719 4.90025C85.3835 4.90025 85.5598 4.90025 85.7362 4.90025C85.8067 4.7239 85.8773 4.54756 85.9478 4.33594C86.0183 4.54756 86.0889 4.7239 86.1594 4.90025C86.3358 4.90025 86.5121 4.90025 86.759 4.90025C86.5121 5.00606 86.4063 5.11187 86.2652 5.21768Z" fill="#356B9E"/>
<path d="M77.0949 4.869C77.2712 4.869 77.4123 4.869 77.5886 4.869C77.4476 4.97481 77.3417 5.08062 77.2007 5.18643C77.2359 5.32751 77.2712 5.50386 77.3065 5.71548C77.2007 5.64494 77.1301 5.5744 77.0596 5.53913C76.8832 5.43332 76.8832 5.43332 76.7069 5.53913C76.6364 5.5744 76.5658 5.64494 76.4953 5.68021C76.46 5.50386 76.5658 5.36278 76.6011 5.2217C76.46 5.11589 76.3189 5.01008 76.1426 4.869C76.3542 4.869 76.5305 4.869 76.7069 4.869C76.7774 4.69265 76.848 4.51631 76.9185 4.30469C76.9538 4.51631 77.0243 4.69265 77.0949 4.869Z" fill="#356B9E"/>
<path d="M75.4721 31.5641C75.331 31.5641 75.1899 31.5641 75.0488 31.5641C75.0488 31.3877 75.0488 31.2467 75.0488 31.1056C75.1899 31.0703 75.331 31.0703 75.4721 31.0703C75.4721 31.2114 75.4721 31.3877 75.4721 31.5641Z" fill="#52A546"/>
<path d="M88.9447 31.0703C88.9447 31.2467 88.9447 31.3877 88.9447 31.5641C88.8036 31.5641 88.6626 31.5641 88.5215 31.5641C88.5215 31.423 88.5215 31.2467 88.5215 31.0703C88.6626 31.0703 88.8036 31.0703 88.9447 31.0703Z" fill="#52A546"/>
<path d="M81.7501 16.4688V16.504C81.7501 16.504 81.7501 16.504 81.7148 16.4688C81.7148 16.504 81.7501 16.504 81.7501 16.4688Z" fill="#55A749"/>
<path d="M85.1363 25.669C85.1363 26.2686 85.1363 26.9034 85.1363 27.503C85.1363 27.9263 84.8188 28.1731 84.3956 28.0673C84.184 27.9968 84.1487 27.8204 84.0782 27.6441C84.0429 27.5736 84.0782 27.503 84.0782 27.4325C84.0782 26.2333 84.0782 24.9989 84.0782 23.7997C84.0782 23.7292 84.0782 23.6939 84.0782 23.6233C84.0782 23.5528 84.1134 23.4823 84.1487 23.4117C84.3251 23.1648 84.8188 23.1648 85.0305 23.4117C85.101 23.5175 85.1363 23.6233 85.1363 23.7644C85.1363 24.3993 85.1363 25.0341 85.1363 25.669Z" fill="#FDFDFD"/>
<path d="M80.7267 26.6328C80.7267 26.3153 80.7267 26.0332 80.7267 25.7157C80.7267 25.5394 80.7972 25.3983 80.9736 25.3278C81.4321 25.1162 81.7495 25.2572 81.7495 25.8216C81.7848 26.4211 81.7495 27.0207 81.7495 27.6203C81.7495 27.8319 81.679 27.9377 81.4673 28.0435C81.3263 28.1141 81.1499 28.1141 81.0088 28.0788C80.8325 28.0435 80.6914 27.8319 80.6914 27.585C80.7267 27.2676 80.7267 26.9502 80.7267 26.6328Z" fill="#FCFDFD"/>
<path d="M76.8119 25.7192C76.8119 26.354 76.8119 26.9536 76.8119 27.5885C76.8119 27.8706 76.7766 27.9412 76.4945 28.047C76.3534 28.0822 76.2123 28.0822 76.1065 28.0822C76.0007 28.0822 75.9301 28.0117 75.8949 27.9059C75.8243 27.7648 75.7891 27.6237 75.7891 27.4827C75.7891 26.2482 75.7891 25.0138 75.7891 23.7793C75.7891 23.4619 76.1065 23.215 76.4239 23.2856C76.7061 23.3561 76.8472 23.4972 76.8472 23.8146C76.8119 24.4495 76.8119 25.0843 76.8119 25.7192Z" fill="#FDFDFE"/>
<path d="M88.5229 25.4394C88.1702 25.4394 87.8175 25.4394 87.4648 25.4394C87.4648 25.3688 87.4648 25.2983 87.4648 25.263C87.4648 24.7693 87.4648 24.3108 87.4648 23.817C87.4648 23.3937 87.8881 23.1469 88.276 23.3232C88.4877 23.429 88.5229 23.6054 88.5229 23.7817C88.5229 24.3108 88.5229 24.8751 88.5229 25.4394Z" fill="#F7F9FB"/>
<path d="M84.9258 30.9672C84.7494 31.1083 84.5731 31.2141 84.3262 31.1435C84.3262 30.9319 84.3262 30.7203 84.3262 30.4734C84.3262 30.3676 84.3967 30.3323 84.4673 30.297C84.6436 30.2265 84.8905 30.4029 84.9258 30.6145C84.9258 30.7203 84.9258 30.8614 84.9258 30.9672Z" fill="#F3F8F2"/>
<path d="M86.7593 30.5818C86.5829 30.5818 86.4419 30.5818 86.3008 30.5818C86.3008 30.4054 86.3713 30.3349 86.5124 30.3349C86.6535 30.2996 86.7593 30.4054 86.7593 30.5818Z" fill="#F5F9F5"/>
<path d="M90.4254 30.5837C90.2491 30.5837 90.108 30.5837 89.9316 30.5837C89.9669 30.3721 90.0727 30.3015 90.2138 30.3368C90.3196 30.3368 90.3901 30.4073 90.4254 30.5837Z" fill="#F3F8F2"/>
<path d="M76.4238 30.5446C76.4944 30.333 76.6002 30.2625 76.7413 30.2977C76.8823 30.2977 76.9529 30.3683 76.9529 30.5446C76.7765 30.5446 76.6002 30.5446 76.4238 30.5446Z" fill="#F3F8F2"/>
<path d="M80.197 30.4766C80.3734 30.653 80.3381 30.8646 80.3381 31.0409C80.3381 31.1467 80.2323 31.2173 80.1265 31.2525C79.7738 31.3231 79.668 31.2173 79.668 30.8646C79.668 30.8293 79.668 30.794 79.668 30.7588C79.668 30.5824 79.7738 30.4766 79.9501 30.4766C80.0207 30.4413 80.0912 30.4766 80.197 30.4766Z" fill="#F5F9F5"/>
<path d="M82.9844 30.7973C83.0196 31.15 82.8785 31.2558 82.5611 31.15C82.4906 31.1147 82.4553 31.0794 82.3848 31.0442C82.5258 30.762 82.5258 30.762 82.9844 30.7973Z" fill="#F7F9FB"/>
<rect x="102" width="56.6667" height="34" rx="4" fill="white"/>
<path d="M133.546 14.2578H130.537V15.5117H133.452C134.079 15.5117 134.267 15.7938 134.267 16.1387C134.267 16.4835 134.079 16.7656 133.452 16.7656H130.537V19.5869H131.979V18.0195H133.546C134.863 18.0195 135.741 17.2045 135.741 16.1387C135.741 15.1042 134.863 14.2578 133.546 14.2578Z" fill="#36714D"/>
<path d="M137.119 19.6182H141.915V18.3643H138.561V17.518H140.849V16.2641H138.561V15.5431H141.915V14.2892L137.119 14.2578V19.6182Z" fill="#36714D"/>
<path d="M143.484 19.6181H144.958V17.5179H147.246V16.264H144.958V15.543H148.312V14.2891H143.516L143.484 19.6181Z" fill="#36714D"/>
<path d="M152.164 15.4571C152.666 15.4571 153.073 15.6452 153.387 15.99L154.547 15.175C153.92 14.5167 153.042 14.1719 152.133 14.1719C150.377 14.1719 148.967 15.3631 148.967 16.9305C148.967 18.4978 150.377 19.7204 152.102 19.7204C152.979 19.7204 153.857 19.4069 154.484 18.7486L153.324 17.9963C153.011 18.2784 152.572 18.4665 152.102 18.4665C151.224 18.4665 150.44 17.7768 150.44 16.9618C150.503 16.1468 151.287 15.4571 152.164 15.4571Z" fill="#36714D"/>
<path d="M118.247 22.6539V20.2088H121.695L117.118 10.8359L114.955 14.9111C115.018 15.2246 115.049 15.5067 115.049 15.8202C115.049 17.6697 113.984 19.2998 112.448 20.1461L112.354 20.1775H115.927V22.6226L118.247 22.6539Z" fill="#36714D"/>
<path d="M108.654 19.9082V22.6981H110.942V19.9395C112.761 19.5006 114.108 17.8706 114.108 15.927C114.108 13.6387 112.228 11.7578 109.877 11.7578C107.525 11.7578 105.645 13.6073 105.613 15.927C105.645 17.7765 106.899 19.3753 108.654 19.9082Z" fill="#36714D"/>
<path d="M107.559 11.3458C107.778 11.2204 108.029 11.1263 108.28 11.0323C110.6 8.64989 113.828 7.08251 117.026 7.11386C122.104 7.11386 125.27 11.0323 124.393 15.9225L126.43 14.0417L127.778 15.5463C128.468 9.99783 124.706 5.67188 118.844 5.67188C114.581 5.67188 110.318 7.9289 107.528 11.2831C107.528 11.2831 107.496 11.3144 107.528 11.3458C107.528 11.3771 107.559 11.3458 107.559 11.3458Z" fill="#36714D"/>
<path d="M113.294 28.054C119.532 28.054 125.802 23.1952 127.432 17.1451L126.115 15.7031L123.827 17.8034C122.071 22.4115 117.212 25.9851 112.354 25.9538C107.338 25.9538 104.172 22.1294 104.956 17.3018C104.862 16.9884 104.799 16.6749 104.767 16.3301C104.767 16.3301 104.767 16.2987 104.736 16.2987C104.705 16.2987 104.705 16.3301 104.705 16.3301C104.642 16.4868 104.611 16.6749 104.579 16.8316C103.106 23.0071 106.993 28.0227 113.294 28.054Z" fill="#36714D"/>
<path d="M154.391 13.1641L155.3 13.1954V13.4148H154.986V14.1358H154.704V13.4148H154.391V13.1641Z" fill="#36714D"/>
<path d="M155.424 13.1953H155.831L155.957 13.7596L156.113 13.1953H156.49V14.1357H156.27V13.4147L156.082 14.1357H155.863L155.675 13.4147V14.1357H155.424V13.1953Z" fill="#36714D"/>
</svg>
