<svg width="155" height="70" viewBox="0 0 155 70" fill="none" xmlns="http://www.w3.org/2000/svg">
<g clip-path="url(#clip0_2410_966)">
<path d="M126.7 70H0L28.3 0H154.9L126.7 70Z" fill="white"/>
<path d="M124.599 23.5969L123.199 26.4969H115.199L116.799 10.7969H129.799L128.399 13.6969H118.099L116.699 17.0969H127.199L125.799 19.8969H118.099L116.899 23.4969H124.599V23.5969Z" fill="#374063"/>
<path d="M54 35.3016C55.6 36.1016 56.7 37.2016 57.2 38.7016C57.7 40.2016 57.6 41.9016 56.8 43.9016C56.1 45.9016 54.9 47.6016 53.3 49.1016C51.7 50.6016 49.8 51.7016 47.6 52.5016C45.4 53.3016 43 53.7016 40.4 53.7016H34.5L31.8 61.2016H25L35.9 34.1016H47.6C50.3 34.1016 52.4 34.5016 54 35.3016ZM47.1 47.4016C48.5 46.6016 49.4 45.4016 50 43.9016C50.6 42.4016 50.5 41.2016 49.7 40.4016C48.9 39.6016 47.5 39.2016 45.5 39.2016H40L36.5 48.6016H42C44 48.6016 45.7 48.2016 47.1 47.4016Z" fill="#E63B11"/>
<path d="M73.7996 61.2016L70.8996 53.6016H70.5996H64.6996L61.8996 61.2016H55.0996L65.9996 34.1016H77.6996C80.2996 34.1016 82.3996 34.5016 83.9996 35.3016C85.5996 36.1016 86.6996 37.2016 87.1996 38.7016C87.6996 40.2016 87.5996 41.9016 86.7996 43.9016C86.0996 45.9016 84.8996 47.7016 83.2996 49.1016C81.6996 50.6016 79.7996 51.7016 77.5996 52.5016L80.9996 61.2016H73.7996ZM79.6996 40.4016C78.8996 39.6016 77.4996 39.2016 75.4996 39.2016H69.9996L66.4996 48.7016H71.9996C73.9996 48.7016 75.6996 48.3016 77.0996 47.5016C78.4996 46.7016 79.3996 45.5016 79.9996 44.0016C80.5996 42.4016 80.4996 41.2016 79.6996 40.4016Z" fill="#E63B11"/>
<path d="M92.7008 55.7016L100.101 39.1016L117.301 39.4016C113.701 34.4016 107.501 33.6016 105.101 33.6016C102.301 33.6016 99.7008 34.2016 97.5008 35.4016C95.2008 36.6016 93.5008 38.3016 92.2008 40.4016C90.9008 42.5016 90.3008 44.9016 90.3008 47.6016C90.3008 50.3016 90.9008 52.7016 92.2008 54.8016C92.2008 55.2016 92.4008 55.4016 92.7008 55.7016Z" fill="#E63B11"/>
<path d="M117.202 39.5L109.802 56.1L92.6016 55.8C96.2016 60.8 102.402 61.6 104.802 61.6C107.602 61.6 110.202 61 112.402 59.8C114.702 58.6 116.402 56.9 117.702 54.8C119.002 52.7 119.602 50.3 119.602 47.6C119.602 44.9 119.002 42.5 117.702 40.4C117.702 40.1 117.502 39.8 117.202 39.5Z" fill="#E63B11"/>
<path d="M39.8008 23.3016L44.0008 13.8016L53.9008 14.0016C51.8008 11.1016 48.2008 10.6016 46.9008 10.6016C45.3008 10.6016 43.8008 10.9016 42.5008 11.6016C41.2008 12.3016 40.2008 13.3016 39.4008 14.5016C38.7008 15.7016 38.3008 17.1016 38.3008 18.6016C38.3008 20.1016 38.7008 21.5016 39.4008 22.7016C39.5008 23.0016 39.6008 23.1016 39.8008 23.3016Z" fill="#374063"/>
<path d="M53.9008 14L49.7008 23.5L39.8008 23.3C41.9008 26.2 45.5008 26.7 46.8008 26.7C48.4008 26.7 49.9008 26.4 51.2008 25.7C52.5008 25 53.5008 24 54.3008 22.8C55.0008 21.6 55.4008 20.2 55.4008 18.7C55.4008 17.2 55.0008 15.8 54.3008 14.6C54.2008 14.3 54.0008 14.1 53.9008 14Z" fill="#374063"/>
<path d="M110.8 56.0016H92.4004L99.2004 39.1016H117.6L110.8 56.0016Z" fill="white"/>
<path d="M107.4 46.8031L104.9 47.5031L106.5 45.5031L118.9 37.2031L119.7 38.6031L107.4 46.8031Z" fill="#374063"/>
<path d="M134.38 4.52949C134.923 4.52949 135.415 4.6558 135.854 4.90841C136.299 5.16102 136.648 5.50973 136.9 5.95454C137.153 6.39387 137.279 6.88261 137.279 7.42078C137.279 7.95895 137.15 8.45319 136.892 8.9035C136.634 9.34831 136.282 9.69977 135.838 9.95787C135.393 10.216 134.901 10.345 134.363 10.345C133.825 10.345 133.333 10.216 132.889 9.95787C132.449 9.69977 132.101 9.34831 131.842 8.9035C131.59 8.45868 131.463 7.96994 131.463 7.43726C131.463 6.90458 131.59 6.41583 131.842 5.97102C132.101 5.5262 132.452 5.17475 132.897 4.91664C133.342 4.65854 133.836 4.52949 134.38 4.52949ZM134.363 10.0402C134.846 10.0402 135.286 9.92492 135.681 9.69428C136.076 9.45814 136.389 9.14238 136.62 8.74699C136.851 8.34611 136.966 7.90404 136.966 7.42078C136.966 6.93753 136.853 6.50095 136.628 6.11105C136.403 5.71566 136.093 5.40539 135.697 5.18024C135.308 4.94959 134.868 4.83427 134.38 4.83427C133.891 4.83427 133.446 4.94959 133.045 5.18024C132.65 5.41088 132.337 5.72664 132.106 6.12753C131.881 6.52292 131.768 6.95949 131.768 7.43726C131.768 7.91502 131.881 8.35434 132.106 8.75523C132.337 9.15062 132.65 9.46363 133.045 9.69428C133.44 9.92492 133.88 10.0402 134.363 10.0402ZM135.838 6.87712C135.838 7.12973 135.772 7.34665 135.64 7.52787C135.514 7.7036 135.332 7.83265 135.096 7.91502L135.87 9.10119H135.426L134.709 7.98916C134.665 7.99465 134.602 7.99739 134.52 7.99739H133.663V9.10119H133.235V5.77332H134.52C134.926 5.77332 135.247 5.87217 135.483 6.06987C135.719 6.26756 135.838 6.53665 135.838 6.87712ZM134.495 7.63495C134.786 7.63495 135.011 7.56905 135.17 7.43726C135.335 7.30546 135.417 7.11875 135.417 6.87712C135.417 6.64099 135.335 6.45976 135.17 6.33346C135.011 6.20166 134.786 6.13576 134.495 6.13576H133.655V7.63495H134.495Z" fill="#374063"/>
<path d="M78.1996 48.8031L81.8996 39.2031L62.0996 39.3031L58.5996 48.7031C58.6996 48.6031 71.9996 48.8031 78.1996 48.8031Z" fill="white"/>
<path d="M48.1 48.8031L51.8 39.2031H32L28.5 48.6031C28.6 48.6031 41.9 48.8031 48.1 48.8031Z" fill="white"/>
<path d="M116 26.5016H113L116.8 17.1016H119.8L116 26.5016Z" fill="#374063"/>
<path d="M99.5 23.3016L103.7 13.8016L113.6 14.0016C111.5 11.1016 107.9 10.6016 106.6 10.6016C105 10.6016 103.5 10.9016 102.2 11.6016C100.9 12.3016 99.9 13.3016 99.1 14.5016C98.4 15.7016 98 17.1016 98 18.6016C98 20.1016 98.4 21.5016 99.1 22.7016C99.2 23.0016 99.4 23.1016 99.5 23.3016Z" fill="#374063"/>
<path d="M104.7 15.3016L105.2 13.9016H110.8L112 10.6016H106.2L104.4 12.5016L104.7 15.3016Z" fill="#374063"/>
<path d="M105.299 22L105.899 23.4H108.999L110.299 26.7H105.799L102.199 22H105.299Z" fill="#374063"/>
<path d="M99.4995 23.2969L103.7 13.7969L114.7 13.9969L110.9 23.4969L99.4995 23.2969C99.4995 23.3969 99.3995 23.0969 99.4995 23.2969Z" fill="white"/>
<path d="M107.901 19.8984L112.101 10.3984L113.701 10.5984L113.801 20.1984L107.001 19.9984C107.001 19.9984 106.801 19.6984 107.901 19.8984Z" fill="white"/>
<path d="M106.499 26.6984L98.1992 26.4984L99.4992 23.3984H108.299L106.499 26.6984Z" fill="#374063"/>
<path d="M115.701 19.8969H112.801L116.501 10.7969H119.401L115.701 19.8969Z" fill="#374063"/>
<path d="M77.3992 13.7031L75.5992 17.8031H84.6992L83.3992 20.7031H77.3992L75.0992 26.4031H74.1992L77.5992 10.7031H86.9992L85.6992 13.6031H77.3992V13.7031Z" fill="#374063"/>
<path d="M75.6996 26.5016H72.0996L75.4996 18.1016H79.0996L75.6996 26.5016Z" fill="#374063"/>
<path d="M76.7992 19.3047H73.1992L76.5992 10.8047H80.1992L76.7992 19.3047Z" fill="#374063"/>
<path d="M90.7992 26.4984H87.1992L90.6992 17.8984H94.2992L90.7992 26.4984Z" fill="#374063"/>
<path d="M115.998 26.4984H112.398L115.898 17.8984H119.498L115.998 26.4984Z" fill="#374063"/>
<path d="M91.8988 19.2969H88.2988L91.6988 10.7969H95.2988L91.8988 19.2969Z" fill="#374063"/>
<path d="M116.6 19.2969H113L116.5 10.7969H120L116.6 19.2969Z" fill="#374063"/>
<path d="M62.5 13.7031L60.7 17.8031H69.8L68.5 20.7031H62.5L60.2 26.4031H59.5L63.1 10.7031H72L70.7 13.6031H62.5V13.7031Z" fill="#374063"/>
<path d="M60.6996 26.5016H57.0996L60.5996 18.1016H64.0996L60.6996 26.5016Z" fill="#374063"/>
<path d="M61.7992 19.3047H58.1992L61.5992 10.8047H65.1992L61.7992 19.3047Z" fill="#374063"/>
<path d="M95.5144 53.8349C95.4222 53.8349 95.3526 53.8045 95.3054 53.7438C95.2656 53.678 95.2632 53.5996 95.2982 53.5085C95.3332 53.4174 95.3948 53.3415 95.4832 53.2808C95.577 53.22 95.6699 53.1897 95.7621 53.1897C95.8542 53.1897 95.9212 53.22 95.9629 53.2808C96.0101 53.3415 96.0162 53.4174 95.9812 53.5085C95.9462 53.5996 95.8809 53.678 95.7852 53.7438C95.6968 53.8045 95.6065 53.8349 95.5144 53.8349ZM100.246 49.8118C100.772 49.8118 101.127 49.9383 101.312 50.1913C101.498 50.4393 101.498 50.8062 101.312 51.292L100.347 53.8045H99.957L100.228 53.0986C100.003 53.3314 99.7354 53.5135 99.4247 53.6451C99.1159 53.7716 98.78 53.8349 98.4168 53.8349C97.9452 53.8349 97.611 53.7311 97.4142 53.5237C97.2228 53.3162 97.1922 53.0429 97.3224 52.7039C97.4486 52.3749 97.6753 52.1093 98.0024 51.9068C98.3368 51.6994 98.7804 51.5956 99.3333 51.5956H100.789L100.911 51.2768C101.053 50.9074 101.052 50.6265 100.909 50.4342C100.772 50.2419 100.497 50.1458 100.085 50.1458C99.8032 50.1458 99.5147 50.1913 99.2195 50.2824C98.9298 50.3735 98.6663 50.495 98.4292 50.6468L98.3308 50.3735C98.6102 50.1964 98.9174 50.0598 99.2525 49.9636C99.5894 49.8624 99.9206 49.8118 100.246 49.8118ZM98.5932 53.5237C98.9455 53.5237 99.2728 53.4478 99.575 53.2959C99.8826 53.1441 100.154 52.924 100.39 52.6355L100.675 51.8917H99.2278C98.8104 51.8917 98.4797 51.9625 98.2356 52.1042C97.9969 52.2459 97.8299 52.4407 97.7347 52.6887C97.6357 52.9468 97.66 53.1517 97.8077 53.3035C97.9573 53.4503 98.2192 53.5237 98.5932 53.5237ZM108.84 49.8118C109.366 49.8118 109.723 49.956 109.91 50.2445C110.103 50.5329 110.095 50.9479 109.887 51.4893L108.999 53.8045H108.592L109.469 51.5197C109.64 51.0744 109.654 50.7353 109.51 50.5025C109.366 50.2698 109.086 50.1534 108.668 50.1534C108.191 50.1534 107.759 50.2925 107.37 50.5709C106.986 50.8492 106.705 51.2237 106.524 51.6943L105.714 53.8045H105.307L106.184 51.5197C106.355 51.0744 106.369 50.7353 106.225 50.5025C106.081 50.2698 105.801 50.1534 105.384 50.1534C104.907 50.1534 104.474 50.2925 104.085 50.5709C103.702 50.8492 103.42 51.2237 103.239 51.6943L102.429 53.8045H102.022L103.543 49.8422H103.934L103.607 50.6923C103.855 50.414 104.146 50.1989 104.481 50.0471C104.823 49.8902 105.187 49.8118 105.572 49.8118C105.956 49.8118 106.251 49.8928 106.454 50.0547C106.663 50.2166 106.764 50.4545 106.757 50.7682C107.011 50.4747 107.32 50.2419 107.684 50.0699C108.054 49.8978 108.439 49.8118 108.84 49.8118Z" fill="#374063"/>
</g>
<defs>
<clipPath id="clip0_2410_966">
<rect width="154.9" height="70" fill="white"/>
</clipPath>
</defs>
</svg>
