<svg width="154" height="70" viewBox="0 0 154 70" fill="none" xmlns="http://www.w3.org/2000/svg">
<g clip-path="url(#clip0_1695_5828)">
<path d="M153.3 0H29L0 70H124.3L153.3 0Z" fill="white"/>
<path d="M90.0992 24.1047L94.1992 14.9047L103.699 15.0047C101.699 12.2047 98.2992 11.8047 96.8992 11.8047C95.2992 11.8047 93.8992 12.1047 92.6992 12.8047C91.3992 13.5047 90.4992 14.4047 89.7992 15.6047C89.0992 16.8047 88.6992 18.1047 88.6992 19.6047C88.6992 21.1047 89.0992 22.4047 89.7992 23.6047C89.8992 23.8047 89.9992 23.9047 90.0992 24.1047Z" fill="#364063"/>
<path d="M102.4 15.1016L98.2996 24.3016L90.0996 24.2016C92.0996 27.0016 95.4996 27.4016 96.8996 27.4016C98.4996 27.4016 99.8996 27.1016 101.1 26.4016C102.4 25.7016 103.3 24.8016 104 23.6016C104.7 22.4016 105.1 21.1016 105.1 19.6016C105.1 18.1016 104.7 16.8016 104 15.6016C104 15.4016 102.5 15.3016 102.4 15.1016Z" fill="#364063"/>
<path d="M58.5 14.9016L56.7 18.9016H65.4L64.2 21.7016H58.4V27.2016H55V12.1016H66.4L65.2 14.9016H58.5Z" fill="#364063"/>
<path d="M72.2992 14.9016L70.4992 18.9016H79.1992L77.9992 21.7016H72.1992V27.2016H68.6992V12.1016H80.0992L78.9992 14.9016H72.2992Z" fill="#364063"/>
<path d="M82.5996 12.1016H86.0996V27.2016H82.5996V12.1016Z" fill="#364063"/>
<path d="M117.1 24.4016L115.8 27.2016H105.4V12.1016H116.8L115.5 14.9016H108.9L107.1 18.2016H115.9L114.6 20.9016H108.9L107.1 24.4016H117.1Z" fill="#364063"/>
<path d="M90.0991 24.1063L94.1991 14.9062L105.299 15.1063L105.399 24.3062L90.0991 24.1063C90.0991 24.2063 89.9991 23.9063 90.0991 24.1063Z" fill="white"/>
<path d="M58.3 35.7027C59.8 36.5027 60.9 37.6027 61.3 39.0027C61.8 40.4027 61.7 42.1027 60.9 44.0027C60.2 45.9027 59.1 47.6027 57.6 49.0027C56.1 50.4027 54.3 51.5027 52.2 52.3027C50.1 53.1027 47.8 53.4027 45.3 53.4027H39.6L37 60.6027H30.5L40 34.7027H52.1C54.7 34.6027 56.7 35.0027 58.3 35.7027ZM51.7 47.3027C53 46.5027 53.9 45.4027 54.4 44.0027C54.9 42.5027 54.8 41.4027 54.1 40.6027C53.4 39.8027 52 39.4027 50.1 39.4027H44.8L41.5 48.4027H46.8C48.7 48.5027 50.4 48.1027 51.7 47.3027Z" fill="#E83906"/>
<path d="M75.5 60.5016L72.7 53.3016H72.4H66.7L64 60.5016H57.5L67 34.6016H79.1C81.6 34.6016 83.6 35.0016 85.2 35.7016C86.7 36.5016 87.8 37.6016 88.2 39.0016C88.7 40.4016 88.6 42.1016 87.8 44.0016C87.1 45.9016 86 47.6016 84.5 49.0016C83 50.4016 81.2 51.5016 79.1 52.2016L82.3 60.5016H75.5ZM81.2 40.6016C80.5 39.8016 79.1 39.4016 77.2 39.4016H71.9L68.6 48.4016H73.9C75.9 48.4016 77.5 48.0016 78.8 47.2016C80.1 46.4016 81 45.3016 81.5 43.9016C82 42.5016 81.9 41.4016 81.2 40.6016Z" fill="#E83906"/>
<path d="M92 55.3031L99 39.5031L115.4 39.8031C112 35.1031 106 34.2031 103.7 34.2031C101 34.2031 98.6 34.8031 96.4 35.9031C94.2 37.1031 92.5 38.7031 91.3 40.7031C90.1 42.7031 89.5 45.0031 89.5 47.6031C89.5 50.2031 90.1 52.4031 91.3 54.5031C91.6 54.7031 91.8 55.0031 92 55.3031Z" fill="#E83906"/>
<path d="M115.5 39.8047L108.5 55.6047L92.0996 55.3047C95.4996 60.0047 101.5 60.9047 103.8 60.9047C106.5 60.9047 108.9 60.3047 111.1 59.2047C113.3 58.0047 115 56.4047 116.2 54.4047C117.4 52.4047 118 50.1047 118 47.5047C118 44.9047 117.4 42.7047 116.2 40.6047C115.9 40.4047 115.7 40.1047 115.5 39.8047Z" fill="#E83906"/>
<path d="M37.3004 24.1047L41.4004 14.9047L50.9004 15.0047C48.9004 12.2047 45.5004 11.8047 44.1004 11.8047C42.5004 11.8047 41.1004 12.1047 39.9004 12.8047C38.6004 13.5047 37.7004 14.4047 37.0004 15.6047C36.3004 16.8047 35.9004 18.1047 35.9004 19.6047C35.9004 21.1047 36.3004 22.4047 37.0004 23.6047C37.0004 23.8047 37.1004 23.9047 37.3004 24.1047Z" fill="#364063"/>
<path d="M50.9008 15.1016L46.8008 24.3016L37.3008 24.2016C39.3008 27.0016 42.7008 27.4016 44.1008 27.4016C45.7008 27.4016 47.1008 27.1016 48.3008 26.4016C49.6008 25.7016 50.5008 24.8016 51.2008 23.6016C51.9008 22.4016 52.3008 21.1016 52.3008 19.6016C52.3008 18.1016 51.9008 16.8016 51.2008 15.6016C51.1008 15.4016 51.0008 15.3016 50.9008 15.1016Z" fill="#364063"/>
<path d="M106.099 46.8016L103.699 47.4016L105.199 45.5016L116.999 37.6016L117.899 38.9016L106.099 46.8016Z" fill="#364063"/>
<path d="M94.6515 53.6942C94.5403 53.6942 94.4443 53.6537 94.3634 53.5728C94.2875 53.4919 94.2496 53.3933 94.2496 53.2771C94.2496 53.1608 94.2875 53.0647 94.3634 52.9889C94.4443 52.908 94.5403 52.8675 94.6515 52.8675C94.7628 52.8675 94.8588 52.908 94.9397 52.9889C95.0206 53.0647 95.0611 53.1608 95.0611 53.2771C95.0611 53.3933 95.0206 53.4919 94.9397 53.5728C94.8588 53.6537 94.7628 53.6942 94.6515 53.6942ZM97.6751 49.6368C98.1959 49.6368 98.5953 49.7682 98.8734 50.0311C99.1514 50.289 99.2905 50.6732 99.2905 51.1839V53.6562H98.7748V53.0344C98.6534 53.2417 98.4739 53.4035 98.2363 53.5197C98.0037 53.636 97.7257 53.6942 97.4021 53.6942C96.9572 53.6942 96.6032 53.588 96.3403 53.3756C96.0774 53.1633 95.946 52.8827 95.946 52.5338C95.946 52.1951 96.0673 51.9221 96.31 51.7148C96.5577 51.5075 96.9496 51.4038 97.4855 51.4038H98.752V51.1611C98.752 50.8173 98.6559 50.557 98.4638 50.38C98.2717 50.198 97.9911 50.107 97.622 50.107C97.3692 50.107 97.1265 50.15 96.894 50.2359C96.6614 50.3168 96.4617 50.4306 96.2948 50.5772L96.0521 50.1752C96.2544 50.0033 96.4971 49.8719 96.7802 49.7809C97.0633 49.6848 97.3616 49.6368 97.6751 49.6368ZM97.4855 53.2695C97.7889 53.2695 98.0492 53.2012 98.2666 53.0647C98.484 52.9231 98.6458 52.7209 98.752 52.458V51.8058H97.5007C96.8181 51.8058 96.4768 52.0434 96.4768 52.5187C96.4768 52.7512 96.5653 52.9358 96.7423 53.0723C96.9192 53.2037 97.167 53.2695 97.4855 53.2695ZM105.728 49.6368C106.229 49.6368 106.62 49.7809 106.904 50.0691C107.192 50.3573 107.336 50.782 107.336 51.3432V53.6562H106.797V51.3962C106.797 50.9817 106.696 50.6657 106.494 50.4483C106.297 50.2309 106.016 50.1222 105.652 50.1222C105.238 50.1222 104.911 50.2511 104.674 50.5089C104.436 50.7617 104.317 51.1131 104.317 51.5631V53.6562H103.779V51.3962C103.779 50.9817 103.678 50.6657 103.476 50.4483C103.278 50.2309 102.995 50.1222 102.626 50.1222C102.217 50.1222 101.891 50.2511 101.648 50.5089C101.41 50.7617 101.291 51.1131 101.291 51.5631V53.6562H100.753V49.6671H101.269V50.3952C101.41 50.1525 101.607 49.9654 101.86 49.834C102.113 49.7025 102.404 49.6368 102.732 49.6368C103.066 49.6368 103.354 49.7076 103.597 49.8491C103.845 49.9907 104.029 50.2005 104.151 50.4786C104.297 50.2157 104.507 50.0109 104.78 49.8643C105.058 49.7126 105.374 49.6368 105.728 49.6368Z" fill="#364063"/>
<path d="M124.345 10.9966C124.845 10.9966 125.298 11.1129 125.702 11.3455C126.112 11.5781 126.433 11.8991 126.665 12.3087C126.898 12.7131 127.014 13.1631 127.014 13.6586C127.014 14.1541 126.895 14.6091 126.658 15.0237C126.42 15.4332 126.097 15.7568 125.687 15.9944C125.278 16.2321 124.825 16.3509 124.33 16.3509C123.834 16.3509 123.382 16.2321 122.972 15.9944C122.568 15.7568 122.246 15.4332 122.009 15.0237C121.776 14.6142 121.66 14.1642 121.66 13.6738C121.66 13.1833 121.776 12.7334 122.009 12.3238C122.246 11.9143 122.57 11.5907 122.98 11.3531C123.389 11.1155 123.844 10.9966 124.345 10.9966ZM124.33 16.0703C124.774 16.0703 125.179 15.9641 125.543 15.7517C125.907 15.5343 126.195 15.2436 126.408 14.8796C126.62 14.5105 126.726 14.1035 126.726 13.6586C126.726 13.2137 126.622 12.8117 126.415 12.4528C126.208 12.0887 125.922 11.8031 125.558 11.5958C125.199 11.3834 124.795 11.2772 124.345 11.2772C123.895 11.2772 123.485 11.3834 123.116 11.5958C122.752 11.8081 122.464 12.0988 122.252 12.4679C122.044 12.8319 121.941 13.2339 121.941 13.6738C121.941 14.1136 122.044 14.5181 122.252 14.8872C122.464 15.2512 122.752 15.5394 123.116 15.7517C123.48 15.9641 123.885 16.0703 124.33 16.0703ZM125.687 13.1581C125.687 13.3906 125.626 13.5903 125.505 13.7572C125.389 13.919 125.222 14.0378 125.004 14.1136L125.717 15.2057H125.308L124.648 14.1819C124.608 14.1869 124.549 14.1895 124.474 14.1895H123.685V15.2057H123.291V12.1418H124.474C124.848 12.1418 125.144 12.2328 125.361 12.4148C125.578 12.5968 125.687 12.8446 125.687 13.1581ZM124.451 13.8558C124.719 13.8558 124.926 13.7951 125.073 13.6738C125.224 13.5524 125.3 13.3805 125.3 13.1581C125.3 12.9406 125.224 12.7738 125.073 12.6575C124.926 12.5362 124.719 12.4755 124.451 12.4755H123.677V13.8558H124.451Z" fill="#364063"/>
</g>
<defs>
<clipPath id="clip0_1695_5828">
<rect width="153.3" height="70" fill="white"/>
</clipPath>
</defs>
</svg>
