<svg width="185" height="22" viewBox="0 0 185 22" fill="none" xmlns="http://www.w3.org/2000/svg">
<path d="M87.6952 17.1172L74.6219 16.8859C77.3985 20.7025 82.142 21.2808 83.8773 21.2808C84.5715 21.2808 85.15 21.2808 85.8441 21.1652C86.1912 20.4712 87.6952 17.1172 87.6952 17.1172Z" fill="#364063"/>
<path d="M31.1214 4.2793L28.6918 9.71516H40.7239L39.1042 13.5318H31.1214V21.0495H26.2623V0.34697H41.9965L40.3768 4.16364H31.1214V4.2793Z" fill="#364063"/>
<path d="M50.095 4.2793L47.6655 9.71516H59.6975L58.0778 13.5318H50.095V21.0495H45.2359V0.34697H60.9702L59.3505 4.16364H50.095V4.2793Z" fill="#364063"/>
<path d="M64.2096 0.34697H69.0687V21.0495H64.2096V0.34697Z" fill="#364063"/>
<path d="M111.759 17.2328L110.14 21.0495H95.678V0.34697H111.412L109.793 4.16364H100.537L98.1076 8.67425H110.14L108.52 12.3753H100.537L98.1076 17.2328H111.759Z" fill="#364063"/>
<path d="M136.865 1.27222C138.137 1.85051 138.947 2.77576 139.294 3.81667C139.641 4.85758 139.526 6.24546 139.063 7.86465C138.484 9.36819 137.675 10.7561 136.402 11.797C135.245 12.9535 133.741 13.7631 132.121 14.3414C130.386 14.9197 128.65 15.2667 126.568 15.2667H122.056L119.974 20.9339H114.767L122.403 0.231313H132.121C134.088 0.34697 135.708 0.69394 136.865 1.27222ZM131.543 10.5248C132.584 9.94647 133.278 9.02122 133.741 7.86465C134.204 6.70809 134.088 5.78283 133.51 5.20455C132.931 4.62627 131.89 4.2793 130.27 4.2793H126.105L123.444 11.45H127.725C129.229 11.45 130.502 11.2187 131.543 10.5248Z" fill="#E83906"/>
<path d="M150.632 21.0495L148.434 15.2667H143.691L141.608 21.0495H136.402L144.038 0.34697H153.756C155.723 0.34697 157.342 0.69394 158.615 1.27222C159.888 1.85051 160.697 2.77576 161.044 3.81667C161.392 4.97324 161.276 6.24546 160.813 7.86465C160.235 9.36819 159.309 10.7561 158.152 11.797C156.995 12.9535 155.491 13.7631 153.756 14.3414L156.301 21.0495H150.632ZM155.144 5.20455C154.566 4.62627 153.524 4.2793 151.905 4.2793H147.624L144.963 11.45H149.244C150.748 11.45 152.136 11.103 153.177 10.5248C154.219 9.94647 154.913 9.02122 155.376 7.86465C155.838 6.70809 155.723 5.89849 155.144 5.20455Z" fill="#E83906"/>
<path d="M163.821 16.8859L169.374 4.2793L182.448 4.51061C179.671 0.69394 174.928 0 173.077 0C170.878 0 169.027 0.462627 167.292 1.38788C165.557 2.31313 164.168 3.58536 163.243 5.20455C162.317 6.82374 161.739 8.67425 161.739 10.6404C161.739 12.6066 162.201 14.4571 163.243 16.0763C163.474 16.4232 163.59 16.6546 163.821 16.8859Z" fill="#E83906"/>
<path d="M182.563 4.51061L177.01 17.2328L163.937 17.0015C166.713 20.8182 171.457 21.5121 173.308 21.5121C175.506 21.5121 177.357 21.0495 179.093 20.1243C180.828 19.199 182.216 17.9268 183.142 16.3076C184.067 14.6884 184.646 12.8379 184.646 10.8717C184.646 8.90556 184.183 7.05506 183.142 5.43586C182.91 4.97324 182.679 4.74192 182.563 4.51061Z" fill="#E83906"/>
<path d="M1.96678 16.8859L7.52004 4.2793L20.5933 4.51061C17.9324 0.69394 13.189 0 11.3379 0C9.13974 0 7.28865 0.462627 5.55326 1.38788C3.81787 2.31313 2.42955 3.58536 1.50401 5.20455C0.462771 6.82374 0 8.67425 0 10.6404C0 12.6066 0.462771 14.4571 1.50401 16.0763C1.6197 16.4232 1.73539 16.6546 1.96678 16.8859Z" fill="#364063"/>
<path d="M20.709 4.51061L15.0401 17.1172L1.96678 16.8859C4.74341 20.7025 9.48682 21.2808 11.2222 21.2808C13.4204 21.2808 15.2715 20.8182 17.0069 19.8929C18.7422 18.9677 20.1306 17.6955 21.0561 16.0763C21.9817 14.4571 22.5601 12.6066 22.5601 10.6404C22.5601 8.67425 22.0973 6.82374 21.0561 5.20455C21.0561 4.97324 20.8247 4.74192 20.709 4.51061Z" fill="#364063"/>
<path d="M78.0927 20.1243C79.8281 21.0495 81.6792 21.5121 83.8773 21.5121C84.3401 21.5121 84.8029 21.5121 85.2657 21.3965C85.3814 21.3965 85.4971 21.3965 85.6127 21.3965C85.9598 21.3965 86.4226 21.2808 86.7697 21.1652C86.8854 21.1652 87.0011 21.1652 87.1168 21.0495C87.4638 20.9339 87.8109 20.8182 88.158 20.7025C88.2737 20.7025 88.3894 20.5869 88.3894 20.5869C88.8521 20.4712 89.1992 20.2399 89.662 20.0086C90.8189 19.4303 91.7445 18.6207 92.4386 17.8111L93.0171 17.1172H85.0343C84.8029 17.2328 84.4558 17.3485 84.1087 17.3485C83.4146 17.3485 82.8361 17.2328 82.142 17.1172H74.969C74.969 17.1172 74.6219 15.6137 74.8533 15.845L77.6299 9.02122C77.7456 8.44294 77.977 7.749 78.3241 7.28637C78.3241 7.17071 78.4398 7.17071 78.4398 7.05506L79.5967 4.2793L91.5131 4.51061L92.0915 1.96616C91.0503 0.809597 90.2405 1.61919 88.8521 1.04091C87.3481 0.34697 85.7284 0 83.8773 0C81.7949 0 79.8281 0.462627 78.0927 1.38788C76.3573 2.31313 75.0847 3.58536 74.0435 5.20455C73.1179 6.82374 72.5394 8.67425 72.5394 10.7561C72.5394 12.8379 73.0022 14.6884 74.0435 16.3076C75.0847 17.9268 76.3573 19.199 78.0927 20.1243Z" fill="#364063"/>
<path d="M165.964 15.6701C165.88 15.6701 165.815 15.6406 165.769 15.5816C165.727 15.5227 165.717 15.4508 165.738 15.3661C165.759 15.2813 165.806 15.2113 165.877 15.156C165.952 15.097 166.032 15.0676 166.116 15.0676C166.199 15.0676 166.264 15.097 166.31 15.156C166.357 15.2113 166.37 15.2813 166.348 15.3661C166.327 15.4508 166.278 15.5227 166.203 15.5816C166.127 15.6406 166.047 15.6701 165.964 15.6701Z" fill="#364063"/>
<path d="M168.983 12.7128C169.375 12.7128 169.651 12.8086 169.812 13.0002C169.973 13.1882 170.007 13.4682 169.913 13.8404L169.459 15.6424H169.071L169.185 15.1892C169.056 15.3403 168.891 15.4582 168.691 15.5429C168.495 15.6277 168.275 15.6701 168.032 15.6701C167.697 15.6701 167.451 15.5927 167.292 15.4379C167.133 15.2831 167.086 15.0786 167.15 14.8244C167.213 14.5774 167.354 14.3785 167.575 14.2274C167.799 14.0763 168.113 14.0007 168.516 14.0007H169.468L169.513 13.8238C169.576 13.5733 169.552 13.3835 169.44 13.2545C169.329 13.1218 169.134 13.0555 168.857 13.0555C168.667 13.0555 168.476 13.0868 168.286 13.1495C168.096 13.2084 167.925 13.2914 167.773 13.3982L167.664 13.1053C167.848 12.98 168.054 12.8842 168.284 12.8178C168.515 12.7478 168.748 12.7128 168.983 12.7128ZM168.173 15.3605C168.401 15.3605 168.609 15.3108 168.798 15.2113C168.987 15.1081 169.146 14.9607 169.274 14.7691L169.394 14.2937H168.453C167.94 14.2937 167.64 14.4669 167.552 14.8133C167.51 14.9828 167.542 15.1173 167.65 15.2168C167.759 15.3126 167.933 15.3605 168.173 15.3605Z" fill="#364063"/>
<path d="M175.039 12.7128C175.415 12.7128 175.683 12.8178 175.843 13.0279C176.007 13.2379 176.037 13.5475 175.934 13.9565L175.508 15.6424H175.103L175.519 13.9952C175.595 13.693 175.577 13.4627 175.465 13.3043C175.357 13.1458 175.166 13.0666 174.892 13.0666C174.581 13.0666 174.312 13.1605 174.086 13.3485C173.86 13.5327 173.706 13.7888 173.624 14.1168L173.239 15.6424H172.834L173.249 13.9952C173.326 13.693 173.308 13.4627 173.196 13.3043C173.087 13.1458 172.895 13.0666 172.617 13.0666C172.309 13.0666 172.04 13.1605 171.81 13.3485C171.585 13.5327 171.431 13.7888 171.348 14.1168L170.963 15.6424H170.558L171.292 12.7349H171.68L171.546 13.2656C171.697 13.0887 171.88 12.9523 172.094 12.8565C172.308 12.7607 172.539 12.7128 172.786 12.7128C173.037 12.7128 173.241 12.7644 173.397 12.8676C173.557 12.9708 173.658 13.1237 173.698 13.3264C173.856 13.1347 174.052 12.9855 174.284 12.8786C174.521 12.7681 174.772 12.7128 175.039 12.7128Z" fill="#364063"/>
<path d="M74.969 15.845L79.5967 4.2793H80.1752L91.5131 4.51061C92.0915 3.35404 92.7857 1.50354 93.3642 0.462627C90.5875 0.462627 85.2657 0.115657 83.993 0.115657C81.7949 0.115657 79.9438 0.578283 78.2084 1.50354C76.3573 2.31313 75.0847 3.58536 74.0435 5.20455C73.1179 6.82374 72.5394 8.67425 72.5394 10.6404C72.5394 12.6066 73.0022 14.4571 74.0435 16.0763C74.1591 16.3076 74.3905 16.5389 74.5062 16.7702L74.8533 15.9606C74.8533 15.9606 74.8533 15.845 74.969 15.845Z" fill="#364063"/>
<path d="M77.977 19.8929C76.2416 18.9677 75.0847 17.9268 74.0435 16.3076C73.0022 14.6884 72.5394 12.8379 72.5394 10.7561C72.5394 8.67425 73.0022 6.82374 74.0435 5.20455C75.0847 3.58536 80.2909 2.54445 79.5967 4.2793C78.2084 7.51768 77.5142 8.90556 77.5142 10.7561C77.5142 12.0283 77.7456 13.1849 78.3241 14.2258C78.9025 15.2667 79.481 15.7293 80.5222 16.3076C81.5635 16.8859 82.7204 17.1172 83.993 17.1172C86.0755 17.1172 85.4971 21.1652 83.7617 21.1652C81.5635 21.2808 79.7124 20.8182 77.977 19.8929Z" fill="#364063"/>
<path d="M175.043 10.178L173.192 10.6406L174.349 9.13708L183.836 2.77597L184.53 3.81688L175.043 10.178Z" fill="#364063"/>
</svg>
