<svg width="52" height="31" viewBox="0 0 52 31" fill="none" xmlns="http://www.w3.org/2000/svg">
<path d="M3.66527 0H47.6486C49.7011 0 51.3138 1.69157 51.3138 3.84448V26.9113C51.3138 29.0642 49.7011 30.7558 47.6486 30.7558H3.66527C1.61272 30.7558 0 29.0642 0 26.9113V3.84448C0 1.69157 1.61272 0 3.66527 0Z" fill="white"/>
<path d="M43.1037 15.3739C43.1037 21.2944 38.4854 26.1384 32.8409 26.1384C27.1964 26.1384 22.5781 21.2944 22.5781 15.3739C22.5781 9.45341 27.1964 4.60938 32.8409 4.60938C38.4854 4.60938 43.1037 9.45341 43.1037 15.3739Z" fill="#FF9900"/>
<path d="M18.9863 4.60938C13.3418 4.68626 8.79688 9.45341 8.79688 15.3739C8.79688 21.2944 13.4151 26.1384 19.0596 26.1384C21.6986 26.1384 24.1177 25.062 25.9504 23.3704C26.3169 22.986 26.6834 22.6015 26.9766 22.2171H24.9241C24.6309 21.8326 24.4109 21.5251 24.191 21.1406H27.783C28.0029 20.7562 28.2228 20.3717 28.3694 19.9873H23.5313C23.3847 19.6028 23.2381 19.2184 23.0914 18.8339H28.736C29.1025 17.6806 29.3224 16.6041 29.3224 15.3739C29.3224 14.605 29.2491 13.8361 29.1025 13.0672H22.7982C22.8715 12.6828 22.9448 12.2983 23.0914 11.9139H28.8093C28.6627 11.5294 28.5161 11.145 28.3694 10.7605H23.5313C23.6779 10.3761 23.8978 9.99164 24.1177 9.60719H27.7097C27.4898 9.22275 27.1966 8.8383 26.9033 8.45385H24.9241C25.2173 8.0694 25.5838 7.68496 25.9504 7.3774C24.1177 5.68583 21.6986 4.60938 18.9863 4.60938Z" fill="#CC0000"/>
<path d="M42.0775 20.9922C42.1508 20.9922 42.2241 20.9922 42.2241 21.0691C42.2974 21.0691 42.2974 21.146 42.3707 21.2229C42.3707 21.2997 42.444 21.2997 42.444 21.3766C42.444 21.4535 42.444 21.5304 42.3707 21.5304C42.3707 21.6073 42.2974 21.6073 42.2241 21.6842C42.1508 21.6842 42.1508 21.7611 42.0775 21.7611C42.0042 21.7611 41.9309 21.7611 41.9309 21.6842C41.8575 21.6842 41.8575 21.6073 41.7842 21.5304C41.7842 21.4535 41.7109 21.4535 41.7109 21.3766C41.7109 21.2997 41.7109 21.2229 41.7842 21.2229C41.7842 21.146 41.8575 21.146 41.9309 21.0691C41.9309 20.9922 42.0042 20.9922 42.0775 20.9922ZM42.0775 21.0691C42.0042 21.0691 42.0042 21.0691 41.9309 21.0691C41.8575 21.0691 41.8575 21.146 41.8575 21.146C41.8575 21.2229 41.7842 21.2229 41.7842 21.2997C41.7842 21.3766 41.7842 21.3766 41.7842 21.4535C41.7842 21.5304 41.8575 21.5304 41.8575 21.5304C41.9309 21.5304 41.9309 21.5304 42.0042 21.5304C42.0775 21.5304 42.0775 21.5304 42.1508 21.5304C42.2241 21.5304 42.2241 21.4535 42.2241 21.4535C42.2241 21.3766 42.2241 21.3766 42.2241 21.2997C42.2241 21.2229 42.2241 21.2229 42.1508 21.146C42.1508 21.0691 42.0775 21.0691 42.0775 21.0691ZM41.9309 21.5304V21.146H42.0775C42.1508 21.146 42.1508 21.146 42.1508 21.146C42.1508 21.146 42.1508 21.146 42.2241 21.146C42.2241 21.146 42.2241 21.146 42.2241 21.2229V21.2997H42.1508C42.1508 21.2997 42.1508 21.3766 42.2241 21.3766L42.2974 21.4535H42.2241V21.3766C42.2241 21.2997 42.1508 21.2997 42.1508 21.2997C42.1508 21.2997 42.1508 21.2997 42.0775 21.2997L41.9309 21.5304ZM41.9309 21.2997C42.0042 21.2997 42.0775 21.2997 42.0775 21.2997C42.0775 21.2997 42.0775 21.2997 42.0775 21.2229C42.0775 21.2229 42.0775 21.2229 42.0042 21.2229H41.9309V21.2997Z" fill="#FCB340"/>
<path d="M22.4311 18.4497L22.5777 17.4501C22.5044 17.4501 22.3578 17.4501 22.2845 17.4501C21.9179 17.4501 21.8446 17.2195 21.9179 17.0657L22.2845 15.1435H22.8709L23.0175 14.067H22.5044L22.651 13.375H21.4781C21.4781 13.375 20.8184 17.1426 20.8184 17.6039C20.8184 18.2959 21.1849 18.6035 21.698 18.6035C22.0646 18.6035 22.3578 18.5266 22.4311 18.4497Z" fill="#000066"/>
<path d="M22.7988 16.613C22.7988 18.2277 23.8251 18.6121 24.7048 18.6121C25.5111 18.6121 25.951 18.3815 25.951 18.3815L26.1709 17.305C26.1709 17.305 25.5111 17.6126 24.9247 17.6126C23.7518 17.6126 23.9717 16.6899 23.9717 16.6899H26.2442C26.2442 16.6899 26.3908 15.921 26.3908 15.6134C26.3908 14.8445 26.0243 13.9219 24.7781 13.9219C23.6052 13.9988 22.7988 15.229 22.7988 16.613ZM24.7048 14.9983C25.2912 14.9983 25.2179 15.6903 25.2179 15.7672H23.9717C24.045 15.6903 24.1183 14.9983 24.7048 14.9983Z" fill="#000066"/>
<path d="M31.6676 18.4567L31.8876 17.2265C31.8876 17.2265 31.3744 17.534 31.0079 17.534C30.2015 17.534 29.9083 16.9189 29.9083 16.2269C29.9083 14.8429 30.5681 14.1509 31.3011 14.1509C31.8876 14.1509 32.3274 14.4584 32.3274 14.4584L32.474 13.2282C32.474 13.2282 31.9609 12.8438 31.3744 12.8438C29.6884 12.8438 28.6621 14.074 28.6621 16.2269C28.6621 17.6878 29.3952 18.6105 30.7147 18.6105C31.0812 18.6105 31.6676 18.4567 31.6676 18.4567Z" fill="#000066"/>
<path d="M16.4196 13.9922C15.6866 13.9922 15.1001 14.2229 15.1001 14.2229L14.9535 15.2224C14.9535 15.2224 15.3933 14.9918 16.1264 14.9918C16.5662 14.9918 16.8594 15.0686 16.8594 15.3762C16.8594 15.6069 16.8594 15.6838 16.8594 15.6838C16.8594 15.6838 16.5662 15.6838 16.4196 15.6838C15.32 15.6838 14.5137 16.1451 14.5137 17.3753C14.5137 18.3749 15.1734 18.6056 15.5399 18.6056C16.3463 18.6056 16.6395 18.0673 16.6395 18.0673V18.5287H17.5925L18.0323 15.3762C17.959 13.9922 16.8594 13.9922 16.4196 13.9922ZM16.6395 16.5295C16.6395 16.7602 16.5662 17.606 15.9065 17.606C15.5399 17.606 15.4666 17.2984 15.4666 17.1447C15.4666 16.8371 15.6133 16.4527 16.4196 16.4527C16.6395 16.5295 16.5662 16.5295 16.6395 16.5295Z" fill="#000066"/>
<path d="M18.9864 18.6068C19.2063 18.6068 20.6725 18.6837 20.6725 17.1459C20.6725 15.685 19.353 15.9926 19.353 15.4543C19.353 15.1468 19.5729 15.0699 19.9394 15.0699C20.086 15.0699 20.6725 15.1468 20.6725 15.1468L20.8191 14.1472C20.8191 14.1472 20.4525 14.0703 19.7928 14.0703C18.9864 14.0703 18.1801 14.3779 18.1801 15.5312C18.1801 16.8383 19.5729 16.6846 19.5729 17.2997C19.5729 17.6841 19.2063 17.6841 18.9131 17.6841C18.4 17.6841 17.9602 17.5303 17.9602 17.5303L17.7402 18.453C17.7402 18.453 18.0335 18.6068 18.9864 18.6068Z" fill="#000066"/>
<path d="M40.6843 13.0703L40.4644 14.6081C40.4644 14.6081 40.0246 13.993 39.4381 13.993C38.1919 13.993 37.6055 15.2232 37.6055 16.6841C37.6055 17.6068 38.0453 18.5295 38.925 18.5295C39.5847 18.5295 39.9512 18.0681 39.9512 18.0681L39.8779 18.4526H40.9042L41.7839 13.0703H40.6843ZM40.1712 16.069C40.1712 16.6841 39.8779 17.453 39.2915 17.453C38.925 17.453 38.7051 17.0686 38.7051 16.5303C38.7051 15.6077 39.0716 15.0694 39.5847 15.0694C39.9512 15.1463 40.1712 15.377 40.1712 16.069Z" fill="#000066"/>
<path d="M10.5556 18.5295L11.2153 14.3774L11.2886 18.5295H12.0217L13.4145 14.3774L12.828 18.5295H13.9276L14.8073 13.0703H13.048L12.0217 16.3766V13.0703H10.409L9.5293 18.5295H10.5556Z" fill="#000066"/>
<path d="M27.3428 18.5315C27.636 16.6093 27.7826 15.1484 28.7356 15.456C28.8822 14.6871 29.1754 14.0719 29.3221 13.7644C29.3221 13.7644 29.2488 13.6875 28.9555 13.6875C28.4424 13.6875 27.7826 14.764 27.7826 14.764L27.8559 14.1488H26.8297L26.1699 18.6084L27.3428 18.5315Z" fill="#000066"/>
<path d="M33.9411 13.9922C33.208 13.9922 32.6216 14.2229 32.6216 14.2229L32.475 15.2224C32.475 15.2224 32.9148 14.9918 33.6479 14.9918C34.0877 14.9918 34.3809 15.0686 34.3809 15.3762C34.3809 15.6069 34.3809 15.6838 34.3809 15.6838C34.3809 15.6838 34.0877 15.6838 33.9411 15.6838C32.8415 15.6838 32.0352 16.1451 32.0352 17.3753C32.0352 18.3749 32.6949 18.6056 33.0614 18.6056C33.8678 18.6056 34.161 18.0673 34.161 18.0673V18.5287H35.114L35.5538 15.3762C35.4072 13.9922 34.3076 13.9922 33.9411 13.9922ZM34.0877 16.5295C34.0877 16.7602 34.0144 17.606 33.3547 17.606C32.9881 17.606 32.9148 17.2984 32.9148 17.1447C32.9148 16.8371 33.0614 16.4527 33.8678 16.4527C34.0877 16.5295 34.0877 16.5295 34.0877 16.5295Z" fill="#000066"/>
<path d="M36.5058 18.5299C36.6524 17.1459 37.019 15.1468 37.8986 15.4543C38.0452 14.6854 37.8986 14.6854 37.6054 14.6854C37.0923 14.6854 37.019 14.6854 37.019 14.6854L37.0923 14.0703H36.066L35.4062 18.5299H36.5058Z" fill="#000066"/>
<path d="M22.724 18.1438L22.8707 17.1442C22.7974 17.1442 22.6507 17.1442 22.5774 17.1442C22.2109 17.1442 22.1376 16.9136 22.2109 16.7598L22.5041 14.7606H23.0906L23.2372 13.6842H22.724L22.8707 12.9922H21.7711C21.7711 12.9922 21.1113 16.7598 21.1113 17.2211C21.1113 17.9131 21.4779 18.2207 21.991 18.2207C22.3575 18.2976 22.6507 18.1438 22.724 18.1438Z" fill="white"/>
<path d="M23.0918 16.2236C23.0918 17.8383 24.1181 18.2227 24.9977 18.2227C25.8041 18.2227 26.1706 18.069 26.1706 18.069L26.3905 16.9925C26.3905 16.9925 25.8041 17.3001 25.2177 17.3001C24.0448 17.3001 24.2647 16.3774 24.2647 16.3774H26.4638C26.4638 16.3774 26.6105 15.6085 26.6105 15.3009C26.6105 14.532 26.2439 13.6094 25.071 13.6094C23.8982 13.6094 23.0918 14.8396 23.0918 16.2236ZM24.9977 14.6089C25.5842 14.6089 25.5109 15.3009 25.5109 15.3778H24.2647C24.2647 15.3778 24.4113 14.6089 24.9977 14.6089Z" fill="white"/>
<path d="M31.9615 18.1454L32.1814 16.9152C32.1814 16.9152 31.6683 17.2227 31.3018 17.2227C30.4954 17.2227 30.2022 16.6076 30.2022 15.9156C30.2022 14.5316 30.8619 13.8396 31.595 13.8396C32.1814 13.8396 32.6213 14.1472 32.6213 14.1472L32.7679 12.9169C32.7679 12.9169 32.1081 12.6094 31.5217 12.6094C30.2755 12.6094 29.0293 13.7627 29.0293 15.9156C29.0293 17.3765 29.689 18.2992 31.0085 18.2992C31.3751 18.2992 31.9615 18.1454 31.9615 18.1454Z" fill="white"/>
<path d="M16.7145 13.6094C15.9815 13.6094 15.395 13.84 15.395 13.84L15.2484 14.8396C15.2484 14.8396 15.6883 14.6089 16.4213 14.6089C16.8611 14.6089 17.1544 14.6858 17.1544 14.9934C17.1544 15.2241 17.1544 15.3009 17.1544 15.3009C17.1544 15.3009 16.8611 15.3009 16.7145 15.3009C15.7616 15.3009 14.8086 15.7623 14.8086 16.9925C14.8086 17.9921 15.4683 18.2227 15.8349 18.2227C16.6412 18.2227 16.9345 17.6845 16.9345 17.6845V18.1459H17.8874L18.3273 14.9934C18.254 13.6863 17.1544 13.6094 16.7145 13.6094ZM17.0078 16.2236C17.0078 16.4543 16.8611 17.3001 16.2014 17.3001C15.8349 17.3001 15.7616 16.9925 15.7616 16.8387C15.7616 16.5312 15.9082 16.1467 16.7145 16.1467C16.9345 16.1467 16.9345 16.2236 17.0078 16.2236Z" fill="white"/>
<path d="M19.2793 18.224C19.4992 18.224 20.9653 18.3009 20.9653 16.7631C20.9653 15.3022 19.6458 15.6097 19.6458 15.0715C19.6458 14.764 19.8658 14.6871 20.2323 14.6871C20.3789 14.6871 20.9653 14.764 20.9653 14.764L21.1119 13.7644C21.1119 13.7644 20.7454 13.6875 20.0857 13.6875C19.2793 13.6875 18.4729 13.9951 18.4729 15.1484C18.4729 16.4555 19.8658 16.3017 19.8658 16.9169C19.8658 17.3013 19.4992 17.3013 19.206 17.3013C18.6929 17.3013 18.253 17.1475 18.253 17.1475L18.1064 18.1471C18.0331 18.0702 18.3263 18.224 19.2793 18.224Z" fill="white"/>
<path d="M40.9773 12.7644L40.7574 14.3022C40.7574 14.3022 40.3175 13.6871 39.7311 13.6871C38.7048 13.6871 37.8984 14.9173 37.8984 16.3782C37.8984 17.3009 38.3383 18.2235 39.2179 18.2235C39.8777 18.2235 40.2442 17.7622 40.2442 17.7622L40.1709 18.1467H41.1972L42.0035 12.6875L40.9773 12.7644ZM40.4641 15.6862C40.4641 16.3013 40.1709 17.0702 39.5845 17.0702C39.2179 17.0702 38.998 16.6858 38.998 16.1475C38.998 15.2249 39.3645 14.6866 39.8777 14.6866C40.2442 14.7635 40.4641 15.0711 40.4641 15.6862Z" fill="white"/>
<path d="M10.8487 18.1467L11.5084 13.9946L11.5817 18.1467H12.3148L13.7076 13.9946L13.1211 18.1467H14.2207L15.1004 12.6875H13.3411L12.2415 16.0706L12.1682 12.6875H10.5554L9.67578 18.1467H10.8487Z" fill="white"/>
<path d="M27.6358 18.2252C27.929 16.303 28.0023 14.7652 28.7354 15.0727C28.882 14.3039 29.0286 14.0732 29.1752 13.7656C29.1752 13.7656 29.1019 13.7656 28.9553 13.7656C28.4421 13.7656 28.0756 14.4576 28.0756 14.4576L28.1489 13.8425H27.1226L26.4629 18.3021H27.6358V18.2252Z" fill="white"/>
<path d="M34.4528 13.6094C33.7198 13.6094 33.1333 13.84 33.1333 13.84L32.9867 14.8396C32.9867 14.8396 33.4265 14.6089 34.1596 14.6089C34.5994 14.6089 34.8926 14.6858 34.8926 14.9934C34.8926 15.2241 34.8926 15.3009 34.8926 15.3009C34.8926 15.3009 34.5994 15.3009 34.4528 15.3009C33.4998 15.3009 32.5469 15.7623 32.5469 16.9925C32.5469 17.9921 33.2066 18.2227 33.5732 18.2227C34.3795 18.2227 34.6727 17.6845 34.6727 17.6845V18.1459H35.6257L36.0655 14.9934C35.9189 13.6863 34.8193 13.6094 34.4528 13.6094ZM34.6727 16.2236C34.6727 16.4543 34.5261 17.3001 33.8664 17.3001C33.4998 17.3001 33.4265 16.9925 33.4265 16.8387C33.4265 16.5312 33.5732 16.1467 34.3795 16.1467C34.5994 16.1467 34.6727 16.2236 34.6727 16.2236Z" fill="white"/>
<path d="M36.7998 18.2252C37.0931 16.303 37.1664 14.7652 37.8994 15.0727C38.046 14.3039 38.1926 14.0732 38.3393 13.7656C38.3393 13.7656 38.266 13.7656 38.1193 13.7656C37.6062 13.7656 37.2397 14.4576 37.2397 14.4576L37.313 13.8425H36.2867L35.627 18.3021H36.7998V18.2252Z" fill="white"/>
<path d="M42.0775 17.5312C42.1508 17.5312 42.2241 17.5313 42.2241 17.6081C42.2974 17.6081 42.2974 17.685 42.3707 17.7619C42.3707 17.8388 42.444 17.8388 42.444 17.9157C42.444 17.9926 42.444 18.0695 42.3707 18.0695C42.3707 18.1464 42.2974 18.1464 42.2241 18.2233C42.1508 18.2233 42.1508 18.3001 42.0775 18.3001C42.0042 18.3001 41.9309 18.3001 41.9309 18.2233C41.8575 18.2233 41.8575 18.1464 41.7842 18.0695C41.7842 17.9926 41.7109 17.9926 41.7109 17.9157C41.7109 17.8388 41.7109 17.7619 41.7842 17.7619C41.7842 17.685 41.8575 17.685 41.9309 17.6081C41.9309 17.5313 42.0042 17.5312 42.0775 17.5312ZM42.0775 17.5312C42.0042 17.5312 42.0042 17.5312 41.9309 17.5312C41.8575 17.5312 41.8575 17.6081 41.8575 17.6081C41.8575 17.685 41.7842 17.685 41.7842 17.7619C41.7842 17.8388 41.7842 17.8388 41.7842 17.9157C41.7842 17.9926 41.8575 17.9926 41.8575 17.9926C41.9309 17.9926 41.9309 17.9926 42.0042 17.9926C42.0775 17.9926 42.0775 17.9926 42.1508 17.9926C42.2241 17.9926 42.2241 17.9157 42.2241 17.9157C42.2241 17.8388 42.2241 17.8388 42.2241 17.7619C42.2241 17.685 42.2241 17.685 42.1508 17.6081C42.1508 17.5313 42.0775 17.5312 42.0775 17.5312ZM41.9309 18.0695V17.685H42.0775C42.1508 17.685 42.1508 17.685 42.1508 17.685C42.1508 17.685 42.1508 17.685 42.2241 17.685C42.2241 17.685 42.2241 17.685 42.2241 17.7619V17.8388H42.1508C42.1508 17.8388 42.1508 17.9157 42.2241 17.9157L42.2974 17.9926H42.2241V17.9157C42.2241 17.8388 42.1508 17.8388 42.1508 17.8388C42.1508 17.8388 42.1508 17.8388 42.0775 17.8388L41.9309 18.0695ZM41.9309 17.8388C42.0042 17.8388 42.0775 17.8388 42.0775 17.8388C42.0775 17.8388 42.0775 17.8388 42.0775 17.7619C42.0775 17.7619 42.0775 17.7619 42.0042 17.7619H41.9309V17.8388Z" fill="white"/>
</svg>
