<svg width="28" height="28" viewBox="0 0 28 28" fill="none" xmlns="http://www.w3.org/2000/svg">
<path fill-rule="evenodd" clip-rule="evenodd" d="M27.0213 13.5106C27.0213 20.9724 20.9724 27.0213 13.5106 27.0213C6.04892 27.0213 0 20.9724 0 13.5106C0 6.04892 6.04892 0 13.5106 0C20.9724 0 27.0213 6.04892 27.0213 13.5106ZM8.31915 6.6383C7.25532 7.51064 6.3617 8.48936 6.34043 10.0213C6.36405 10.1394 6.38439 10.2624 6.4051 10.3877C6.45899 10.7136 6.51533 11.0543 6.6383 11.3617C8.40426 15.7021 11.4468 18.7234 15.8511 20.3404C17.5957 20.9787 19.1277 20.4255 20.3191 19C20.6596 18.617 20.7234 18.2766 20.3404 17.8936C20.093 17.6462 19.8432 17.3987 19.5926 17.1505C19.0891 16.6517 18.5823 16.1497 18.0851 15.6383C17.6809 15.2128 17.2979 15.2766 16.9149 15.6809C16.5532 16.0638 16.1702 16.4468 15.7872 16.8085C15.1277 17.383 14.617 17.4894 13.9787 16.9149C12.6596 15.7447 11.383 14.5106 10.1915 13.2128C9.55319 12.5106 9.65957 11.9787 10.3404 11.2553C10.7021 10.8723 11.0851 10.4894 11.4681 10.1277C11.8511 9.76596 11.8511 9.38298 11.4894 9.02128L11.4893 9.02125C10.7234 8.23403 9.95744 7.4468 9.14894 6.70213C8.97872 6.55319 8.48936 6.51064 8.31915 6.6383Z" fill="#364063"/>
</svg>
