<svg width="30" height="30" viewBox="0 0 30 30" fill="none" xmlns="http://www.w3.org/2000/svg">
<path d="M15 0C23.25 0 30 6.7048 30 14.8996C30 23.0943 23.25 29.7991 15 29.7991C6.75 29.7991 0 23.0943 0 14.8996C0 6.6303 6.75 0 15 0Z" fill="#364063"/>
<path d="M10.0918 14.9559C10.0918 12.424 10.0918 9.91253 10.0918 7.38064C10.0918 7.05395 10.1751 6.74767 10.3624 6.46181C10.5913 6.15553 10.8827 5.99219 11.299 5.99219C13.6094 5.99219 15.9197 5.99219 18.2301 5.99219C18.7921 5.99219 19.2084 6.3393 19.3749 6.80892C19.4373 6.99269 19.479 7.17646 19.479 7.38064C19.479 12.4444 19.479 17.5286 19.479 22.5924C19.479 22.9191 19.3957 23.2049 19.2084 23.4908C18.9794 23.7971 18.688 23.9808 18.2926 23.9808C16.4609 23.9808 14.6293 23.9808 12.7976 23.9808C12.3189 23.9808 11.8402 23.9604 11.3406 23.9808C10.7787 24.0012 10.3624 23.6337 10.1959 23.1845C10.1334 23.0007 10.0918 22.7966 10.0918 22.5924C10.0918 20.0197 10.0918 17.4878 10.0918 14.9559ZM10.6538 7.48273C10.6121 8.15654 10.633 21.5306 10.6746 21.7348C13.3596 21.7348 16.0446 21.7348 18.7297 21.7348C18.7713 21.7348 18.8337 21.7348 18.8754 21.7348H18.8962L18.917 21.7144C18.9586 20.9793 18.9378 7.70734 18.8962 7.48273C16.1487 7.48273 13.4012 7.48273 10.6538 7.48273ZM14.1297 22.817C14.1089 23.2662 14.4628 23.4704 14.7958 23.4908C15.1496 23.5112 15.4827 23.1641 15.4827 22.817C15.4618 22.429 15.1288 22.1636 14.8166 22.1636C14.4211 22.1636 14.0881 22.5107 14.1297 22.817ZM13.5261 6.68641C13.6094 6.80892 13.7343 6.82934 13.8592 6.82934C14.4836 6.82934 15.0872 6.82934 15.7116 6.82934C15.7532 6.82934 15.7949 6.82934 15.8365 6.82934C15.9197 6.80892 16.0238 6.78851 16.0238 6.68641C15.9822 6.60474 15.8989 6.5639 15.7949 6.5639C15.108 6.5639 14.4419 6.5639 13.7551 6.5639C13.651 6.54349 13.5886 6.58432 13.5261 6.68641Z" fill="white"/>
<path d="M4.82617 14.7742C4.8678 13.6716 5.13838 12.6303 5.67955 11.6706C5.92932 11.2214 6.24153 10.8335 6.59537 10.4659C6.72026 10.3434 6.88677 10.3026 7.0741 10.3434C7.17817 10.3639 7.26142 10.4455 7.28224 10.568C7.30305 10.711 7.28224 10.8539 7.19898 10.956C7.05328 11.1193 6.90758 11.3031 6.7827 11.4665C6.30397 12.0586 5.99176 12.7324 5.80444 13.4675C5.61711 14.08 5.59629 14.7334 5.65874 15.3868C5.72118 16.1831 5.99176 16.9182 6.40804 17.592C6.61619 17.9391 6.84514 18.2454 7.13654 18.5517C7.24061 18.6742 7.32387 18.7967 7.30305 18.96C7.28224 19.205 7.0741 19.3071 6.90758 19.2663C6.80351 19.2459 6.69944 19.205 6.59537 19.1234C6.30397 18.8171 6.03339 18.4904 5.82525 18.1433C5.55467 17.7145 5.32571 17.2653 5.18001 16.7752C5.03431 16.326 4.90943 15.8768 4.88861 15.4072C4.8678 15.203 4.84699 14.9784 4.82617 14.7742Z" fill="white"/>
<path d="M24.7259 14.7765C24.7259 15.6341 24.5593 16.4713 24.2055 17.2676C23.9141 17.9414 23.5186 18.5335 22.9983 19.0644C22.9358 19.1257 22.8526 19.2073 22.7485 19.2278C22.5612 19.289 22.4363 19.2686 22.3114 19.1461C22.2282 19.0644 22.2282 18.8398 22.2906 18.7173C22.3322 18.6356 22.3947 18.5744 22.4571 18.5131C23.144 17.7576 23.6019 16.8796 23.81 15.8791C23.9349 15.3074 23.9349 14.7357 23.8933 14.1844C23.8517 13.6127 23.6851 13.0818 23.4562 12.5509C23.2272 12.0405 22.915 11.5709 22.5404 11.1421C22.4779 11.0604 22.4155 10.9991 22.353 10.9175C22.249 10.795 22.249 10.6724 22.2698 10.5295C22.2906 10.407 22.3947 10.3253 22.4987 10.3253C22.6653 10.3049 22.811 10.3457 22.9358 10.4683C23.0815 10.6316 23.2272 10.7745 23.3729 10.9379C23.9765 11.6934 24.372 12.5305 24.5802 13.4698C24.6842 13.8986 24.7467 14.3273 24.7259 14.7765Z" fill="white"/>
<path d="M8.84263 11.914C8.84263 12.0161 8.801 12.1386 8.71775 12.2203C8.44717 12.5266 8.21821 12.8737 8.0517 13.2412C7.906 13.5475 7.82274 13.8742 7.78111 14.2009C7.73948 14.4459 7.73948 14.6705 7.73948 14.9155C7.7603 15.7119 8.01007 16.4469 8.50961 17.0799C8.57205 17.1616 8.65531 17.2637 8.71775 17.3453C8.82182 17.4883 8.84263 17.6312 8.82182 17.815C8.801 17.9375 8.69693 17.9987 8.57205 18.0191C8.40554 18.0396 8.28065 17.9987 8.15577 17.8966C8.03088 17.7537 7.88518 17.6108 7.78111 17.4474C7.38564 16.8757 7.11506 16.2427 7.01099 15.5485C6.99018 15.3239 6.92773 15.0789 6.92773 14.8543C6.94855 14.0171 7.11506 13.2208 7.57297 12.4858C7.73948 12.2407 7.88518 11.9957 8.09332 11.7711C8.17658 11.6894 8.25984 11.6282 8.38472 11.5873C8.67612 11.5057 8.84263 11.6282 8.84263 11.914Z" fill="white"/>
<path d="M21.0619 18.0241C20.8537 18.0241 20.7289 17.922 20.7289 17.7178C20.7289 17.5749 20.7705 17.432 20.8746 17.3095C21.3325 16.799 21.6447 16.1865 21.7696 15.5126C21.8736 15.0022 21.8528 14.4917 21.7487 13.9813C21.6031 13.3687 21.3533 12.8174 20.937 12.3274C20.8329 12.2049 20.708 12.0619 20.7289 11.8782C20.7497 11.6127 20.9162 11.4902 21.166 11.5719C21.2908 11.6127 21.3949 11.674 21.4782 11.7761C21.8944 12.2661 22.2275 12.8174 22.4148 13.4504C22.5189 13.7975 22.6021 14.1446 22.6021 14.5121C22.6021 14.6959 22.6021 14.9001 22.6021 15.0839C22.5813 15.5535 22.4772 16.0027 22.3107 16.4315C22.1442 16.9011 21.8736 17.3095 21.5614 17.7178C21.5198 17.7791 21.4574 17.8404 21.3949 17.9016C21.2908 17.9833 21.1868 18.0241 21.0619 18.0241Z" fill="white"/>
</svg>
