<svg width="30" height="30" viewBox="0 0 30 30" fill="none" xmlns="http://www.w3.org/2000/svg">
<g clip-path="url(#clip0_3001_1514)">
<path d="M0 15C0 6.75 6.75 0 15 0C23.25 0 30 6.75 30 15C30 23.25 23.25 30 15 30C6.75 30 0 23.25 0 15Z" fill="#32A9DF"/>
<path d="M20.0241 9.07603L8.17406 13.651C7.34906 13.951 7.34906 14.401 8.02406 14.626L11.0991 15.601L18.1491 11.176C18.4491 10.951 18.8241 11.101 18.5241 11.326L12.7491 16.426L12.5241 19.576C12.8241 19.576 12.9741 19.426 13.1241 19.276L14.6241 17.851L17.6991 20.101C18.2991 20.401 18.6741 20.251 18.8241 19.576L20.8491 10.051C21.0741 9.22602 20.5491 8.85103 20.0241 9.07603Z" fill="white"/>
</g>
<defs>
<clipPath id="clip0_3001_1514">
<rect width="30" height="30" fill="white"/>
</clipPath>
</defs>
</svg>
