<svg width="27" height="23" viewBox="0 0 27 23" fill="none" xmlns="http://www.w3.org/2000/svg">
<g clip-path="url(#clip0_717_411)">
<path d="M213 -101H-32C-33.1046 -101 -34 -100.105 -34 -99V-0.100945C-34 1.00362 -33.1046 1.89906 -32 1.89906H0.435333C1.5399 1.89906 2.43533 2.79449 2.43533 3.89906V20.6353C2.43533 22.4171 4.58961 23.3094 5.84954 22.0495L25.4142 2.48484C25.7893 2.10977 26.3032 1.89906 26.8337 1.89906H212.99C214.095 1.89906 215 1.00363 215 -0.100937V-99C215 -100.105 214.105 -101 213 -101Z" fill="#364063"/>
<path d="M-32 -100.5H213C213.828 -100.5 214.5 -99.8284 214.5 -99V-0.100937C214.5 0.724258 213.822 1.39906 212.99 1.39906H26.8337C26.172 1.39906 25.5305 1.66147 25.0607 2.13129L5.49599 21.696C4.55104 22.6409 2.93533 21.9717 2.93533 20.6353V3.89906C2.93533 2.51834 1.81604 1.39906 0.435333 1.39906H-32C-32.8284 1.39906 -33.5 0.727478 -33.5 -0.100945V-99C-33.5 -99.8284 -32.8284 -100.5 -32 -100.5Z" stroke="white" stroke-opacity="0.501961"/>
</g>
<defs>
<clipPath id="clip0_717_411">
<rect width="27" height="23" fill="white"/>
</clipPath>
</defs>
</svg>
