<svg width="40" height="40" viewBox="0 0 40 40" fill="none" xmlns="http://www.w3.org/2000/svg">
<path d="M20 0C31 0 40 9 40 20C40 31 31 40 20 40C9 40 0 31 0 20C0 8.9 9 0 20 0Z" fill="#7360F2"/>
<path d="M29.5004 10.299C28.9004 9.69898 26.3004 7.79898 20.5004 7.79898C20.5004 7.79898 13.7004 7.39898 10.4004 10.399C8.6004 12.199 7.9004 14.899 7.9004 18.299C7.8004 21.599 7.70042 27.899 13.8004 29.599V32.199C13.8004 32.199 13.8004 33.199 14.5004 33.499C15.3004 33.799 15.8004 32.999 16.6004 32.099C17.0004 31.599 17.6004 30.899 18.1004 30.399C22.2004 30.699 25.4004 29.999 25.7004 29.799C26.5004 29.499 31.2004 28.899 32.0004 22.699C32.7004 16.199 31.6004 12.099 29.5004 10.299ZM30.2004 22.099C29.6004 27.299 25.7004 27.599 25.0004 27.899C24.7004 27.999 21.9004 28.699 18.4004 28.499C18.4004 28.499 15.8004 31.599 15.0004 32.499C14.9004 32.599 14.7004 32.699 14.6004 32.699C14.5004 32.699 14.4004 32.499 14.4004 32.299C14.4004 31.999 14.4004 27.999 14.4004 27.999C9.3004 26.599 9.60039 21.299 9.70039 18.499C9.80039 15.699 10.3004 13.399 11.8004 11.899C14.6004 9.39898 20.3004 9.69898 20.3004 9.69898C25.2004 9.69898 27.5004 11.199 28.0004 11.699C29.9004 13.099 30.8004 16.799 30.2004 22.099Z" fill="white"/>
<path d="M22.8992 18.3969C22.6992 18.3969 22.5992 18.2969 22.5992 18.0969C22.4992 16.9969 21.9992 16.4969 20.9992 16.3969C20.7992 16.3969 20.6992 16.1969 20.6992 16.0969C20.6992 15.8969 20.8992 15.7969 20.9992 15.7969C22.3992 15.8969 23.1992 16.6969 23.1992 18.0969C23.1992 18.2969 23.0992 18.3969 22.8992 18.3969Z" fill="white"/>
<path d="M24.4996 18.9953C24.2996 18.9953 24.1996 18.7953 24.1996 18.6953C24.1996 17.5953 23.8996 16.6953 23.1996 15.9953C22.4996 15.2953 21.5996 14.8953 20.3996 14.7953C20.1996 14.7953 20.0996 14.5953 20.0996 14.4953C20.0996 14.2953 20.2996 14.1953 20.3996 14.1953C21.7996 14.2953 22.8996 14.7953 23.6996 15.5953C24.4996 16.4953 24.8996 17.4953 24.7996 18.7953C24.8996 18.7953 24.6996 18.9953 24.4996 18.9953Z" fill="white"/>
<path d="M26.2015 19.5984C26.0015 19.5984 25.9016 19.4984 25.9016 19.2984C25.9016 17.2984 25.3015 15.7984 24.2015 14.6984C23.1015 13.5984 21.6016 12.9984 19.9016 12.9984C19.7016 12.9984 19.6016 12.8984 19.6016 12.6984C19.6016 12.4984 19.7016 12.3984 19.9016 12.3984C21.8016 12.3984 23.4015 12.9984 24.7015 14.2984C26.0015 15.4984 26.6016 17.2984 26.6016 19.3984C26.6016 19.4984 26.4015 19.5984 26.2015 19.5984Z" fill="white"/>
<path d="M21 22.397C21 22.397 21.5 22.397 21.7 22.097L22.2 21.497C22.4 21.197 23 20.997 23.5 21.297C23.9 21.497 24.3 21.797 24.7 22.097C25.1 22.397 25.8 22.997 25.8 22.997C26.2 23.297 26.2 23.697 26 24.197C25.7 24.697 25.4 25.097 25 25.397C24.7 25.697 24.3 25.797 24 25.897C23.9 25.897 23.9 25.897 23.9 25.897C23.8 25.897 23.6 25.897 23.5 25.797C23 25.697 22.1 25.297 20.7 24.497C19.9 24.097 19.1 23.497 18.4 22.997C18 22.697 17.7 22.397 17.3 22.097C17 21.797 16.7 21.397 16.4 20.997C15.8 20.297 15.3 19.497 14.9 18.697C14.1 17.297 13.8 16.397 13.6 15.897C13.6 15.797 13.5 15.597 13.5 15.497C13.5 15.397 13.5 15.397 13.5 15.397C13.5 15.097 13.7 14.697 14 14.397C14.4 13.997 14.8 13.697 15.2 13.397C15.7 13.197 16.1 13.197 16.4 13.597C16.4 13.597 17 14.297 17.3 14.697C17.6 15.097 17.8 15.497 18.1 15.897C18.4 16.397 18.2 16.997 17.9 17.197L17.3 17.697C17 17.897 17 18.397 17 18.397C17 18.397 17.7 21.597 21 22.397Z" fill="white"/>
</svg>
