<svg width="52" height="31" viewBox="0 0 52 31" fill="none" xmlns="http://www.w3.org/2000/svg">
<path d="M4.00902 0H47.9923C50.0449 0 51.6576 1.69157 51.6576 3.84448V26.9113C51.6576 29.0642 50.0449 30.7558 47.9923 30.7558H4.00902C1.95647 30.7558 0.34375 29.0642 0.34375 26.9113V3.84448C0.34375 1.69157 1.95647 0 4.00902 0Z" fill="white"/>
<path d="M23.3619 21.371H20.4297L22.2623 9.45312H25.1945L23.3619 21.371Z" fill="#00579F"/>
<path d="M33.9911 9.76479C33.4046 9.53412 32.5249 9.22656 31.3521 9.22656C28.4198 9.22656 26.4406 10.8412 26.3673 13.1479C26.3673 14.8395 27.8334 15.8391 28.933 16.3773C30.0326 16.9924 30.4724 17.3769 30.4724 17.8382C30.4724 18.6071 29.5194 18.9915 28.7131 18.9915C27.5402 18.9915 26.8804 18.8378 25.9274 18.3764L25.5609 18.2226L25.1211 20.9138C25.7808 21.2213 27.1003 21.5289 28.4198 21.5289C31.4987 21.5289 33.4779 19.9142 33.5512 17.4537C33.5512 16.0697 32.7449 15.0702 31.0588 14.2244C30.0326 13.6862 29.3728 13.3017 29.3728 12.7635C29.3728 12.2253 29.8859 11.7639 31.0588 11.7639C32.0118 11.7639 32.7449 11.9946 33.258 12.2253L33.5512 12.379L33.9911 9.76479Z" fill="#00579F"/>
<path d="M37.8759 17.1421C38.0959 16.4501 39.0488 13.8358 39.0488 13.8358C39.0488 13.8358 39.2687 13.1438 39.4154 12.6825L39.6353 13.682C39.6353 13.682 40.2217 16.527 40.295 17.1421C39.8552 17.1421 38.4624 17.1421 37.8759 17.1421ZM41.5412 9.45312H39.2687C38.5357 9.45312 38.0225 9.68379 37.7293 10.4527L33.4043 21.371H36.4831C36.4831 21.371 36.9963 19.9101 37.0696 19.6025C37.4361 19.6025 40.3683 19.6025 40.8082 19.6025C40.8815 19.987 41.1747 21.371 41.1747 21.371H43.887L41.5412 9.45312Z" fill="#00579F"/>
<path d="M18.0101 9.45312L15.1512 17.6034L14.858 15.9887C14.3448 14.0665 12.6588 11.9905 10.8262 10.9909L13.4652 21.371H16.544L21.1622 9.45312H18.0101Z" fill="#00579F"/>
<path d="M12.4387 9.45312H7.74713L7.67383 9.68379C11.3391 10.6834 13.7582 13.0669 14.7845 15.9118L13.7582 10.4527C13.6116 9.68379 13.0984 9.45312 12.4387 9.45312Z" fill="#FAA61A"/>
</svg>
