<svg width="40" height="40" viewBox="0 0 40 40" fill="none" xmlns="http://www.w3.org/2000/svg">
<path d="M20 40C31.0457 40 40 31.0457 40 20C40 8.9543 31.0457 0 20 0C8.9543 0 0 8.9543 0 20C0 31.0457 8.9543 40 20 40Z" fill="url(#paint0_linear_3001_1461)"/>
<path fill-rule="evenodd" clip-rule="evenodd" d="M27.1 12.8984C26.2 11.9984 25.1 11.1984 23.9 10.6984C22.7 10.1984 21.4 9.89844 20.1 9.89844C14.6 9.89844 10.1 14.2984 10.1 19.7984C10.1 21.4984 10.6 23.2984 11.4 24.7984L10 29.8984L15.3 28.4984C16.8 29.2984 18.4 29.6984 20.1 29.6984C25.6 29.6984 30.1 25.2984 30.1 19.7984C30.1 18.4984 29.8 17.1984 29.3 15.9984C28.7 14.8984 28 13.7984 27.1 12.8984ZM20 28.0984C18.5 28.0984 17.1 27.6984 15.8 26.9984L15.5 26.7984L12.4 27.5984L13.2 24.5984L13 24.2984C12.2 22.9984 11.7 21.4984 11.7 19.8984C11.7 15.3984 15.4 11.6984 20 11.6984C21.1 11.6984 22.2 11.8984 23.2 12.2984C24.2 12.6984 25.1 13.2984 25.9 14.0984C26.7 14.8984 27.3 15.7984 27.7 16.7984C28.1 17.7984 28.3 18.8984 28.3 19.9984C28.3 24.3984 24.6 28.0984 20 28.0984ZM24.6 21.8984C24.4 21.7984 23.1 21.1984 22.9 21.0984C22.7 20.9984 22.5 20.9984 22.3 21.1984C22.1 21.3984 21.7 21.9984 21.5 22.1984C21.4 22.3984 21.2 22.3984 21 22.2984C20.8 22.1984 19.9 21.8984 19 21.0984C18.3 20.3984 17.8 19.5984 17.6 19.3984C17.5 19.1984 17.6 18.9984 17.7 18.8984C17.8 18.7984 17.9 18.5984 18.1 18.4984C18.2 18.3984 18.3 18.2984 18.3 18.0984C18.4 17.8984 18.3 17.7984 18.3 17.6984C18.2 17.5984 17.7 16.3984 17.5 15.8984C17.3 15.3984 17.1 15.4984 16.9 15.4984C16.7 15.4984 16.6 15.4984 16.4 15.4984C16.3 15.4984 16.1 15.4984 16 15.5984C15.9 15.6984 15.8 15.6984 15.7 15.7984C15.5 15.9984 14.8 16.5984 14.8 17.8984C14.8 19.0984 15.7 20.2984 15.8 20.4984C15.9 20.6984 17.6 23.1984 20.1 24.1984C20.7 24.4984 21.2 24.5984 21.5 24.6984C22.1 24.8984 22.6 24.8984 23.1 24.7984C23.6 24.6984 24.6 24.1984 24.8 23.5984C25 22.9984 25 22.4984 24.9 22.3984C25 22.0984 24.8 22.0984 24.6 21.8984Z" fill="white"/>
<defs>
<linearGradient id="paint0_linear_3001_1461" x1="19.9698" y1="-0.0395" x2="19.9698" y2="39.9605" gradientUnits="userSpaceOnUse">
<stop stop-color="#46EC63"/>
<stop offset="1" stop-color="#22CA42"/>
</linearGradient>
</defs>
</svg>
