<?xml version="1.0" standalone="no"?>
<!DOCTYPE svg PUBLIC "-//W3C//DTD SVG 1.1//EN" "http://www.w3.org/Graphics/SVG/1.1/DTD/svg11.dtd" >
<svg xmlns="http://www.w3.org/2000/svg">
<metadata>Generated by IcoMoon</metadata>
<defs>
<font id="icomoon" horiz-adv-x="1024">
<font-face units-per-em="1024" ascent="960" descent="-64" />
<missing-glyph horiz-adv-x="1024" />
<glyph unicode="&#x20;" horiz-adv-x="512" d="" />
<glyph unicode="&#xe900;" glyph-name="chart" d="M290.050 675.773h667.874c17.126-6.943 30.826-24.302 27.402-41.661l-44.528-246.49c-3.424-13.888-17.123-27.773-30.822-27.773l-561.699-55.549c-17.126 0-30.826 10.416-34.251 24.304l-126.725 433.961h-89.050c-20.55 0-34.25 13.887-34.25 34.717s13.7 34.717 34.25 34.717h116.45c13.7 0 27.4-10.415 30.825-24.302l44.525-131.925zM433.914 95.997c41.613 0 75.347 34.195 75.347 76.374 0 42.182-33.734 76.378-75.347 76.378-41.616 0-75.35-34.195-75.35-76.378 0-42.179 33.734-76.374 75.35-76.374zM793.536 95.997c41.616 0 75.35 34.195 75.35 76.374 0 42.182-33.734 76.378-75.35 76.378-41.613 0-75.347-34.195-75.347-76.378 0-42.179 33.734-76.374 75.347-76.374z" />
<glyph unicode="&#xe901;" glyph-name="chevron-down" d="M909.254 685.255c24.995-24.994 24.995-65.517 0-90.509l-368-368c-24.992-24.995-65.517-24.995-90.509 0l-368.001 368c-24.994 24.992-24.994 65.516 0 90.509s65.516 24.994 90.509 0l322.746-322.746 322.746 322.746c24.992 24.994 65.517 24.994 90.509 0z" />
<glyph unicode="&#xe902;" glyph-name="chevron-left" d="M749.254 50.746c-24.992-24.995-65.517-24.995-90.509 0l-368.001 368c-24.994 24.992-24.994 65.517 0 90.509l368.001 368.001c24.992 24.994 65.517 24.994 90.509 0 24.995-24.994 24.995-65.516 0-90.509l-322.746-322.746 322.746-322.746c24.995-24.992 24.995-65.517 0-90.509z" />
<glyph unicode="&#xe903;" glyph-name="chevron-right" d="M322.196 765.804c19.994 19.995 52.413 19.995 72.407 0l294.4-294.4c19.996-19.994 19.996-52.413 0-72.407l-294.4-294.4c-19.994-19.996-52.413-19.996-72.407 0-19.996 19.994-19.996 52.413 0 72.407l258.196 258.196-258.196 258.196c-19.996 19.994-19.996 52.412 0 72.407z" />
<glyph unicode="&#xe904;" glyph-name="chevron-up" d="M114.745 210.746c-24.994 24.992-24.994 65.517 0 90.509l368 368.001c24.992 24.994 65.517 24.994 90.509 0l368-368.001c24.995-24.992 24.995-65.517 0-90.509-24.992-24.995-65.517-24.995-90.509 0l-322.746 322.746-322.745-322.746c-24.993-24.995-65.516-24.995-90.509 0z" />
<glyph unicode="&#xe905;" glyph-name="clerical" d="M261.803 206.352c19.843 0 35.928 14.976 35.928 33.45s-16.086 33.45-35.928 33.45c-19.843 0-35.928-14.976-35.928-33.45s16.086-33.45 35.928-33.45zM303.719 435.002h-77.844v-22.301h77.844v22.301zM525.242 206.352c19.843 0 35.926 14.976 35.926 33.45s-16.083 33.45-35.926 33.45c-19.843 0-35.93-14.976-35.93-33.45s16.086-33.45 35.93-33.45zM567.158 435.002h-77.846v-22.301h77.846v22.301zM788.739 206.352c19.843 0 35.93 14.976 35.93 33.45s-16.086 33.45-35.93 33.45c-19.84 0-35.926-14.976-35.926-33.45s16.086-33.45 35.926-33.45zM342.634 752.5h-161.676c-11.976 0-20.958-11.15-20.958-22.3v-638.328c0-11.149 8.982-19.51 20.958-19.51h161.676c11.978 0 20.96 8.362 20.96 19.51v638.328c2.992 11.15-8.982 22.3-20.96 22.3zM330.659 657.726v-27.874h-134.731v27.874h134.731zM195.928 610.339h131.736v-242.509h-131.736v242.509zM261.796 167.133c-44.91 0-77.844 33.45-77.844 72.477 0 41.811 35.928 72.474 77.844 72.474s77.845-33.45 77.845-72.474c2.992-39.027-32.935-72.477-77.845-72.477zM606.074 800h-161.677c-11.978 0-20.96-8.362-20.96-19.512v-685.713c0-11.152 8.982-19.514 20.96-19.514h161.677c11.974 0 20.957 8.362 20.957 19.514v685.713c2.995 11.15-8.982 19.512-20.957 19.512zM591.101 758.188v-52.962h-131.734v52.962h131.734zM459.366 610.454h131.734v-242.509h-131.734v242.509zM459.366 632.752v50.175h131.734v-50.175h-131.734zM525.235 167.248c-44.912 0-77.846 33.45-77.846 72.474 0 41.811 35.93 72.474 77.846 72.474 44.909 0 77.843-33.45 77.843-72.474 2.995-39.024-32.934-72.474-77.843-72.474zM869.571 752.5h-161.677c-11.974 0-20.957-8.362-20.957-19.512v-638.329c0-11.149 8.982-19.51 20.957-19.51h161.677c11.978 0 20.96 8.362 20.96 19.51v635.541c2.992 11.15-8.982 22.3-20.96 22.3zM722.867 582.464h131.734v-217.421h-131.734v217.421zM776.758 657.726v-52.962h-53.891v52.962h53.891zM788.733 167.133c-44.909 0-77.843 33.45-77.843 72.477 0 41.811 35.93 72.474 77.843 72.474 44.912 0 77.846-33.45 77.846-72.474 2.992-39.027-32.934-72.477-77.846-72.477zM827.658 435.002h-77.846v-22.301h77.846v22.301z" />
<glyph unicode="&#xe906;" glyph-name="close" d="M176.785 18.33l760.282 760.283c29.622 29.622 29.622 75.699 0 105.321s-75.697 29.621-105.318 0l-760.284-760.28c-29.621-29.622-29.62-75.702 0.001-105.323 29.622-29.617 75.698-29.622 105.319 0zM918.305 123.788l-760.28 760.279c-29.622 29.622-75.699 29.622-105.321 0s-29.621-75.699 0-105.321l760.283-760.282c29.622-29.622 75.697-29.622 105.318 0s29.622 75.702 0 105.323z" />
<glyph unicode="&#xe907;" glyph-name="coffe" d="M733.725 262.355c14.97 36.237 32.934 0 92.813 2.787 80.838 2.787 137.725 61.325 125.75 133.798-23.952 128.224-155.69 80.835-158.682 114.285-2.995 58.538-35.93 94.774-86.829 94.774s-395.209 0-458.084 0c-104.791 0-89.821-80.835-95.809-119.859-5.988-41.814 20.958-170.035 68.862-231.36 59.88-75.261 170.659-136.586 131.738-136.586s-143.712 0-257.485 0c20.958-36.237 68.862-72.474 152.694-72.474 128.743 0 275.45 0 458.084 0 137.725 0 143.712 72.474 143.712 72.474s-158.682 0-239.52 0c-80.838 0 80.838 44.598 122.755 142.16zM832.528 432.39c29.939 0 53.891-22.301 53.891-50.173 0-27.875-23.952-50.176-53.891-50.176-29.942 0-53.894 22.301-53.894 50.176 0 27.872 23.952 50.173 53.894 50.173zM302.586 315.318c-11.976 27.872-29.94 64.109-35.929 125.434-8.982 86.413 65.871 89.2 77.845 55.75 11.978-33.45 26.947-100.349 32.934-153.312 17.965-125.434-62.875-55.747-74.851-27.872zM521.13 766.925c-8.982 50.174-107.782 89.198-83.83 47.387s23.952-94.773-5.99-150.523c-32.934-58.538 14.97-105.923 14.97-105.923 2.995 94.773 92.816 100.348 74.851 209.059zM533.11 507.776c0 0 41.917 27.875 26.947 61.325-17.965 33.45-8.982 47.386-2.995 83.624 2.995 27.875-56.886-13.937-53.891-55.748s32.934-30.662 29.939-89.2z" />
<glyph unicode="&#xe908;" glyph-name="copy" d="M320.366 870.4c-11.129 0-18.665-7.536-18.665-18.666v-595.386c0-11.131 7.536-18.668 18.665-18.668h595.387c9.226 0 18.662 9.441 18.662 18.668v595.386c0 11.13-7.532 18.666-18.662 18.666h-595.387zM224.9 851.734c0 53.545 41.921 95.466 95.465 95.466h595.387c53.545 0 95.462-41.921 95.462-95.466v-595.386c0-51.645-43.822-95.468-95.462-95.468h-595.387c-53.545 0-95.465 41.923-95.465 95.468v595.386zM108.266 658.4c-11.13 0-18.666-7.537-18.666-18.666v-595.385c0-11.131 7.536-18.668 18.666-18.668h595.386c9.226 0 18.668 9.441 18.668 18.668v595.385c0 11.129-7.537 18.666-18.668 18.666h-595.386zM12.8 639.734c0 53.545 41.921 95.466 95.466 95.466h595.386c53.545 0 95.468-41.921 95.468-95.466v-595.385c0-51.645-43.822-95.468-95.468-95.468h-595.386c-53.545 0-95.466 41.923-95.466 95.468v595.385z" />
<glyph unicode="&#xe909;" glyph-name="heart" d="M913.651 627.229c-12.627 55.028-41.040 97.108-85.238 129.477-28.413 19.422-59.981 32.369-94.707 38.843-25.258 3.237-47.357 3.237-69.453 0-63.139-12.948-110.496-45.317-142.064-100.345-3.158-6.474-9.472-16.185-12.627-22.659l-3.158-6.474h-3.155l-6.317 12.948c-9.469 22.659-22.096 38.844-37.882 55.028-34.726 35.606-78.925 58.265-129.437 64.739-28.411 3.237-53.667 0-82.079-9.711-53.668-16.185-94.709-48.554-123.121-97.108-15.785-29.132-25.256-61.503-28.412-93.871 0-16.186 0-35.606 0-51.792 3.157-19.421 6.314-38.842 12.628-58.266 12.628-45.315 34.726-90.634 69.453-135.952 28.413-42.080 59.982-77.686 101.022-116.528 22.099-22.659 47.355-45.318 72.609-64.739 41.040-35.606 85.238-67.974 135.75-100.346 6.314-3.235 15.786-6.474 22.099-6.474s15.782 3.238 22.099 6.474c44.195 29.133 82.080 55.027 116.806 84.16 47.354 38.845 88.394 77.686 123.12 113.293 22.099 25.898 44.198 48.554 59.984 74.451 25.254 35.606 47.354 71.213 59.981 110.054 18.941 45.318 25.254 84.163 25.254 129.478 3.158 12.947 0 29.133-3.155 45.318z" />
<glyph unicode="&#xe90a;" glyph-name="heart-stroke" d="M499.392 648.934c-1.203 2.408-1.949 4.357-2.586 6.021-1.030 2.695-1.776 4.645-3.725 6.595-9.462 15.77-22.077 31.54-34.694 47.311-34.694 31.54-72.541 50.465-119.85 56.773-25.234 3.154-50.468 0-72.546-6.308-47.311-12.616-85.159-41.003-110.392-85.159-15.77-25.232-22.080-50.465-25.234-78.852-3.154-15.77-3.154-31.539 0-47.309 3.154-18.925 6.309-34.698 12.617-53.619 15.77-44.157 37.848-88.314 66.235-126.163 28.38-40.992 63.068-75.68 97.754-110.368l0.025-0.022c7.598-6.515 15.196-13.398 22.921-20.403 14.726-13.344 29.917-27.114 46.467-39.526 44.157-34.694 88.314-66.234 135.626-94.621 6.307-6.307 12.614-3.155 18.922 0 37.85 25.232 75.699 50.464 113.546 78.851 44.157 34.694 85.162 69.389 123.008 110.394 22.080 22.077 41.005 44.157 59.93 69.389 25.232 31.539 44.154 63.082 59.923 100.928 15.77 37.85 25.235 75.699 25.235 119.856 0 12.614-3.152 25.232-6.307 34.694-12.618 47.31-34.694 85.158-75.699 113.545-25.232 18.924-53.619 31.54-85.162 34.695-18.925 3.154-40.998 3.154-59.923 0-53.619-12.616-97.776-41.003-126.163-88.314-6.307-9.462-12.614-18.924-15.77-28.387-3.152-9.462-12.618-12.618-22.080-12.618s-18.922 3.155-22.077 12.618zM519.037 680.453c0.89-1.117 1.68-2.221 2.381-3.293 3.584 6.396 7.389 12.092 10.419 16.627 0.154 0.23 0.304 0.457 0.454 0.68 33.536 55.455 85.478 88.109 145.862 102.316l1.027 0.242 1.040 0.173c22.064 3.677 47.251 3.734 69.411 0.17 37.686-3.982 70.976-19.071 99.651-40.466 48.035-33.442 73.565-78.097 87.654-130.343 3.61-11.034 7.635-26.899 7.635-43.859 0-49.178-10.637-91.222-27.696-132.163-16.89-40.534-37.274-74.544-64.16-108.221-19.53-26.003-39.222-48.995-62.15-71.965-39.418-42.627-81.805-78.403-126.32-113.379l-0.282-0.221-0.288-0.218c-38.566-28.925-77.037-54.573-114.688-79.674l-1.965-1.309-1.779-0.89c-0.138-0.070-0.31-0.157-0.512-0.259-2.589-1.328-10.355-5.302-19.293-6.419-11.462-1.434-22.909 1.658-32.394 9.363-47.706 28.8-92.118 60.589-136.157 95.178-17.546 13.19-34.861 28.858-50.185 42.726-7.37 6.672-14.28 12.925-20.534 18.285l-0.933 0.8-1.786 1.786c-33.977 33.974-70.238 70.237-100.199 113.389-30.501 40.794-53.848 87.754-70.405 134.112l-0.115 0.32-0.108 0.323c-7.014 21.043-10.496 38.563-13.743 57.994-3.785 19.27-3.841 38.65-0.17 57.923 3.509 30.592 10.771 60.357 29.415 90.404 29.486 51.288 74.205 84.811 129.345 99.586 25.306 7.197 54.83 10.99 85.033 7.214l0.259-0.032c54.298-7.239 98.058-29.277 137.149-64.815l1.878-1.707 2.266-2.832c11.571-14.464 24.618-30.77 34.979-47.547z" />
<glyph unicode="&#xe90b;" glyph-name="heart-stroke-md" d="M703.843 776.064c16.416 2.627 35.811 2.58 52.122-0.14l0.874-0.146 0.88-0.088c26.835-2.684 51.574-13.428 74.406-30.552l0.41-0.308 0.422-0.292c35.885-24.843 55.648-57.789 67.434-101.981l0.211-0.798 0.262-0.783c2.803-8.416 5.123-18.336 5.123-27.28 0-41.354-8.781-76.886-23.971-113.35-15.283-36.675-33.507-67.069-58.026-97.718l-0.266-0.33-0.253-0.339c-18.835-25.114-37.546-46.928-59.363-68.742l-0.381-0.384-0.365-0.397c-37.581-40.71-78.541-75.453-123.594-110.861-36.678-27.491-73.424-52.128-110.787-77.043-45.994 27.898-89.283 58.89-132.87 93.136l-0.24 0.189-0.24 0.182c-16.202 12.147-30.147 24.806-44.666 37.984-7.942 7.213-16.058 14.576-24.806 22.099-35.821 35.824-69.603 69.786-97.112 109.52l-0.292 0.419-0.307 0.41c-27.313 36.419-48.901 79.382-64.456 122.861-5.808 17.482-8.775 32.134-11.917 50.986l-0.072 0.432-0.086 0.429c-2.559 12.784-2.559 25.462 0 38.243l0.23 1.152 0.13 1.168c2.988 26.894 8.695 48.611 22.111 70.075l0.282 0.452 0.264 0.462c22.422 39.239 55.514 64.034 97.481 75.225l0.23 0.061 0.229 0.065c19.992 5.711 42.293 8.396 64.022 5.696 42.205-5.648 75.85-22.106 107.478-50.411 12.736-15.928 24.019-30.224 32.381-44.157l1.709-2.85 0.288-0.289c0.189-0.49 0.416-1.073 0.666-1.698 0.554-1.383 1.229-2.989 2.086-4.8 9.517-25.051 34.557-29.522 47.709-29.522 13.482 0 39.482 4.701 48.41 31.487 1.888 5.661 6.074 12.281 13.133 22.867l0.355 0.534 0.333 0.551c24.822 41.373 63.376 66.845 112.397 78.573zM763.974 829.332c-22.272 3.605-47.69 3.557-69.875-0.144l-0.877-0.146-0.867-0.204c-61.059-14.367-113.219-47.275-146.87-102.994-0.15-0.224-0.301-0.451-0.454-0.68-4.874-7.299-11.328-16.965-15.93-27.54-0.218 0.571-0.493 1.277-0.867 2.213-1.12 2.807-2.954 6.957-6.47 11.292-10.525 17.104-23.891 33.81-35.987 48.93l-1.939 2.424-1.584 1.44c-39.526 35.935-83.594 58.098-138.33 65.396l-0.214 0.028c-30.249 3.784-59.919-0.015-85.435-7.277-55.449-14.846-100.321-48.486-129.959-100.089-18.709-30.116-26.023-59.996-29.578-91.146-3.696-19.238-3.648-38.573 0.144-57.811 3.334-19.955 6.866-37.715 13.974-59.040l0.091-0.272 0.097-0.272c16.945-47.443 40.809-95.398 71.9-136.957 30.633-44.144 67.772-81.283 102.972-116.48l1.522-1.523 0.787-0.675c6.702-5.744 13.971-12.323 21.655-19.28 15.722-14.23 33.185-30.038 51.105-43.504 45.459-35.706 91.235-68.461 140.381-98.102 8.589-7.117 18.89-9.91 29.203-8.621 8.099 1.011 15.206 4.63 17.939 6.022 0.211 0.109 0.397 0.202 0.557 0.282l1.504 0.752 1.61 1.075c38.922 25.946 78.538 52.355 118.234 82.128l0.243 0.182 0.24 0.186c45.885 36.054 89.382 72.784 129.782 116.49 23.51 23.542 43.699 47.107 63.744 73.808 27.45 34.365 48.214 69.011 65.44 110.352 17.37 41.686 28.128 84.301 28.128 134.122 0 16.701-3.994 32.47-7.632 43.557-14.266 52.998-39.971 97.819-88.24 131.391-28.947 21.618-62.394 36.732-100.141 40.687z" />
<glyph unicode="&#xe90c;" glyph-name="hidden" d="M39.874 634.589c9.279 7.955 22.977 7.071 31.373-2.208 1.325-2.208 175.864-200.166 440.542-200.166 264.237 0 439.219 197.958 440.986 200.166 7.952 9.279 22.093 10.163 31.373 2.208 9.28-7.952 10.163-22.093 2.208-31.37-3.091-3.978-39.325-44.63-101.629-89.702l52.582-91.024c6.186-10.605 2.653-24.304-7.952-30.048-3.536-2.208-7.072-3.091-11.050-3.091-7.51 0-15.021 3.978-18.998 11.046l-51.258 88.374c-23.859-15.024-50.374-29.606-79.094-43.306l35.792-98.534c3.978-11.488-1.77-24.304-13.258-28.282-2.65-0.883-4.861-1.325-7.51-1.325-8.838 0-17.674 5.744-20.768 14.582l-34.909 96.326c-23.859-9.277-49.488-17.232-76-23.859l18.115-102.957c2.211-11.93-5.744-23.418-18.115-25.629-1.325-0.442-2.653-0.442-3.978-0.442-10.605 0-19.885 7.514-21.651 18.118l-18.115 102.070c-23.862-3.978-48.608-6.627-74.237-7.51v-104.282c0-12.374-9.718-22.093-22.093-22.093-12.371 0-22.093 9.718-22.093 22.093v104.723c-25.629 0.883-50.374 3.533-74.675 7.51l-18.118-102.070c-1.766-10.605-11.046-18.118-21.651-18.118-1.325 0-2.65 0-3.978 0.442-11.93 2.211-19.882 13.699-18.115 25.629l18.115 102.957c-26.95 6.627-52.139 14.582-75.999 23.859l-35.349-96.326c-3.093-8.838-11.489-14.582-20.768-14.582-2.651 0-4.86 0.442-7.512 1.325-11.489 4.419-17.233 16.794-13.256 28.282l35.791 98.538c-29.164 13.254-55.676 28.278-79.095 43.302l-51.257-88.374c-3.977-7.069-11.489-11.046-19-11.046-3.977 0-7.512 0.883-11.047 3.094-10.605 6.186-14.14 19.44-7.954 30.045l52.582 91.024c-62.746 45.072-98.537 85.725-101.63 89.702-7.954 8.835-6.628 22.976 2.651 30.928z" />
<glyph unicode="&#xe90d;" glyph-name="info-round" d="M512-10.105c-253.005 0-458.105 205.102-458.105 458.105 0 253.005 205.101 458.105 458.105 458.105 253.003 0 458.105-205.101 458.105-458.105 0-253.003-205.102-458.105-458.105-458.105zM512-64c282.77 0 512 229.23 512 512s-229.23 512-512 512c-282.77 0-512-229.23-512-512s229.23-512 512-512zM449.394 348.009c0 28.025 6.198 51.2 18.594 69.524 12.935 18.324 31.528 38.534 55.781 60.631 17.787 16.168 30.722 29.642 38.806 40.421 8.623 11.318 12.935 23.983 12.935 37.996 0 19.941-8.084 35.571-24.253 46.888-15.632 11.857-36.651 17.785-63.059 17.785-25.331 0-47.966-5.389-67.907-16.168-19.402-10.24-35.84-24.792-49.314-43.655l-97.819 57.398c22.636 34.493 53.086 61.171 91.352 80.034 38.804 18.863 84.615 28.295 137.432 28.295 61.981 0 111.564-13.204 148.752-39.613 37.726-26.408 56.589-63.057 56.589-109.945 0-22.097-3.773-41.499-11.318-58.206-7.006-16.707-15.899-30.989-26.678-42.846-10.24-11.318-23.714-24.522-40.421-39.613-19.941-17.785-34.493-32.875-43.655-45.271-9.162-11.857-13.743-26.408-13.743-43.655h-122.074zM510.834 145.095c-22.097 0-40.691 7.006-55.781 21.019-14.552 14.552-21.827 32.067-21.827 52.547s7.276 37.457 21.827 50.931c14.552 14.013 33.145 21.019 55.781 21.019s41.232-7.006 55.783-21.019c14.552-13.474 21.827-30.451 21.827-50.931s-7.545-37.996-22.636-52.547c-14.552-14.013-32.878-21.019-54.975-21.019z" />
<glyph unicode="&#xe90e;" glyph-name="message" d="M87.282 816.64h816.787c10.473 0 20.947 0 27.927-3.445l-404.902-378.952c-10.473-10.335-20.943-13.78-31.416-13.78-10.469 0-20.943 6.89-31.416 13.78l-404.901 378.952c3.138 0 6.98 0.696 11.211 1.462 5.182 0.939 10.946 1.983 16.71 1.983zM0 727.065c0 13.78 0.003 27.56 6.984 37.895l411.882-382.398c24.433-20.668 52.359-31.003 80.286-31.003 27.922 0 59.339 10.334 80.282 31.003l411.881 382.398c3.494-10.335 6.984-24.115 6.984-37.895v-554.648c0-48.23-41.89-89.571-90.755-89.571h-816.785c-48.868 0-90.758 41.341-90.758 89.571v554.648z" />
<glyph unicode="&#xe90f;" glyph-name="message-stroke" d="M738.861 687.555l-223.613-207.238-223.614 207.238h447.227zM834.304 736h-638.115c-8.181 0-16.36-2.692-21.814-2.692l316.329-296.057c8.182-5.382 16.365-10.765 24.544-10.765 8.182 0 16.362 2.691 24.544 10.765l316.33 296.057c-5.453 2.692-13.635 2.692-21.818 2.692zM174.361 590.784l245.428-228.771c24.544-24.221 59.994-37.68 95.446-37.68 35.45 0 68.173 13.459 95.443 37.68l245.43 228.771v-357.958c0-10.765-10.912-21.53-21.818-21.53h-638.116c-10.908 0-21.814 10.765-21.814 21.53v357.958zM133.456 695.75c-5.454-8.074-5.456-18.84-5.456-29.606v-433.319c0-37.68 32.726-69.978 70.904-69.978h638.113c38.176 0 70.902 32.298 70.902 69.978v433.319c0 10.766-2.726 21.532-5.456 29.606l-321.782-298.748c-16.362-16.147-40.906-24.221-62.72-24.221-21.818 0-43.635 8.074-62.723 24.221l-321.782 298.748z" />
<glyph unicode="&#xe910;" glyph-name="office-furniture" d="M316.066 960h355.772c52.592 0 58.778-117.559 58.778-170.151v-262.959c0-52.592-6.186-133.029-58.778-133.029h-355.772c-52.592 0-58.779 80.437-58.779 133.029v262.959c0 52.592 6.187 170.151 58.779 170.151zM300.598 372.224h383.612c24.75 0 43.311-18.565 43.311-43.311v-40.22c0-24.747-18.561-43.311-43.311-43.311h-383.612c-24.749 0-43.311 18.565-43.311 43.311v40.22c0 24.747 18.562 43.311 43.311 43.311zM235.632 353.671v225.838c0 18.562-15.468 30.936-30.936 30.936-18.562 0-30.937-15.468-30.937-30.936v-225.838c0-18.561 15.468-30.936 30.937-30.936s30.936 15.47 30.936 30.936zM817.243 353.671v225.838c0 18.562-15.466 30.936-30.936 30.936-18.561 0-30.936-15.468-30.936-30.936v-225.838c0-18.561 15.466-30.936 30.936-30.936s30.936 15.47 30.936 30.936zM464.558 220.592h61.873v-74.248c9.281 0 15.468-9.28 15.468-15.47v-68.058h210.368c21.656 0 40.217-18.561 40.217-40.217v-3.095c12.375-9.28 18.565-21.656 18.565-37.126 0-24.747-21.656-46.402-46.406-46.402s-46.406 21.656-46.406 46.402c0 6.19 0 9.284 3.095 15.47h-173.245c0-6.186 3.094-9.28 3.094-15.47 0-24.747-21.656-46.402-46.405-46.402s-46.405 21.656-46.405 46.402c0 6.19 0 9.284 3.094 15.47h-185.619c0-6.186 3.094-9.28 3.094-15.47 0-24.747-21.655-46.402-46.405-46.402s-46.405 21.656-46.405 46.402c0 15.47 6.187 27.845 18.562 37.126v3.095c0 21.656 18.562 40.217 40.217 40.217h204.181v64.967c0 9.28 6.187 15.466 15.468 15.466v77.342z" />
<glyph unicode="&#xe911;" glyph-name="phone" d="M837.847 483.722c0-17.638-14.111-32.924-32.927-32.924-17.638 0-32.924 14.108-32.924 32.924-1.175 103.478-67.026 195.197-164.623 230.473-17.638 5.879-25.869 24.694-19.991 42.332 5.88 17.638 24.694 25.87 42.332 19.99 123.469-44.684 206.956-162.271 208.133-292.796zM717.965 275.781c17.638-12.936 25.869-35.277 19.991-56.443-7.055-24.694-17.638-48.212-31.749-70.554l-1.178-1.175-2.35-4.705-1.178-2.35-1.175-1.178-1.175-1.175-1.178-1.175-1.175-1.178-3.528-2.35-1.175-1.178-1.178-1.175-1.175-1.175-1.175-1.178-4.705-2.35-2.35-3.528-23.519-11.761v1.178l-2.353-1.178-1.175-1.175h-2.353l-4.703-2.353h-4.703l-14.111-3.528h-37.629l-18.813 4.705c-268.104 57.618-438.606 321.016-382.164 587.942l1.176 4.705 5.88 23.517 16.462 32.925 4.703 7.055 4.704 9.407 9.407 9.407 39.979 19.99h11.761c25.869 3.528 51.738 3.528 77.609 0 22.341-2.352 38.804-18.814 43.507-41.156 3.528-16.462 4.703-31.749 4.703-48.211l1.178-51.738c1.175-29.399-14.111-57.618-38.804-74.081l-64.676-42.332c14.111-112.886 78.787-214.011 177.559-272.806l64.676 41.157c24.694 16.461 56.443 18.813 83.487 5.878l47.035-22.341c9.408-4.703 23.519-12.936 37.629-22.341zM684.995 481.58c0-17.638-14.111-32.924-32.924-32.924-17.638 0-32.927 14.111-32.927 32.924 0 38.804-25.869 74.081-62.321 87.017-17.638 5.878-25.871 24.694-19.991 42.332s24.694 25.869 42.332 19.988c62.323-22.341 104.653-82.312 105.83-149.338z" />
<glyph unicode="&#xe912;" glyph-name="phone-round" d="M928.682 463.661c0-238.778-193.565-432.342-432.342-432.342-238.774 0-432.339 193.565-432.339 432.342 0 238.774 193.565 432.339 432.339 432.339 238.778 0 432.342-193.565 432.342-432.339zM330.211 683.574c-34.041-27.915-62.637-59.235-63.317-108.256 0.756-3.779 1.407-7.715 2.069-11.725 1.724-10.429 3.527-21.331 7.462-31.168 56.512-138.893 153.872-235.574 294.81-287.318 55.827-20.426 104.851-2.723 142.976 42.893 10.896 12.256 12.938 23.149 0.682 35.405-7.917 7.917-15.91 15.837-23.93 23.779-16.112 15.962-32.33 32.026-48.24 48.39-12.934 13.616-25.19 11.574-37.446-1.363-11.574-12.253-23.83-24.509-36.086-36.083-21.104-18.384-37.446-21.789-57.872-3.405-42.211 37.446-83.062 76.938-121.19 118.467-20.426 22.47-17.021 39.491 4.765 62.64 11.574 12.256 23.83 24.509 36.086 36.083s12.256 23.83 0.682 35.405h-0.003c-24.509 25.194-49.021 50.384-74.893 74.213-5.446 4.766-21.104 6.128-26.554 2.043z" />
<glyph unicode="&#xe913;" glyph-name="play" d="M916.36 524.209l-735.825 424.393c-57.761 32.646-129.335-8.789-129.335-74.080v-848.787c0-66.547 71.574-107.981 129.335-74.079l735.825 424.392c57.761 32.645 57.761 115.516 0 148.161z" />
<glyph unicode="&#xe914;" glyph-name="print" d="M193.085 930.493c-12.583-5.641-26.034-19.525-31.675-31.675l-4.773-10.847-0.868-347.986h-26.468c-31.674 0-43.389-2.17-63.349-11.716-19.092-9.112-42.956-32.108-52.936-51.2-13.017-24.732-13.017-22.562-13.017-177.032 0-92.416 0.868-141.88 2.169-144.486 5.207-9.544 9.546-9.979 84.176-9.979h69.424l0.868-55.107c0.434-54.236 0.434-55.107 6.075-66.386 6.508-13.885 17.789-25.6 30.373-31.242l9.546-4.337h618.305l9.544 4.337c12.15 5.642 25.6 19.092 31.242 31.242 3.907 8.678 4.342 13.015 4.772 65.521l0.435 55.972 143.621 0.865 6.508 6.943 6.943 6.508v139.284c0 128.433 0 140.149-3.907 152.297-6.072 21.261-15.186 36.448-32.108 53.804-26.035 26.034-49.9 34.712-95.892 34.712h-25.165l-0.435 89.817c-0.865 87.647-0.865 90.251-5.637 104.135-12.585 37.749-19.963 48.163-81.142 109.776-54.671 55.105-68.557 66.386-96.758 78.102-31.677 13.017-17.357 12.583-259.906 12.583-213.044 0-221.722 0-229.966-3.905zM628.721 799.456c0.865-64.217 0.865-65.519 16.486-82.007 16.486-17.79 17.357-18.224 83.308-18.658l58.143-0.434v-236.041h-551.050v393.979h392.243l0.87-56.841zM915.092 459.714c12.58-3.471 23.864-14.319 27.336-26.468 3.471-13.017 1.736-27.767-4.342-34.28-7.808-8.678-23.864-15.186-37.315-15.186-10.844 0-12.58 0.435-20.393 7.813-18.222 16.051-19.092 38.182-3.036 57.707 10.414 11.716 20.393 14.753 37.75 10.414zM786.222 146.437v-78.966h-550.615v157.937h550.185v-78.971h0.43z" />
<glyph unicode="&#xe915;" glyph-name="screen" d="M825.866 768h-644.774c-12.052 0-21.091-8.262-21.091-19.279v-451.672c0-11.018 9.039-19.28 21.091-19.28h235.011v-77.114h-156.675c-12.052 0-15.065-5.507-21.091-16.525l-63.272-68.851c0-11.018-6.026-19.28 6.026-19.28h644.774c12.051 0 12.054 8.262 12.054 19.28l-69.299 68.851c-9.040 13.77-9.040 16.525-21.091 16.525h-168.726v74.362h247.062c12.051 0 21.091 8.262 21.091 19.277v454.427c3.014 11.016-9.040 19.279-21.091 19.279zM768.621 387.936c0-8.262-9.040-13.773-18.080-13.773h-497.139c-9.039 0-18.077 5.51-18.077 13.773v286.425c0 8.262 9.038 13.771 18.077 13.771h497.139c9.040 0 18.080-5.508 18.080-13.771v-286.425z" />
<glyph unicode="&#xe916;" glyph-name="search" d="M239.056 543.258c0 98.134 79.553 177.686 177.686 177.686 98.131 0 177.683-79.552 177.683-177.686 0-98.131-79.552-177.683-177.683-177.683-98.134 0-177.686 79.552-177.686 177.683zM416.742 832c-159.468 0-288.742-129.274-288.742-288.742 0-159.466 129.274-288.739 288.742-288.739 59.712 0 115.19 18.125 161.235 49.174l237.718-235.133c21.802-21.568 56.96-21.376 78.528 0.429 21.565 21.802 21.373 56.96-0.432 78.528l-237.325 234.746c30.95 45.997 49.014 101.386 49.014 160.995 0 159.469-129.274 288.742-288.739 288.742z" />
<glyph unicode="&#xe917;" glyph-name="share" d="M959.917 784.010c0-79.524-64.464-143.99-143.987-143.99-43.654 0-82.771 19.426-109.178 50.105l-327.658-204.785c3.187-11.907 4.886-24.419 4.886-37.331 0-12.832-1.68-25.277-4.832-37.117l327.741-204.838c26.403 30.589 65.459 49.946 109.040 49.946 79.523 0 143.987-64.467 143.987-143.99s-64.464-143.99-143.987-143.99c-79.526 0-143.99 64.467-143.99 143.99 0 12.922 1.702 25.446 4.893 37.36l-327.645 204.778c-26.406-30.691-65.533-50.128-109.197-50.128-79.524 0-143.99 64.467-143.99 143.99s64.467 143.99 143.99 143.99c43.588 0 82.653-19.366 109.056-49.968l327.728 204.83c-3.155 11.851-4.835 24.303-4.835 37.148 0 79.523 64.464 143.99 143.99 143.99 79.523 0 143.987-64.467 143.987-143.99z" />
<glyph unicode="&#xe918;" glyph-name="smartphone" d="M291 449.413c0 115.297 0 229.663 0 344.96 0 14.877 3.791 28.824 12.321 41.841 10.427 13.947 23.695 21.386 42.652 21.386 105.208 0 210.419 0 315.628 0 25.592 0 44.547-15.807 52.129-37.192 2.844-8.368 4.741-16.737 4.741-26.035 0-230.592 0-462.116 0-692.708 0-14.879-3.791-27.896-12.324-40.914-10.424-13.947-23.695-22.316-41.702-22.316-83.41 0-166.82 0-250.227 0-21.801 0-43.599 0.932-66.348 0-25.592-0.929-44.549 15.808-52.132 36.265-2.844 8.366-4.739 17.664-4.739 26.964 0 117.156 0 232.451 0 347.748zM316.593 789.724c-1.897-30.684-0.95-639.71 0.947-649.008 122.268 0 244.539 0 366.81 0 1.894 0 4.739 0 6.636 0h0.947l0.947 0.929c1.897 33.475 0.947 637.851-0.947 648.079-125.115 0-250.227 0-375.34 0zM474.88 91.436c-0.95-20.454 15.163-29.752 30.328-30.684 16.115-0.929 31.281 14.879 31.281 30.684-0.95 17.667-16.115 29.755-30.331 29.755-18.010 0-33.175-15.808-31.278-29.755zM447.391 825.987c3.791-5.579 9.48-6.509 15.165-6.509 28.436 0 55.923 0 84.357 0 1.897 0 3.791 0 5.688 0 3.791 0.93 8.53 1.86 8.53 6.509-1.897 3.719-5.688 5.579-10.427 5.579-31.278 0-61.609 0-92.887 0-4.739 0.93-7.583-0.93-10.427-5.579zM51.2 457.733c1.896 50.209 14.217 97.631 38.861 141.332 11.374 20.454 25.591 38.121 41.704 54.858 5.687 5.578 13.27 7.439 21.8 5.578 4.739-0.929 8.53-4.649 9.478-10.227 0.948-6.51 0-13.018-3.791-17.667-6.635-7.439-13.27-15.808-18.957-23.245-21.8-26.964-36.017-57.649-44.548-91.121-8.53-27.896-9.478-57.649-6.635-87.404 2.844-36.262 15.165-69.737 34.122-100.419 9.478-15.808 19.904-29.755 33.174-43.702 4.739-5.578 8.53-11.159 7.582-18.596-0.948-11.159-10.426-15.808-18.009-13.947-4.739 0.929-9.478 2.788-14.217 6.508-13.27 13.947-25.592 28.826-35.070 44.631-12.322 19.525-22.748 39.982-29.383 62.298-6.635 20.454-12.322 40.911-13.27 62.298-0.948 9.298-1.896 19.525-2.843 28.823zM40.95 457.569l0.027 0.714c1.951 51.676 14.651 100.705 40.159 145.948 11.924 21.44 26.747 39.803 43.262 56.957l0.203 0.212 0.003-0.003c8.477 8.315 19.696 10.744 31.056 8.294 9.055-1.825 15.869-9.004 17.489-18.54l0.040-0.238h-0.003c1.184-8.128 0.272-17.938-5.989-25.615l-0.143-0.174-0.151-0.169c-6.384-7.158-12.839-15.293-18.463-22.648l-0.169-0.223-0.003 0.003c-20.744-25.659-34.367-54.956-42.588-87.212l-0.060-0.236-0.071-0.23c-8.004-26.173-9.002-54.469-6.234-83.433l0.016-0.174h-0.001c2.697-34.394 14.386-66.317 32.625-95.839l0.071-0.115h-0.001c9.111-15.194 19.086-28.534 31.811-41.91l0.199-0.207 0.187-0.22c4.871-5.734 11.406-14.282 9.962-26.309-1.628-17.736-17.367-25.907-30.38-22.871-6.062 1.219-12.264 3.681-18.352 8.461l-0.585 0.458-0.512 0.538c-13.53 14.221-26.375 29.673-36.372 46.323-12.595 19.973-23.468 41.224-30.44 64.622-6.644 20.498-12.658 41.91-13.707 64.589-0.467 4.585-0.933 9.388-1.396 14.159l-0.001 0.013c-0.474 4.887-0.946 9.743-1.417 14.364l-0.072 0.709zM67.323 366.776c6.635-22.316 17.061-42.77 29.383-62.298 9.478-15.805 21.8-30.684 35.070-44.631 4.739-3.717 9.478-5.578 14.217-6.508 7.583-1.861 17.061 2.79 18.009 13.947 0.948 7.439-2.843 13.018-7.583 18.596-13.27 13.947-23.696 27.894-33.174 43.702-18.957 30.684-31.278 64.156-34.122 100.419-2.843 29.755-1.896 59.51 6.635 87.404 8.53 33.472 22.748 64.156 44.548 91.121 5.687 7.439 12.322 15.808 18.957 23.245 3.791 4.649 4.739 11.159 3.791 17.667-0.948 5.578-4.739 9.298-9.478 10.227-8.53 1.861-16.113 0-21.8-5.578-16.113-16.737-30.331-34.401-41.705-54.858-24.643-43.702-36.965-91.121-38.861-141.332 0.474-4.649 0.948-9.528 1.422-14.41s0.948-9.764 1.422-14.413c0.948-21.386 6.635-41.841 13.27-62.298zM957.373 457.472c0-39.050-7.583-77.174-23.695-113.436-13.271-30.684-31.278-57.649-54.976-81.823-2.842-2.79-6.633-6.51-11.374-7.439-8.53-2.788-14.216-1.859-19.904 3.72-3.791 3.72-3.791 13.947-0.947 19.525 1.897 3.72 4.739 6.51 7.583 9.298 31.278 34.404 52.129 74.386 61.609 119.946 5.686 26.035 5.686 52.070 3.791 77.174-1.897 26.035-9.48 50.212-19.904 74.386-10.427 23.245-24.645 44.631-41.705 64.156-2.844 3.72-5.688 6.51-8.53 10.23-4.739 5.578-4.739 11.156-3.791 17.664 0.947 5.581 5.686 9.3 10.424 9.3 7.583 0.929 14.218-0.932 19.907-6.51 6.633-7.439 13.268-13.947 19.904-21.386 27.487-34.401 45.496-72.525 54.973-115.295 4.739-19.528 7.583-39.053 6.636-59.51zM885.865 255.063v0.003c-0.123-0.12-0.256-0.251-0.397-0.392-2.524-2.496-8.008-7.921-15.498-9.641-4.972-1.569-10.184-2.417-15.501-1.452-5.696 1.037-10.312 3.924-14.226 7.764-4.785 4.692-5.883 11.558-6.026 16.049-0.156 4.954 0.724 10.724 3.126 15.437 2.668 5.23 6.551 9.034 9.221 11.651 0.036 0.033 0.069 0.069 0.105 0.102 29.983 33.050 49.892 71.314 58.964 114.926l0.020 0.1c5.389 24.668 5.445 49.597 3.584 74.217v0.028c-1.782 24.468-8.916 47.46-19.067 71.004-9.958 22.185-23.578 42.703-40.041 61.545l-0.22 0.251-0.205 0.266c-1.188 1.554-2.396 2.941-3.84 4.595l-0.074 0.084c-1.339 1.531-2.89 3.308-4.465 5.35-7.45 8.924-7.017 18.173-5.939 25.559l0.033 0.241h0.003c1.72 10.115 10.23 17.469 19.825 17.81 10.145 1.108 19.779-1.585 27.773-9.426l0.243-0.241 0.228-0.253c3.19-3.576 6.395-6.948 9.728-10.45l0.049-0.054c3.287-3.453 6.7-7.040 10.127-10.883l0.184-0.207 0.174-0.218c28.46-35.62 47.132-75.144 56.95-119.37 4.854-20.027 7.869-40.461 6.899-62.060-0.031-40.31-7.88-79.759-24.558-117.315-13.763-31.805-32.468-59.809-57.039-84.879l-0.141-0.143zM933.668 344.197c16.113 36.262 23.695 74.386 23.695 113.439 0.947 20.454-1.897 39.982-6.636 59.507-9.477 42.77-27.487 80.893-54.973 115.297-3.318 3.717-6.636 7.204-9.953 10.691-3.318 3.489-6.633 6.976-9.951 10.693-5.688 5.581-12.324 7.439-19.904 6.51-4.741 0-9.48-3.72-10.427-9.298-0.947-6.51-0.947-12.088 3.791-17.667 1.421-1.861 2.844-3.487 4.265-5.115 1.421-1.626 2.844-3.254 4.265-5.112 17.060-19.528 31.278-40.914 41.705-64.159 10.427-24.174 18.007-48.351 19.904-74.383 1.894-25.106 1.894-51.141-3.791-77.176-9.477-45.56-30.331-85.542-61.609-119.944-2.844-2.79-5.686-5.578-7.583-9.298-2.844-5.581-2.844-15.808 0.947-19.528 5.688-5.578 11.374-6.508 19.904-3.72 4.741 0.932 8.532 4.652 11.374 7.439 23.698 24.177 41.705 51.141 54.976 81.823zM234.15 587.791c0-4.649-1.896-10.227-5.687-13.947-12.322-13.947-22.748-29.755-30.331-46.49-6.635-13.947-10.426-28.826-12.322-43.702-1.896-11.156-1.896-21.386-1.896-32.543 0.948-36.262 12.322-69.737 35.070-98.56 2.843-3.72 6.635-8.369 9.478-12.088 4.739-6.508 5.687-13.018 4.739-21.386-0.948-5.578-5.687-8.369-11.374-9.298-7.582-0.929-13.27 0.929-18.957 5.578-5.687 6.51-12.322 13.018-17.061 20.457-18.009 26.035-30.33 54.858-35.070 86.472-0.948 10.23-3.791 21.386-3.791 31.613 0.948 38.124 8.531 74.386 29.383 107.858 7.582 11.159 14.217 22.316 23.696 32.545 3.791 3.717 7.583 6.508 13.27 8.369 13.27 3.717 20.852-1.861 20.852-14.879zM198.123 527.319c-6.635-13.949-10.426-28.826-12.322-43.702-1.896-11.159-1.896-21.386-1.896-32.543 0.948-36.265 12.322-69.737 35.070-98.56 1.422-1.861 3.081-3.953 4.739-6.044 1.659-2.094 3.317-4.186 4.739-6.044 4.739-6.51 5.687-13.018 4.739-21.386-0.948-5.578-5.687-8.369-11.374-9.298-7.582-0.929-13.27 0.929-18.957 5.578-1.46 1.672-2.983 3.343-4.521 5.030-4.449 4.884-9.018 9.897-12.54 15.427-18.009 26.035-30.331 54.858-35.070 86.472-0.373 4.024-1.039 8.189-1.71 12.388-1.035 6.474-2.082 13.020-2.082 19.226 0.948 38.124 8.53 74.386 29.383 107.858 1.631 2.401 3.218 4.8 4.8 7.191 5.769 8.724 11.457 17.326 18.896 25.352 3.791 3.72 7.583 6.51 13.27 8.369 13.27 3.72 20.852-1.859 20.852-14.876 0-4.649-1.896-10.227-5.687-13.947-12.322-13.947-22.748-29.755-30.331-46.49zM235.918 566.792c5.826 5.898 8.462 14.093 8.462 20.964 0 8.248-2.429 16.788-9.71 22.026-7.147 5.143-16.058 4.977-24.146 2.711l-0.211-0.059-0.208-0.069c-7.597-2.483-12.698-6.318-17.258-10.79l-0.174-0.172-0.166-0.179c-8.068-8.704-14.349-18.212-20.17-27.021-1.518-2.299-3.005-4.549-4.484-6.725l-0.114-0.169-0.108-0.174c-22.095-35.469-29.95-73.674-30.928-113.016h-0.003v-0.256c0-5.962 0.824-11.978 1.661-17.377 0.195-1.26 0.39-2.478 0.579-3.663 0.661-4.137 1.256-7.864 1.594-11.517l0.027-0.287 0.043-0.287c4.988-33.272 17.934-63.498 36.669-90.627 4.035-6.287 9.452-12.227 13.979-17.19 1.408-1.544 2.73-2.993 3.899-4.332l0.565-0.645 0.665-0.545c7.716-6.308 16.161-9.103 26.684-7.813l0.204 0.026 0.202 0.031c7.493 1.226 17.786 5.734 19.817 17.69l0.048 0.282 0.032 0.282c1.135 10.022 0.068 19.359-6.636 28.564l0.002 0.003-0.145 0.189c-1.477 1.933-3.181 4.083-4.814 6.141l-0.036 0.046c-1.673 2.109-3.272 4.127-4.628 5.901h0.001l-0.098 0.125c-21.273 26.954-31.951 58.22-32.868 92.352 0 11.197 0.028 20.552 1.751 30.692l0.036 0.21 0.027 0.21c1.79 14.047 5.338 27.83 11.411 40.596h0.002l0.079 0.174c7.092 15.654 16.868 30.523 28.468 43.699zM790.569 309.64c-9.477 0-15.165 4.649-15.165 13.949 0 6.508 1.897 13.015 6.636 18.596 20.851 23.245 35.069 51.139 40.758 81.823 4.739 23.245 3.791 46.49-0.95 69.734-6.633 27.896-18.007 53-36.964 75.315-4.739 5.578-10.427 12.088-9.48 20.457 0.95 12.086 8.532 17.667 19.907 13.947 5.686-1.861 10.424-4.649 14.216-9.298 18.957-22.316 34.122-47.421 42.652-76.244 4.741-15.808 8.53-31.613 8.53-48.351 0-8.369 0-17.667 0-26.035-0.947-21.386-5.686-41.841-13.268-61.366-7.583-21.386-19.904-39.982-34.122-58.578-1.894-2.79-4.739-5.581-7.583-8.369-4.739-3.72-9.477-5.581-15.165-5.581zM774.454 348.987c19.666 21.921 32.986 48.118 38.313 76.851l0.033 0.179c4.398 21.578 3.581 43.351-0.914 65.482-6.336 26.545-17.070 50.056-34.77 70.892-0.228 0.271-0.476 0.561-0.74 0.865-4.268 4.961-12.475 14.508-11.128 27.19 0.645 7.803 3.602 15.519 10.307 20.28 6.892 4.895 15.286 4.946 22.976 2.432 7.037-2.301 13.596-6.008 18.9-12.475 19.635-23.13 35.589-49.441 44.6-79.877 4.82-16.087 8.955-33.032 8.955-51.274v-26.26l-0.008-0.228c-1.001-22.574-5.993-44.078-13.901-64.481-8.092-22.748-21.089-42.248-35.43-61.025-2.465-3.548-5.837-6.853-8.374-9.341-0.113-0.11-0.223-0.218-0.33-0.323l-0.402-0.397-0.445-0.348c-6.249-4.905-13.161-7.764-21.489-7.764-6.269 0-12.846 1.531-17.951 6.085-5.302 4.726-7.455 11.302-7.455 18.102 0 8.568 2.537 17.533 9.070 25.226l0.182 0.21zM813.356 323.551c14.218 18.598 26.54 37.194 34.122 58.578 7.583 19.528 12.321 39.982 13.268 61.368v26.035c0 16.737-3.791 32.543-8.53 48.351-8.53 28.823-23.695 53.929-42.652 76.244-3.791 4.649-8.53 7.437-14.218 9.298-11.372 3.72-18.954-1.861-19.904-13.947-0.929-8.212 4.529-14.633 9.211-20.142 0.090-0.105 0.179-0.21 0.269-0.315 18.957-22.316 30.331-47.419 36.964-75.315 4.741-23.245 5.688-46.49 0.95-69.734-5.688-30.684-19.907-58.578-40.758-81.823-4.739-5.581-6.636-12.088-6.636-18.598 0-9.298 5.688-13.947 15.165-13.947 5.688 0 10.427 1.861 15.165 5.581 2.844 2.788 5.688 5.578 7.583 8.366z" />
<glyph unicode="&#xe919;" glyph-name="trash" d="M816.61 689.579h-154.402l-45.103 80.96c-6.362 11.566-18.795 18.794-32.098 18.794h-146.304c-13.301 0-25.445-7.229-32.096-18.794l-45.106-80.96h-154.402c-20.24 0-36.432-16.481-36.432-36.721s16.481-36.432 36.432-36.432h26.601l46.841-481.71c1.735-18.795 17.638-32.964 36.432-32.964h390.052c18.795 0 34.411 14.17 36.433 32.964l46.844 481.71h26.598c20.241 0 36.433 16.481 36.433 36.432-0.29 20.24-16.772 36.721-36.723 36.721zM460.386 716.18h103.228l14.746-26.601h-133.005l15.031 26.601zM673.485 174.903h-323.26l-43.083 441.522h409.137l-42.795-441.522zM649.673 668.246l-51.264 92.012c-2.53 4.602-7.71 7.742-13.402 7.742h-146.304c-5.393 0-10.569-2.902-13.543-7.994l-51.123-91.76h-166.938c-8.239 0-15.099-6.71-15.099-15.388 0-8.348 6.819-15.099 15.099-15.099h45.961l48.725-501.085c0.699-7.578 7.175-13.589 15.189-13.589h390.052c7.714 0 14.302 5.756 15.215 13.824l48.7 500.85h45.961c8.299 0 15.019 6.737 15.1 14.947-0.209 8.789-7.433 15.539-15.39 15.539h-166.938zM853.333 652.858c-0.29 20.24-16.772 36.721-36.723 36.721h-154.402l-45.103 80.96c-6.362 11.566-18.795 18.794-32.098 18.794h-146.304c-13.301 0-25.445-7.229-32.096-18.794l-45.106-80.96h-154.402c-20.24 0-36.432-16.481-36.432-36.721s16.481-36.432 36.432-36.432h26.601l46.841-481.71c1.735-18.795 17.638-32.964 36.432-32.964h390.052c18.795 0 34.411 14.17 36.433 32.964l46.844 481.71h26.598c20.241 0 36.433 16.481 36.433 36.432zM447.94 737.513h128.239l38.396-69.268h-205.786l39.151 69.268zM692.851 153.57h-361.98l-47.246 484.189h456.154l-46.929-484.189zM460.386 716.18h103.228l14.746-26.601h-133.005l15.031 26.601zM716.279 616.426l-42.795-441.522h-323.26l-43.083 441.522h409.137zM402.345 261.431c0.867-19.665 17.059-34.987 36.431-34.987 0.58 0 1.156 0 1.737 0 20.241 0.866 35.853 17.924 34.987 38.165l-12.143 268.036c-0.87 20.239-17.929 35.853-38.168 34.986-20.24-0.578-35.854-17.927-34.986-37.879l12.144-268.322zM423.658 262.37c0.364-8.239 7.148-14.592 15.118-14.592h1.148c8.252 0.542 14.609 7.526 14.263 15.898 0 0.009 0-0.009 0 0l-12.147 268.058c-0.358 8.433-7.437 14.95-15.939 14.585l-0.304-0.013c-8.024-0.229-14.639-7.248-14.283-15.609 0-0.004 0 0.004 0 0l12.144-268.326zM390.201 529.754c-0.867 19.952 14.746 37.3 34.986 37.879 20.24 0.867 37.298-14.746 38.168-34.986l12.143-268.036c0.866-20.241-14.746-37.299-34.987-38.165h-1.737c-19.371 0-35.563 15.322-36.431 34.987l-12.144 268.322zM583.27 226.778c0.58 0 1.156 0 1.737 0 19.371 0 35.563 15.326 36.429 34.987l12.147 268.036c0.866 20.238-14.746 37.297-34.987 38.165s-37.299-14.746-38.17-34.986l-12.143-268.036c-0.866-20.241 14.746-37.299 34.987-38.165zM560.427 532.979c0.87 20.24 17.929 35.854 38.17 34.986s35.853-17.927 34.987-38.165l-12.147-268.036c-0.866-19.661-17.058-34.987-36.429-34.987h-1.737c-20.241 0.866-35.853 17.924-34.987 38.165l12.143 268.036zM612.267 530.735c0.004 0.004 0-0.009 0 0 0.354 8.492-6.157 15.556-14.583 15.917-8.503 0.364-15.578-6.152-15.94-14.586l-0.004-0.051-12.139-267.985c0-0.004 0 0.009 0 0-0.35-8.371 5.973-15.377 14.225-15.919h1.143c7.974 0 14.793 6.353 15.155 14.592l12.143 268.032z" />
<glyph unicode="&#xe91a;" glyph-name="trash-filled" d="M816.61 689.579h-154.402l-45.103 80.96c-6.362 11.566-18.795 18.794-32.098 18.794h-146.304c-13.301 0-25.445-7.229-32.096-18.794l-45.106-80.96h-154.402c-20.24 0-36.432-16.481-36.432-36.721s16.481-36.432 36.432-36.432h26.601l46.841-481.71c1.735-18.795 17.638-32.964 36.432-32.964h390.052c18.795 0 34.411 14.17 36.433 32.964l46.844 481.71h26.598c20.241 0 36.433 16.481 36.433 36.432-0.29 20.24-16.772 36.721-36.723 36.721zM460.386 716.18h103.228l14.746-26.601h-133.005l15.031 26.601zM649.673 668.246l-51.264 92.012c-2.53 4.602-7.71 7.742-13.402 7.742h-146.304c-5.393 0-10.569-2.903-13.544-7.995l-51.123-91.759h-166.937c-8.239 0-15.099-6.71-15.099-15.388 0-8.348 6.819-15.099 15.099-15.099h45.961l48.725-501.085c0.699-7.578 7.175-13.589 15.189-13.589h390.052c7.714 0 14.302 5.756 15.215 13.824l48.7 500.85h45.961c8.299 0 15.019 6.737 15.1 14.947-0.209 8.789-7.433 15.539-15.39 15.539h-166.938zM853.333 652.858c0-19.951-16.192-36.432-36.433-36.432h-26.598l-46.844-481.71c-2.022-18.795-17.638-32.964-36.433-32.964h-390.052c-18.795 0-34.697 14.17-36.432 32.964l-46.841 481.71h-26.601c-19.951 0-36.432 16.192-36.432 36.432s16.192 36.721 36.432 36.721h154.402l45.106 80.96c6.65 11.566 18.794 18.794 32.096 18.794h146.304c13.303 0 25.737-7.229 32.098-18.794l45.103-80.96h154.402c19.951 0 36.433-16.481 36.723-36.721zM447.94 737.513h128.239l38.396-69.268h-205.786l39.151 69.268zM460.386 716.18h103.228l14.746-26.601h-133.005l15.031 26.601zM402.345 261.431c0.867-19.665 17.059-34.987 36.431-34.987 0.58 0 1.156 0 1.737 0 20.241 0.866 35.853 17.924 34.987 38.165l-12.143 268.036c-0.87 20.239-17.929 35.853-38.168 34.986-20.24-0.578-35.854-17.927-34.986-37.879l12.144-268.322zM423.658 262.37c0.364-8.239 7.148-14.592 15.118-14.592h1.148c8.252 0.542 14.609 7.526 14.263 15.898 0 0.009 0-0.009 0 0l-12.147 268.058c-0.358 8.433-7.437 14.95-15.939 14.585l-0.304-0.013c-8.024-0.229-14.639-7.248-14.283-15.609 0-0.004 0 0.004 0 0l12.144-268.326zM390.201 529.754c-0.867 19.952 14.746 37.3 34.986 37.879 20.24 0.867 37.298-14.746 38.168-34.986l12.143-268.036c0.866-20.241-14.746-37.299-34.987-38.165h-1.737c-19.371 0-35.563 15.322-36.431 34.987l-12.144 268.322zM583.27 226.778c0.58 0 1.156 0 1.737 0 19.371 0 35.563 15.326 36.429 34.987l12.147 268.036c0.866 20.238-14.746 37.297-34.987 38.165s-37.299-14.746-38.17-34.986l-12.143-268.036c-0.866-20.241 14.746-37.299 34.987-38.165zM560.427 532.979c0.87 20.24 17.929 35.854 38.17 34.986s35.853-17.927 34.987-38.165l-12.147-268.036c-0.866-19.661-17.058-34.987-36.429-34.987h-1.737c-20.241 0.866-35.853 17.924-34.987 38.165l12.143 268.036zM612.267 530.735c0.004 0.004 0-0.009 0 0 0.354 8.492-6.157 15.556-14.583 15.917-8.503 0.364-15.578-6.152-15.94-14.586l-0.004-0.051-12.139-267.985c0-0.004 0 0.009 0 0-0.35-8.371 5.973-15.377 14.225-15.919h1.143c7.974 0 14.793 6.353 15.155 14.592l12.143 268.032z" />
<glyph unicode="&#xe91b;" glyph-name="user" d="M611.027 420.23c67.171 38.906 111.952 110.237 111.952 191.293 0 119.966-95.958 220.477-217.51 220.477-121.549 0-214.31-97.269-214.31-220.477 0-84.298 44.78-155.629 111.955-191.293-121.551-45.392-211.114-162.115-211.114-301.533 0-12.97 9.596-22.698 22.391-22.698h585.356c12.797 0 22.39 9.728 22.39 22.698 3.2 139.418-86.365 259.382-211.11 301.533z" />
<glyph unicode="&#xe91c;" glyph-name="user-stroke" d="M516.48 397.288l-110.181 59.201c-66.156 35.546-112.432 107.737-112.432 196.762 0 131.374 95.646 227.979 215.877 227.979 120.99 0 220.274-101.909 220.274-227.979 0-83.319-45.426-157.424-114.983-198.194l-98.555-57.769zM506.13 354.712l123.253-42.143c126.109-43.12 220.713-158.63 235.159-297.8h-704.012c17.698 138.461 112.152 251.72 236.333 298.649l109.266 41.294zM725.608 443.638c51.702 55.257 83.18 128.975 83.18 209.614 0 166.907-131.931 306.749-299.043 306.749s-294.646-135.33-294.646-306.749c0-83.349 31.093-157.585 82.23-211.376 20.822-21.903 44.967-40.416 71.689-54.774-28.736-10.859-56.171-24.654-81.903-41.038-123.916-78.899-208.345-217.866-208.345-378.485 0-18.046 13.193-31.579 30.784-31.579h804.776c17.597 0 30.791 13.533 30.791 31.579 3.647 161.044-80.614 303.438-207.484 380.7-25.937 15.796-53.656 28.869-82.768 38.823 26.317 15.426 50.134 34.515 70.739 56.537z" />
<glyph unicode="&#xe91d;" glyph-name="visible" d="M37.197 394.387c3.536 3.978 39.332 44.637 101.644 89.712l-52.59 91.037c-6.187 10.608-2.652 23.866 7.955 30.051 10.606 6.189 24.306 2.653 30.051-7.952l51.264-88.387c23.864 15.027 49.938 29.61 79.105 43.309l-35.796 98.551c-3.978 11.49 1.768 24.306 13.258 28.284s24.306-1.768 28.283-13.258l35.355-96.341c23.864 9.28 49.496 17.235 76.011 23.866l-18.118 102.969c-2.208 11.932 5.744 23.422 18.118 25.632 11.933 2.21 23.424-5.745 25.632-18.119l18.118-102.085c23.866 3.978 48.614 6.627 74.246 7.51v104.739c0 12.374 9.722 22.097 22.096 22.097s22.096-9.723 22.096-22.097v-104.294c25.632-0.886 50.381-3.536 74.685-7.514l17.68 102.085c2.208 11.932 13.699 19.887 25.632 18.119 11.93-2.21 19.885-13.7 18.118-25.632l-18.118-102.969c26.957-6.63 52.147-14.586 76.010-23.866l34.912 96.341c4.419 11.49 16.794 17.235 28.285 13.258s17.235-16.793 13.258-28.284l-35.795-98.551c29.168-13.258 55.683-28.282 79.104-43.309l51.264 87.946c6.189 10.605 19.446 14.141 30.051 7.952 10.608-6.186 14.144-19.443 7.955-30.051l-52.147-91.037c62.31-45.075 98.109-85.734 101.645-89.712 7.069-8.397 7.069-20.771 0-28.723-7.514-8.842-189.149-214.781-472.867-215.664-0.442 0-0.883 0-1.325 0s-0.883 0-1.325 0c-284.162 0.883-465.353 206.822-472.866 215.664-7.955 8.394-7.955 20.326-0.884 28.723zM511.83 194.195c102.528 0 185.61 83.523 185.61 185.61s-83.523 185.61-185.61 185.61c-102.528 0-185.61-83.523-185.61-185.61s83.082-185.61 185.61-185.61zM677.11 539.782c40.218-41.542 64.966-97.667 64.966-159.978 0-61.872-24.749-118.438-64.522-159.536 133.904 42.867 228.035 126.39 261.622 159.978-33.587 33.587-127.277 117.11-262.067 159.536zM346.547 220.269c-40.214 41.539-64.962 97.664-64.962 159.978 0 61.869 24.748 118.438 64.521 159.536-134.346-42.867-228.035-126.39-262.063-159.536 34.47-34.029 128.16-117.555 262.505-159.978z" />
<glyph unicode="&#xe91e;" glyph-name="wiper" d="M665.974 734.053v33.582h32.109v33.582h-28.896v30.783h-327.514c-28.898 0-28.898-95.148 0-95.148 80.272 0 105.958-33.582 54.586-142.724-28.899-61.565-67.43-69.962-67.43-106.342 0-33.581-3.21-307.83-3.21-341.414 0-33.581 6.422-50.371 35.322-50.371 28.896 0 211.917 0 260.080 0 48.166 0 38.531 13.994 38.531 53.171s3.213 131.53 3.213 187.498c0 55.971-25.686 72.762-51.376 100.746-25.686 27.984-38.531 41.978-77.062 81.155-32.109 33.584-48.163 58.768-48.163 97.949 0 55.968 32.109 55.968 67.43 19.587 32.109-30.784 67.427-64.365 99.539-103.542 32.109-39.178 35.318 27.984 22.477 41.978-64.221 81.155-122.016 111.938-122.016 145.52 6.422 25.186 112.381 13.992 112.381 13.992z" />
</font>
</defs>
</svg>
